<?xml version="1.0" encoding="utf-8" standalone="no"?>
<!DOCTYPE svg PUBLIC "-//W3C//DTD SVG 1.1//EN"
  "http://www.w3.org/Graphics/SVG/1.1/DTD/svg11.dtd">
<svg xmlns:xlink="http://www.w3.org/1999/xlink" width="720pt" height="432pt" viewBox="0 0 720 432" xmlns="http://www.w3.org/2000/svg" version="1.1">
 <metadata>
  <rdf:RDF xmlns:dc="http://purl.org/dc/elements/1.1/" xmlns:cc="http://creativecommons.org/ns#" xmlns:rdf="http://www.w3.org/1999/02/22-rdf-syntax-ns#">
   <cc:Work>
    <dc:type rdf:resource="http://purl.org/dc/dcmitype/StillImage"/>
    <dc:date>2024-07-02T11:52:34.038937</dc:date>
    <dc:format>image/svg+xml</dc:format>
    <dc:creator>
     <cc:Agent>
      <dc:title>Matplotlib v3.9.0, https://matplotlib.org/</dc:title>
     </cc:Agent>
    </dc:creator>
   </cc:Work>
  </rdf:RDF>
 </metadata>
 <defs>
  <style type="text/css">*{stroke-linejoin: round; stroke-linecap: butt}</style>
 </defs>
 <g id="figure_1">
  <g id="patch_1">
   <path d="M 0 432 
L 720 432 
L 720 0 
L 0 0 
z
" style="fill: #ffffff"/>
  </g>
  <g id="axes_1">
   <g id="patch_2">
    <path d="M 106.22 390.04 
L 709.2 390.04 
L 709.2 26.88 
L 106.22 26.88 
z
" style="fill: #ffffff"/>
   </g>
   <g id="matplotlib.axis_1">
    <g id="xtick_1">
     <g id="line2d_1">
      <path d="M 133.628182 390.04 
L 133.628182 26.88 
" clip-path="url(#p7e30c4a047)" style="fill: none; stroke: #b0b0b0; stroke-width: 0.8; stroke-linecap: square"/>
     </g>
     <g id="line2d_2">
      <defs>
       <path id="m41976b1ab4" d="M 0 0 
L 0 3.5 
" style="stroke: #000000; stroke-width: 0.8"/>
      </defs>
      <g>
       <use xlink:href="#m41976b1ab4" x="133.628182" y="390.04" style="stroke: #000000; stroke-width: 0.8"/>
      </g>
     </g>
     <g id="text_1">
      <!-- 0.000000e+00 -->
      <g transform="translate(96.141463 404.638438) scale(0.1 -0.1)">
       <defs>
        <path id="DejaVuSans-30" d="M 2034 4250 
Q 1547 4250 1301 3770 
Q 1056 3291 1056 2328 
Q 1056 1369 1301 889 
Q 1547 409 2034 409 
Q 2525 409 2770 889 
Q 3016 1369 3016 2328 
Q 3016 3291 2770 3770 
Q 2525 4250 2034 4250 
z
M 2034 4750 
Q 2819 4750 3233 4129 
Q 3647 3509 3647 2328 
Q 3647 1150 3233 529 
Q 2819 -91 2034 -91 
Q 1250 -91 836 529 
Q 422 1150 422 2328 
Q 422 3509 836 4129 
Q 1250 4750 2034 4750 
z
" transform="scale(0.015625)"/>
        <path id="DejaVuSans-2e" d="M 684 794 
L 1344 794 
L 1344 0 
L 684 0 
L 684 794 
z
" transform="scale(0.015625)"/>
        <path id="DejaVuSans-65" d="M 3597 1894 
L 3597 1613 
L 953 1613 
Q 991 1019 1311 708 
Q 1631 397 2203 397 
Q 2534 397 2845 478 
Q 3156 559 3463 722 
L 3463 178 
Q 3153 47 2828 -22 
Q 2503 -91 2169 -91 
Q 1331 -91 842 396 
Q 353 884 353 1716 
Q 353 2575 817 3079 
Q 1281 3584 2069 3584 
Q 2775 3584 3186 3129 
Q 3597 2675 3597 1894 
z
M 3022 2063 
Q 3016 2534 2758 2815 
Q 2500 3097 2075 3097 
Q 1594 3097 1305 2825 
Q 1016 2553 972 2059 
L 3022 2063 
z
" transform="scale(0.015625)"/>
        <path id="DejaVuSans-2b" d="M 2944 4013 
L 2944 2272 
L 4684 2272 
L 4684 1741 
L 2944 1741 
L 2944 0 
L 2419 0 
L 2419 1741 
L 678 1741 
L 678 2272 
L 2419 2272 
L 2419 4013 
L 2944 4013 
z
" transform="scale(0.015625)"/>
       </defs>
       <use xlink:href="#DejaVuSans-30"/>
       <use xlink:href="#DejaVuSans-2e" x="63.623047"/>
       <use xlink:href="#DejaVuSans-30" x="95.410156"/>
       <use xlink:href="#DejaVuSans-30" x="159.033203"/>
       <use xlink:href="#DejaVuSans-30" x="222.65625"/>
       <use xlink:href="#DejaVuSans-30" x="286.279297"/>
       <use xlink:href="#DejaVuSans-30" x="349.902344"/>
       <use xlink:href="#DejaVuSans-30" x="413.525391"/>
       <use xlink:href="#DejaVuSans-65" x="477.148438"/>
       <use xlink:href="#DejaVuSans-2b" x="538.671875"/>
       <use xlink:href="#DejaVuSans-30" x="622.460938"/>
       <use xlink:href="#DejaVuSans-30" x="686.083984"/>
      </g>
     </g>
    </g>
    <g id="xtick_2">
     <g id="line2d_3">
      <path d="M 200.206761 390.04 
L 200.206761 26.88 
" clip-path="url(#p7e30c4a047)" style="fill: none; stroke: #b0b0b0; stroke-width: 0.8; stroke-linecap: square"/>
     </g>
     <g id="line2d_4">
      <g>
       <use xlink:href="#m41976b1ab4" x="200.206761" y="390.04" style="stroke: #000000; stroke-width: 0.8"/>
      </g>
     </g>
     <g id="text_2">
      <!-- 1.209464e-08 -->
      <g transform="translate(165.10598 404.638438) scale(0.1 -0.1)">
       <defs>
        <path id="DejaVuSans-31" d="M 794 531 
L 1825 531 
L 1825 4091 
L 703 3866 
L 703 4441 
L 1819 4666 
L 2450 4666 
L 2450 531 
L 3481 531 
L 3481 0 
L 794 0 
L 794 531 
z
" transform="scale(0.015625)"/>
        <path id="DejaVuSans-32" d="M 1228 531 
L 3431 531 
L 3431 0 
L 469 0 
L 469 531 
Q 828 903 1448 1529 
Q 2069 2156 2228 2338 
Q 2531 2678 2651 2914 
Q 2772 3150 2772 3378 
Q 2772 3750 2511 3984 
Q 2250 4219 1831 4219 
Q 1534 4219 1204 4116 
Q 875 4013 500 3803 
L 500 4441 
Q 881 4594 1212 4672 
Q 1544 4750 1819 4750 
Q 2544 4750 2975 4387 
Q 3406 4025 3406 3419 
Q 3406 3131 3298 2873 
Q 3191 2616 2906 2266 
Q 2828 2175 2409 1742 
Q 1991 1309 1228 531 
z
" transform="scale(0.015625)"/>
        <path id="DejaVuSans-39" d="M 703 97 
L 703 672 
Q 941 559 1184 500 
Q 1428 441 1663 441 
Q 2288 441 2617 861 
Q 2947 1281 2994 2138 
Q 2813 1869 2534 1725 
Q 2256 1581 1919 1581 
Q 1219 1581 811 2004 
Q 403 2428 403 3163 
Q 403 3881 828 4315 
Q 1253 4750 1959 4750 
Q 2769 4750 3195 4129 
Q 3622 3509 3622 2328 
Q 3622 1225 3098 567 
Q 2575 -91 1691 -91 
Q 1453 -91 1209 -44 
Q 966 3 703 97 
z
M 1959 2075 
Q 2384 2075 2632 2365 
Q 2881 2656 2881 3163 
Q 2881 3666 2632 3958 
Q 2384 4250 1959 4250 
Q 1534 4250 1286 3958 
Q 1038 3666 1038 3163 
Q 1038 2656 1286 2365 
Q 1534 2075 1959 2075 
z
" transform="scale(0.015625)"/>
        <path id="DejaVuSans-34" d="M 2419 4116 
L 825 1625 
L 2419 1625 
L 2419 4116 
z
M 2253 4666 
L 3047 4666 
L 3047 1625 
L 3713 1625 
L 3713 1100 
L 3047 1100 
L 3047 0 
L 2419 0 
L 2419 1100 
L 313 1100 
L 313 1709 
L 2253 4666 
z
" transform="scale(0.015625)"/>
        <path id="DejaVuSans-36" d="M 2113 2584 
Q 1688 2584 1439 2293 
Q 1191 2003 1191 1497 
Q 1191 994 1439 701 
Q 1688 409 2113 409 
Q 2538 409 2786 701 
Q 3034 994 3034 1497 
Q 3034 2003 2786 2293 
Q 2538 2584 2113 2584 
z
M 3366 4563 
L 3366 3988 
Q 3128 4100 2886 4159 
Q 2644 4219 2406 4219 
Q 1781 4219 1451 3797 
Q 1122 3375 1075 2522 
Q 1259 2794 1537 2939 
Q 1816 3084 2150 3084 
Q 2853 3084 3261 2657 
Q 3669 2231 3669 1497 
Q 3669 778 3244 343 
Q 2819 -91 2113 -91 
Q 1303 -91 875 529 
Q 447 1150 447 2328 
Q 447 3434 972 4092 
Q 1497 4750 2381 4750 
Q 2619 4750 2861 4703 
Q 3103 4656 3366 4563 
z
" transform="scale(0.015625)"/>
        <path id="DejaVuSans-2d" d="M 313 2009 
L 1997 2009 
L 1997 1497 
L 313 1497 
L 313 2009 
z
" transform="scale(0.015625)"/>
        <path id="DejaVuSans-38" d="M 2034 2216 
Q 1584 2216 1326 1975 
Q 1069 1734 1069 1313 
Q 1069 891 1326 650 
Q 1584 409 2034 409 
Q 2484 409 2743 651 
Q 3003 894 3003 1313 
Q 3003 1734 2745 1975 
Q 2488 2216 2034 2216 
z
M 1403 2484 
Q 997 2584 770 2862 
Q 544 3141 544 3541 
Q 544 4100 942 4425 
Q 1341 4750 2034 4750 
Q 2731 4750 3128 4425 
Q 3525 4100 3525 3541 
Q 3525 3141 3298 2862 
Q 3072 2584 2669 2484 
Q 3125 2378 3379 2068 
Q 3634 1759 3634 1313 
Q 3634 634 3220 271 
Q 2806 -91 2034 -91 
Q 1263 -91 848 271 
Q 434 634 434 1313 
Q 434 1759 690 2068 
Q 947 2378 1403 2484 
z
M 1172 3481 
Q 1172 3119 1398 2916 
Q 1625 2713 2034 2713 
Q 2441 2713 2670 2916 
Q 2900 3119 2900 3481 
Q 2900 3844 2670 4047 
Q 2441 4250 2034 4250 
Q 1625 4250 1398 4047 
Q 1172 3844 1172 3481 
z
" transform="scale(0.015625)"/>
       </defs>
       <use xlink:href="#DejaVuSans-31"/>
       <use xlink:href="#DejaVuSans-2e" x="63.623047"/>
       <use xlink:href="#DejaVuSans-32" x="95.410156"/>
       <use xlink:href="#DejaVuSans-30" x="159.033203"/>
       <use xlink:href="#DejaVuSans-39" x="222.65625"/>
       <use xlink:href="#DejaVuSans-34" x="286.279297"/>
       <use xlink:href="#DejaVuSans-36" x="349.902344"/>
       <use xlink:href="#DejaVuSans-34" x="413.525391"/>
       <use xlink:href="#DejaVuSans-65" x="477.148438"/>
       <use xlink:href="#DejaVuSans-2d" x="538.671875"/>
       <use xlink:href="#DejaVuSans-30" x="574.755859"/>
       <use xlink:href="#DejaVuSans-38" x="638.378906"/>
      </g>
     </g>
    </g>
    <g id="xtick_3">
     <g id="line2d_5">
      <path d="M 266.78534 390.04 
L 266.78534 26.88 
" clip-path="url(#p7e30c4a047)" style="fill: none; stroke: #b0b0b0; stroke-width: 0.8; stroke-linecap: square"/>
     </g>
     <g id="line2d_6">
      <g>
       <use xlink:href="#m41976b1ab4" x="266.78534" y="390.04" style="stroke: #000000; stroke-width: 0.8"/>
      </g>
     </g>
     <g id="text_3">
      <!-- 2.500000e-08 -->
      <g transform="translate(231.684559 404.638438) scale(0.1 -0.1)">
       <defs>
        <path id="DejaVuSans-35" d="M 691 4666 
L 3169 4666 
L 3169 4134 
L 1269 4134 
L 1269 2991 
Q 1406 3038 1543 3061 
Q 1681 3084 1819 3084 
Q 2600 3084 3056 2656 
Q 3513 2228 3513 1497 
Q 3513 744 3044 326 
Q 2575 -91 1722 -91 
Q 1428 -91 1123 -41 
Q 819 9 494 109 
L 494 744 
Q 775 591 1075 516 
Q 1375 441 1709 441 
Q 2250 441 2565 725 
Q 2881 1009 2881 1497 
Q 2881 1984 2565 2268 
Q 2250 2553 1709 2553 
Q 1456 2553 1204 2497 
Q 953 2441 691 2322 
L 691 4666 
z
" transform="scale(0.015625)"/>
       </defs>
       <use xlink:href="#DejaVuSans-32"/>
       <use xlink:href="#DejaVuSans-2e" x="63.623047"/>
       <use xlink:href="#DejaVuSans-35" x="95.410156"/>
       <use xlink:href="#DejaVuSans-30" x="159.033203"/>
       <use xlink:href="#DejaVuSans-30" x="222.65625"/>
       <use xlink:href="#DejaVuSans-30" x="286.279297"/>
       <use xlink:href="#DejaVuSans-30" x="349.902344"/>
       <use xlink:href="#DejaVuSans-30" x="413.525391"/>
       <use xlink:href="#DejaVuSans-65" x="477.148438"/>
       <use xlink:href="#DejaVuSans-2d" x="538.671875"/>
       <use xlink:href="#DejaVuSans-30" x="574.755859"/>
       <use xlink:href="#DejaVuSans-38" x="638.378906"/>
      </g>
     </g>
    </g>
    <g id="xtick_4">
     <g id="line2d_7">
      <path d="M 333.36392 390.04 
L 333.36392 26.88 
" clip-path="url(#p7e30c4a047)" style="fill: none; stroke: #b0b0b0; stroke-width: 0.8; stroke-linecap: square"/>
     </g>
     <g id="line2d_8">
      <g>
       <use xlink:href="#m41976b1ab4" x="333.36392" y="390.04" style="stroke: #000000; stroke-width: 0.8"/>
      </g>
     </g>
     <g id="text_4">
      <!-- 3.700033e-08 -->
      <g transform="translate(298.263139 404.638438) scale(0.1 -0.1)">
       <defs>
        <path id="DejaVuSans-33" d="M 2597 2516 
Q 3050 2419 3304 2112 
Q 3559 1806 3559 1356 
Q 3559 666 3084 287 
Q 2609 -91 1734 -91 
Q 1441 -91 1130 -33 
Q 819 25 488 141 
L 488 750 
Q 750 597 1062 519 
Q 1375 441 1716 441 
Q 2309 441 2620 675 
Q 2931 909 2931 1356 
Q 2931 1769 2642 2001 
Q 2353 2234 1838 2234 
L 1294 2234 
L 1294 2753 
L 1863 2753 
Q 2328 2753 2575 2939 
Q 2822 3125 2822 3475 
Q 2822 3834 2567 4026 
Q 2313 4219 1838 4219 
Q 1578 4219 1281 4162 
Q 984 4106 628 3988 
L 628 4550 
Q 988 4650 1302 4700 
Q 1616 4750 1894 4750 
Q 2613 4750 3031 4423 
Q 3450 4097 3450 3541 
Q 3450 3153 3228 2886 
Q 3006 2619 2597 2516 
z
" transform="scale(0.015625)"/>
        <path id="DejaVuSans-37" d="M 525 4666 
L 3525 4666 
L 3525 4397 
L 1831 0 
L 1172 0 
L 2766 4134 
L 525 4134 
L 525 4666 
z
" transform="scale(0.015625)"/>
       </defs>
       <use xlink:href="#DejaVuSans-33"/>
       <use xlink:href="#DejaVuSans-2e" x="63.623047"/>
       <use xlink:href="#DejaVuSans-37" x="95.410156"/>
       <use xlink:href="#DejaVuSans-30" x="159.033203"/>
       <use xlink:href="#DejaVuSans-30" x="222.65625"/>
       <use xlink:href="#DejaVuSans-30" x="286.279297"/>
       <use xlink:href="#DejaVuSans-33" x="349.902344"/>
       <use xlink:href="#DejaVuSans-33" x="413.525391"/>
       <use xlink:href="#DejaVuSans-65" x="477.148438"/>
       <use xlink:href="#DejaVuSans-2d" x="538.671875"/>
       <use xlink:href="#DejaVuSans-30" x="574.755859"/>
       <use xlink:href="#DejaVuSans-38" x="638.378906"/>
      </g>
     </g>
    </g>
    <g id="xtick_5">
     <g id="line2d_9">
      <path d="M 399.942499 390.04 
L 399.942499 26.88 
" clip-path="url(#p7e30c4a047)" style="fill: none; stroke: #b0b0b0; stroke-width: 0.8; stroke-linecap: square"/>
     </g>
     <g id="line2d_10">
      <g>
       <use xlink:href="#m41976b1ab4" x="399.942499" y="390.04" style="stroke: #000000; stroke-width: 0.8"/>
      </g>
     </g>
     <g id="text_5">
      <!-- 5.003826e-08 -->
      <g transform="translate(364.841718 404.638438) scale(0.1 -0.1)">
       <use xlink:href="#DejaVuSans-35"/>
       <use xlink:href="#DejaVuSans-2e" x="63.623047"/>
       <use xlink:href="#DejaVuSans-30" x="95.410156"/>
       <use xlink:href="#DejaVuSans-30" x="159.033203"/>
       <use xlink:href="#DejaVuSans-33" x="222.65625"/>
       <use xlink:href="#DejaVuSans-38" x="286.279297"/>
       <use xlink:href="#DejaVuSans-32" x="349.902344"/>
       <use xlink:href="#DejaVuSans-36" x="413.525391"/>
       <use xlink:href="#DejaVuSans-65" x="477.148438"/>
       <use xlink:href="#DejaVuSans-2d" x="538.671875"/>
       <use xlink:href="#DejaVuSans-30" x="574.755859"/>
       <use xlink:href="#DejaVuSans-38" x="638.378906"/>
      </g>
     </g>
    </g>
    <g id="xtick_6">
     <g id="line2d_11">
      <path d="M 466.521078 390.04 
L 466.521078 26.88 
" clip-path="url(#p7e30c4a047)" style="fill: none; stroke: #b0b0b0; stroke-width: 0.8; stroke-linecap: square"/>
     </g>
     <g id="line2d_12">
      <g>
       <use xlink:href="#m41976b1ab4" x="466.521078" y="390.04" style="stroke: #000000; stroke-width: 0.8"/>
      </g>
     </g>
     <g id="text_6">
      <!-- 6.066598e-08 -->
      <g transform="translate(431.420297 404.638438) scale(0.1 -0.1)">
       <use xlink:href="#DejaVuSans-36"/>
       <use xlink:href="#DejaVuSans-2e" x="63.623047"/>
       <use xlink:href="#DejaVuSans-30" x="95.410156"/>
       <use xlink:href="#DejaVuSans-36" x="159.033203"/>
       <use xlink:href="#DejaVuSans-36" x="222.65625"/>
       <use xlink:href="#DejaVuSans-35" x="286.279297"/>
       <use xlink:href="#DejaVuSans-39" x="349.902344"/>
       <use xlink:href="#DejaVuSans-38" x="413.525391"/>
       <use xlink:href="#DejaVuSans-65" x="477.148438"/>
       <use xlink:href="#DejaVuSans-2d" x="538.671875"/>
       <use xlink:href="#DejaVuSans-30" x="574.755859"/>
       <use xlink:href="#DejaVuSans-38" x="638.378906"/>
      </g>
     </g>
    </g>
    <g id="xtick_7">
     <g id="line2d_13">
      <path d="M 533.099658 390.04 
L 533.099658 26.88 
" clip-path="url(#p7e30c4a047)" style="fill: none; stroke: #b0b0b0; stroke-width: 0.8; stroke-linecap: square"/>
     </g>
     <g id="line2d_14">
      <g>
       <use xlink:href="#m41976b1ab4" x="533.099658" y="390.04" style="stroke: #000000; stroke-width: 0.8"/>
      </g>
     </g>
     <g id="text_7">
      <!-- 7.211743e-08 -->
      <g transform="translate(497.998876 404.638438) scale(0.1 -0.1)">
       <use xlink:href="#DejaVuSans-37"/>
       <use xlink:href="#DejaVuSans-2e" x="63.623047"/>
       <use xlink:href="#DejaVuSans-32" x="95.410156"/>
       <use xlink:href="#DejaVuSans-31" x="159.033203"/>
       <use xlink:href="#DejaVuSans-31" x="222.65625"/>
       <use xlink:href="#DejaVuSans-37" x="286.279297"/>
       <use xlink:href="#DejaVuSans-34" x="349.902344"/>
       <use xlink:href="#DejaVuSans-33" x="413.525391"/>
       <use xlink:href="#DejaVuSans-65" x="477.148438"/>
       <use xlink:href="#DejaVuSans-2d" x="538.671875"/>
       <use xlink:href="#DejaVuSans-30" x="574.755859"/>
       <use xlink:href="#DejaVuSans-38" x="638.378906"/>
      </g>
     </g>
    </g>
    <g id="xtick_8">
     <g id="line2d_15">
      <path d="M 599.678237 390.04 
L 599.678237 26.88 
" clip-path="url(#p7e30c4a047)" style="fill: none; stroke: #b0b0b0; stroke-width: 0.8; stroke-linecap: square"/>
     </g>
     <g id="line2d_16">
      <g>
       <use xlink:href="#m41976b1ab4" x="599.678237" y="390.04" style="stroke: #000000; stroke-width: 0.8"/>
      </g>
     </g>
     <g id="text_8">
      <!-- 8.500000e-08 -->
      <g transform="translate(564.577456 404.638438) scale(0.1 -0.1)">
       <use xlink:href="#DejaVuSans-38"/>
       <use xlink:href="#DejaVuSans-2e" x="63.623047"/>
       <use xlink:href="#DejaVuSans-35" x="95.410156"/>
       <use xlink:href="#DejaVuSans-30" x="159.033203"/>
       <use xlink:href="#DejaVuSans-30" x="222.65625"/>
       <use xlink:href="#DejaVuSans-30" x="286.279297"/>
       <use xlink:href="#DejaVuSans-30" x="349.902344"/>
       <use xlink:href="#DejaVuSans-30" x="413.525391"/>
       <use xlink:href="#DejaVuSans-65" x="477.148438"/>
       <use xlink:href="#DejaVuSans-2d" x="538.671875"/>
       <use xlink:href="#DejaVuSans-30" x="574.755859"/>
       <use xlink:href="#DejaVuSans-38" x="638.378906"/>
      </g>
     </g>
    </g>
    <g id="xtick_9">
     <g id="line2d_17">
      <path d="M 666.256816 390.04 
L 666.256816 26.88 
" clip-path="url(#p7e30c4a047)" style="fill: none; stroke: #b0b0b0; stroke-width: 0.8; stroke-linecap: square"/>
     </g>
     <g id="line2d_18">
      <g>
       <use xlink:href="#m41976b1ab4" x="666.256816" y="390.04" style="stroke: #000000; stroke-width: 0.8"/>
      </g>
     </g>
     <g id="text_9">
      <!-- 9.700033e-08 -->
      <g transform="translate(631.156035 404.638438) scale(0.1 -0.1)">
       <use xlink:href="#DejaVuSans-39"/>
       <use xlink:href="#DejaVuSans-2e" x="63.623047"/>
       <use xlink:href="#DejaVuSans-37" x="95.410156"/>
       <use xlink:href="#DejaVuSans-30" x="159.033203"/>
       <use xlink:href="#DejaVuSans-30" x="222.65625"/>
       <use xlink:href="#DejaVuSans-30" x="286.279297"/>
       <use xlink:href="#DejaVuSans-33" x="349.902344"/>
       <use xlink:href="#DejaVuSans-33" x="413.525391"/>
       <use xlink:href="#DejaVuSans-65" x="477.148438"/>
       <use xlink:href="#DejaVuSans-2d" x="538.671875"/>
       <use xlink:href="#DejaVuSans-30" x="574.755859"/>
       <use xlink:href="#DejaVuSans-38" x="638.378906"/>
      </g>
     </g>
    </g>
    <g id="text_10">
     <!-- Time (s) -->
     <g transform="translate(387.381094 418.316562) scale(0.1 -0.1)">
      <defs>
       <path id="DejaVuSans-54" d="M -19 4666 
L 3928 4666 
L 3928 4134 
L 2272 4134 
L 2272 0 
L 1638 0 
L 1638 4134 
L -19 4134 
L -19 4666 
z
" transform="scale(0.015625)"/>
       <path id="DejaVuSans-69" d="M 603 3500 
L 1178 3500 
L 1178 0 
L 603 0 
L 603 3500 
z
M 603 4863 
L 1178 4863 
L 1178 4134 
L 603 4134 
L 603 4863 
z
" transform="scale(0.015625)"/>
       <path id="DejaVuSans-6d" d="M 3328 2828 
Q 3544 3216 3844 3400 
Q 4144 3584 4550 3584 
Q 5097 3584 5394 3201 
Q 5691 2819 5691 2113 
L 5691 0 
L 5113 0 
L 5113 2094 
Q 5113 2597 4934 2840 
Q 4756 3084 4391 3084 
Q 3944 3084 3684 2787 
Q 3425 2491 3425 1978 
L 3425 0 
L 2847 0 
L 2847 2094 
Q 2847 2600 2669 2842 
Q 2491 3084 2119 3084 
Q 1678 3084 1418 2786 
Q 1159 2488 1159 1978 
L 1159 0 
L 581 0 
L 581 3500 
L 1159 3500 
L 1159 2956 
Q 1356 3278 1631 3431 
Q 1906 3584 2284 3584 
Q 2666 3584 2933 3390 
Q 3200 3197 3328 2828 
z
" transform="scale(0.015625)"/>
       <path id="DejaVuSans-20" transform="scale(0.015625)"/>
       <path id="DejaVuSans-28" d="M 1984 4856 
Q 1566 4138 1362 3434 
Q 1159 2731 1159 2009 
Q 1159 1288 1364 580 
Q 1569 -128 1984 -844 
L 1484 -844 
Q 1016 -109 783 600 
Q 550 1309 550 2009 
Q 550 2706 781 3412 
Q 1013 4119 1484 4856 
L 1984 4856 
z
" transform="scale(0.015625)"/>
       <path id="DejaVuSans-73" d="M 2834 3397 
L 2834 2853 
Q 2591 2978 2328 3040 
Q 2066 3103 1784 3103 
Q 1356 3103 1142 2972 
Q 928 2841 928 2578 
Q 928 2378 1081 2264 
Q 1234 2150 1697 2047 
L 1894 2003 
Q 2506 1872 2764 1633 
Q 3022 1394 3022 966 
Q 3022 478 2636 193 
Q 2250 -91 1575 -91 
Q 1294 -91 989 -36 
Q 684 19 347 128 
L 347 722 
Q 666 556 975 473 
Q 1284 391 1588 391 
Q 1994 391 2212 530 
Q 2431 669 2431 922 
Q 2431 1156 2273 1281 
Q 2116 1406 1581 1522 
L 1381 1569 
Q 847 1681 609 1914 
Q 372 2147 372 2553 
Q 372 3047 722 3315 
Q 1072 3584 1716 3584 
Q 2034 3584 2315 3537 
Q 2597 3491 2834 3397 
z
" transform="scale(0.015625)"/>
       <path id="DejaVuSans-29" d="M 513 4856 
L 1013 4856 
Q 1481 4119 1714 3412 
Q 1947 2706 1947 2009 
Q 1947 1309 1714 600 
Q 1481 -109 1013 -844 
L 513 -844 
Q 928 -128 1133 580 
Q 1338 1288 1338 2009 
Q 1338 2731 1133 3434 
Q 928 4138 513 4856 
z
" transform="scale(0.015625)"/>
      </defs>
      <use xlink:href="#DejaVuSans-54"/>
      <use xlink:href="#DejaVuSans-69" x="57.958984"/>
      <use xlink:href="#DejaVuSans-6d" x="85.742188"/>
      <use xlink:href="#DejaVuSans-65" x="183.154297"/>
      <use xlink:href="#DejaVuSans-20" x="244.677734"/>
      <use xlink:href="#DejaVuSans-28" x="276.464844"/>
      <use xlink:href="#DejaVuSans-73" x="315.478516"/>
      <use xlink:href="#DejaVuSans-29" x="367.578125"/>
     </g>
    </g>
   </g>
   <g id="matplotlib.axis_2">
    <g id="ytick_1">
     <g id="line2d_19">
      <path d="M 106.22 373.532727 
L 709.2 373.532727 
" clip-path="url(#p7e30c4a047)" style="fill: none; stroke: #b0b0b0; stroke-width: 0.8; stroke-linecap: square"/>
     </g>
     <g id="line2d_20">
      <defs>
       <path id="md335061c40" d="M 0 0 
L -3.5 0 
" style="stroke: #000000; stroke-width: 0.8"/>
      </defs>
      <g>
       <use xlink:href="#md335061c40" x="106.22" y="373.532727" style="stroke: #000000; stroke-width: 0.8"/>
      </g>
     </g>
     <g id="text_11">
      <!-- 0.000000e+00 -->
      <g transform="translate(24.246563 377.331946) scale(0.1 -0.1)">
       <use xlink:href="#DejaVuSans-30"/>
       <use xlink:href="#DejaVuSans-2e" x="63.623047"/>
       <use xlink:href="#DejaVuSans-30" x="95.410156"/>
       <use xlink:href="#DejaVuSans-30" x="159.033203"/>
       <use xlink:href="#DejaVuSans-30" x="222.65625"/>
       <use xlink:href="#DejaVuSans-30" x="286.279297"/>
       <use xlink:href="#DejaVuSans-30" x="349.902344"/>
       <use xlink:href="#DejaVuSans-30" x="413.525391"/>
       <use xlink:href="#DejaVuSans-65" x="477.148438"/>
       <use xlink:href="#DejaVuSans-2b" x="538.671875"/>
       <use xlink:href="#DejaVuSans-30" x="622.460938"/>
       <use xlink:href="#DejaVuSans-30" x="686.083984"/>
      </g>
     </g>
    </g>
    <g id="ytick_2">
     <g id="line2d_21">
      <path d="M 106.22 331.742163 
L 709.2 331.742163 
" clip-path="url(#p7e30c4a047)" style="fill: none; stroke: #b0b0b0; stroke-width: 0.8; stroke-linecap: square"/>
     </g>
     <g id="line2d_22">
      <g>
       <use xlink:href="#md335061c40" x="106.22" y="331.742163" style="stroke: #000000; stroke-width: 0.8"/>
      </g>
     </g>
     <g id="text_12">
      <!-- 3.130266e-01 -->
      <g transform="translate(29.018438 335.541382) scale(0.1 -0.1)">
       <use xlink:href="#DejaVuSans-33"/>
       <use xlink:href="#DejaVuSans-2e" x="63.623047"/>
       <use xlink:href="#DejaVuSans-31" x="95.410156"/>
       <use xlink:href="#DejaVuSans-33" x="159.033203"/>
       <use xlink:href="#DejaVuSans-30" x="222.65625"/>
       <use xlink:href="#DejaVuSans-32" x="286.279297"/>
       <use xlink:href="#DejaVuSans-36" x="349.902344"/>
       <use xlink:href="#DejaVuSans-36" x="413.525391"/>
       <use xlink:href="#DejaVuSans-65" x="477.148438"/>
       <use xlink:href="#DejaVuSans-2d" x="538.671875"/>
       <use xlink:href="#DejaVuSans-30" x="574.755859"/>
       <use xlink:href="#DejaVuSans-31" x="638.378906"/>
      </g>
     </g>
    </g>
    <g id="ytick_3">
     <g id="line2d_23">
      <path d="M 106.22 289.9516 
L 709.2 289.9516 
" clip-path="url(#p7e30c4a047)" style="fill: none; stroke: #b0b0b0; stroke-width: 0.8; stroke-linecap: square"/>
     </g>
     <g id="line2d_24">
      <g>
       <use xlink:href="#md335061c40" x="106.22" y="289.9516" style="stroke: #000000; stroke-width: 0.8"/>
      </g>
     </g>
     <g id="text_13">
      <!-- 1.343802e-12 -->
      <g transform="translate(29.018438 293.750818) scale(0.1 -0.1)">
       <use xlink:href="#DejaVuSans-31"/>
       <use xlink:href="#DejaVuSans-2e" x="63.623047"/>
       <use xlink:href="#DejaVuSans-33" x="95.410156"/>
       <use xlink:href="#DejaVuSans-34" x="159.033203"/>
       <use xlink:href="#DejaVuSans-33" x="222.65625"/>
       <use xlink:href="#DejaVuSans-38" x="286.279297"/>
       <use xlink:href="#DejaVuSans-30" x="349.902344"/>
       <use xlink:href="#DejaVuSans-32" x="413.525391"/>
       <use xlink:href="#DejaVuSans-65" x="477.148438"/>
       <use xlink:href="#DejaVuSans-2d" x="538.671875"/>
       <use xlink:href="#DejaVuSans-31" x="574.755859"/>
       <use xlink:href="#DejaVuSans-32" x="638.378906"/>
      </g>
     </g>
    </g>
    <g id="ytick_4">
     <g id="line2d_25">
      <path d="M 106.22 248.161036 
L 709.2 248.161036 
" clip-path="url(#p7e30c4a047)" style="fill: none; stroke: #b0b0b0; stroke-width: 0.8; stroke-linecap: square"/>
     </g>
     <g id="line2d_26">
      <g>
       <use xlink:href="#md335061c40" x="106.22" y="248.161036" style="stroke: #000000; stroke-width: 0.8"/>
      </g>
     </g>
     <g id="text_14">
      <!-- -1.57755e-11 -->
      <g transform="translate(31.773125 251.960254) scale(0.1 -0.1)">
       <use xlink:href="#DejaVuSans-2d"/>
       <use xlink:href="#DejaVuSans-31" x="36.083984"/>
       <use xlink:href="#DejaVuSans-2e" x="99.707031"/>
       <use xlink:href="#DejaVuSans-35" x="131.494141"/>
       <use xlink:href="#DejaVuSans-37" x="195.117188"/>
       <use xlink:href="#DejaVuSans-37" x="258.740234"/>
       <use xlink:href="#DejaVuSans-35" x="322.363281"/>
       <use xlink:href="#DejaVuSans-35" x="385.986328"/>
       <use xlink:href="#DejaVuSans-65" x="449.609375"/>
       <use xlink:href="#DejaVuSans-2d" x="511.132812"/>
       <use xlink:href="#DejaVuSans-31" x="547.216797"/>
       <use xlink:href="#DejaVuSans-31" x="610.839844"/>
      </g>
     </g>
    </g>
    <g id="ytick_5">
     <g id="line2d_27">
      <path d="M 106.22 206.370472 
L 709.2 206.370472 
" clip-path="url(#p7e30c4a047)" style="fill: none; stroke: #b0b0b0; stroke-width: 0.8; stroke-linecap: square"/>
     </g>
     <g id="line2d_28">
      <g>
       <use xlink:href="#md335061c40" x="106.22" y="206.370472" style="stroke: #000000; stroke-width: 0.8"/>
      </g>
     </g>
     <g id="text_15">
      <!-- 2.781785e-12 -->
      <g transform="translate(29.018438 210.169691) scale(0.1 -0.1)">
       <use xlink:href="#DejaVuSans-32"/>
       <use xlink:href="#DejaVuSans-2e" x="63.623047"/>
       <use xlink:href="#DejaVuSans-37" x="95.410156"/>
       <use xlink:href="#DejaVuSans-38" x="159.033203"/>
       <use xlink:href="#DejaVuSans-31" x="222.65625"/>
       <use xlink:href="#DejaVuSans-37" x="286.279297"/>
       <use xlink:href="#DejaVuSans-38" x="349.902344"/>
       <use xlink:href="#DejaVuSans-35" x="413.525391"/>
       <use xlink:href="#DejaVuSans-65" x="477.148438"/>
       <use xlink:href="#DejaVuSans-2d" x="538.671875"/>
       <use xlink:href="#DejaVuSans-31" x="574.755859"/>
       <use xlink:href="#DejaVuSans-32" x="638.378906"/>
      </g>
     </g>
    </g>
    <g id="ytick_6">
     <g id="line2d_29">
      <path d="M 106.22 164.579908 
L 709.2 164.579908 
" clip-path="url(#p7e30c4a047)" style="fill: none; stroke: #b0b0b0; stroke-width: 0.8; stroke-linecap: square"/>
     </g>
     <g id="line2d_30">
      <g>
       <use xlink:href="#md335061c40" x="106.22" y="164.579908" style="stroke: #000000; stroke-width: 0.8"/>
      </g>
     </g>
     <g id="text_16">
      <!-- -3.89990e-09 -->
      <g transform="translate(31.773125 168.379127) scale(0.1 -0.1)">
       <use xlink:href="#DejaVuSans-2d"/>
       <use xlink:href="#DejaVuSans-33" x="36.083984"/>
       <use xlink:href="#DejaVuSans-2e" x="99.707031"/>
       <use xlink:href="#DejaVuSans-38" x="131.494141"/>
       <use xlink:href="#DejaVuSans-39" x="195.117188"/>
       <use xlink:href="#DejaVuSans-39" x="258.740234"/>
       <use xlink:href="#DejaVuSans-39" x="322.363281"/>
       <use xlink:href="#DejaVuSans-30" x="385.986328"/>
       <use xlink:href="#DejaVuSans-65" x="449.609375"/>
       <use xlink:href="#DejaVuSans-2d" x="511.132812"/>
       <use xlink:href="#DejaVuSans-30" x="547.216797"/>
       <use xlink:href="#DejaVuSans-39" x="610.839844"/>
      </g>
     </g>
    </g>
    <g id="ytick_7">
     <g id="line2d_31">
      <path d="M 106.22 122.789344 
L 709.2 122.789344 
" clip-path="url(#p7e30c4a047)" style="fill: none; stroke: #b0b0b0; stroke-width: 0.8; stroke-linecap: square"/>
     </g>
     <g id="line2d_32">
      <g>
       <use xlink:href="#md335061c40" x="106.22" y="122.789344" style="stroke: #000000; stroke-width: 0.8"/>
      </g>
     </g>
     <g id="text_17">
      <!-- -1.67348e-11 -->
      <g transform="translate(31.773125 126.588563) scale(0.1 -0.1)">
       <use xlink:href="#DejaVuSans-2d"/>
       <use xlink:href="#DejaVuSans-31" x="36.083984"/>
       <use xlink:href="#DejaVuSans-2e" x="99.707031"/>
       <use xlink:href="#DejaVuSans-36" x="131.494141"/>
       <use xlink:href="#DejaVuSans-37" x="195.117188"/>
       <use xlink:href="#DejaVuSans-33" x="258.740234"/>
       <use xlink:href="#DejaVuSans-34" x="322.363281"/>
       <use xlink:href="#DejaVuSans-38" x="385.986328"/>
       <use xlink:href="#DejaVuSans-65" x="449.609375"/>
       <use xlink:href="#DejaVuSans-2d" x="511.132812"/>
       <use xlink:href="#DejaVuSans-31" x="547.216797"/>
       <use xlink:href="#DejaVuSans-31" x="610.839844"/>
      </g>
     </g>
    </g>
    <g id="ytick_8">
     <g id="line2d_33">
      <path d="M 106.22 80.99878 
L 709.2 80.99878 
" clip-path="url(#p7e30c4a047)" style="fill: none; stroke: #b0b0b0; stroke-width: 0.8; stroke-linecap: square"/>
     </g>
     <g id="line2d_34">
      <g>
       <use xlink:href="#md335061c40" x="106.22" y="80.99878" style="stroke: #000000; stroke-width: 0.8"/>
      </g>
     </g>
     <g id="text_18">
      <!-- -1.97843e-11 -->
      <g transform="translate(31.773125 84.797999) scale(0.1 -0.1)">
       <use xlink:href="#DejaVuSans-2d"/>
       <use xlink:href="#DejaVuSans-31" x="36.083984"/>
       <use xlink:href="#DejaVuSans-2e" x="99.707031"/>
       <use xlink:href="#DejaVuSans-39" x="131.494141"/>
       <use xlink:href="#DejaVuSans-37" x="195.117188"/>
       <use xlink:href="#DejaVuSans-38" x="258.740234"/>
       <use xlink:href="#DejaVuSans-34" x="322.363281"/>
       <use xlink:href="#DejaVuSans-33" x="385.986328"/>
       <use xlink:href="#DejaVuSans-65" x="449.609375"/>
       <use xlink:href="#DejaVuSans-2d" x="511.132812"/>
       <use xlink:href="#DejaVuSans-31" x="547.216797"/>
       <use xlink:href="#DejaVuSans-31" x="610.839844"/>
      </g>
     </g>
    </g>
    <g id="ytick_9">
     <g id="line2d_35">
      <path d="M 106.22 39.208216 
L 709.2 39.208216 
" clip-path="url(#p7e30c4a047)" style="fill: none; stroke: #b0b0b0; stroke-width: 0.8; stroke-linecap: square"/>
     </g>
     <g id="line2d_36">
      <g>
       <use xlink:href="#md335061c40" x="106.22" y="39.208216" style="stroke: #000000; stroke-width: 0.8"/>
      </g>
     </g>
    </g>
    <g id="text_19">
     <!-- Voltage (V) -->
     <g transform="translate(18.166875 236.127187) rotate(-90) scale(0.1 -0.1)">
      <defs>
       <path id="DejaVuSans-56" d="M 1831 0 
L 50 4666 
L 709 4666 
L 2188 738 
L 3669 4666 
L 4325 4666 
L 2547 0 
L 1831 0 
z
" transform="scale(0.015625)"/>
       <path id="DejaVuSans-6f" d="M 1959 3097 
Q 1497 3097 1228 2736 
Q 959 2375 959 1747 
Q 959 1119 1226 758 
Q 1494 397 1959 397 
Q 2419 397 2687 759 
Q 2956 1122 2956 1747 
Q 2956 2369 2687 2733 
Q 2419 3097 1959 3097 
z
M 1959 3584 
Q 2709 3584 3137 3096 
Q 3566 2609 3566 1747 
Q 3566 888 3137 398 
Q 2709 -91 1959 -91 
Q 1206 -91 779 398 
Q 353 888 353 1747 
Q 353 2609 779 3096 
Q 1206 3584 1959 3584 
z
" transform="scale(0.015625)"/>
       <path id="DejaVuSans-6c" d="M 603 4863 
L 1178 4863 
L 1178 0 
L 603 0 
L 603 4863 
z
" transform="scale(0.015625)"/>
       <path id="DejaVuSans-74" d="M 1172 4494 
L 1172 3500 
L 2356 3500 
L 2356 3053 
L 1172 3053 
L 1172 1153 
Q 1172 725 1289 603 
Q 1406 481 1766 481 
L 2356 481 
L 2356 0 
L 1766 0 
Q 1100 0 847 248 
Q 594 497 594 1153 
L 594 3053 
L 172 3053 
L 172 3500 
L 594 3500 
L 594 4494 
L 1172 4494 
z
" transform="scale(0.015625)"/>
       <path id="DejaVuSans-61" d="M 2194 1759 
Q 1497 1759 1228 1600 
Q 959 1441 959 1056 
Q 959 750 1161 570 
Q 1363 391 1709 391 
Q 2188 391 2477 730 
Q 2766 1069 2766 1631 
L 2766 1759 
L 2194 1759 
z
M 3341 1997 
L 3341 0 
L 2766 0 
L 2766 531 
Q 2569 213 2275 61 
Q 1981 -91 1556 -91 
Q 1019 -91 701 211 
Q 384 513 384 1019 
Q 384 1609 779 1909 
Q 1175 2209 1959 2209 
L 2766 2209 
L 2766 2266 
Q 2766 2663 2505 2880 
Q 2244 3097 1772 3097 
Q 1472 3097 1187 3025 
Q 903 2953 641 2809 
L 641 3341 
Q 956 3463 1253 3523 
Q 1550 3584 1831 3584 
Q 2591 3584 2966 3190 
Q 3341 2797 3341 1997 
z
" transform="scale(0.015625)"/>
       <path id="DejaVuSans-67" d="M 2906 1791 
Q 2906 2416 2648 2759 
Q 2391 3103 1925 3103 
Q 1463 3103 1205 2759 
Q 947 2416 947 1791 
Q 947 1169 1205 825 
Q 1463 481 1925 481 
Q 2391 481 2648 825 
Q 2906 1169 2906 1791 
z
M 3481 434 
Q 3481 -459 3084 -895 
Q 2688 -1331 1869 -1331 
Q 1566 -1331 1297 -1286 
Q 1028 -1241 775 -1147 
L 775 -588 
Q 1028 -725 1275 -790 
Q 1522 -856 1778 -856 
Q 2344 -856 2625 -561 
Q 2906 -266 2906 331 
L 2906 616 
Q 2728 306 2450 153 
Q 2172 0 1784 0 
Q 1141 0 747 490 
Q 353 981 353 1791 
Q 353 2603 747 3093 
Q 1141 3584 1784 3584 
Q 2172 3584 2450 3431 
Q 2728 3278 2906 2969 
L 2906 3500 
L 3481 3500 
L 3481 434 
z
" transform="scale(0.015625)"/>
      </defs>
      <use xlink:href="#DejaVuSans-56"/>
      <use xlink:href="#DejaVuSans-6f" x="60.658203"/>
      <use xlink:href="#DejaVuSans-6c" x="121.839844"/>
      <use xlink:href="#DejaVuSans-74" x="149.623047"/>
      <use xlink:href="#DejaVuSans-61" x="188.832031"/>
      <use xlink:href="#DejaVuSans-67" x="250.111328"/>
      <use xlink:href="#DejaVuSans-65" x="313.587891"/>
      <use xlink:href="#DejaVuSans-20" x="375.111328"/>
      <use xlink:href="#DejaVuSans-28" x="406.898438"/>
      <use xlink:href="#DejaVuSans-56" x="445.912109"/>
      <use xlink:href="#DejaVuSans-29" x="514.320312"/>
     </g>
    </g>
   </g>
   <g id="line2d_37">
    <path d="M 133.628182 373.532727 
L 172.465686 373.532727 
L 182.452473 368.831289 
L 193.548903 368.831289 
L 194.658546 368.308907 
L 195.768189 368.831289 
L 245.702124 368.831289 
L 246.811767 367.786525 
L 249.031053 366.741761 
L 250.140696 373.532727 
L 259.01784 373.532727 
L 194.658546 368.308907 
L 260.127483 373.532727 
L 285.649271 373.532727 
L 286.758914 366.219379 
L 293.416772 363.085086 
L 294.526415 368.831289 
L 323.377133 368.831289 
L 194.658546 368.308907 
L 350.008565 368.831289 
L 356.666423 368.831289 
L 357.776066 367.786525 
L 359.995351 366.741761 
L 361.104994 362.562704 
L 362.214637 373.532727 
L 387.736426 373.532727 
L 194.658546 368.308907 
L 391.065355 373.532727 
L 397.723213 373.532727 
L 398.832856 365.696997 
L 404.381071 363.085086 
L 405.490714 368.831289 
L 452.09572 368.831289 
L 194.658546 368.308907 
L 467.630721 368.831289 
L 468.740364 367.786525 
L 470.95965 366.741761 
L 472.069293 373.532727 
L 508.687512 373.532727 
L 509.797155 365.696997 
L 515.34537 363.085086 
L 516.455013 368.831289 
L 194.658546 368.308907 
L 578.59502 368.831289 
L 579.704663 367.786525 
L 580.814306 367.264143 
L 194.658546 368.308907 
L 581.923949 366.741761 
L 583.033592 373.532727 
L 618.542168 373.532727 
L 619.651811 362.040322 
L 620.761454 365.696997 
L 626.309669 363.085086 
L 627.419312 368.831289 
L 645.1736 368.831289 
L 194.658546 368.308907 
L 681.791818 368.831289 
L 194.658546 361.51794 
L 133.628182 360.995558 
L 145.834255 360.995558 
L 193.548903 360.995558 
L 194.658546 361.51794 
L 195.768189 360.995558 
L 259.01784 360.995558 
L 194.658546 361.51794 
L 272.333555 360.995558 
L 323.377133 360.995558 
L 194.658546 361.51794 
L 350.008565 360.995558 
L 387.736426 360.995558 
L 194.658546 361.51794 
L 428.793217 360.995558 
L 452.09572 360.995558 
L 194.658546 361.51794 
L 506.468226 360.995558 
L 516.455013 360.995558 
L 194.658546 361.51794 
L 584.143235 360.995558 
L 645.1736 360.995558 
L 194.658546 361.51794 
L 681.791818 360.995558 
L 194.658546 360.473176 
L 133.628182 373.532727 
L 134.737825 359.950794 
L 141.395683 356.816502 
L 142.505326 368.831289 
L 182.452473 368.831289 
L 183.562116 356.29412 
L 186.891045 354.726974 
L 188.000688 373.532727 
L 193.548903 373.532727 
L 194.658546 360.473176 
L 195.768189 373.532727 
L 237.934623 373.532727 
L 239.044266 354.204591 
L 244.592481 351.592681 
L 245.702124 368.831289 
L 259.01784 368.831289 
L 194.658546 360.473176 
L 260.127483 368.831289 
L 294.526415 368.831289 
L 295.636058 351.070299 
L 298.964987 349.503153 
L 300.07463 373.532727 
L 323.377133 373.532727 
L 194.658546 360.473176 
L 325.596419 373.532727 
L 348.898922 373.532727 
L 350.008565 354.204591 
L 355.55678 351.592681 
L 356.666423 368.831289 
L 387.736426 368.831289 
L 194.658546 360.473176 
L 389.955712 368.831289 
L 405.490714 368.831289 
L 406.600357 351.070299 
L 409.929286 349.503153 
L 411.038929 373.532727 
L 452.09572 373.532727 
L 194.658546 360.473176 
L 453.205363 373.532727 
L 459.86322 373.532727 
L 460.972863 354.204591 
L 466.521078 351.592681 
L 467.630721 368.831289 
L 516.455013 368.831289 
L 194.658546 360.473176 
L 517.564656 351.070299 
L 520.893585 349.503153 
L 522.003228 373.532727 
L 570.827519 373.532727 
L 571.937162 354.204591 
L 577.485377 351.592681 
L 578.59502 368.831289 
L 580.814306 368.831289 
L 194.658546 360.473176 
L 585.252878 368.831289 
L 627.419312 368.831289 
L 628.528955 351.070299 
L 631.857884 349.503153 
L 632.967527 373.532727 
L 645.1736 373.532727 
L 194.658546 360.473176 
L 648.502529 373.532727 
L 681.791818 373.532727 
L 194.658546 348.980771 
L 133.628182 373.532727 
L 172.465686 373.532727 
L 173.575329 348.458389 
L 179.123544 348.458389 
L 183.562116 346.368861 
L 193.548903 346.368861 
L 194.658546 348.980771 
L 195.768189 346.368861 
L 245.702124 346.368861 
L 250.140696 344.279333 
L 251.250339 373.532727 
L 259.01784 373.532727 
L 194.658546 348.980771 
L 260.127483 373.532727 
L 285.649271 373.532727 
L 286.758914 343.756951 
L 287.868557 348.458389 
L 290.087843 348.458389 
L 291.197486 347.936007 
L 292.307129 347.936007 
L 293.416772 346.891243 
L 294.526415 346.891243 
L 295.636058 346.368861 
L 323.377133 346.368861 
L 194.658546 348.980771 
L 327.815705 346.368861 
L 328.925348 346.368861 
L 330.034991 343.234568 
L 331.144634 346.368861 
L 356.666423 346.368861 
L 361.104994 344.279333 
L 362.214637 342.712186 
L 363.32428 342.189804 
L 364.433923 342.712186 
L 365.543566 342.189804 
L 366.653209 342.712186 
L 367.762852 342.189804 
L 368.872495 342.712186 
L 369.982138 342.189804 
L 371.091781 342.712186 
L 372.201424 342.189804 
L 373.311067 342.712186 
L 374.42071 342.189804 
L 375.530353 342.712186 
L 376.639996 342.189804 
L 377.749639 342.712186 
L 378.859282 373.532727 
L 387.736426 373.532727 
L 194.658546 348.980771 
L 388.846069 373.532727 
L 397.723213 373.532727 
L 398.832856 348.458389 
L 401.052142 348.458389 
L 402.161785 347.936007 
L 403.271428 347.936007 
L 404.381071 346.891243 
L 405.490714 346.891243 
L 406.600357 346.368861 
L 452.09572 346.368861 
L 194.658546 348.980771 
L 462.082506 346.368861 
L 467.630721 346.368861 
L 472.069293 344.279333 
L 473.178936 373.532727 
L 508.687512 373.532727 
L 509.797155 348.458389 
L 512.016441 348.458389 
L 513.126084 347.936007 
L 514.235727 347.936007 
L 515.34537 346.891243 
L 516.455013 346.891243 
L 194.658546 348.980771 
L 530.880372 346.368861 
L 578.59502 346.368861 
L 580.814306 345.324097 
L 194.658546 348.980771 
L 581.923949 344.801715 
L 583.033592 344.279333 
L 584.143235 373.532727 
L 618.542168 373.532727 
L 619.651811 341.667422 
L 620.761454 348.458389 
L 622.98074 348.458389 
L 624.090383 347.936007 
L 625.200026 347.936007 
L 626.309669 346.891243 
L 627.419312 346.891243 
L 628.528955 346.368861 
L 645.1736 346.368861 
L 194.658546 348.980771 
L 664.03753 346.368861 
L 681.791818 346.368861 
L 194.658546 341.14504 
L 133.628182 368.831289 
L 193.548903 368.831289 
L 194.658546 341.14504 
L 195.768189 368.831289 
L 259.01784 368.831289 
L 194.658546 341.14504 
L 260.127483 368.831289 
L 323.377133 368.831289 
L 194.658546 341.14504 
L 324.486776 368.831289 
L 387.736426 368.831289 
L 194.658546 341.14504 
L 388.846069 368.831289 
L 452.09572 368.831289 
L 194.658546 341.14504 
L 453.205363 368.831289 
L 516.455013 368.831289 
L 194.658546 341.14504 
L 517.564656 368.831289 
L 580.814306 368.831289 
L 194.658546 341.14504 
L 581.923949 368.831289 
L 645.1736 368.831289 
L 194.658546 341.14504 
L 646.283243 368.831289 
L 681.791818 368.831289 
L 681.791818 368.831289 
" clip-path="url(#p7e30c4a047)" style="fill: none; stroke: #1f77b4; stroke-width: 1.5; stroke-linecap: square"/>
   </g>
   <g id="line2d_38">
    <path d="M 133.628182 373.532727 
L 172.465686 373.532727 
L 173.575329 340.622658 
L 182.452473 336.443602 
L 193.548903 336.443602 
L 194.658546 335.92122 
L 195.768189 336.443602 
L 245.702124 336.443602 
L 246.811767 335.398838 
L 249.031053 334.354074 
L 250.140696 373.532727 
L 259.01784 373.532727 
L 194.658546 335.92122 
L 260.127483 373.532727 
L 285.649271 373.532727 
L 286.758914 333.831692 
L 293.416772 330.697399 
L 294.526415 336.443602 
L 323.377133 336.443602 
L 194.658546 335.92122 
L 350.008565 336.443602 
L 356.666423 336.443602 
L 357.776066 335.398838 
L 359.995351 334.354074 
L 361.104994 330.175017 
L 362.214637 373.532727 
L 387.736426 373.532727 
L 194.658546 335.92122 
L 388.846069 373.532727 
L 397.723213 373.532727 
L 398.832856 333.30931 
L 399.942499 329.652635 
L 401.052142 332.264545 
L 404.381071 330.697399 
L 405.490714 336.443602 
L 452.09572 336.443602 
L 194.658546 335.92122 
L 467.630721 336.443602 
L 468.740364 335.398838 
L 470.95965 334.354074 
L 472.069293 373.532727 
L 508.687512 373.532727 
L 509.797155 333.30931 
L 510.906798 329.652635 
L 512.016441 332.264545 
L 515.34537 330.697399 
L 516.455013 336.443602 
L 194.658546 335.92122 
L 578.59502 336.443602 
L 579.704663 335.398838 
L 580.814306 334.876456 
L 194.658546 335.92122 
L 581.923949 334.354074 
L 583.033592 373.532727 
L 618.542168 373.532727 
L 619.651811 329.130253 
L 620.761454 333.30931 
L 621.871097 329.652635 
L 622.98074 332.264545 
L 626.309669 330.697399 
L 627.419312 336.443602 
L 645.1736 336.443602 
L 194.658546 335.92122 
L 681.791818 336.443602 
L 194.658546 328.607871 
L 133.628182 373.532727 
L 151.38247 373.532727 
L 152.492113 328.085489 
L 162.4789 323.384051 
L 163.588543 368.831289 
L 193.548903 368.831289 
L 194.658546 328.607871 
L 195.768189 368.831289 
L 211.303191 368.831289 
L 212.412834 322.861669 
L 216.851406 320.77214 
L 217.961049 373.532727 
L 259.01784 373.532727 
L 194.658546 328.607871 
L 260.127483 373.532727 
L 266.78534 373.532727 
L 267.894983 320.249758 
L 273.443198 317.637848 
L 274.552841 368.831289 
L 322.26749 368.831289 
L 323.377133 322.861669 
L 194.658546 328.607871 
L 324.486776 322.339287 
L 326.706062 321.294522 
L 327.815705 373.532727 
L 377.749639 373.532727 
L 378.859282 320.249758 
L 384.407497 317.637848 
L 385.51714 368.831289 
L 387.736426 368.831289 
L 194.658546 328.607871 
L 388.846069 368.831289 
L 433.231789 368.831289 
L 434.341432 322.861669 
L 437.670361 321.294522 
L 438.780004 373.532727 
L 452.09572 373.532727 
L 194.658546 328.607871 
L 453.205363 373.532727 
L 488.713938 373.532727 
L 489.823581 320.249758 
L 495.371796 317.637848 
L 496.481439 368.831289 
L 516.455013 368.831289 
L 194.658546 328.607871 
L 517.564656 368.831289 
L 544.196088 368.831289 
L 545.305731 322.861669 
L 548.63466 321.294522 
L 549.744303 373.532727 
L 580.814306 373.532727 
L 194.658546 328.607871 
L 581.923949 373.532727 
L 599.678237 373.532727 
L 600.78788 320.249758 
L 606.336095 317.637848 
L 607.445738 368.831289 
L 645.1736 368.831289 
L 194.658546 328.607871 
L 646.283243 368.831289 
L 655.160386 368.831289 
L 656.270029 322.861669 
L 659.598958 321.294522 
L 660.708601 373.532727 
L 681.791818 373.532727 
L 194.658546 317.115466 
L 133.628182 373.532727 
L 134.737825 316.593084 
L 141.395683 313.458792 
L 142.505326 336.443602 
L 182.452473 336.443602 
L 183.562116 312.93641 
L 186.891045 311.369264 
L 188.000688 373.532727 
L 193.548903 373.532727 
L 194.658546 317.115466 
L 195.768189 373.532727 
L 237.934623 373.532727 
L 239.044266 310.846881 
L 244.592481 308.234971 
L 245.702124 336.443602 
L 259.01784 336.443602 
L 194.658546 317.115466 
L 260.127483 336.443602 
L 294.526415 336.443602 
L 295.636058 307.712589 
L 298.964987 306.145443 
L 300.07463 373.532727 
L 323.377133 373.532727 
L 194.658546 317.115466 
L 324.486776 373.532727 
L 348.898922 373.532727 
L 350.008565 310.846881 
L 355.55678 308.234971 
L 356.666423 336.443602 
L 387.736426 336.443602 
L 194.658546 317.115466 
L 388.846069 336.443602 
L 405.490714 336.443602 
L 406.600357 307.712589 
L 409.929286 306.145443 
L 411.038929 373.532727 
L 452.09572 373.532727 
L 194.658546 317.115466 
L 453.205363 373.532727 
L 459.86322 373.532727 
L 460.972863 310.846881 
L 466.521078 308.234971 
L 467.630721 336.443602 
L 516.455013 336.443602 
L 194.658546 317.115466 
L 517.564656 307.712589 
L 520.893585 306.145443 
L 522.003228 373.532727 
L 570.827519 373.532727 
L 571.937162 310.846881 
L 577.485377 308.234971 
L 578.59502 336.443602 
L 580.814306 336.443602 
L 194.658546 317.115466 
L 583.033592 336.443602 
L 627.419312 336.443602 
L 628.528955 307.712589 
L 631.857884 306.145443 
L 632.967527 373.532727 
L 645.1736 373.532727 
L 194.658546 317.115466 
L 646.283243 373.532727 
L 681.791818 373.532727 
L 194.658546 305.623061 
L 133.628182 305.100679 
L 134.737825 304.578297 
L 136.957111 304.578297 
L 149.163184 298.832094 
L 150.272827 299.354476 
L 151.38247 298.309712 
L 173.575329 287.862071 
L 174.684972 287.862071 
L 193.548903 278.981577 
L 194.658546 305.623061 
L 195.768189 278.459194 
L 259.01784 248.683418 
L 194.658546 305.623061 
L 260.127483 248.161036 
L 267.894983 244.504361 
L 269.004626 244.504361 
L 323.377133 218.907641 
L 194.658546 305.623061 
L 324.486776 218.385259 
L 387.736426 188.609482 
L 194.658546 305.623061 
L 388.846069 188.0871 
L 406.600357 179.728987 
L 407.71 179.728987 
L 452.09572 158.833705 
L 194.658546 305.623061 
L 453.205363 158.311323 
L 489.823581 141.072716 
L 490.933224 141.072716 
L 509.797155 132.192221 
L 510.906798 132.192221 
L 516.455013 129.580311 
L 194.658546 305.623061 
L 517.564656 129.057929 
L 549.744303 113.908849 
L 550.853946 268.011554 
L 551.963589 113.386467 
L 580.814306 99.804534 
L 194.658546 305.623061 
L 581.923949 99.282152 
L 628.528955 77.342106 
L 629.638598 77.342106 
L 645.1736 70.028757 
L 194.658546 305.623061 
L 647.392886 68.983993 
L 660.708601 62.715409 
L 661.818244 164.579908 
L 662.927887 62.193026 
L 664.03753 215.250967 
L 665.147173 61.670644 
L 681.791818 53.834914 
L 194.658546 53.312532 
L 133.628182 368.831289 
L 193.548903 368.831289 
L 194.658546 53.312532 
L 195.768189 368.831289 
L 259.01784 368.831289 
L 194.658546 53.312532 
L 260.127483 368.831289 
L 323.377133 368.831289 
L 194.658546 53.312532 
L 324.486776 368.831289 
L 387.736426 368.831289 
L 194.658546 53.312532 
L 388.846069 368.831289 
L 452.09572 368.831289 
L 194.658546 53.312532 
L 453.205363 368.831289 
L 516.455013 368.831289 
L 194.658546 53.312532 
L 517.564656 368.831289 
L 580.814306 368.831289 
L 194.658546 53.312532 
L 581.923949 368.831289 
L 645.1736 368.831289 
L 194.658546 53.312532 
L 646.283243 368.831289 
L 681.791818 368.831289 
L 681.791818 368.831289 
" clip-path="url(#p7e30c4a047)" style="fill: none; stroke: #ff7f0e; stroke-width: 1.5; stroke-linecap: square"/>
   </g>
   <g id="line2d_39">
    <path d="M 133.628182 373.532727 
L 172.465686 373.532727 
L 173.575329 340.622658 
L 182.452473 336.443602 
L 193.548903 336.443602 
L 194.658546 52.79015 
L 195.768189 336.443602 
L 245.702124 336.443602 
L 246.811767 335.398838 
L 249.031053 334.354074 
L 250.140696 373.532727 
L 259.01784 373.532727 
L 194.658546 52.79015 
L 260.127483 373.532727 
L 285.649271 373.532727 
L 286.758914 333.831692 
L 293.416772 330.697399 
L 294.526415 336.443602 
L 323.377133 336.443602 
L 194.658546 52.79015 
L 324.486776 336.443602 
L 356.666423 336.443602 
L 357.776066 335.398838 
L 359.995351 334.354074 
L 361.104994 330.175017 
L 362.214637 373.532727 
L 387.736426 373.532727 
L 194.658546 52.79015 
L 388.846069 373.532727 
L 397.723213 373.532727 
L 398.832856 333.30931 
L 399.942499 329.652635 
L 401.052142 332.264545 
L 404.381071 330.697399 
L 405.490714 336.443602 
L 452.09572 336.443602 
L 194.658546 52.79015 
L 453.205363 336.443602 
L 467.630721 336.443602 
L 468.740364 335.398838 
L 470.95965 334.354074 
L 472.069293 373.532727 
L 508.687512 373.532727 
L 509.797155 333.30931 
L 510.906798 329.652635 
L 512.016441 332.264545 
L 515.34537 330.697399 
L 516.455013 336.443602 
L 194.658546 52.79015 
L 517.564656 336.443602 
L 578.59502 336.443602 
L 579.704663 335.398838 
L 580.814306 334.876456 
L 194.658546 52.79015 
L 581.923949 334.354074 
L 583.033592 373.532727 
L 618.542168 373.532727 
L 619.651811 329.130253 
L 620.761454 333.30931 
L 621.871097 329.652635 
L 622.98074 332.264545 
L 626.309669 330.697399 
L 627.419312 336.443602 
L 645.1736 336.443602 
L 194.658546 52.79015 
L 646.283243 336.443602 
L 681.791818 336.443602 
L 194.658546 52.267768 
L 133.628182 373.532727 
L 193.548903 373.532727 
L 194.658546 52.267768 
L 195.768189 373.532727 
L 206.864619 373.532727 
L 207.974262 51.745386 
L 210.193548 50.700621 
L 211.303191 368.831289 
L 259.01784 368.831289 
L 194.658546 52.267768 
L 260.127483 368.831289 
L 274.552841 368.831289 
L 275.662484 50.178239 
L 278.991413 48.611093 
L 280.101056 373.532727 
L 317.828918 373.532727 
L 318.938561 51.745386 
L 321.157847 50.700621 
L 322.26749 368.831289 
L 323.377133 368.831289 
L 194.658546 52.267768 
L 324.486776 368.831289 
L 385.51714 368.831289 
L 386.626783 50.178239 
L 387.736426 49.655857 
L 194.658546 52.267768 
L 388.846069 49.133475 
L 389.955712 48.611093 
L 391.065355 373.532727 
L 428.793217 373.532727 
L 429.90286 51.745386 
L 432.122146 50.700621 
L 433.231789 368.831289 
L 452.09572 368.831289 
L 194.658546 52.267768 
L 453.205363 368.831289 
L 496.481439 368.831289 
L 497.591082 50.178239 
L 500.920011 48.611093 
L 502.029654 373.532727 
L 516.455013 373.532727 
L 194.658546 52.267768 
L 517.564656 373.532727 
L 539.757516 373.532727 
L 540.867159 51.745386 
L 543.086445 50.700621 
L 544.196088 368.831289 
L 580.814306 368.831289 
L 194.658546 52.267768 
L 581.923949 368.831289 
L 607.445738 368.831289 
L 608.555381 50.178239 
L 611.88431 48.611093 
L 612.993953 373.532727 
L 645.1736 373.532727 
L 194.658546 52.267768 
L 646.283243 373.532727 
L 649.612172 373.532727 
L 650.721815 362.040322 
L 651.831457 51.745386 
L 654.050743 50.700621 
L 655.160386 368.831289 
L 681.791818 368.831289 
L 194.658546 48.088711 
L 133.628182 373.532727 
L 134.737825 316.593084 
L 141.395683 313.458792 
L 142.505326 336.443602 
L 182.452473 336.443602 
L 183.562116 312.93641 
L 186.891045 311.369264 
L 188.000688 373.532727 
L 193.548903 373.532727 
L 194.658546 48.088711 
L 195.768189 373.532727 
L 237.934623 373.532727 
L 239.044266 310.846881 
L 244.592481 308.234971 
L 245.702124 336.443602 
L 259.01784 336.443602 
L 194.658546 48.088711 
L 260.127483 336.443602 
L 294.526415 336.443602 
L 295.636058 307.712589 
L 298.964987 306.145443 
L 300.07463 373.532727 
L 323.377133 373.532727 
L 194.658546 48.088711 
L 324.486776 373.532727 
L 348.898922 373.532727 
L 350.008565 310.846881 
L 355.55678 308.234971 
L 356.666423 336.443602 
L 387.736426 336.443602 
L 194.658546 48.088711 
L 388.846069 336.443602 
L 405.490714 336.443602 
L 406.600357 307.712589 
L 409.929286 306.145443 
L 411.038929 373.532727 
L 452.09572 373.532727 
L 194.658546 48.088711 
L 453.205363 373.532727 
L 459.86322 373.532727 
L 460.972863 310.846881 
L 466.521078 308.234971 
L 467.630721 336.443602 
L 516.455013 336.443602 
L 194.658546 48.088711 
L 517.564656 307.712589 
L 520.893585 306.145443 
L 522.003228 373.532727 
L 570.827519 373.532727 
L 571.937162 310.846881 
L 577.485377 308.234971 
L 578.59502 336.443602 
L 580.814306 336.443602 
L 194.658546 48.088711 
L 581.923949 336.443602 
L 627.419312 336.443602 
L 628.528955 307.712589 
L 631.857884 306.145443 
L 632.967527 373.532727 
L 645.1736 373.532727 
L 194.658546 48.088711 
L 646.283243 373.532727 
L 681.791818 373.532727 
L 194.658546 47.566329 
L 133.628182 368.831289 
L 193.548903 368.831289 
L 194.658546 47.566329 
L 195.768189 368.831289 
L 259.01784 368.831289 
L 194.658546 47.566329 
L 260.127483 368.831289 
L 323.377133 368.831289 
L 194.658546 47.566329 
L 324.486776 368.831289 
L 387.736426 368.831289 
L 194.658546 47.566329 
L 388.846069 368.831289 
L 452.09572 368.831289 
L 194.658546 47.566329 
L 453.205363 368.831289 
L 516.455013 368.831289 
L 194.658546 47.566329 
L 517.564656 368.831289 
L 580.814306 368.831289 
L 194.658546 47.566329 
L 581.923949 368.831289 
L 645.1736 368.831289 
L 194.658546 47.566329 
L 646.283243 368.831289 
L 681.791818 368.831289 
L 194.658546 47.043947 
L 133.628182 373.532727 
L 151.38247 373.532727 
L 152.492113 348.458389 
L 159.149971 348.458389 
L 160.259614 347.936007 
L 161.369257 347.936007 
L 162.4789 347.413625 
L 163.588543 46.521565 
L 164.698185 45.999183 
L 193.548903 45.999183 
L 194.658546 47.043947 
L 195.768189 45.999183 
L 211.303191 45.999183 
L 214.63212 44.432037 
L 215.741763 344.279333 
L 216.851406 344.279333 
L 217.961049 43.909655 
L 219.070692 43.387273 
L 220.180335 43.909655 
L 221.289978 43.387273 
L 222.399621 43.909655 
L 223.509264 43.387273 
L 224.618907 43.909655 
L 225.72855 43.387273 
L 226.838193 43.909655 
L 227.947836 43.387273 
L 229.057479 43.909655 
L 230.167122 43.387273 
L 231.276765 43.909655 
L 232.386408 43.387273 
L 233.496051 43.909655 
L 234.605694 43.387273 
L 235.715337 43.909655 
L 236.82498 43.387273 
L 237.934623 43.909655 
L 239.044266 373.532727 
L 259.01784 373.532727 
L 194.658546 47.043947 
L 260.127483 373.532727 
L 266.78534 373.532727 
L 267.894983 348.458389 
L 270.114269 348.458389 
L 271.223912 347.936007 
L 272.333555 347.936007 
L 273.443198 346.891243 
L 274.552841 46.521565 
L 275.662484 45.999183 
L 322.26749 45.999183 
L 323.377133 45.476801 
L 194.658546 47.043947 
L 324.486776 44.954419 
L 325.596419 44.432037 
L 326.706062 344.279333 
L 327.815705 344.279333 
L 328.925348 373.532727 
L 377.749639 373.532727 
L 378.859282 348.458389 
L 381.078568 348.458389 
L 382.188211 347.936007 
L 383.297854 347.936007 
L 384.407497 346.891243 
L 385.51714 46.521565 
L 386.626783 45.999183 
L 387.736426 45.999183 
L 194.658546 47.043947 
L 407.71 45.999183 
L 433.231789 45.999183 
L 436.560718 44.432037 
L 437.670361 344.279333 
L 438.780004 344.279333 
L 439.889647 373.532727 
L 452.09572 373.532727 
L 194.658546 47.043947 
L 453.205363 373.532727 
L 488.713938 373.532727 
L 489.823581 348.458389 
L 492.042867 348.458389 
L 493.15251 347.936007 
L 494.262153 347.936007 
L 495.371796 346.891243 
L 496.481439 46.521565 
L 497.591082 45.999183 
L 516.455013 45.999183 
L 194.658546 47.043947 
L 544.196088 45.999183 
L 547.525017 44.432037 
L 548.63466 344.279333 
L 549.744303 344.279333 
L 550.853946 373.532727 
L 580.814306 373.532727 
L 194.658546 47.043947 
L 581.923949 373.532727 
L 599.678237 373.532727 
L 600.78788 348.458389 
L 603.007166 348.458389 
L 604.116809 347.936007 
L 605.226452 347.936007 
L 606.336095 346.891243 
L 607.445738 46.521565 
L 608.555381 45.999183 
L 645.1736 45.999183 
L 194.658546 47.043947 
L 655.160386 45.999183 
L 658.489315 44.432037 
L 659.598958 344.279333 
L 660.708601 344.279333 
L 661.818244 373.532727 
L 681.791818 373.532727 
L 681.791818 373.532727 
" clip-path="url(#p7e30c4a047)" style="fill: none; stroke: #2ca02c; stroke-width: 1.5; stroke-linecap: square"/>
   </g>
   <g id="patch_3">
    <path d="M 106.22 390.04 
L 106.22 26.88 
" style="fill: none; stroke: #000000; stroke-width: 0.8; stroke-linejoin: miter; stroke-linecap: square"/>
   </g>
   <g id="patch_4">
    <path d="M 709.2 390.04 
L 709.2 26.88 
" style="fill: none; stroke: #000000; stroke-width: 0.8; stroke-linejoin: miter; stroke-linecap: square"/>
   </g>
   <g id="patch_5">
    <path d="M 106.22 390.04 
L 709.2 390.04 
" style="fill: none; stroke: #000000; stroke-width: 0.8; stroke-linejoin: miter; stroke-linecap: square"/>
   </g>
   <g id="patch_6">
    <path d="M 106.22 26.88 
L 709.2 26.88 
" style="fill: none; stroke: #000000; stroke-width: 0.8; stroke-linejoin: miter; stroke-linecap: square"/>
   </g>
   <g id="text_20">
    <!-- Transient Analysis of NeurX Hybrid System v0.06 -->
    <g transform="translate(260.740938 20.88) scale(0.12 -0.12)">
     <defs>
      <path id="DejaVuSans-72" d="M 2631 2963 
Q 2534 3019 2420 3045 
Q 2306 3072 2169 3072 
Q 1681 3072 1420 2755 
Q 1159 2438 1159 1844 
L 1159 0 
L 581 0 
L 581 3500 
L 1159 3500 
L 1159 2956 
Q 1341 3275 1631 3429 
Q 1922 3584 2338 3584 
Q 2397 3584 2469 3576 
Q 2541 3569 2628 3553 
L 2631 2963 
z
" transform="scale(0.015625)"/>
      <path id="DejaVuSans-6e" d="M 3513 2113 
L 3513 0 
L 2938 0 
L 2938 2094 
Q 2938 2591 2744 2837 
Q 2550 3084 2163 3084 
Q 1697 3084 1428 2787 
Q 1159 2491 1159 1978 
L 1159 0 
L 581 0 
L 581 3500 
L 1159 3500 
L 1159 2956 
Q 1366 3272 1645 3428 
Q 1925 3584 2291 3584 
Q 2894 3584 3203 3211 
Q 3513 2838 3513 2113 
z
" transform="scale(0.015625)"/>
      <path id="DejaVuSans-41" d="M 2188 4044 
L 1331 1722 
L 3047 1722 
L 2188 4044 
z
M 1831 4666 
L 2547 4666 
L 4325 0 
L 3669 0 
L 3244 1197 
L 1141 1197 
L 716 0 
L 50 0 
L 1831 4666 
z
" transform="scale(0.015625)"/>
      <path id="DejaVuSans-79" d="M 2059 -325 
Q 1816 -950 1584 -1140 
Q 1353 -1331 966 -1331 
L 506 -1331 
L 506 -850 
L 844 -850 
Q 1081 -850 1212 -737 
Q 1344 -625 1503 -206 
L 1606 56 
L 191 3500 
L 800 3500 
L 1894 763 
L 2988 3500 
L 3597 3500 
L 2059 -325 
z
" transform="scale(0.015625)"/>
      <path id="DejaVuSans-66" d="M 2375 4863 
L 2375 4384 
L 1825 4384 
Q 1516 4384 1395 4259 
Q 1275 4134 1275 3809 
L 1275 3500 
L 2222 3500 
L 2222 3053 
L 1275 3053 
L 1275 0 
L 697 0 
L 697 3053 
L 147 3053 
L 147 3500 
L 697 3500 
L 697 3744 
Q 697 4328 969 4595 
Q 1241 4863 1831 4863 
L 2375 4863 
z
" transform="scale(0.015625)"/>
      <path id="DejaVuSans-4e" d="M 628 4666 
L 1478 4666 
L 3547 763 
L 3547 4666 
L 4159 4666 
L 4159 0 
L 3309 0 
L 1241 3903 
L 1241 0 
L 628 0 
L 628 4666 
z
" transform="scale(0.015625)"/>
      <path id="DejaVuSans-75" d="M 544 1381 
L 544 3500 
L 1119 3500 
L 1119 1403 
Q 1119 906 1312 657 
Q 1506 409 1894 409 
Q 2359 409 2629 706 
Q 2900 1003 2900 1516 
L 2900 3500 
L 3475 3500 
L 3475 0 
L 2900 0 
L 2900 538 
Q 2691 219 2414 64 
Q 2138 -91 1772 -91 
Q 1169 -91 856 284 
Q 544 659 544 1381 
z
M 1991 3584 
L 1991 3584 
z
" transform="scale(0.015625)"/>
      <path id="DejaVuSans-58" d="M 403 4666 
L 1081 4666 
L 2241 2931 
L 3406 4666 
L 4084 4666 
L 2584 2425 
L 4184 0 
L 3506 0 
L 2194 1984 
L 872 0 
L 191 0 
L 1856 2491 
L 403 4666 
z
" transform="scale(0.015625)"/>
      <path id="DejaVuSans-48" d="M 628 4666 
L 1259 4666 
L 1259 2753 
L 3553 2753 
L 3553 4666 
L 4184 4666 
L 4184 0 
L 3553 0 
L 3553 2222 
L 1259 2222 
L 1259 0 
L 628 0 
L 628 4666 
z
" transform="scale(0.015625)"/>
      <path id="DejaVuSans-62" d="M 3116 1747 
Q 3116 2381 2855 2742 
Q 2594 3103 2138 3103 
Q 1681 3103 1420 2742 
Q 1159 2381 1159 1747 
Q 1159 1113 1420 752 
Q 1681 391 2138 391 
Q 2594 391 2855 752 
Q 3116 1113 3116 1747 
z
M 1159 2969 
Q 1341 3281 1617 3432 
Q 1894 3584 2278 3584 
Q 2916 3584 3314 3078 
Q 3713 2572 3713 1747 
Q 3713 922 3314 415 
Q 2916 -91 2278 -91 
Q 1894 -91 1617 61 
Q 1341 213 1159 525 
L 1159 0 
L 581 0 
L 581 4863 
L 1159 4863 
L 1159 2969 
z
" transform="scale(0.015625)"/>
      <path id="DejaVuSans-64" d="M 2906 2969 
L 2906 4863 
L 3481 4863 
L 3481 0 
L 2906 0 
L 2906 525 
Q 2725 213 2448 61 
Q 2172 -91 1784 -91 
Q 1150 -91 751 415 
Q 353 922 353 1747 
Q 353 2572 751 3078 
Q 1150 3584 1784 3584 
Q 2172 3584 2448 3432 
Q 2725 3281 2906 2969 
z
M 947 1747 
Q 947 1113 1208 752 
Q 1469 391 1925 391 
Q 2381 391 2643 752 
Q 2906 1113 2906 1747 
Q 2906 2381 2643 2742 
Q 2381 3103 1925 3103 
Q 1469 3103 1208 2742 
Q 947 2381 947 1747 
z
" transform="scale(0.015625)"/>
      <path id="DejaVuSans-53" d="M 3425 4513 
L 3425 3897 
Q 3066 4069 2747 4153 
Q 2428 4238 2131 4238 
Q 1616 4238 1336 4038 
Q 1056 3838 1056 3469 
Q 1056 3159 1242 3001 
Q 1428 2844 1947 2747 
L 2328 2669 
Q 3034 2534 3370 2195 
Q 3706 1856 3706 1288 
Q 3706 609 3251 259 
Q 2797 -91 1919 -91 
Q 1588 -91 1214 -16 
Q 841 59 441 206 
L 441 856 
Q 825 641 1194 531 
Q 1563 422 1919 422 
Q 2459 422 2753 634 
Q 3047 847 3047 1241 
Q 3047 1584 2836 1778 
Q 2625 1972 2144 2069 
L 1759 2144 
Q 1053 2284 737 2584 
Q 422 2884 422 3419 
Q 422 4038 858 4394 
Q 1294 4750 2059 4750 
Q 2388 4750 2728 4690 
Q 3069 4631 3425 4513 
z
" transform="scale(0.015625)"/>
      <path id="DejaVuSans-76" d="M 191 3500 
L 800 3500 
L 1894 563 
L 2988 3500 
L 3597 3500 
L 2284 0 
L 1503 0 
L 191 3500 
z
" transform="scale(0.015625)"/>
     </defs>
     <use xlink:href="#DejaVuSans-54"/>
     <use xlink:href="#DejaVuSans-72" x="46.333984"/>
     <use xlink:href="#DejaVuSans-61" x="87.447266"/>
     <use xlink:href="#DejaVuSans-6e" x="148.726562"/>
     <use xlink:href="#DejaVuSans-73" x="212.105469"/>
     <use xlink:href="#DejaVuSans-69" x="264.205078"/>
     <use xlink:href="#DejaVuSans-65" x="291.988281"/>
     <use xlink:href="#DejaVuSans-6e" x="353.511719"/>
     <use xlink:href="#DejaVuSans-74" x="416.890625"/>
     <use xlink:href="#DejaVuSans-20" x="456.099609"/>
     <use xlink:href="#DejaVuSans-41" x="487.886719"/>
     <use xlink:href="#DejaVuSans-6e" x="556.294922"/>
     <use xlink:href="#DejaVuSans-61" x="619.673828"/>
     <use xlink:href="#DejaVuSans-6c" x="680.953125"/>
     <use xlink:href="#DejaVuSans-79" x="708.736328"/>
     <use xlink:href="#DejaVuSans-73" x="767.916016"/>
     <use xlink:href="#DejaVuSans-69" x="820.015625"/>
     <use xlink:href="#DejaVuSans-73" x="847.798828"/>
     <use xlink:href="#DejaVuSans-20" x="899.898438"/>
     <use xlink:href="#DejaVuSans-6f" x="931.685547"/>
     <use xlink:href="#DejaVuSans-66" x="992.867188"/>
     <use xlink:href="#DejaVuSans-20" x="1028.072266"/>
     <use xlink:href="#DejaVuSans-4e" x="1059.859375"/>
     <use xlink:href="#DejaVuSans-65" x="1134.664062"/>
     <use xlink:href="#DejaVuSans-75" x="1196.1875"/>
     <use xlink:href="#DejaVuSans-72" x="1259.566406"/>
     <use xlink:href="#DejaVuSans-58" x="1300.679688"/>
     <use xlink:href="#DejaVuSans-20" x="1369.185547"/>
     <use xlink:href="#DejaVuSans-48" x="1400.972656"/>
     <use xlink:href="#DejaVuSans-79" x="1476.167969"/>
     <use xlink:href="#DejaVuSans-62" x="1535.347656"/>
     <use xlink:href="#DejaVuSans-72" x="1598.824219"/>
     <use xlink:href="#DejaVuSans-69" x="1639.9375"/>
     <use xlink:href="#DejaVuSans-64" x="1667.720703"/>
     <use xlink:href="#DejaVuSans-20" x="1731.197266"/>
     <use xlink:href="#DejaVuSans-53" x="1762.984375"/>
     <use xlink:href="#DejaVuSans-79" x="1826.460938"/>
     <use xlink:href="#DejaVuSans-73" x="1885.640625"/>
     <use xlink:href="#DejaVuSans-74" x="1937.740234"/>
     <use xlink:href="#DejaVuSans-65" x="1976.949219"/>
     <use xlink:href="#DejaVuSans-6d" x="2038.472656"/>
     <use xlink:href="#DejaVuSans-20" x="2135.884766"/>
     <use xlink:href="#DejaVuSans-76" x="2167.671875"/>
     <use xlink:href="#DejaVuSans-30" x="2226.851562"/>
     <use xlink:href="#DejaVuSans-2e" x="2290.474609"/>
     <use xlink:href="#DejaVuSans-30" x="2322.261719"/>
     <use xlink:href="#DejaVuSans-36" x="2385.884766"/>
    </g>
   </g>
   <g id="legend_1">
    <g id="patch_7">
     <path d="M 113.22 78.914375 
L 157.080938 78.914375 
Q 159.080938 78.914375 159.080938 76.914375 
L 159.080938 33.88 
Q 159.080938 31.88 157.080938 31.88 
L 113.22 31.88 
Q 111.22 31.88 111.22 33.88 
L 111.22 76.914375 
Q 111.22 78.914375 113.22 78.914375 
z
" style="fill: #ffffff; opacity: 0.8; stroke: #cccccc; stroke-linejoin: miter"/>
    </g>
    <g id="line2d_40">
     <path d="M 115.22 39.978437 
L 125.22 39.978437 
L 135.22 39.978437 
" style="fill: none; stroke: #1f77b4; stroke-width: 1.5; stroke-linecap: square"/>
    </g>
    <g id="text_21">
     <!-- c1 -->
     <g transform="translate(143.22 43.478437) scale(0.1 -0.1)">
      <defs>
       <path id="DejaVuSans-63" d="M 3122 3366 
L 3122 2828 
Q 2878 2963 2633 3030 
Q 2388 3097 2138 3097 
Q 1578 3097 1268 2742 
Q 959 2388 959 1747 
Q 959 1106 1268 751 
Q 1578 397 2138 397 
Q 2388 397 2633 464 
Q 2878 531 3122 666 
L 3122 134 
Q 2881 22 2623 -34 
Q 2366 -91 2075 -91 
Q 1284 -91 818 406 
Q 353 903 353 1747 
Q 353 2603 823 3093 
Q 1294 3584 2113 3584 
Q 2378 3584 2631 3529 
Q 2884 3475 3122 3366 
z
" transform="scale(0.015625)"/>
      </defs>
      <use xlink:href="#DejaVuSans-63"/>
      <use xlink:href="#DejaVuSans-31" x="54.980469"/>
     </g>
    </g>
    <g id="line2d_41">
     <path d="M 115.22 54.656563 
L 125.22 54.656563 
L 135.22 54.656563 
" style="fill: none; stroke: #ff7f0e; stroke-width: 1.5; stroke-linecap: square"/>
    </g>
    <g id="text_22">
     <!-- c3 -->
     <g transform="translate(143.22 58.156563) scale(0.1 -0.1)">
      <use xlink:href="#DejaVuSans-63"/>
      <use xlink:href="#DejaVuSans-33" x="54.980469"/>
     </g>
    </g>
    <g id="line2d_42">
     <path d="M 115.22 69.334687 
L 125.22 69.334687 
L 135.22 69.334687 
" style="fill: none; stroke: #2ca02c; stroke-width: 1.5; stroke-linecap: square"/>
    </g>
    <g id="text_23">
     <!-- c4 -->
     <g transform="translate(143.22 72.834687) scale(0.1 -0.1)">
      <use xlink:href="#DejaVuSans-63"/>
      <use xlink:href="#DejaVuSans-34" x="54.980469"/>
     </g>
    </g>
   </g>
  </g>
 </g>
 <defs>
  <clipPath id="p7e30c4a047">
   <rect x="106.22" y="26.88" width="602.98" height="363.16"/>
  </clipPath>
 </defs>
</svg>
