<?xml version="1.0" encoding="utf-8" standalone="no"?>
<!DOCTYPE svg PUBLIC "-//W3C//DTD SVG 1.1//EN"
  "http://www.w3.org/Graphics/SVG/1.1/DTD/svg11.dtd">
<svg xmlns:xlink="http://www.w3.org/1999/xlink" width="720pt" height="432pt" viewBox="0 0 720 432" xmlns="http://www.w3.org/2000/svg" version="1.1">
 <metadata>
  <rdf:RDF xmlns:dc="http://purl.org/dc/elements/1.1/" xmlns:cc="http://creativecommons.org/ns#" xmlns:rdf="http://www.w3.org/1999/02/22-rdf-syntax-ns#">
   <cc:Work>
    <dc:type rdf:resource="http://purl.org/dc/dcmitype/StillImage"/>
    <dc:date>2024-07-02T12:00:04.284264</dc:date>
    <dc:format>image/svg+xml</dc:format>
    <dc:creator>
     <cc:Agent>
      <dc:title>Matplotlib v3.9.0, https://matplotlib.org/</dc:title>
     </cc:Agent>
    </dc:creator>
   </cc:Work>
  </rdf:RDF>
 </metadata>
 <defs>
  <style type="text/css">*{stroke-linejoin: round; stroke-linecap: butt}</style>
 </defs>
 <g id="figure_1">
  <g id="patch_1">
   <path d="M 0 432 
L 720 432 
L 720 0 
L 0 0 
z
" style="fill: #ffffff"/>
  </g>
  <g id="axes_1">
   <g id="patch_2">
    <path d="M 106.4 390.04 
L 709.2 390.04 
L 709.2 26.88 
L 106.4 26.88 
z
" style="fill: #ffffff"/>
   </g>
   <g id="matplotlib.axis_1">
    <g id="xtick_1">
     <g id="line2d_1">
      <path d="M 133.8 390.04 
L 133.8 26.88 
" clip-path="url(#p242f7189a4)" style="fill: none; stroke: #b0b0b0; stroke-width: 0.8; stroke-linecap: square"/>
     </g>
     <g id="line2d_2">
      <defs>
       <path id="m008e620976" d="M 0 0 
L 0 3.5 
" style="stroke: #000000; stroke-width: 0.8"/>
      </defs>
      <g>
       <use xlink:href="#m008e620976" x="133.8" y="390.04" style="stroke: #000000; stroke-width: 0.8"/>
      </g>
     </g>
     <g id="text_1">
      <!-- 0.000000e+00 -->
      <g transform="translate(96.313281 404.638438) scale(0.1 -0.1)">
       <defs>
        <path id="DejaVuSans-30" d="M 2034 4250 
Q 1547 4250 1301 3770 
Q 1056 3291 1056 2328 
Q 1056 1369 1301 889 
Q 1547 409 2034 409 
Q 2525 409 2770 889 
Q 3016 1369 3016 2328 
Q 3016 3291 2770 3770 
Q 2525 4250 2034 4250 
z
M 2034 4750 
Q 2819 4750 3233 4129 
Q 3647 3509 3647 2328 
Q 3647 1150 3233 529 
Q 2819 -91 2034 -91 
Q 1250 -91 836 529 
Q 422 1150 422 2328 
Q 422 3509 836 4129 
Q 1250 4750 2034 4750 
z
" transform="scale(0.015625)"/>
        <path id="DejaVuSans-2e" d="M 684 794 
L 1344 794 
L 1344 0 
L 684 0 
L 684 794 
z
" transform="scale(0.015625)"/>
        <path id="DejaVuSans-65" d="M 3597 1894 
L 3597 1613 
L 953 1613 
Q 991 1019 1311 708 
Q 1631 397 2203 397 
Q 2534 397 2845 478 
Q 3156 559 3463 722 
L 3463 178 
Q 3153 47 2828 -22 
Q 2503 -91 2169 -91 
Q 1331 -91 842 396 
Q 353 884 353 1716 
Q 353 2575 817 3079 
Q 1281 3584 2069 3584 
Q 2775 3584 3186 3129 
Q 3597 2675 3597 1894 
z
M 3022 2063 
Q 3016 2534 2758 2815 
Q 2500 3097 2075 3097 
Q 1594 3097 1305 2825 
Q 1016 2553 972 2059 
L 3022 2063 
z
" transform="scale(0.015625)"/>
        <path id="DejaVuSans-2b" d="M 2944 4013 
L 2944 2272 
L 4684 2272 
L 4684 1741 
L 2944 1741 
L 2944 0 
L 2419 0 
L 2419 1741 
L 678 1741 
L 678 2272 
L 2419 2272 
L 2419 4013 
L 2944 4013 
z
" transform="scale(0.015625)"/>
       </defs>
       <use xlink:href="#DejaVuSans-30"/>
       <use xlink:href="#DejaVuSans-2e" x="63.623047"/>
       <use xlink:href="#DejaVuSans-30" x="95.410156"/>
       <use xlink:href="#DejaVuSans-30" x="159.033203"/>
       <use xlink:href="#DejaVuSans-30" x="222.65625"/>
       <use xlink:href="#DejaVuSans-30" x="286.279297"/>
       <use xlink:href="#DejaVuSans-30" x="349.902344"/>
       <use xlink:href="#DejaVuSans-30" x="413.525391"/>
       <use xlink:href="#DejaVuSans-65" x="477.148438"/>
       <use xlink:href="#DejaVuSans-2b" x="538.671875"/>
       <use xlink:href="#DejaVuSans-30" x="622.460938"/>
       <use xlink:href="#DejaVuSans-30" x="686.083984"/>
      </g>
     </g>
    </g>
    <g id="xtick_2">
     <g id="line2d_3">
      <path d="M 200.358704 390.04 
L 200.358704 26.88 
" clip-path="url(#p242f7189a4)" style="fill: none; stroke: #b0b0b0; stroke-width: 0.8; stroke-linecap: square"/>
     </g>
     <g id="line2d_4">
      <g>
       <use xlink:href="#m008e620976" x="200.358704" y="390.04" style="stroke: #000000; stroke-width: 0.8"/>
      </g>
     </g>
     <g id="text_2">
      <!-- 1.209464e-08 -->
      <g transform="translate(165.257923 404.638438) scale(0.1 -0.1)">
       <defs>
        <path id="DejaVuSans-31" d="M 794 531 
L 1825 531 
L 1825 4091 
L 703 3866 
L 703 4441 
L 1819 4666 
L 2450 4666 
L 2450 531 
L 3481 531 
L 3481 0 
L 794 0 
L 794 531 
z
" transform="scale(0.015625)"/>
        <path id="DejaVuSans-32" d="M 1228 531 
L 3431 531 
L 3431 0 
L 469 0 
L 469 531 
Q 828 903 1448 1529 
Q 2069 2156 2228 2338 
Q 2531 2678 2651 2914 
Q 2772 3150 2772 3378 
Q 2772 3750 2511 3984 
Q 2250 4219 1831 4219 
Q 1534 4219 1204 4116 
Q 875 4013 500 3803 
L 500 4441 
Q 881 4594 1212 4672 
Q 1544 4750 1819 4750 
Q 2544 4750 2975 4387 
Q 3406 4025 3406 3419 
Q 3406 3131 3298 2873 
Q 3191 2616 2906 2266 
Q 2828 2175 2409 1742 
Q 1991 1309 1228 531 
z
" transform="scale(0.015625)"/>
        <path id="DejaVuSans-39" d="M 703 97 
L 703 672 
Q 941 559 1184 500 
Q 1428 441 1663 441 
Q 2288 441 2617 861 
Q 2947 1281 2994 2138 
Q 2813 1869 2534 1725 
Q 2256 1581 1919 1581 
Q 1219 1581 811 2004 
Q 403 2428 403 3163 
Q 403 3881 828 4315 
Q 1253 4750 1959 4750 
Q 2769 4750 3195 4129 
Q 3622 3509 3622 2328 
Q 3622 1225 3098 567 
Q 2575 -91 1691 -91 
Q 1453 -91 1209 -44 
Q 966 3 703 97 
z
M 1959 2075 
Q 2384 2075 2632 2365 
Q 2881 2656 2881 3163 
Q 2881 3666 2632 3958 
Q 2384 4250 1959 4250 
Q 1534 4250 1286 3958 
Q 1038 3666 1038 3163 
Q 1038 2656 1286 2365 
Q 1534 2075 1959 2075 
z
" transform="scale(0.015625)"/>
        <path id="DejaVuSans-34" d="M 2419 4116 
L 825 1625 
L 2419 1625 
L 2419 4116 
z
M 2253 4666 
L 3047 4666 
L 3047 1625 
L 3713 1625 
L 3713 1100 
L 3047 1100 
L 3047 0 
L 2419 0 
L 2419 1100 
L 313 1100 
L 313 1709 
L 2253 4666 
z
" transform="scale(0.015625)"/>
        <path id="DejaVuSans-36" d="M 2113 2584 
Q 1688 2584 1439 2293 
Q 1191 2003 1191 1497 
Q 1191 994 1439 701 
Q 1688 409 2113 409 
Q 2538 409 2786 701 
Q 3034 994 3034 1497 
Q 3034 2003 2786 2293 
Q 2538 2584 2113 2584 
z
M 3366 4563 
L 3366 3988 
Q 3128 4100 2886 4159 
Q 2644 4219 2406 4219 
Q 1781 4219 1451 3797 
Q 1122 3375 1075 2522 
Q 1259 2794 1537 2939 
Q 1816 3084 2150 3084 
Q 2853 3084 3261 2657 
Q 3669 2231 3669 1497 
Q 3669 778 3244 343 
Q 2819 -91 2113 -91 
Q 1303 -91 875 529 
Q 447 1150 447 2328 
Q 447 3434 972 4092 
Q 1497 4750 2381 4750 
Q 2619 4750 2861 4703 
Q 3103 4656 3366 4563 
z
" transform="scale(0.015625)"/>
        <path id="DejaVuSans-2d" d="M 313 2009 
L 1997 2009 
L 1997 1497 
L 313 1497 
L 313 2009 
z
" transform="scale(0.015625)"/>
        <path id="DejaVuSans-38" d="M 2034 2216 
Q 1584 2216 1326 1975 
Q 1069 1734 1069 1313 
Q 1069 891 1326 650 
Q 1584 409 2034 409 
Q 2484 409 2743 651 
Q 3003 894 3003 1313 
Q 3003 1734 2745 1975 
Q 2488 2216 2034 2216 
z
M 1403 2484 
Q 997 2584 770 2862 
Q 544 3141 544 3541 
Q 544 4100 942 4425 
Q 1341 4750 2034 4750 
Q 2731 4750 3128 4425 
Q 3525 4100 3525 3541 
Q 3525 3141 3298 2862 
Q 3072 2584 2669 2484 
Q 3125 2378 3379 2068 
Q 3634 1759 3634 1313 
Q 3634 634 3220 271 
Q 2806 -91 2034 -91 
Q 1263 -91 848 271 
Q 434 634 434 1313 
Q 434 1759 690 2068 
Q 947 2378 1403 2484 
z
M 1172 3481 
Q 1172 3119 1398 2916 
Q 1625 2713 2034 2713 
Q 2441 2713 2670 2916 
Q 2900 3119 2900 3481 
Q 2900 3844 2670 4047 
Q 2441 4250 2034 4250 
Q 1625 4250 1398 4047 
Q 1172 3844 1172 3481 
z
" transform="scale(0.015625)"/>
       </defs>
       <use xlink:href="#DejaVuSans-31"/>
       <use xlink:href="#DejaVuSans-2e" x="63.623047"/>
       <use xlink:href="#DejaVuSans-32" x="95.410156"/>
       <use xlink:href="#DejaVuSans-30" x="159.033203"/>
       <use xlink:href="#DejaVuSans-39" x="222.65625"/>
       <use xlink:href="#DejaVuSans-34" x="286.279297"/>
       <use xlink:href="#DejaVuSans-36" x="349.902344"/>
       <use xlink:href="#DejaVuSans-34" x="413.525391"/>
       <use xlink:href="#DejaVuSans-65" x="477.148438"/>
       <use xlink:href="#DejaVuSans-2d" x="538.671875"/>
       <use xlink:href="#DejaVuSans-30" x="574.755859"/>
       <use xlink:href="#DejaVuSans-38" x="638.378906"/>
      </g>
     </g>
    </g>
    <g id="xtick_3">
     <g id="line2d_5">
      <path d="M 266.917409 390.04 
L 266.917409 26.88 
" clip-path="url(#p242f7189a4)" style="fill: none; stroke: #b0b0b0; stroke-width: 0.8; stroke-linecap: square"/>
     </g>
     <g id="line2d_6">
      <g>
       <use xlink:href="#m008e620976" x="266.917409" y="390.04" style="stroke: #000000; stroke-width: 0.8"/>
      </g>
     </g>
     <g id="text_3">
      <!-- 2.500000e-08 -->
      <g transform="translate(231.816628 404.638438) scale(0.1 -0.1)">
       <defs>
        <path id="DejaVuSans-35" d="M 691 4666 
L 3169 4666 
L 3169 4134 
L 1269 4134 
L 1269 2991 
Q 1406 3038 1543 3061 
Q 1681 3084 1819 3084 
Q 2600 3084 3056 2656 
Q 3513 2228 3513 1497 
Q 3513 744 3044 326 
Q 2575 -91 1722 -91 
Q 1428 -91 1123 -41 
Q 819 9 494 109 
L 494 744 
Q 775 591 1075 516 
Q 1375 441 1709 441 
Q 2250 441 2565 725 
Q 2881 1009 2881 1497 
Q 2881 1984 2565 2268 
Q 2250 2553 1709 2553 
Q 1456 2553 1204 2497 
Q 953 2441 691 2322 
L 691 4666 
z
" transform="scale(0.015625)"/>
       </defs>
       <use xlink:href="#DejaVuSans-32"/>
       <use xlink:href="#DejaVuSans-2e" x="63.623047"/>
       <use xlink:href="#DejaVuSans-35" x="95.410156"/>
       <use xlink:href="#DejaVuSans-30" x="159.033203"/>
       <use xlink:href="#DejaVuSans-30" x="222.65625"/>
       <use xlink:href="#DejaVuSans-30" x="286.279297"/>
       <use xlink:href="#DejaVuSans-30" x="349.902344"/>
       <use xlink:href="#DejaVuSans-30" x="413.525391"/>
       <use xlink:href="#DejaVuSans-65" x="477.148438"/>
       <use xlink:href="#DejaVuSans-2d" x="538.671875"/>
       <use xlink:href="#DejaVuSans-30" x="574.755859"/>
       <use xlink:href="#DejaVuSans-38" x="638.378906"/>
      </g>
     </g>
    </g>
    <g id="xtick_4">
     <g id="line2d_7">
      <path d="M 333.476113 390.04 
L 333.476113 26.88 
" clip-path="url(#p242f7189a4)" style="fill: none; stroke: #b0b0b0; stroke-width: 0.8; stroke-linecap: square"/>
     </g>
     <g id="line2d_8">
      <g>
       <use xlink:href="#m008e620976" x="333.476113" y="390.04" style="stroke: #000000; stroke-width: 0.8"/>
      </g>
     </g>
     <g id="text_4">
      <!-- 3.700033e-08 -->
      <g transform="translate(298.375332 404.638438) scale(0.1 -0.1)">
       <defs>
        <path id="DejaVuSans-33" d="M 2597 2516 
Q 3050 2419 3304 2112 
Q 3559 1806 3559 1356 
Q 3559 666 3084 287 
Q 2609 -91 1734 -91 
Q 1441 -91 1130 -33 
Q 819 25 488 141 
L 488 750 
Q 750 597 1062 519 
Q 1375 441 1716 441 
Q 2309 441 2620 675 
Q 2931 909 2931 1356 
Q 2931 1769 2642 2001 
Q 2353 2234 1838 2234 
L 1294 2234 
L 1294 2753 
L 1863 2753 
Q 2328 2753 2575 2939 
Q 2822 3125 2822 3475 
Q 2822 3834 2567 4026 
Q 2313 4219 1838 4219 
Q 1578 4219 1281 4162 
Q 984 4106 628 3988 
L 628 4550 
Q 988 4650 1302 4700 
Q 1616 4750 1894 4750 
Q 2613 4750 3031 4423 
Q 3450 4097 3450 3541 
Q 3450 3153 3228 2886 
Q 3006 2619 2597 2516 
z
" transform="scale(0.015625)"/>
        <path id="DejaVuSans-37" d="M 525 4666 
L 3525 4666 
L 3525 4397 
L 1831 0 
L 1172 0 
L 2766 4134 
L 525 4134 
L 525 4666 
z
" transform="scale(0.015625)"/>
       </defs>
       <use xlink:href="#DejaVuSans-33"/>
       <use xlink:href="#DejaVuSans-2e" x="63.623047"/>
       <use xlink:href="#DejaVuSans-37" x="95.410156"/>
       <use xlink:href="#DejaVuSans-30" x="159.033203"/>
       <use xlink:href="#DejaVuSans-30" x="222.65625"/>
       <use xlink:href="#DejaVuSans-30" x="286.279297"/>
       <use xlink:href="#DejaVuSans-33" x="349.902344"/>
       <use xlink:href="#DejaVuSans-33" x="413.525391"/>
       <use xlink:href="#DejaVuSans-65" x="477.148438"/>
       <use xlink:href="#DejaVuSans-2d" x="538.671875"/>
       <use xlink:href="#DejaVuSans-30" x="574.755859"/>
       <use xlink:href="#DejaVuSans-38" x="638.378906"/>
      </g>
     </g>
    </g>
    <g id="xtick_5">
     <g id="line2d_9">
      <path d="M 400.034818 390.04 
L 400.034818 26.88 
" clip-path="url(#p242f7189a4)" style="fill: none; stroke: #b0b0b0; stroke-width: 0.8; stroke-linecap: square"/>
     </g>
     <g id="line2d_10">
      <g>
       <use xlink:href="#m008e620976" x="400.034818" y="390.04" style="stroke: #000000; stroke-width: 0.8"/>
      </g>
     </g>
     <g id="text_5">
      <!-- 5.003826e-08 -->
      <g transform="translate(364.934037 404.638438) scale(0.1 -0.1)">
       <use xlink:href="#DejaVuSans-35"/>
       <use xlink:href="#DejaVuSans-2e" x="63.623047"/>
       <use xlink:href="#DejaVuSans-30" x="95.410156"/>
       <use xlink:href="#DejaVuSans-30" x="159.033203"/>
       <use xlink:href="#DejaVuSans-33" x="222.65625"/>
       <use xlink:href="#DejaVuSans-38" x="286.279297"/>
       <use xlink:href="#DejaVuSans-32" x="349.902344"/>
       <use xlink:href="#DejaVuSans-36" x="413.525391"/>
       <use xlink:href="#DejaVuSans-65" x="477.148438"/>
       <use xlink:href="#DejaVuSans-2d" x="538.671875"/>
       <use xlink:href="#DejaVuSans-30" x="574.755859"/>
       <use xlink:href="#DejaVuSans-38" x="638.378906"/>
      </g>
     </g>
    </g>
    <g id="xtick_6">
     <g id="line2d_11">
      <path d="M 466.593522 390.04 
L 466.593522 26.88 
" clip-path="url(#p242f7189a4)" style="fill: none; stroke: #b0b0b0; stroke-width: 0.8; stroke-linecap: square"/>
     </g>
     <g id="line2d_12">
      <g>
       <use xlink:href="#m008e620976" x="466.593522" y="390.04" style="stroke: #000000; stroke-width: 0.8"/>
      </g>
     </g>
     <g id="text_6">
      <!-- 6.066598e-08 -->
      <g transform="translate(431.492741 404.638438) scale(0.1 -0.1)">
       <use xlink:href="#DejaVuSans-36"/>
       <use xlink:href="#DejaVuSans-2e" x="63.623047"/>
       <use xlink:href="#DejaVuSans-30" x="95.410156"/>
       <use xlink:href="#DejaVuSans-36" x="159.033203"/>
       <use xlink:href="#DejaVuSans-36" x="222.65625"/>
       <use xlink:href="#DejaVuSans-35" x="286.279297"/>
       <use xlink:href="#DejaVuSans-39" x="349.902344"/>
       <use xlink:href="#DejaVuSans-38" x="413.525391"/>
       <use xlink:href="#DejaVuSans-65" x="477.148438"/>
       <use xlink:href="#DejaVuSans-2d" x="538.671875"/>
       <use xlink:href="#DejaVuSans-30" x="574.755859"/>
       <use xlink:href="#DejaVuSans-38" x="638.378906"/>
      </g>
     </g>
    </g>
    <g id="xtick_7">
     <g id="line2d_13">
      <path d="M 533.152227 390.04 
L 533.152227 26.88 
" clip-path="url(#p242f7189a4)" style="fill: none; stroke: #b0b0b0; stroke-width: 0.8; stroke-linecap: square"/>
     </g>
     <g id="line2d_14">
      <g>
       <use xlink:href="#m008e620976" x="533.152227" y="390.04" style="stroke: #000000; stroke-width: 0.8"/>
      </g>
     </g>
     <g id="text_7">
      <!-- 7.211743e-08 -->
      <g transform="translate(498.051445 404.638438) scale(0.1 -0.1)">
       <use xlink:href="#DejaVuSans-37"/>
       <use xlink:href="#DejaVuSans-2e" x="63.623047"/>
       <use xlink:href="#DejaVuSans-32" x="95.410156"/>
       <use xlink:href="#DejaVuSans-31" x="159.033203"/>
       <use xlink:href="#DejaVuSans-31" x="222.65625"/>
       <use xlink:href="#DejaVuSans-37" x="286.279297"/>
       <use xlink:href="#DejaVuSans-34" x="349.902344"/>
       <use xlink:href="#DejaVuSans-33" x="413.525391"/>
       <use xlink:href="#DejaVuSans-65" x="477.148438"/>
       <use xlink:href="#DejaVuSans-2d" x="538.671875"/>
       <use xlink:href="#DejaVuSans-30" x="574.755859"/>
       <use xlink:href="#DejaVuSans-38" x="638.378906"/>
      </g>
     </g>
    </g>
    <g id="xtick_8">
     <g id="line2d_15">
      <path d="M 599.710931 390.04 
L 599.710931 26.88 
" clip-path="url(#p242f7189a4)" style="fill: none; stroke: #b0b0b0; stroke-width: 0.8; stroke-linecap: square"/>
     </g>
     <g id="line2d_16">
      <g>
       <use xlink:href="#m008e620976" x="599.710931" y="390.04" style="stroke: #000000; stroke-width: 0.8"/>
      </g>
     </g>
     <g id="text_8">
      <!-- 8.500000e-08 -->
      <g transform="translate(564.61015 404.638438) scale(0.1 -0.1)">
       <use xlink:href="#DejaVuSans-38"/>
       <use xlink:href="#DejaVuSans-2e" x="63.623047"/>
       <use xlink:href="#DejaVuSans-35" x="95.410156"/>
       <use xlink:href="#DejaVuSans-30" x="159.033203"/>
       <use xlink:href="#DejaVuSans-30" x="222.65625"/>
       <use xlink:href="#DejaVuSans-30" x="286.279297"/>
       <use xlink:href="#DejaVuSans-30" x="349.902344"/>
       <use xlink:href="#DejaVuSans-30" x="413.525391"/>
       <use xlink:href="#DejaVuSans-65" x="477.148438"/>
       <use xlink:href="#DejaVuSans-2d" x="538.671875"/>
       <use xlink:href="#DejaVuSans-30" x="574.755859"/>
       <use xlink:href="#DejaVuSans-38" x="638.378906"/>
      </g>
     </g>
    </g>
    <g id="xtick_9">
     <g id="line2d_17">
      <path d="M 666.269636 390.04 
L 666.269636 26.88 
" clip-path="url(#p242f7189a4)" style="fill: none; stroke: #b0b0b0; stroke-width: 0.8; stroke-linecap: square"/>
     </g>
     <g id="line2d_18">
      <g>
       <use xlink:href="#m008e620976" x="666.269636" y="390.04" style="stroke: #000000; stroke-width: 0.8"/>
      </g>
     </g>
     <g id="text_9">
      <!-- 9.700033e-08 -->
      <g transform="translate(631.168854 404.638438) scale(0.1 -0.1)">
       <use xlink:href="#DejaVuSans-39"/>
       <use xlink:href="#DejaVuSans-2e" x="63.623047"/>
       <use xlink:href="#DejaVuSans-37" x="95.410156"/>
       <use xlink:href="#DejaVuSans-30" x="159.033203"/>
       <use xlink:href="#DejaVuSans-30" x="222.65625"/>
       <use xlink:href="#DejaVuSans-30" x="286.279297"/>
       <use xlink:href="#DejaVuSans-33" x="349.902344"/>
       <use xlink:href="#DejaVuSans-33" x="413.525391"/>
       <use xlink:href="#DejaVuSans-65" x="477.148438"/>
       <use xlink:href="#DejaVuSans-2d" x="538.671875"/>
       <use xlink:href="#DejaVuSans-30" x="574.755859"/>
       <use xlink:href="#DejaVuSans-38" x="638.378906"/>
      </g>
     </g>
    </g>
    <g id="text_10">
     <!-- Time (s) -->
     <g transform="translate(387.471094 418.316562) scale(0.1 -0.1)">
      <defs>
       <path id="DejaVuSans-54" d="M -19 4666 
L 3928 4666 
L 3928 4134 
L 2272 4134 
L 2272 0 
L 1638 0 
L 1638 4134 
L -19 4134 
L -19 4666 
z
" transform="scale(0.015625)"/>
       <path id="DejaVuSans-69" d="M 603 3500 
L 1178 3500 
L 1178 0 
L 603 0 
L 603 3500 
z
M 603 4863 
L 1178 4863 
L 1178 4134 
L 603 4134 
L 603 4863 
z
" transform="scale(0.015625)"/>
       <path id="DejaVuSans-6d" d="M 3328 2828 
Q 3544 3216 3844 3400 
Q 4144 3584 4550 3584 
Q 5097 3584 5394 3201 
Q 5691 2819 5691 2113 
L 5691 0 
L 5113 0 
L 5113 2094 
Q 5113 2597 4934 2840 
Q 4756 3084 4391 3084 
Q 3944 3084 3684 2787 
Q 3425 2491 3425 1978 
L 3425 0 
L 2847 0 
L 2847 2094 
Q 2847 2600 2669 2842 
Q 2491 3084 2119 3084 
Q 1678 3084 1418 2786 
Q 1159 2488 1159 1978 
L 1159 0 
L 581 0 
L 581 3500 
L 1159 3500 
L 1159 2956 
Q 1356 3278 1631 3431 
Q 1906 3584 2284 3584 
Q 2666 3584 2933 3390 
Q 3200 3197 3328 2828 
z
" transform="scale(0.015625)"/>
       <path id="DejaVuSans-20" transform="scale(0.015625)"/>
       <path id="DejaVuSans-28" d="M 1984 4856 
Q 1566 4138 1362 3434 
Q 1159 2731 1159 2009 
Q 1159 1288 1364 580 
Q 1569 -128 1984 -844 
L 1484 -844 
Q 1016 -109 783 600 
Q 550 1309 550 2009 
Q 550 2706 781 3412 
Q 1013 4119 1484 4856 
L 1984 4856 
z
" transform="scale(0.015625)"/>
       <path id="DejaVuSans-73" d="M 2834 3397 
L 2834 2853 
Q 2591 2978 2328 3040 
Q 2066 3103 1784 3103 
Q 1356 3103 1142 2972 
Q 928 2841 928 2578 
Q 928 2378 1081 2264 
Q 1234 2150 1697 2047 
L 1894 2003 
Q 2506 1872 2764 1633 
Q 3022 1394 3022 966 
Q 3022 478 2636 193 
Q 2250 -91 1575 -91 
Q 1294 -91 989 -36 
Q 684 19 347 128 
L 347 722 
Q 666 556 975 473 
Q 1284 391 1588 391 
Q 1994 391 2212 530 
Q 2431 669 2431 922 
Q 2431 1156 2273 1281 
Q 2116 1406 1581 1522 
L 1381 1569 
Q 847 1681 609 1914 
Q 372 2147 372 2553 
Q 372 3047 722 3315 
Q 1072 3584 1716 3584 
Q 2034 3584 2315 3537 
Q 2597 3491 2834 3397 
z
" transform="scale(0.015625)"/>
       <path id="DejaVuSans-29" d="M 513 4856 
L 1013 4856 
Q 1481 4119 1714 3412 
Q 1947 2706 1947 2009 
Q 1947 1309 1714 600 
Q 1481 -109 1013 -844 
L 513 -844 
Q 928 -128 1133 580 
Q 1338 1288 1338 2009 
Q 1338 2731 1133 3434 
Q 928 4138 513 4856 
z
" transform="scale(0.015625)"/>
      </defs>
      <use xlink:href="#DejaVuSans-54"/>
      <use xlink:href="#DejaVuSans-69" x="57.958984"/>
      <use xlink:href="#DejaVuSans-6d" x="85.742188"/>
      <use xlink:href="#DejaVuSans-65" x="183.154297"/>
      <use xlink:href="#DejaVuSans-20" x="244.677734"/>
      <use xlink:href="#DejaVuSans-28" x="276.464844"/>
      <use xlink:href="#DejaVuSans-73" x="315.478516"/>
      <use xlink:href="#DejaVuSans-29" x="367.578125"/>
     </g>
    </g>
   </g>
   <g id="matplotlib.axis_2">
    <g id="ytick_1">
     <g id="line2d_19">
      <path d="M 106.4 373.532727 
L 709.2 373.532727 
" clip-path="url(#p242f7189a4)" style="fill: none; stroke: #b0b0b0; stroke-width: 0.8; stroke-linecap: square"/>
     </g>
     <g id="line2d_20">
      <defs>
       <path id="m1381e055bb" d="M 0 0 
L -3.5 0 
" style="stroke: #000000; stroke-width: 0.8"/>
      </defs>
      <g>
       <use xlink:href="#m1381e055bb" x="106.4" y="373.532727" style="stroke: #000000; stroke-width: 0.8"/>
      </g>
     </g>
     <g id="text_11">
      <!-- 0.000000e+00 -->
      <g transform="translate(24.426563 377.331946) scale(0.1 -0.1)">
       <use xlink:href="#DejaVuSans-30"/>
       <use xlink:href="#DejaVuSans-2e" x="63.623047"/>
       <use xlink:href="#DejaVuSans-30" x="95.410156"/>
       <use xlink:href="#DejaVuSans-30" x="159.033203"/>
       <use xlink:href="#DejaVuSans-30" x="222.65625"/>
       <use xlink:href="#DejaVuSans-30" x="286.279297"/>
       <use xlink:href="#DejaVuSans-30" x="349.902344"/>
       <use xlink:href="#DejaVuSans-30" x="413.525391"/>
       <use xlink:href="#DejaVuSans-65" x="477.148438"/>
       <use xlink:href="#DejaVuSans-2b" x="538.671875"/>
       <use xlink:href="#DejaVuSans-30" x="622.460938"/>
       <use xlink:href="#DejaVuSans-30" x="686.083984"/>
      </g>
     </g>
    </g>
    <g id="ytick_2">
     <g id="line2d_21">
      <path d="M 106.4 332.961857 
L 709.2 332.961857 
" clip-path="url(#p242f7189a4)" style="fill: none; stroke: #b0b0b0; stroke-width: 0.8; stroke-linecap: square"/>
     </g>
     <g id="line2d_22">
      <g>
       <use xlink:href="#m1381e055bb" x="106.4" y="332.961857" style="stroke: #000000; stroke-width: 0.8"/>
      </g>
     </g>
     <g id="text_12">
      <!-- c3 -->
      <g transform="translate(87.539062 336.761076) scale(0.1 -0.1)">
       <defs>
        <path id="DejaVuSans-63" d="M 3122 3366 
L 3122 2828 
Q 2878 2963 2633 3030 
Q 2388 3097 2138 3097 
Q 1578 3097 1268 2742 
Q 959 2388 959 1747 
Q 959 1106 1268 751 
Q 1578 397 2138 397 
Q 2388 397 2633 464 
Q 2878 531 3122 666 
L 3122 134 
Q 2881 22 2623 -34 
Q 2366 -91 2075 -91 
Q 1284 -91 818 406 
Q 353 903 353 1747 
Q 353 2603 823 3093 
Q 1294 3584 2113 3584 
Q 2378 3584 2631 3529 
Q 2884 3475 3122 3366 
z
" transform="scale(0.015625)"/>
       </defs>
       <use xlink:href="#DejaVuSans-63"/>
       <use xlink:href="#DejaVuSans-33" x="54.980469"/>
      </g>
     </g>
    </g>
    <g id="ytick_3">
     <g id="line2d_23">
      <path d="M 106.4 292.390987 
L 709.2 292.390987 
" clip-path="url(#p242f7189a4)" style="fill: none; stroke: #b0b0b0; stroke-width: 0.8; stroke-linecap: square"/>
     </g>
     <g id="line2d_24">
      <g>
       <use xlink:href="#m1381e055bb" x="106.4" y="292.390987" style="stroke: #000000; stroke-width: 0.8"/>
      </g>
     </g>
     <g id="text_13">
      <!-- -3.83689e-10 -->
      <g transform="translate(31.953125 296.190206) scale(0.1 -0.1)">
       <use xlink:href="#DejaVuSans-2d"/>
       <use xlink:href="#DejaVuSans-33" x="36.083984"/>
       <use xlink:href="#DejaVuSans-2e" x="99.707031"/>
       <use xlink:href="#DejaVuSans-38" x="131.494141"/>
       <use xlink:href="#DejaVuSans-33" x="195.117188"/>
       <use xlink:href="#DejaVuSans-36" x="258.740234"/>
       <use xlink:href="#DejaVuSans-38" x="322.363281"/>
       <use xlink:href="#DejaVuSans-39" x="385.986328"/>
       <use xlink:href="#DejaVuSans-65" x="449.609375"/>
       <use xlink:href="#DejaVuSans-2d" x="511.132812"/>
       <use xlink:href="#DejaVuSans-31" x="547.216797"/>
       <use xlink:href="#DejaVuSans-30" x="610.839844"/>
      </g>
     </g>
    </g>
    <g id="ytick_4">
     <g id="line2d_25">
      <path d="M 106.4 251.820117 
L 709.2 251.820117 
" clip-path="url(#p242f7189a4)" style="fill: none; stroke: #b0b0b0; stroke-width: 0.8; stroke-linecap: square"/>
     </g>
     <g id="line2d_26">
      <g>
       <use xlink:href="#m1381e055bb" x="106.4" y="251.820117" style="stroke: #000000; stroke-width: 0.8"/>
      </g>
     </g>
     <g id="text_14">
      <!-- -3.76787e-13 -->
      <g transform="translate(31.953125 255.619336) scale(0.1 -0.1)">
       <use xlink:href="#DejaVuSans-2d"/>
       <use xlink:href="#DejaVuSans-33" x="36.083984"/>
       <use xlink:href="#DejaVuSans-2e" x="99.707031"/>
       <use xlink:href="#DejaVuSans-37" x="131.494141"/>
       <use xlink:href="#DejaVuSans-36" x="195.117188"/>
       <use xlink:href="#DejaVuSans-37" x="258.740234"/>
       <use xlink:href="#DejaVuSans-38" x="322.363281"/>
       <use xlink:href="#DejaVuSans-37" x="385.986328"/>
       <use xlink:href="#DejaVuSans-65" x="449.609375"/>
       <use xlink:href="#DejaVuSans-2d" x="511.132812"/>
       <use xlink:href="#DejaVuSans-31" x="547.216797"/>
       <use xlink:href="#DejaVuSans-33" x="610.839844"/>
      </g>
     </g>
    </g>
    <g id="ytick_5">
     <g id="line2d_27">
      <path d="M 106.4 211.249247 
L 709.2 211.249247 
" clip-path="url(#p242f7189a4)" style="fill: none; stroke: #b0b0b0; stroke-width: 0.8; stroke-linecap: square"/>
     </g>
     <g id="line2d_28">
      <g>
       <use xlink:href="#m1381e055bb" x="106.4" y="211.249247" style="stroke: #000000; stroke-width: 0.8"/>
      </g>
     </g>
     <g id="text_15">
      <!-- 5.176355e-09 -->
      <g transform="translate(29.198437 215.048466) scale(0.1 -0.1)">
       <use xlink:href="#DejaVuSans-35"/>
       <use xlink:href="#DejaVuSans-2e" x="63.623047"/>
       <use xlink:href="#DejaVuSans-31" x="95.410156"/>
       <use xlink:href="#DejaVuSans-37" x="159.033203"/>
       <use xlink:href="#DejaVuSans-36" x="222.65625"/>
       <use xlink:href="#DejaVuSans-33" x="286.279297"/>
       <use xlink:href="#DejaVuSans-35" x="349.902344"/>
       <use xlink:href="#DejaVuSans-35" x="413.525391"/>
       <use xlink:href="#DejaVuSans-65" x="477.148438"/>
       <use xlink:href="#DejaVuSans-2d" x="538.671875"/>
       <use xlink:href="#DejaVuSans-30" x="574.755859"/>
       <use xlink:href="#DejaVuSans-39" x="638.378906"/>
      </g>
     </g>
    </g>
    <g id="ytick_6">
     <g id="line2d_29">
      <path d="M 106.4 170.678377 
L 709.2 170.678377 
" clip-path="url(#p242f7189a4)" style="fill: none; stroke: #b0b0b0; stroke-width: 0.8; stroke-linecap: square"/>
     </g>
     <g id="line2d_30">
      <g>
       <use xlink:href="#m1381e055bb" x="106.4" y="170.678377" style="stroke: #000000; stroke-width: 0.8"/>
      </g>
     </g>
     <g id="text_16">
      <!-- -4.01439e-11 -->
      <g transform="translate(31.953125 174.477596) scale(0.1 -0.1)">
       <use xlink:href="#DejaVuSans-2d"/>
       <use xlink:href="#DejaVuSans-34" x="36.083984"/>
       <use xlink:href="#DejaVuSans-2e" x="99.707031"/>
       <use xlink:href="#DejaVuSans-30" x="131.494141"/>
       <use xlink:href="#DejaVuSans-31" x="195.117188"/>
       <use xlink:href="#DejaVuSans-34" x="258.740234"/>
       <use xlink:href="#DejaVuSans-33" x="322.363281"/>
       <use xlink:href="#DejaVuSans-39" x="385.986328"/>
       <use xlink:href="#DejaVuSans-65" x="449.609375"/>
       <use xlink:href="#DejaVuSans-2d" x="511.132812"/>
       <use xlink:href="#DejaVuSans-31" x="547.216797"/>
       <use xlink:href="#DejaVuSans-31" x="610.839844"/>
      </g>
     </g>
    </g>
    <g id="ytick_7">
     <g id="line2d_31">
      <path d="M 106.4 130.107507 
L 709.2 130.107507 
" clip-path="url(#p242f7189a4)" style="fill: none; stroke: #b0b0b0; stroke-width: 0.8; stroke-linecap: square"/>
     </g>
     <g id="line2d_32">
      <g>
       <use xlink:href="#m1381e055bb" x="106.4" y="130.107507" style="stroke: #000000; stroke-width: 0.8"/>
      </g>
     </g>
     <g id="text_17">
      <!-- -8.32871e-12 -->
      <g transform="translate(31.953125 133.906726) scale(0.1 -0.1)">
       <use xlink:href="#DejaVuSans-2d"/>
       <use xlink:href="#DejaVuSans-38" x="36.083984"/>
       <use xlink:href="#DejaVuSans-2e" x="99.707031"/>
       <use xlink:href="#DejaVuSans-33" x="131.494141"/>
       <use xlink:href="#DejaVuSans-32" x="195.117188"/>
       <use xlink:href="#DejaVuSans-38" x="258.740234"/>
       <use xlink:href="#DejaVuSans-37" x="322.363281"/>
       <use xlink:href="#DejaVuSans-31" x="385.986328"/>
       <use xlink:href="#DejaVuSans-65" x="449.609375"/>
       <use xlink:href="#DejaVuSans-2d" x="511.132812"/>
       <use xlink:href="#DejaVuSans-31" x="547.216797"/>
       <use xlink:href="#DejaVuSans-32" x="610.839844"/>
      </g>
     </g>
    </g>
    <g id="ytick_8">
     <g id="line2d_33">
      <path d="M 106.4 89.536637 
L 709.2 89.536637 
" clip-path="url(#p242f7189a4)" style="fill: none; stroke: #b0b0b0; stroke-width: 0.8; stroke-linecap: square"/>
     </g>
     <g id="line2d_34">
      <g>
       <use xlink:href="#m1381e055bb" x="106.4" y="89.536637" style="stroke: #000000; stroke-width: 0.8"/>
      </g>
     </g>
     <g id="text_18">
      <!-- 1.424699e-12 -->
      <g transform="translate(29.198437 93.335856) scale(0.1 -0.1)">
       <use xlink:href="#DejaVuSans-31"/>
       <use xlink:href="#DejaVuSans-2e" x="63.623047"/>
       <use xlink:href="#DejaVuSans-34" x="95.410156"/>
       <use xlink:href="#DejaVuSans-32" x="159.033203"/>
       <use xlink:href="#DejaVuSans-34" x="222.65625"/>
       <use xlink:href="#DejaVuSans-36" x="286.279297"/>
       <use xlink:href="#DejaVuSans-39" x="349.902344"/>
       <use xlink:href="#DejaVuSans-39" x="413.525391"/>
       <use xlink:href="#DejaVuSans-65" x="477.148438"/>
       <use xlink:href="#DejaVuSans-2d" x="538.671875"/>
       <use xlink:href="#DejaVuSans-31" x="574.755859"/>
       <use xlink:href="#DejaVuSans-32" x="638.378906"/>
      </g>
     </g>
    </g>
    <g id="ytick_9">
     <g id="line2d_35">
      <path d="M 106.4 48.965767 
L 709.2 48.965767 
" clip-path="url(#p242f7189a4)" style="fill: none; stroke: #b0b0b0; stroke-width: 0.8; stroke-linecap: square"/>
     </g>
     <g id="line2d_36">
      <g>
       <use xlink:href="#m1381e055bb" x="106.4" y="48.965767" style="stroke: #000000; stroke-width: 0.8"/>
      </g>
     </g>
     <g id="text_19">
      <!-- 1.175735e+00 -->
      <g transform="translate(24.426563 52.764986) scale(0.1 -0.1)">
       <use xlink:href="#DejaVuSans-31"/>
       <use xlink:href="#DejaVuSans-2e" x="63.623047"/>
       <use xlink:href="#DejaVuSans-31" x="95.410156"/>
       <use xlink:href="#DejaVuSans-37" x="159.033203"/>
       <use xlink:href="#DejaVuSans-35" x="222.65625"/>
       <use xlink:href="#DejaVuSans-37" x="286.279297"/>
       <use xlink:href="#DejaVuSans-33" x="349.902344"/>
       <use xlink:href="#DejaVuSans-35" x="413.525391"/>
       <use xlink:href="#DejaVuSans-65" x="477.148438"/>
       <use xlink:href="#DejaVuSans-2b" x="538.671875"/>
       <use xlink:href="#DejaVuSans-30" x="622.460938"/>
       <use xlink:href="#DejaVuSans-30" x="686.083984"/>
      </g>
     </g>
    </g>
    <g id="text_20">
     <!-- Voltage (V) -->
     <g transform="translate(18.346875 236.127187) rotate(-90) scale(0.1 -0.1)">
      <defs>
       <path id="DejaVuSans-56" d="M 1831 0 
L 50 4666 
L 709 4666 
L 2188 738 
L 3669 4666 
L 4325 4666 
L 2547 0 
L 1831 0 
z
" transform="scale(0.015625)"/>
       <path id="DejaVuSans-6f" d="M 1959 3097 
Q 1497 3097 1228 2736 
Q 959 2375 959 1747 
Q 959 1119 1226 758 
Q 1494 397 1959 397 
Q 2419 397 2687 759 
Q 2956 1122 2956 1747 
Q 2956 2369 2687 2733 
Q 2419 3097 1959 3097 
z
M 1959 3584 
Q 2709 3584 3137 3096 
Q 3566 2609 3566 1747 
Q 3566 888 3137 398 
Q 2709 -91 1959 -91 
Q 1206 -91 779 398 
Q 353 888 353 1747 
Q 353 2609 779 3096 
Q 1206 3584 1959 3584 
z
" transform="scale(0.015625)"/>
       <path id="DejaVuSans-6c" d="M 603 4863 
L 1178 4863 
L 1178 0 
L 603 0 
L 603 4863 
z
" transform="scale(0.015625)"/>
       <path id="DejaVuSans-74" d="M 1172 4494 
L 1172 3500 
L 2356 3500 
L 2356 3053 
L 1172 3053 
L 1172 1153 
Q 1172 725 1289 603 
Q 1406 481 1766 481 
L 2356 481 
L 2356 0 
L 1766 0 
Q 1100 0 847 248 
Q 594 497 594 1153 
L 594 3053 
L 172 3053 
L 172 3500 
L 594 3500 
L 594 4494 
L 1172 4494 
z
" transform="scale(0.015625)"/>
       <path id="DejaVuSans-61" d="M 2194 1759 
Q 1497 1759 1228 1600 
Q 959 1441 959 1056 
Q 959 750 1161 570 
Q 1363 391 1709 391 
Q 2188 391 2477 730 
Q 2766 1069 2766 1631 
L 2766 1759 
L 2194 1759 
z
M 3341 1997 
L 3341 0 
L 2766 0 
L 2766 531 
Q 2569 213 2275 61 
Q 1981 -91 1556 -91 
Q 1019 -91 701 211 
Q 384 513 384 1019 
Q 384 1609 779 1909 
Q 1175 2209 1959 2209 
L 2766 2209 
L 2766 2266 
Q 2766 2663 2505 2880 
Q 2244 3097 1772 3097 
Q 1472 3097 1187 3025 
Q 903 2953 641 2809 
L 641 3341 
Q 956 3463 1253 3523 
Q 1550 3584 1831 3584 
Q 2591 3584 2966 3190 
Q 3341 2797 3341 1997 
z
" transform="scale(0.015625)"/>
       <path id="DejaVuSans-67" d="M 2906 1791 
Q 2906 2416 2648 2759 
Q 2391 3103 1925 3103 
Q 1463 3103 1205 2759 
Q 947 2416 947 1791 
Q 947 1169 1205 825 
Q 1463 481 1925 481 
Q 2391 481 2648 825 
Q 2906 1169 2906 1791 
z
M 3481 434 
Q 3481 -459 3084 -895 
Q 2688 -1331 1869 -1331 
Q 1566 -1331 1297 -1286 
Q 1028 -1241 775 -1147 
L 775 -588 
Q 1028 -725 1275 -790 
Q 1522 -856 1778 -856 
Q 2344 -856 2625 -561 
Q 2906 -266 2906 331 
L 2906 616 
Q 2728 306 2450 153 
Q 2172 0 1784 0 
Q 1141 0 747 490 
Q 353 981 353 1791 
Q 353 2603 747 3093 
Q 1141 3584 1784 3584 
Q 2172 3584 2450 3431 
Q 2728 3278 2906 2969 
L 2906 3500 
L 3481 3500 
L 3481 434 
z
" transform="scale(0.015625)"/>
      </defs>
      <use xlink:href="#DejaVuSans-56"/>
      <use xlink:href="#DejaVuSans-6f" x="60.658203"/>
      <use xlink:href="#DejaVuSans-6c" x="121.839844"/>
      <use xlink:href="#DejaVuSans-74" x="149.623047"/>
      <use xlink:href="#DejaVuSans-61" x="188.832031"/>
      <use xlink:href="#DejaVuSans-67" x="250.111328"/>
      <use xlink:href="#DejaVuSans-65" x="313.587891"/>
      <use xlink:href="#DejaVuSans-20" x="375.111328"/>
      <use xlink:href="#DejaVuSans-28" x="406.898438"/>
      <use xlink:href="#DejaVuSans-56" x="445.912109"/>
      <use xlink:href="#DejaVuSans-29" x="514.320312"/>
     </g>
    </g>
   </g>
   <g id="line2d_37">
    <path d="M 133.8 373.532727 
L 172.625911 373.532727 
L 182.609717 368.968504 
L 193.702834 368.968504 
L 194.812146 368.461369 
L 195.921457 368.968504 
L 245.840486 368.968504 
L 246.949798 367.954233 
L 249.168421 366.939961 
L 250.277733 373.532727 
L 259.152227 373.532727 
L 194.812146 368.461369 
L 260.261538 373.532727 
L 285.775709 373.532727 
L 286.88502 366.432825 
L 293.540891 363.39001 
L 294.650202 368.968504 
L 323.492308 368.968504 
L 194.812146 368.461369 
L 351.225101 368.968504 
L 356.77166 368.968504 
L 357.880972 367.954233 
L 360.099595 366.939961 
L 361.208907 362.882874 
L 362.318219 373.532727 
L 387.832389 373.532727 
L 194.812146 368.461369 
L 391.160324 373.532727 
L 397.816194 373.532727 
L 398.925506 365.925689 
L 404.472065 363.39001 
L 405.581377 368.968504 
L 452.17247 368.968504 
L 194.812146 368.461369 
L 467.702834 368.968504 
L 468.812146 367.954233 
L 471.030769 366.939961 
L 472.140081 373.532727 
L 508.747368 373.532727 
L 509.85668 365.925689 
L 515.403239 363.39001 
L 516.512551 368.968504 
L 194.812146 368.461369 
L 578.634008 368.968504 
L 579.74332 367.954233 
L 580.852632 367.447097 
L 194.812146 368.461369 
L 581.961943 366.939961 
L 583.071255 373.532727 
L 618.569231 373.532727 
L 619.678543 362.375738 
L 620.787854 365.925689 
L 626.334413 363.39001 
L 627.443725 368.968504 
L 645.192713 368.968504 
L 194.812146 368.461369 
L 681.8 368.968504 
L 194.812146 361.868602 
L 133.8 361.361466 
L 147.111741 361.361466 
L 193.702834 361.361466 
L 194.812146 361.868602 
L 195.921457 361.361466 
L 259.152227 361.361466 
L 194.812146 361.868602 
L 272.463968 361.361466 
L 323.492308 361.361466 
L 194.812146 361.868602 
L 351.225101 361.361466 
L 387.832389 361.361466 
L 194.812146 361.868602 
L 429.986235 361.361466 
L 452.17247 361.361466 
L 194.812146 361.868602 
L 507.638057 361.361466 
L 516.512551 361.361466 
L 194.812146 361.868602 
L 586.39919 361.361466 
L 645.192713 361.361466 
L 194.812146 361.868602 
L 681.8 361.361466 
L 194.812146 360.85433 
L 133.8 373.532727 
L 134.909312 360.347195 
L 141.565182 357.304379 
L 142.674494 368.968504 
L 182.609717 368.968504 
L 183.719028 356.797243 
L 187.046964 355.275836 
L 188.156275 373.532727 
L 193.702834 373.532727 
L 194.812146 360.85433 
L 195.921457 373.532727 
L 238.075304 373.532727 
L 239.184615 354.7687 
L 244.731174 352.233021 
L 245.840486 368.968504 
L 259.152227 368.968504 
L 194.812146 360.85433 
L 260.261538 368.968504 
L 294.650202 368.968504 
L 295.759514 351.725885 
L 299.087449 350.204477 
L 300.196761 373.532727 
L 323.492308 373.532727 
L 194.812146 360.85433 
L 324.601619 373.532727 
L 349.006478 373.532727 
L 350.115789 354.7687 
L 355.662348 352.233021 
L 356.77166 368.968504 
L 387.832389 368.968504 
L 194.812146 360.85433 
L 390.051012 368.968504 
L 405.581377 368.968504 
L 406.690688 351.725885 
L 410.018623 350.204477 
L 411.127935 373.532727 
L 452.17247 373.532727 
L 194.812146 360.85433 
L 454.391093 373.532727 
L 459.937652 373.532727 
L 461.046964 354.7687 
L 466.593522 352.233021 
L 467.702834 368.968504 
L 516.512551 368.968504 
L 194.812146 360.85433 
L 517.621862 351.725885 
L 520.949798 350.204477 
L 522.059109 373.532727 
L 570.868826 373.532727 
L 571.978138 354.7687 
L 577.524696 352.233021 
L 578.634008 368.968504 
L 580.852632 368.968504 
L 194.812146 360.85433 
L 585.289879 368.968504 
L 627.443725 368.968504 
L 628.553036 351.725885 
L 631.880972 350.204477 
L 632.990283 373.532727 
L 645.192713 373.532727 
L 194.812146 360.85433 
L 648.520648 373.532727 
L 681.8 373.532727 
L 194.812146 349.697341 
L 133.8 373.532727 
L 172.625911 373.532727 
L 173.735223 349.190205 
L 179.281781 349.190205 
L 183.719028 347.161662 
L 193.702834 347.161662 
L 194.812146 349.697341 
L 195.921457 347.161662 
L 245.840486 347.161662 
L 250.277733 345.133118 
L 251.387045 373.532727 
L 259.152227 373.532727 
L 194.812146 349.697341 
L 260.261538 373.532727 
L 285.775709 373.532727 
L 286.88502 344.625982 
L 287.994332 349.190205 
L 290.212955 349.190205 
L 291.322267 348.683069 
L 292.431579 348.683069 
L 293.540891 347.668798 
L 294.650202 347.668798 
L 295.759514 347.161662 
L 323.492308 347.161662 
L 194.812146 349.697341 
L 329.038866 347.161662 
L 330.148178 344.118847 
L 331.25749 347.161662 
L 356.77166 347.161662 
L 361.208907 345.133118 
L 362.318219 343.611711 
L 363.42753 343.104575 
L 364.536842 343.611711 
L 365.646154 343.104575 
L 366.755466 343.611711 
L 367.864777 343.104575 
L 368.974089 343.611711 
L 370.083401 343.104575 
L 371.192713 343.611711 
L 372.302024 343.104575 
L 373.411336 343.611711 
L 374.520648 343.104575 
L 375.62996 343.611711 
L 376.739271 343.104575 
L 377.848583 343.611711 
L 378.957895 373.532727 
L 387.832389 373.532727 
L 194.812146 349.697341 
L 388.9417 373.532727 
L 397.816194 373.532727 
L 398.925506 349.190205 
L 401.14413 349.190205 
L 402.253441 348.683069 
L 403.362753 348.683069 
L 404.472065 347.668798 
L 405.581377 347.668798 
L 406.690688 347.161662 
L 452.17247 347.161662 
L 194.812146 349.697341 
L 463.265587 347.161662 
L 467.702834 347.161662 
L 472.140081 345.133118 
L 473.249393 373.532727 
L 508.747368 373.532727 
L 509.85668 349.190205 
L 512.075304 349.190205 
L 513.184615 348.683069 
L 514.293927 348.683069 
L 515.403239 347.668798 
L 516.512551 347.668798 
L 194.812146 349.697341 
L 530.933603 347.161662 
L 578.634008 347.161662 
L 580.852632 346.14739 
L 194.812146 349.697341 
L 581.961943 345.640254 
L 583.071255 345.133118 
L 584.180567 373.532727 
L 618.569231 373.532727 
L 619.678543 342.597439 
L 620.787854 349.190205 
L 623.006478 349.190205 
L 624.115789 348.683069 
L 625.225101 348.683069 
L 626.334413 347.668798 
L 627.443725 347.668798 
L 628.553036 347.161662 
L 645.192713 347.161662 
L 194.812146 349.697341 
L 664.051012 347.161662 
L 681.8 347.161662 
L 194.812146 342.090303 
L 133.8 368.968504 
L 193.702834 368.968504 
L 194.812146 342.090303 
L 195.921457 368.968504 
L 259.152227 368.968504 
L 194.812146 342.090303 
L 260.261538 368.968504 
L 323.492308 368.968504 
L 194.812146 342.090303 
L 324.601619 368.968504 
L 387.832389 368.968504 
L 194.812146 342.090303 
L 388.9417 368.968504 
L 452.17247 368.968504 
L 194.812146 342.090303 
L 453.281781 368.968504 
L 516.512551 368.968504 
L 194.812146 342.090303 
L 517.621862 368.968504 
L 580.852632 368.968504 
L 194.812146 342.090303 
L 581.961943 368.968504 
L 645.192713 368.968504 
L 194.812146 342.090303 
L 646.302024 368.968504 
L 681.8 368.968504 
L 194.812146 341.583167 
L 133.8 373.532727 
L 151.548988 373.532727 
L 152.6583 349.190205 
L 159.31417 349.190205 
L 160.423482 348.683069 
L 161.532794 348.683069 
L 162.642105 348.175934 
L 163.751417 341.076031 
L 164.860729 340.568895 
L 193.702834 340.568895 
L 194.812146 341.583167 
L 195.921457 340.568895 
L 211.451822 340.568895 
L 214.779757 339.047488 
L 215.889069 345.133118 
L 216.998381 345.133118 
L 218.107692 338.540352 
L 219.217004 338.033216 
L 220.326316 338.540352 
L 221.435628 338.033216 
L 222.544939 338.540352 
L 223.654251 338.033216 
L 224.763563 338.540352 
L 225.872874 338.033216 
L 226.982186 338.540352 
L 228.091498 338.033216 
L 229.20081 338.540352 
L 230.310121 338.033216 
L 231.419433 338.540352 
L 232.528745 338.033216 
L 233.638057 338.540352 
L 234.747368 338.033216 
L 235.85668 338.540352 
L 236.965992 338.033216 
L 238.075304 338.540352 
L 239.184615 373.532727 
L 259.152227 373.532727 
L 194.812146 341.583167 
L 260.261538 373.532727 
L 266.917409 373.532727 
L 268.026721 349.190205 
L 270.245344 349.190205 
L 271.354656 348.683069 
L 272.463968 348.683069 
L 273.573279 347.668798 
L 274.682591 341.076031 
L 275.791903 340.568895 
L 322.382996 340.568895 
L 323.492308 340.06176 
L 194.812146 341.583167 
L 324.601619 339.554624 
L 325.710931 339.047488 
L 326.820243 345.133118 
L 327.929555 345.133118 
L 329.038866 373.532727 
L 377.848583 373.532727 
L 378.957895 349.190205 
L 381.176518 349.190205 
L 382.28583 348.683069 
L 383.395142 348.683069 
L 384.504453 347.668798 
L 385.613765 341.076031 
L 386.723077 340.568895 
L 387.832389 340.568895 
L 194.812146 341.583167 
L 408.909312 340.568895 
L 433.31417 340.568895 
L 436.642105 339.047488 
L 437.751417 345.133118 
L 438.860729 345.133118 
L 439.97004 373.532727 
L 452.17247 373.532727 
L 194.812146 341.583167 
L 453.281781 373.532727 
L 488.779757 373.532727 
L 489.889069 349.190205 
L 492.107692 349.190205 
L 493.217004 348.683069 
L 494.326316 348.683069 
L 495.435628 347.668798 
L 496.544939 341.076031 
L 497.654251 340.568895 
L 516.512551 340.568895 
L 194.812146 341.583167 
L 544.245344 340.568895 
L 547.573279 339.047488 
L 548.682591 345.133118 
L 549.791903 345.133118 
L 550.901215 373.532727 
L 580.852632 373.532727 
L 194.812146 341.583167 
L 581.961943 373.532727 
L 599.710931 373.532727 
L 600.820243 349.190205 
L 603.038866 349.190205 
L 604.148178 348.683069 
L 605.25749 348.683069 
L 606.366802 347.668798 
L 607.476113 341.076031 
L 608.585425 340.568895 
L 645.192713 340.568895 
L 194.812146 341.583167 
L 655.176518 340.568895 
L 658.504453 339.047488 
L 659.613765 345.133118 
L 660.723077 345.133118 
L 661.832389 373.532727 
L 681.8 373.532727 
L 681.8 373.532727 
" clip-path="url(#p242f7189a4)" style="fill: none; stroke: #1f77b4; stroke-width: 1.5; stroke-linecap: square"/>
   </g>
   <g id="line2d_38">
    <path d="M 133.8 373.532727 
L 172.625911 373.532727 
L 173.735223 337.52608 
L 182.609717 333.468993 
L 193.702834 333.468993 
L 194.812146 332.961857 
L 195.921457 333.468993 
L 245.840486 333.468993 
L 246.949798 332.454721 
L 249.168421 331.44045 
L 250.277733 373.532727 
L 259.152227 373.532727 
L 194.812146 332.961857 
L 260.261538 373.532727 
L 285.775709 373.532727 
L 286.88502 330.933314 
L 293.540891 327.890499 
L 294.650202 333.468993 
L 323.492308 333.468993 
L 194.812146 332.961857 
L 351.225101 333.468993 
L 356.77166 333.468993 
L 357.880972 332.454721 
L 360.099595 331.44045 
L 361.208907 327.383363 
L 362.318219 373.532727 
L 387.832389 373.532727 
L 194.812146 332.961857 
L 388.9417 373.532727 
L 397.816194 373.532727 
L 398.925506 330.426178 
L 400.034818 326.876227 
L 401.14413 329.411906 
L 404.472065 327.890499 
L 405.581377 333.468993 
L 452.17247 333.468993 
L 194.812146 332.961857 
L 467.702834 333.468993 
L 468.812146 332.454721 
L 471.030769 331.44045 
L 472.140081 373.532727 
L 508.747368 373.532727 
L 509.85668 330.426178 
L 510.965992 326.876227 
L 512.075304 329.411906 
L 515.403239 327.890499 
L 516.512551 333.468993 
L 194.812146 332.961857 
L 578.634008 333.468993 
L 579.74332 332.454721 
L 580.852632 331.947586 
L 194.812146 332.961857 
L 581.961943 331.44045 
L 583.071255 373.532727 
L 618.569231 373.532727 
L 619.678543 326.369091 
L 620.787854 330.426178 
L 621.897166 326.876227 
L 623.006478 329.411906 
L 626.334413 327.890499 
L 627.443725 333.468993 
L 645.192713 333.468993 
L 194.812146 332.961857 
L 681.8 333.468993 
L 194.812146 325.861955 
L 133.8 373.532727 
L 151.548988 373.532727 
L 152.6583 325.354819 
L 162.642105 320.790596 
L 163.751417 368.968504 
L 193.702834 368.968504 
L 194.812146 325.861955 
L 195.921457 368.968504 
L 211.451822 368.968504 
L 212.561134 320.28346 
L 216.998381 318.254917 
L 218.107692 373.532727 
L 259.152227 373.532727 
L 194.812146 325.861955 
L 260.261538 373.532727 
L 266.917409 373.532727 
L 268.026721 317.747781 
L 273.573279 315.212102 
L 274.682591 368.968504 
L 322.382996 368.968504 
L 323.492308 320.28346 
L 194.812146 325.861955 
L 324.601619 319.776325 
L 326.820243 318.762053 
L 327.929555 373.532727 
L 377.848583 373.532727 
L 378.957895 317.747781 
L 384.504453 315.212102 
L 385.613765 368.968504 
L 387.832389 368.968504 
L 194.812146 325.861955 
L 388.9417 368.968504 
L 433.31417 368.968504 
L 434.423482 320.28346 
L 437.751417 318.762053 
L 438.860729 373.532727 
L 452.17247 373.532727 
L 194.812146 325.861955 
L 453.281781 373.532727 
L 488.779757 373.532727 
L 489.889069 317.747781 
L 495.435628 315.212102 
L 496.544939 368.968504 
L 516.512551 368.968504 
L 194.812146 325.861955 
L 517.621862 368.968504 
L 544.245344 368.968504 
L 545.354656 320.28346 
L 548.682591 318.762053 
L 549.791903 373.532727 
L 580.852632 373.532727 
L 194.812146 325.861955 
L 581.961943 373.532727 
L 599.710931 373.532727 
L 600.820243 317.747781 
L 606.366802 315.212102 
L 607.476113 368.968504 
L 645.192713 368.968504 
L 194.812146 325.861955 
L 646.302024 368.968504 
L 655.176518 368.968504 
L 656.28583 320.28346 
L 659.613765 318.762053 
L 660.723077 373.532727 
L 681.8 373.532727 
L 194.812146 314.704966 
L 133.8 373.532727 
L 134.909312 314.19783 
L 141.565182 311.155015 
L 142.674494 333.468993 
L 182.609717 333.468993 
L 183.719028 310.647879 
L 187.046964 309.126471 
L 188.156275 373.532727 
L 193.702834 373.532727 
L 194.812146 314.704966 
L 195.921457 373.532727 
L 238.075304 373.532727 
L 239.184615 308.619335 
L 244.731174 306.083656 
L 245.840486 333.468993 
L 259.152227 333.468993 
L 194.812146 314.704966 
L 260.261538 333.468993 
L 294.650202 333.468993 
L 295.759514 305.57652 
L 299.087449 304.055112 
L 300.196761 373.532727 
L 323.492308 373.532727 
L 194.812146 314.704966 
L 324.601619 373.532727 
L 349.006478 373.532727 
L 350.115789 308.619335 
L 355.662348 306.083656 
L 356.77166 333.468993 
L 387.832389 333.468993 
L 194.812146 314.704966 
L 388.9417 333.468993 
L 405.581377 333.468993 
L 406.690688 305.57652 
L 410.018623 304.055112 
L 411.127935 373.532727 
L 452.17247 373.532727 
L 194.812146 314.704966 
L 453.281781 373.532727 
L 459.937652 373.532727 
L 461.046964 308.619335 
L 466.593522 306.083656 
L 467.702834 333.468993 
L 516.512551 333.468993 
L 194.812146 314.704966 
L 517.621862 305.57652 
L 520.949798 304.055112 
L 522.059109 373.532727 
L 570.868826 373.532727 
L 571.978138 308.619335 
L 577.524696 306.083656 
L 578.634008 333.468993 
L 580.852632 333.468993 
L 194.812146 314.704966 
L 583.071255 333.468993 
L 627.443725 333.468993 
L 628.553036 305.57652 
L 631.880972 304.055112 
L 632.990283 373.532727 
L 645.192713 373.532727 
L 194.812146 314.704966 
L 646.302024 373.532727 
L 681.8 373.532727 
L 194.812146 303.547977 
L 133.8 303.040841 
L 134.909312 302.533705 
L 137.127935 302.533705 
L 173.735223 285.798221 
L 174.844534 285.798221 
L 193.702834 277.176911 
L 194.812146 303.547977 
L 195.921457 276.669775 
L 259.152227 247.76303 
L 194.812146 303.547977 
L 260.261538 247.255894 
L 268.026721 243.705943 
L 269.136032 243.705943 
L 323.492308 218.856285 
L 194.812146 303.547977 
L 324.601619 218.34915 
L 387.832389 189.442405 
L 194.812146 303.547977 
L 388.9417 188.935269 
L 452.17247 160.028524 
L 194.812146 303.547977 
L 453.281781 159.521388 
L 461.046964 155.971437 
L 462.156275 155.971437 
L 489.889069 143.29304 
L 490.998381 143.29304 
L 509.85668 134.67173 
L 510.965992 134.67173 
L 516.512551 132.136051 
L 194.812146 303.547977 
L 517.621862 131.628915 
L 549.791903 116.921975 
L 550.901215 266.527058 
L 552.010526 116.414839 
L 580.852632 103.229306 
L 194.812146 303.547977 
L 581.961943 102.72217 
L 645.192713 73.815425 
L 194.812146 303.547977 
L 647.411336 72.801153 
L 660.723077 66.715523 
L 661.832389 165.607019 
L 662.9417 66.208387 
L 665.160324 65.194115 
L 666.269636 214.292063 
L 667.378947 64.686979 
L 681.8 58.094213 
L 194.812146 57.587077 
L 133.8 368.968504 
L 193.702834 368.968504 
L 194.812146 57.587077 
L 195.921457 368.968504 
L 259.152227 368.968504 
L 194.812146 57.587077 
L 260.261538 368.968504 
L 323.492308 368.968504 
L 194.812146 57.587077 
L 324.601619 368.968504 
L 387.832389 368.968504 
L 194.812146 57.587077 
L 388.9417 368.968504 
L 452.17247 368.968504 
L 194.812146 57.587077 
L 453.281781 368.968504 
L 516.512551 368.968504 
L 194.812146 57.587077 
L 517.621862 368.968504 
L 580.852632 368.968504 
L 194.812146 57.587077 
L 581.961943 368.968504 
L 645.192713 368.968504 
L 194.812146 57.587077 
L 646.302024 368.968504 
L 681.8 368.968504 
L 194.812146 57.079941 
L 133.8 373.532727 
L 193.702834 373.532727 
L 194.812146 57.079941 
L 195.921457 373.532727 
L 207.014575 373.532727 
L 208.123887 56.572805 
L 210.34251 55.558534 
L 211.451822 340.568895 
L 259.152227 340.568895 
L 194.812146 57.079941 
L 260.261538 340.568895 
L 274.682591 340.568895 
L 275.791903 55.051398 
L 279.119838 53.52999 
L 280.22915 373.532727 
L 317.945749 373.532727 
L 319.055061 56.572805 
L 321.273684 55.558534 
L 322.382996 340.568895 
L 323.492308 340.568895 
L 194.812146 57.079941 
L 324.601619 340.568895 
L 385.613765 340.568895 
L 386.723077 55.051398 
L 387.832389 54.544262 
L 194.812146 57.079941 
L 388.9417 54.037126 
L 390.051012 53.52999 
L 391.160324 373.532727 
L 428.876923 373.532727 
L 429.986235 56.572805 
L 432.204858 55.558534 
L 433.31417 340.568895 
L 452.17247 340.568895 
L 194.812146 57.079941 
L 453.281781 340.568895 
L 496.544939 340.568895 
L 497.654251 55.051398 
L 500.982186 53.52999 
L 502.091498 373.532727 
L 516.512551 373.532727 
L 194.812146 57.079941 
L 517.621862 373.532727 
L 539.808097 373.532727 
L 540.917409 56.572805 
L 543.136032 55.558534 
L 544.245344 340.568895 
L 580.852632 340.568895 
L 194.812146 57.079941 
L 581.961943 340.568895 
L 607.476113 340.568895 
L 608.585425 55.051398 
L 611.91336 53.52999 
L 613.022672 373.532727 
L 645.192713 373.532727 
L 194.812146 57.079941 
L 646.302024 373.532727 
L 649.62996 373.532727 
L 650.739271 53.022854 
L 651.848583 56.572805 
L 654.067206 55.558534 
L 655.176518 340.568895 
L 681.8 340.568895 
L 681.8 340.568895 
" clip-path="url(#p242f7189a4)" style="fill: none; stroke: #ff7f0e; stroke-width: 1.5; stroke-linecap: square"/>
   </g>
   <g id="line2d_39">
    <path d="M 133.8 373.532727 
L 172.625911 373.532727 
L 173.735223 337.52608 
L 182.609717 333.468993 
L 193.702834 333.468993 
L 194.812146 52.515718 
L 195.921457 333.468993 
L 245.840486 333.468993 
L 246.949798 332.454721 
L 249.168421 331.44045 
L 250.277733 373.532727 
L 259.152227 373.532727 
L 194.812146 52.515718 
L 260.261538 373.532727 
L 285.775709 373.532727 
L 286.88502 330.933314 
L 293.540891 327.890499 
L 294.650202 333.468993 
L 323.492308 333.468993 
L 194.812146 52.515718 
L 324.601619 333.468993 
L 356.77166 333.468993 
L 357.880972 332.454721 
L 360.099595 331.44045 
L 361.208907 327.383363 
L 362.318219 373.532727 
L 387.832389 373.532727 
L 194.812146 52.515718 
L 388.9417 373.532727 
L 397.816194 373.532727 
L 398.925506 330.426178 
L 400.034818 326.876227 
L 401.14413 329.411906 
L 404.472065 327.890499 
L 405.581377 333.468993 
L 452.17247 333.468993 
L 194.812146 52.515718 
L 453.281781 333.468993 
L 467.702834 333.468993 
L 468.812146 332.454721 
L 471.030769 331.44045 
L 472.140081 373.532727 
L 508.747368 373.532727 
L 509.85668 330.426178 
L 510.965992 326.876227 
L 512.075304 329.411906 
L 515.403239 327.890499 
L 516.512551 333.468993 
L 194.812146 52.515718 
L 517.621862 333.468993 
L 578.634008 333.468993 
L 579.74332 332.454721 
L 580.852632 331.947586 
L 194.812146 52.515718 
L 581.961943 331.44045 
L 583.071255 373.532727 
L 618.569231 373.532727 
L 619.678543 326.369091 
L 620.787854 330.426178 
L 621.897166 326.876227 
L 623.006478 329.411906 
L 626.334413 327.890499 
L 627.443725 333.468993 
L 645.192713 333.468993 
L 194.812146 52.515718 
L 646.302024 333.468993 
L 681.8 333.468993 
L 194.812146 52.008583 
L 133.8 373.532727 
L 193.702834 373.532727 
L 194.812146 52.008583 
L 195.921457 373.532727 
L 207.014575 373.532727 
L 208.123887 51.501447 
L 210.34251 50.487175 
L 211.451822 368.968504 
L 259.152227 368.968504 
L 194.812146 52.008583 
L 260.261538 368.968504 
L 274.682591 368.968504 
L 275.791903 49.980039 
L 279.119838 48.458631 
L 280.22915 373.532727 
L 317.945749 373.532727 
L 319.055061 51.501447 
L 321.273684 50.487175 
L 322.382996 368.968504 
L 323.492308 368.968504 
L 194.812146 52.008583 
L 324.601619 368.968504 
L 385.613765 368.968504 
L 386.723077 49.980039 
L 387.832389 49.472903 
L 194.812146 52.008583 
L 388.9417 48.965767 
L 390.051012 48.458631 
L 391.160324 373.532727 
L 428.876923 373.532727 
L 429.986235 51.501447 
L 432.204858 50.487175 
L 433.31417 368.968504 
L 452.17247 368.968504 
L 194.812146 52.008583 
L 453.281781 368.968504 
L 496.544939 368.968504 
L 497.654251 49.980039 
L 500.982186 48.458631 
L 502.091498 373.532727 
L 516.512551 373.532727 
L 194.812146 52.008583 
L 517.621862 373.532727 
L 539.808097 373.532727 
L 540.917409 51.501447 
L 543.136032 50.487175 
L 544.245344 368.968504 
L 580.852632 368.968504 
L 194.812146 52.008583 
L 581.961943 368.968504 
L 607.476113 368.968504 
L 608.585425 49.980039 
L 611.91336 48.458631 
L 613.022672 373.532727 
L 645.192713 373.532727 
L 194.812146 52.008583 
L 646.302024 373.532727 
L 649.62996 373.532727 
L 650.739271 362.375738 
L 651.848583 51.501447 
L 654.067206 50.487175 
L 655.176518 368.968504 
L 681.8 368.968504 
L 194.812146 47.951496 
L 133.8 373.532727 
L 134.909312 314.19783 
L 141.565182 311.155015 
L 142.674494 333.468993 
L 182.609717 333.468993 
L 183.719028 310.647879 
L 187.046964 309.126471 
L 188.156275 373.532727 
L 193.702834 373.532727 
L 194.812146 47.951496 
L 195.921457 373.532727 
L 238.075304 373.532727 
L 239.184615 308.619335 
L 244.731174 306.083656 
L 245.840486 333.468993 
L 259.152227 333.468993 
L 194.812146 47.951496 
L 260.261538 333.468993 
L 294.650202 333.468993 
L 295.759514 305.57652 
L 299.087449 304.055112 
L 300.196761 373.532727 
L 323.492308 373.532727 
L 194.812146 47.951496 
L 324.601619 373.532727 
L 349.006478 373.532727 
L 350.115789 308.619335 
L 355.662348 306.083656 
L 356.77166 333.468993 
L 387.832389 333.468993 
L 194.812146 47.951496 
L 388.9417 333.468993 
L 405.581377 333.468993 
L 406.690688 305.57652 
L 410.018623 304.055112 
L 411.127935 373.532727 
L 452.17247 373.532727 
L 194.812146 47.951496 
L 453.281781 373.532727 
L 459.937652 373.532727 
L 461.046964 308.619335 
L 466.593522 306.083656 
L 467.702834 333.468993 
L 516.512551 333.468993 
L 194.812146 47.951496 
L 517.621862 305.57652 
L 520.949798 304.055112 
L 522.059109 373.532727 
L 570.868826 373.532727 
L 571.978138 308.619335 
L 577.524696 306.083656 
L 578.634008 333.468993 
L 580.852632 333.468993 
L 194.812146 47.951496 
L 581.961943 333.468993 
L 627.443725 333.468993 
L 628.553036 305.57652 
L 631.880972 304.055112 
L 632.990283 373.532727 
L 645.192713 373.532727 
L 194.812146 47.951496 
L 646.302024 373.532727 
L 681.8 373.532727 
L 194.812146 47.44436 
L 133.8 368.968504 
L 193.702834 368.968504 
L 194.812146 47.44436 
L 195.921457 368.968504 
L 259.152227 368.968504 
L 194.812146 47.44436 
L 260.261538 368.968504 
L 323.492308 368.968504 
L 194.812146 47.44436 
L 324.601619 368.968504 
L 387.832389 368.968504 
L 194.812146 47.44436 
L 388.9417 368.968504 
L 452.17247 368.968504 
L 194.812146 47.44436 
L 453.281781 368.968504 
L 516.512551 368.968504 
L 194.812146 47.44436 
L 517.621862 368.968504 
L 580.852632 368.968504 
L 194.812146 47.44436 
L 581.961943 368.968504 
L 645.192713 368.968504 
L 194.812146 47.44436 
L 646.302024 368.968504 
L 681.8 368.968504 
L 194.812146 46.937224 
L 133.8 368.968504 
L 193.702834 368.968504 
L 194.812146 46.937224 
L 195.921457 368.968504 
L 259.152227 368.968504 
L 194.812146 46.937224 
L 260.261538 368.968504 
L 323.492308 368.968504 
L 194.812146 46.937224 
L 324.601619 368.968504 
L 387.832389 368.968504 
L 194.812146 46.937224 
L 388.9417 368.968504 
L 452.17247 368.968504 
L 194.812146 46.937224 
L 453.281781 368.968504 
L 516.512551 368.968504 
L 194.812146 46.937224 
L 517.621862 368.968504 
L 580.852632 368.968504 
L 194.812146 46.937224 
L 581.961943 368.968504 
L 645.192713 368.968504 
L 194.812146 46.937224 
L 646.302024 368.968504 
L 681.8 368.968504 
L 194.812146 46.430088 
L 133.8 373.532727 
L 134.909312 349.190205 
L 138.237247 349.190205 
L 139.346559 348.683069 
L 140.45587 348.683069 
L 143.783806 347.161662 
L 182.609717 347.161662 
L 183.719028 346.654526 
L 184.82834 45.922952 
L 187.046964 44.90868 
L 188.156275 345.133118 
L 189.265587 373.532727 
L 193.702834 373.532727 
L 194.812146 46.430088 
L 195.921457 373.532727 
L 238.075304 373.532727 
L 239.184615 349.190205 
L 241.403239 349.190205 
L 242.512551 348.683069 
L 243.621862 348.683069 
L 246.949798 347.161662 
L 259.152227 347.161662 
L 194.812146 46.430088 
L 260.261538 347.161662 
L 294.650202 347.161662 
L 295.759514 346.654526 
L 296.868826 44.401544 
L 299.087449 43.387273 
L 300.196761 345.133118 
L 301.306073 373.532727 
L 323.492308 373.532727 
L 194.812146 46.430088 
L 324.601619 373.532727 
L 349.006478 373.532727 
L 350.115789 349.190205 
L 352.334413 349.190205 
L 353.443725 348.683069 
L 354.553036 348.683069 
L 357.880972 347.161662 
L 387.832389 347.161662 
L 194.812146 46.430088 
L 388.9417 347.161662 
L 405.581377 347.161662 
L 406.690688 346.654526 
L 407.8 44.401544 
L 410.018623 43.387273 
L 411.127935 345.133118 
L 412.237247 373.532727 
L 452.17247 373.532727 
L 194.812146 46.430088 
L 453.281781 373.532727 
L 459.937652 373.532727 
L 461.046964 349.190205 
L 463.265587 349.190205 
L 464.374899 348.683069 
L 465.484211 348.683069 
L 468.812146 347.161662 
L 516.512551 347.161662 
L 194.812146 46.430088 
L 517.621862 346.654526 
L 518.731174 44.401544 
L 520.949798 43.387273 
L 522.059109 345.133118 
L 523.168421 373.532727 
L 570.868826 373.532727 
L 571.978138 349.190205 
L 574.196761 349.190205 
L 575.306073 348.683069 
L 576.415385 348.683069 
L 579.74332 347.161662 
L 580.852632 347.161662 
L 194.812146 46.430088 
L 581.961943 347.161662 
L 627.443725 347.161662 
L 628.553036 346.654526 
L 629.662348 44.401544 
L 631.880972 43.387273 
L 632.990283 345.133118 
L 634.099595 373.532727 
L 645.192713 373.532727 
L 194.812146 46.430088 
L 646.302024 373.532727 
L 681.8 373.532727 
L 681.8 373.532727 
" clip-path="url(#p242f7189a4)" style="fill: none; stroke: #2ca02c; stroke-width: 1.5; stroke-linecap: square"/>
   </g>
   <g id="patch_3">
    <path d="M 106.4 390.04 
L 106.4 26.88 
" style="fill: none; stroke: #000000; stroke-width: 0.8; stroke-linejoin: miter; stroke-linecap: square"/>
   </g>
   <g id="patch_4">
    <path d="M 709.2 390.04 
L 709.2 26.88 
" style="fill: none; stroke: #000000; stroke-width: 0.8; stroke-linejoin: miter; stroke-linecap: square"/>
   </g>
   <g id="patch_5">
    <path d="M 106.4 390.04 
L 709.2 390.04 
" style="fill: none; stroke: #000000; stroke-width: 0.8; stroke-linejoin: miter; stroke-linecap: square"/>
   </g>
   <g id="patch_6">
    <path d="M 106.4 26.88 
L 709.2 26.88 
" style="fill: none; stroke: #000000; stroke-width: 0.8; stroke-linejoin: miter; stroke-linecap: square"/>
   </g>
   <g id="text_21">
    <!-- Transient Analysis of NeurX Hybrid System v0.07 -->
    <g transform="translate(260.830938 20.88) scale(0.12 -0.12)">
     <defs>
      <path id="DejaVuSans-72" d="M 2631 2963 
Q 2534 3019 2420 3045 
Q 2306 3072 2169 3072 
Q 1681 3072 1420 2755 
Q 1159 2438 1159 1844 
L 1159 0 
L 581 0 
L 581 3500 
L 1159 3500 
L 1159 2956 
Q 1341 3275 1631 3429 
Q 1922 3584 2338 3584 
Q 2397 3584 2469 3576 
Q 2541 3569 2628 3553 
L 2631 2963 
z
" transform="scale(0.015625)"/>
      <path id="DejaVuSans-6e" d="M 3513 2113 
L 3513 0 
L 2938 0 
L 2938 2094 
Q 2938 2591 2744 2837 
Q 2550 3084 2163 3084 
Q 1697 3084 1428 2787 
Q 1159 2491 1159 1978 
L 1159 0 
L 581 0 
L 581 3500 
L 1159 3500 
L 1159 2956 
Q 1366 3272 1645 3428 
Q 1925 3584 2291 3584 
Q 2894 3584 3203 3211 
Q 3513 2838 3513 2113 
z
" transform="scale(0.015625)"/>
      <path id="DejaVuSans-41" d="M 2188 4044 
L 1331 1722 
L 3047 1722 
L 2188 4044 
z
M 1831 4666 
L 2547 4666 
L 4325 0 
L 3669 0 
L 3244 1197 
L 1141 1197 
L 716 0 
L 50 0 
L 1831 4666 
z
" transform="scale(0.015625)"/>
      <path id="DejaVuSans-79" d="M 2059 -325 
Q 1816 -950 1584 -1140 
Q 1353 -1331 966 -1331 
L 506 -1331 
L 506 -850 
L 844 -850 
Q 1081 -850 1212 -737 
Q 1344 -625 1503 -206 
L 1606 56 
L 191 3500 
L 800 3500 
L 1894 763 
L 2988 3500 
L 3597 3500 
L 2059 -325 
z
" transform="scale(0.015625)"/>
      <path id="DejaVuSans-66" d="M 2375 4863 
L 2375 4384 
L 1825 4384 
Q 1516 4384 1395 4259 
Q 1275 4134 1275 3809 
L 1275 3500 
L 2222 3500 
L 2222 3053 
L 1275 3053 
L 1275 0 
L 697 0 
L 697 3053 
L 147 3053 
L 147 3500 
L 697 3500 
L 697 3744 
Q 697 4328 969 4595 
Q 1241 4863 1831 4863 
L 2375 4863 
z
" transform="scale(0.015625)"/>
      <path id="DejaVuSans-4e" d="M 628 4666 
L 1478 4666 
L 3547 763 
L 3547 4666 
L 4159 4666 
L 4159 0 
L 3309 0 
L 1241 3903 
L 1241 0 
L 628 0 
L 628 4666 
z
" transform="scale(0.015625)"/>
      <path id="DejaVuSans-75" d="M 544 1381 
L 544 3500 
L 1119 3500 
L 1119 1403 
Q 1119 906 1312 657 
Q 1506 409 1894 409 
Q 2359 409 2629 706 
Q 2900 1003 2900 1516 
L 2900 3500 
L 3475 3500 
L 3475 0 
L 2900 0 
L 2900 538 
Q 2691 219 2414 64 
Q 2138 -91 1772 -91 
Q 1169 -91 856 284 
Q 544 659 544 1381 
z
M 1991 3584 
L 1991 3584 
z
" transform="scale(0.015625)"/>
      <path id="DejaVuSans-58" d="M 403 4666 
L 1081 4666 
L 2241 2931 
L 3406 4666 
L 4084 4666 
L 2584 2425 
L 4184 0 
L 3506 0 
L 2194 1984 
L 872 0 
L 191 0 
L 1856 2491 
L 403 4666 
z
" transform="scale(0.015625)"/>
      <path id="DejaVuSans-48" d="M 628 4666 
L 1259 4666 
L 1259 2753 
L 3553 2753 
L 3553 4666 
L 4184 4666 
L 4184 0 
L 3553 0 
L 3553 2222 
L 1259 2222 
L 1259 0 
L 628 0 
L 628 4666 
z
" transform="scale(0.015625)"/>
      <path id="DejaVuSans-62" d="M 3116 1747 
Q 3116 2381 2855 2742 
Q 2594 3103 2138 3103 
Q 1681 3103 1420 2742 
Q 1159 2381 1159 1747 
Q 1159 1113 1420 752 
Q 1681 391 2138 391 
Q 2594 391 2855 752 
Q 3116 1113 3116 1747 
z
M 1159 2969 
Q 1341 3281 1617 3432 
Q 1894 3584 2278 3584 
Q 2916 3584 3314 3078 
Q 3713 2572 3713 1747 
Q 3713 922 3314 415 
Q 2916 -91 2278 -91 
Q 1894 -91 1617 61 
Q 1341 213 1159 525 
L 1159 0 
L 581 0 
L 581 4863 
L 1159 4863 
L 1159 2969 
z
" transform="scale(0.015625)"/>
      <path id="DejaVuSans-64" d="M 2906 2969 
L 2906 4863 
L 3481 4863 
L 3481 0 
L 2906 0 
L 2906 525 
Q 2725 213 2448 61 
Q 2172 -91 1784 -91 
Q 1150 -91 751 415 
Q 353 922 353 1747 
Q 353 2572 751 3078 
Q 1150 3584 1784 3584 
Q 2172 3584 2448 3432 
Q 2725 3281 2906 2969 
z
M 947 1747 
Q 947 1113 1208 752 
Q 1469 391 1925 391 
Q 2381 391 2643 752 
Q 2906 1113 2906 1747 
Q 2906 2381 2643 2742 
Q 2381 3103 1925 3103 
Q 1469 3103 1208 2742 
Q 947 2381 947 1747 
z
" transform="scale(0.015625)"/>
      <path id="DejaVuSans-53" d="M 3425 4513 
L 3425 3897 
Q 3066 4069 2747 4153 
Q 2428 4238 2131 4238 
Q 1616 4238 1336 4038 
Q 1056 3838 1056 3469 
Q 1056 3159 1242 3001 
Q 1428 2844 1947 2747 
L 2328 2669 
Q 3034 2534 3370 2195 
Q 3706 1856 3706 1288 
Q 3706 609 3251 259 
Q 2797 -91 1919 -91 
Q 1588 -91 1214 -16 
Q 841 59 441 206 
L 441 856 
Q 825 641 1194 531 
Q 1563 422 1919 422 
Q 2459 422 2753 634 
Q 3047 847 3047 1241 
Q 3047 1584 2836 1778 
Q 2625 1972 2144 2069 
L 1759 2144 
Q 1053 2284 737 2584 
Q 422 2884 422 3419 
Q 422 4038 858 4394 
Q 1294 4750 2059 4750 
Q 2388 4750 2728 4690 
Q 3069 4631 3425 4513 
z
" transform="scale(0.015625)"/>
      <path id="DejaVuSans-76" d="M 191 3500 
L 800 3500 
L 1894 563 
L 2988 3500 
L 3597 3500 
L 2284 0 
L 1503 0 
L 191 3500 
z
" transform="scale(0.015625)"/>
     </defs>
     <use xlink:href="#DejaVuSans-54"/>
     <use xlink:href="#DejaVuSans-72" x="46.333984"/>
     <use xlink:href="#DejaVuSans-61" x="87.447266"/>
     <use xlink:href="#DejaVuSans-6e" x="148.726562"/>
     <use xlink:href="#DejaVuSans-73" x="212.105469"/>
     <use xlink:href="#DejaVuSans-69" x="264.205078"/>
     <use xlink:href="#DejaVuSans-65" x="291.988281"/>
     <use xlink:href="#DejaVuSans-6e" x="353.511719"/>
     <use xlink:href="#DejaVuSans-74" x="416.890625"/>
     <use xlink:href="#DejaVuSans-20" x="456.099609"/>
     <use xlink:href="#DejaVuSans-41" x="487.886719"/>
     <use xlink:href="#DejaVuSans-6e" x="556.294922"/>
     <use xlink:href="#DejaVuSans-61" x="619.673828"/>
     <use xlink:href="#DejaVuSans-6c" x="680.953125"/>
     <use xlink:href="#DejaVuSans-79" x="708.736328"/>
     <use xlink:href="#DejaVuSans-73" x="767.916016"/>
     <use xlink:href="#DejaVuSans-69" x="820.015625"/>
     <use xlink:href="#DejaVuSans-73" x="847.798828"/>
     <use xlink:href="#DejaVuSans-20" x="899.898438"/>
     <use xlink:href="#DejaVuSans-6f" x="931.685547"/>
     <use xlink:href="#DejaVuSans-66" x="992.867188"/>
     <use xlink:href="#DejaVuSans-20" x="1028.072266"/>
     <use xlink:href="#DejaVuSans-4e" x="1059.859375"/>
     <use xlink:href="#DejaVuSans-65" x="1134.664062"/>
     <use xlink:href="#DejaVuSans-75" x="1196.1875"/>
     <use xlink:href="#DejaVuSans-72" x="1259.566406"/>
     <use xlink:href="#DejaVuSans-58" x="1300.679688"/>
     <use xlink:href="#DejaVuSans-20" x="1369.185547"/>
     <use xlink:href="#DejaVuSans-48" x="1400.972656"/>
     <use xlink:href="#DejaVuSans-79" x="1476.167969"/>
     <use xlink:href="#DejaVuSans-62" x="1535.347656"/>
     <use xlink:href="#DejaVuSans-72" x="1598.824219"/>
     <use xlink:href="#DejaVuSans-69" x="1639.9375"/>
     <use xlink:href="#DejaVuSans-64" x="1667.720703"/>
     <use xlink:href="#DejaVuSans-20" x="1731.197266"/>
     <use xlink:href="#DejaVuSans-53" x="1762.984375"/>
     <use xlink:href="#DejaVuSans-79" x="1826.460938"/>
     <use xlink:href="#DejaVuSans-73" x="1885.640625"/>
     <use xlink:href="#DejaVuSans-74" x="1937.740234"/>
     <use xlink:href="#DejaVuSans-65" x="1976.949219"/>
     <use xlink:href="#DejaVuSans-6d" x="2038.472656"/>
     <use xlink:href="#DejaVuSans-20" x="2135.884766"/>
     <use xlink:href="#DejaVuSans-76" x="2167.671875"/>
     <use xlink:href="#DejaVuSans-30" x="2226.851562"/>
     <use xlink:href="#DejaVuSans-2e" x="2290.474609"/>
     <use xlink:href="#DejaVuSans-30" x="2322.261719"/>
     <use xlink:href="#DejaVuSans-37" x="2385.884766"/>
    </g>
   </g>
   <g id="legend_1">
    <g id="patch_7">
     <path d="M 113.4 78.914375 
L 157.260938 78.914375 
Q 159.260938 78.914375 159.260938 76.914375 
L 159.260938 33.88 
Q 159.260938 31.88 157.260938 31.88 
L 113.4 31.88 
Q 111.4 31.88 111.4 33.88 
L 111.4 76.914375 
Q 111.4 78.914375 113.4 78.914375 
z
" style="fill: #ffffff; opacity: 0.8; stroke: #cccccc; stroke-linejoin: miter"/>
    </g>
    <g id="line2d_40">
     <path d="M 115.4 39.978437 
L 125.4 39.978437 
L 135.4 39.978437 
" style="fill: none; stroke: #1f77b4; stroke-width: 1.5; stroke-linecap: square"/>
    </g>
    <g id="text_22">
     <!-- c1 -->
     <g transform="translate(143.4 43.478437) scale(0.1 -0.1)">
      <use xlink:href="#DejaVuSans-63"/>
      <use xlink:href="#DejaVuSans-31" x="54.980469"/>
     </g>
    </g>
    <g id="line2d_41">
     <path d="M 115.4 54.656563 
L 125.4 54.656563 
L 135.4 54.656563 
" style="fill: none; stroke: #ff7f0e; stroke-width: 1.5; stroke-linecap: square"/>
    </g>
    <g id="text_23">
     <!-- c3 -->
     <g transform="translate(143.4 58.156563) scale(0.1 -0.1)">
      <use xlink:href="#DejaVuSans-63"/>
      <use xlink:href="#DejaVuSans-33" x="54.980469"/>
     </g>
    </g>
    <g id="line2d_42">
     <path d="M 115.4 69.334687 
L 125.4 69.334687 
L 135.4 69.334687 
" style="fill: none; stroke: #2ca02c; stroke-width: 1.5; stroke-linecap: square"/>
    </g>
    <g id="text_24">
     <!-- c4 -->
     <g transform="translate(143.4 72.834687) scale(0.1 -0.1)">
      <use xlink:href="#DejaVuSans-63"/>
      <use xlink:href="#DejaVuSans-34" x="54.980469"/>
     </g>
    </g>
   </g>
  </g>
 </g>
 <defs>
  <clipPath id="p242f7189a4">
   <rect x="106.4" y="26.88" width="602.8" height="363.16"/>
  </clipPath>
 </defs>
</svg>
