<?xml version="1.0" encoding="utf-8" standalone="no"?>
<!DOCTYPE svg PUBLIC "-//W3C//DTD SVG 1.1//EN"
  "http://www.w3.org/Graphics/SVG/1.1/DTD/svg11.dtd">
<svg xmlns:xlink="http://www.w3.org/1999/xlink" width="720pt" height="432pt" viewBox="0 0 720 432" xmlns="http://www.w3.org/2000/svg" version="1.1">
 <metadata>
  <rdf:RDF xmlns:dc="http://purl.org/dc/elements/1.1/" xmlns:cc="http://creativecommons.org/ns#" xmlns:rdf="http://www.w3.org/1999/02/22-rdf-syntax-ns#">
   <cc:Work>
    <dc:type rdf:resource="http://purl.org/dc/dcmitype/StillImage"/>
    <dc:date>2024-07-02T12:38:45.074265</dc:date>
    <dc:format>image/svg+xml</dc:format>
    <dc:creator>
     <cc:Agent>
      <dc:title>Matplotlib v3.9.0, https://matplotlib.org/</dc:title>
     </cc:Agent>
    </dc:creator>
   </cc:Work>
  </rdf:RDF>
 </metadata>
 <defs>
  <style type="text/css">*{stroke-linejoin: round; stroke-linecap: butt}</style>
 </defs>
 <g id="figure_1">
  <g id="patch_1">
   <path d="M 0 432 
L 720 432 
L 720 0 
L 0 0 
z
" style="fill: #ffffff"/>
  </g>
  <g id="axes_1">
   <g id="patch_2">
    <path d="M 106.22 390.04 
L 703.241315 390.04 
L 703.241315 26.88 
L 106.22 26.88 
z
" style="fill: #ffffff"/>
   </g>
   <g id="matplotlib.axis_1">
    <g id="xtick_1">
     <g id="line2d_1">
      <path d="M 133.357333 390.04 
L 133.357333 26.88 
" clip-path="url(#pac0edb0e0d)" style="fill: none; stroke: #b0b0b0; stroke-width: 0.8; stroke-linecap: square"/>
     </g>
     <g id="line2d_2">
      <defs>
       <path id="m3920b06016" d="M 0 0 
L 0 3.5 
" style="stroke: #000000; stroke-width: 0.8"/>
      </defs>
      <g>
       <use xlink:href="#m3920b06016" x="133.357333" y="390.04" style="stroke: #000000; stroke-width: 0.8"/>
      </g>
     </g>
     <g id="text_1">
      <!-- 0.000000e+00 -->
      <g transform="translate(95.870614 404.638438) scale(0.1 -0.1)">
       <defs>
        <path id="DejaVuSans-30" d="M 2034 4250 
Q 1547 4250 1301 3770 
Q 1056 3291 1056 2328 
Q 1056 1369 1301 889 
Q 1547 409 2034 409 
Q 2525 409 2770 889 
Q 3016 1369 3016 2328 
Q 3016 3291 2770 3770 
Q 2525 4250 2034 4250 
z
M 2034 4750 
Q 2819 4750 3233 4129 
Q 3647 3509 3647 2328 
Q 3647 1150 3233 529 
Q 2819 -91 2034 -91 
Q 1250 -91 836 529 
Q 422 1150 422 2328 
Q 422 3509 836 4129 
Q 1250 4750 2034 4750 
z
" transform="scale(0.015625)"/>
        <path id="DejaVuSans-2e" d="M 684 794 
L 1344 794 
L 1344 0 
L 684 0 
L 684 794 
z
" transform="scale(0.015625)"/>
        <path id="DejaVuSans-65" d="M 3597 1894 
L 3597 1613 
L 953 1613 
Q 991 1019 1311 708 
Q 1631 397 2203 397 
Q 2534 397 2845 478 
Q 3156 559 3463 722 
L 3463 178 
Q 3153 47 2828 -22 
Q 2503 -91 2169 -91 
Q 1331 -91 842 396 
Q 353 884 353 1716 
Q 353 2575 817 3079 
Q 1281 3584 2069 3584 
Q 2775 3584 3186 3129 
Q 3597 2675 3597 1894 
z
M 3022 2063 
Q 3016 2534 2758 2815 
Q 2500 3097 2075 3097 
Q 1594 3097 1305 2825 
Q 1016 2553 972 2059 
L 3022 2063 
z
" transform="scale(0.015625)"/>
        <path id="DejaVuSans-2b" d="M 2944 4013 
L 2944 2272 
L 4684 2272 
L 4684 1741 
L 2944 1741 
L 2944 0 
L 2419 0 
L 2419 1741 
L 678 1741 
L 678 2272 
L 2419 2272 
L 2419 4013 
L 2944 4013 
z
" transform="scale(0.015625)"/>
       </defs>
       <use xlink:href="#DejaVuSans-30"/>
       <use xlink:href="#DejaVuSans-2e" x="63.623047"/>
       <use xlink:href="#DejaVuSans-30" x="95.410156"/>
       <use xlink:href="#DejaVuSans-30" x="159.033203"/>
       <use xlink:href="#DejaVuSans-30" x="222.65625"/>
       <use xlink:href="#DejaVuSans-30" x="286.279297"/>
       <use xlink:href="#DejaVuSans-30" x="349.902344"/>
       <use xlink:href="#DejaVuSans-30" x="413.525391"/>
       <use xlink:href="#DejaVuSans-65" x="477.148438"/>
       <use xlink:href="#DejaVuSans-2b" x="538.671875"/>
       <use xlink:href="#DejaVuSans-30" x="622.460938"/>
       <use xlink:href="#DejaVuSans-30" x="686.083984"/>
      </g>
     </g>
    </g>
    <g id="xtick_2">
     <g id="line2d_3">
      <path d="M 210.342673 390.04 
L 210.342673 26.88 
" clip-path="url(#pac0edb0e0d)" style="fill: none; stroke: #b0b0b0; stroke-width: 0.8; stroke-linecap: square"/>
     </g>
     <g id="line2d_4">
      <g>
       <use xlink:href="#m3920b06016" x="210.342673" y="390.04" style="stroke: #000000; stroke-width: 0.8"/>
      </g>
     </g>
     <g id="text_2">
      <!-- 1.700000e-08 -->
      <g transform="translate(175.241892 404.638438) scale(0.1 -0.1)">
       <defs>
        <path id="DejaVuSans-31" d="M 794 531 
L 1825 531 
L 1825 4091 
L 703 3866 
L 703 4441 
L 1819 4666 
L 2450 4666 
L 2450 531 
L 3481 531 
L 3481 0 
L 794 0 
L 794 531 
z
" transform="scale(0.015625)"/>
        <path id="DejaVuSans-37" d="M 525 4666 
L 3525 4666 
L 3525 4397 
L 1831 0 
L 1172 0 
L 2766 4134 
L 525 4134 
L 525 4666 
z
" transform="scale(0.015625)"/>
        <path id="DejaVuSans-2d" d="M 313 2009 
L 1997 2009 
L 1997 1497 
L 313 1497 
L 313 2009 
z
" transform="scale(0.015625)"/>
        <path id="DejaVuSans-38" d="M 2034 2216 
Q 1584 2216 1326 1975 
Q 1069 1734 1069 1313 
Q 1069 891 1326 650 
Q 1584 409 2034 409 
Q 2484 409 2743 651 
Q 3003 894 3003 1313 
Q 3003 1734 2745 1975 
Q 2488 2216 2034 2216 
z
M 1403 2484 
Q 997 2584 770 2862 
Q 544 3141 544 3541 
Q 544 4100 942 4425 
Q 1341 4750 2034 4750 
Q 2731 4750 3128 4425 
Q 3525 4100 3525 3541 
Q 3525 3141 3298 2862 
Q 3072 2584 2669 2484 
Q 3125 2378 3379 2068 
Q 3634 1759 3634 1313 
Q 3634 634 3220 271 
Q 2806 -91 2034 -91 
Q 1263 -91 848 271 
Q 434 634 434 1313 
Q 434 1759 690 2068 
Q 947 2378 1403 2484 
z
M 1172 3481 
Q 1172 3119 1398 2916 
Q 1625 2713 2034 2713 
Q 2441 2713 2670 2916 
Q 2900 3119 2900 3481 
Q 2900 3844 2670 4047 
Q 2441 4250 2034 4250 
Q 1625 4250 1398 4047 
Q 1172 3844 1172 3481 
z
" transform="scale(0.015625)"/>
       </defs>
       <use xlink:href="#DejaVuSans-31"/>
       <use xlink:href="#DejaVuSans-2e" x="63.623047"/>
       <use xlink:href="#DejaVuSans-37" x="95.410156"/>
       <use xlink:href="#DejaVuSans-30" x="159.033203"/>
       <use xlink:href="#DejaVuSans-30" x="222.65625"/>
       <use xlink:href="#DejaVuSans-30" x="286.279297"/>
       <use xlink:href="#DejaVuSans-30" x="349.902344"/>
       <use xlink:href="#DejaVuSans-30" x="413.525391"/>
       <use xlink:href="#DejaVuSans-65" x="477.148438"/>
       <use xlink:href="#DejaVuSans-2d" x="538.671875"/>
       <use xlink:href="#DejaVuSans-30" x="574.755859"/>
       <use xlink:href="#DejaVuSans-38" x="638.378906"/>
      </g>
     </g>
    </g>
    <g id="xtick_3">
     <g id="line2d_5">
      <path d="M 287.328013 390.04 
L 287.328013 26.88 
" clip-path="url(#pac0edb0e0d)" style="fill: none; stroke: #b0b0b0; stroke-width: 0.8; stroke-linecap: square"/>
     </g>
     <g id="line2d_6">
      <g>
       <use xlink:href="#m3920b06016" x="287.328013" y="390.04" style="stroke: #000000; stroke-width: 0.8"/>
      </g>
     </g>
     <g id="text_3">
      <!-- 2.703746e-08 -->
      <g transform="translate(252.227232 404.638438) scale(0.1 -0.1)">
       <defs>
        <path id="DejaVuSans-32" d="M 1228 531 
L 3431 531 
L 3431 0 
L 469 0 
L 469 531 
Q 828 903 1448 1529 
Q 2069 2156 2228 2338 
Q 2531 2678 2651 2914 
Q 2772 3150 2772 3378 
Q 2772 3750 2511 3984 
Q 2250 4219 1831 4219 
Q 1534 4219 1204 4116 
Q 875 4013 500 3803 
L 500 4441 
Q 881 4594 1212 4672 
Q 1544 4750 1819 4750 
Q 2544 4750 2975 4387 
Q 3406 4025 3406 3419 
Q 3406 3131 3298 2873 
Q 3191 2616 2906 2266 
Q 2828 2175 2409 1742 
Q 1991 1309 1228 531 
z
" transform="scale(0.015625)"/>
        <path id="DejaVuSans-33" d="M 2597 2516 
Q 3050 2419 3304 2112 
Q 3559 1806 3559 1356 
Q 3559 666 3084 287 
Q 2609 -91 1734 -91 
Q 1441 -91 1130 -33 
Q 819 25 488 141 
L 488 750 
Q 750 597 1062 519 
Q 1375 441 1716 441 
Q 2309 441 2620 675 
Q 2931 909 2931 1356 
Q 2931 1769 2642 2001 
Q 2353 2234 1838 2234 
L 1294 2234 
L 1294 2753 
L 1863 2753 
Q 2328 2753 2575 2939 
Q 2822 3125 2822 3475 
Q 2822 3834 2567 4026 
Q 2313 4219 1838 4219 
Q 1578 4219 1281 4162 
Q 984 4106 628 3988 
L 628 4550 
Q 988 4650 1302 4700 
Q 1616 4750 1894 4750 
Q 2613 4750 3031 4423 
Q 3450 4097 3450 3541 
Q 3450 3153 3228 2886 
Q 3006 2619 2597 2516 
z
" transform="scale(0.015625)"/>
        <path id="DejaVuSans-34" d="M 2419 4116 
L 825 1625 
L 2419 1625 
L 2419 4116 
z
M 2253 4666 
L 3047 4666 
L 3047 1625 
L 3713 1625 
L 3713 1100 
L 3047 1100 
L 3047 0 
L 2419 0 
L 2419 1100 
L 313 1100 
L 313 1709 
L 2253 4666 
z
" transform="scale(0.015625)"/>
        <path id="DejaVuSans-36" d="M 2113 2584 
Q 1688 2584 1439 2293 
Q 1191 2003 1191 1497 
Q 1191 994 1439 701 
Q 1688 409 2113 409 
Q 2538 409 2786 701 
Q 3034 994 3034 1497 
Q 3034 2003 2786 2293 
Q 2538 2584 2113 2584 
z
M 3366 4563 
L 3366 3988 
Q 3128 4100 2886 4159 
Q 2644 4219 2406 4219 
Q 1781 4219 1451 3797 
Q 1122 3375 1075 2522 
Q 1259 2794 1537 2939 
Q 1816 3084 2150 3084 
Q 2853 3084 3261 2657 
Q 3669 2231 3669 1497 
Q 3669 778 3244 343 
Q 2819 -91 2113 -91 
Q 1303 -91 875 529 
Q 447 1150 447 2328 
Q 447 3434 972 4092 
Q 1497 4750 2381 4750 
Q 2619 4750 2861 4703 
Q 3103 4656 3366 4563 
z
" transform="scale(0.015625)"/>
       </defs>
       <use xlink:href="#DejaVuSans-32"/>
       <use xlink:href="#DejaVuSans-2e" x="63.623047"/>
       <use xlink:href="#DejaVuSans-37" x="95.410156"/>
       <use xlink:href="#DejaVuSans-30" x="159.033203"/>
       <use xlink:href="#DejaVuSans-33" x="222.65625"/>
       <use xlink:href="#DejaVuSans-37" x="286.279297"/>
       <use xlink:href="#DejaVuSans-34" x="349.902344"/>
       <use xlink:href="#DejaVuSans-36" x="413.525391"/>
       <use xlink:href="#DejaVuSans-65" x="477.148438"/>
       <use xlink:href="#DejaVuSans-2d" x="538.671875"/>
       <use xlink:href="#DejaVuSans-30" x="574.755859"/>
       <use xlink:href="#DejaVuSans-38" x="638.378906"/>
      </g>
     </g>
    </g>
    <g id="xtick_4">
     <g id="line2d_7">
      <path d="M 364.313354 390.04 
L 364.313354 26.88 
" clip-path="url(#pac0edb0e0d)" style="fill: none; stroke: #b0b0b0; stroke-width: 0.8; stroke-linecap: square"/>
     </g>
     <g id="line2d_8">
      <g>
       <use xlink:href="#m3920b06016" x="364.313354" y="390.04" style="stroke: #000000; stroke-width: 0.8"/>
      </g>
     </g>
     <g id="text_4">
      <!-- 4.200519e-08 -->
      <g transform="translate(329.212573 404.638438) scale(0.1 -0.1)">
       <defs>
        <path id="DejaVuSans-35" d="M 691 4666 
L 3169 4666 
L 3169 4134 
L 1269 4134 
L 1269 2991 
Q 1406 3038 1543 3061 
Q 1681 3084 1819 3084 
Q 2600 3084 3056 2656 
Q 3513 2228 3513 1497 
Q 3513 744 3044 326 
Q 2575 -91 1722 -91 
Q 1428 -91 1123 -41 
Q 819 9 494 109 
L 494 744 
Q 775 591 1075 516 
Q 1375 441 1709 441 
Q 2250 441 2565 725 
Q 2881 1009 2881 1497 
Q 2881 1984 2565 2268 
Q 2250 2553 1709 2553 
Q 1456 2553 1204 2497 
Q 953 2441 691 2322 
L 691 4666 
z
" transform="scale(0.015625)"/>
        <path id="DejaVuSans-39" d="M 703 97 
L 703 672 
Q 941 559 1184 500 
Q 1428 441 1663 441 
Q 2288 441 2617 861 
Q 2947 1281 2994 2138 
Q 2813 1869 2534 1725 
Q 2256 1581 1919 1581 
Q 1219 1581 811 2004 
Q 403 2428 403 3163 
Q 403 3881 828 4315 
Q 1253 4750 1959 4750 
Q 2769 4750 3195 4129 
Q 3622 3509 3622 2328 
Q 3622 1225 3098 567 
Q 2575 -91 1691 -91 
Q 1453 -91 1209 -44 
Q 966 3 703 97 
z
M 1959 2075 
Q 2384 2075 2632 2365 
Q 2881 2656 2881 3163 
Q 2881 3666 2632 3958 
Q 2384 4250 1959 4250 
Q 1534 4250 1286 3958 
Q 1038 3666 1038 3163 
Q 1038 2656 1286 2365 
Q 1534 2075 1959 2075 
z
" transform="scale(0.015625)"/>
       </defs>
       <use xlink:href="#DejaVuSans-34"/>
       <use xlink:href="#DejaVuSans-2e" x="63.623047"/>
       <use xlink:href="#DejaVuSans-32" x="95.410156"/>
       <use xlink:href="#DejaVuSans-30" x="159.033203"/>
       <use xlink:href="#DejaVuSans-30" x="222.65625"/>
       <use xlink:href="#DejaVuSans-35" x="286.279297"/>
       <use xlink:href="#DejaVuSans-31" x="349.902344"/>
       <use xlink:href="#DejaVuSans-39" x="413.525391"/>
       <use xlink:href="#DejaVuSans-65" x="477.148438"/>
       <use xlink:href="#DejaVuSans-2d" x="538.671875"/>
       <use xlink:href="#DejaVuSans-30" x="574.755859"/>
       <use xlink:href="#DejaVuSans-38" x="638.378906"/>
      </g>
     </g>
    </g>
    <g id="xtick_5">
     <g id="line2d_9">
      <path d="M 441.298694 390.04 
L 441.298694 26.88 
" clip-path="url(#pac0edb0e0d)" style="fill: none; stroke: #b0b0b0; stroke-width: 0.8; stroke-linecap: square"/>
     </g>
     <g id="line2d_10">
      <g>
       <use xlink:href="#m3920b06016" x="441.298694" y="390.04" style="stroke: #000000; stroke-width: 0.8"/>
      </g>
     </g>
     <g id="text_5">
      <!-- 5.602100e-08 -->
      <g transform="translate(406.197913 404.638438) scale(0.1 -0.1)">
       <use xlink:href="#DejaVuSans-35"/>
       <use xlink:href="#DejaVuSans-2e" x="63.623047"/>
       <use xlink:href="#DejaVuSans-36" x="95.410156"/>
       <use xlink:href="#DejaVuSans-30" x="159.033203"/>
       <use xlink:href="#DejaVuSans-32" x="222.65625"/>
       <use xlink:href="#DejaVuSans-31" x="286.279297"/>
       <use xlink:href="#DejaVuSans-30" x="349.902344"/>
       <use xlink:href="#DejaVuSans-30" x="413.525391"/>
       <use xlink:href="#DejaVuSans-65" x="477.148438"/>
       <use xlink:href="#DejaVuSans-2d" x="538.671875"/>
       <use xlink:href="#DejaVuSans-30" x="574.755859"/>
       <use xlink:href="#DejaVuSans-38" x="638.378906"/>
      </g>
     </g>
    </g>
    <g id="xtick_6">
     <g id="line2d_11">
      <path d="M 518.284035 390.04 
L 518.284035 26.88 
" clip-path="url(#pac0edb0e0d)" style="fill: none; stroke: #b0b0b0; stroke-width: 0.8; stroke-linecap: square"/>
     </g>
     <g id="line2d_12">
      <g>
       <use xlink:href="#m3920b06016" x="518.284035" y="390.04" style="stroke: #000000; stroke-width: 0.8"/>
      </g>
     </g>
     <g id="text_6">
      <!-- 7.022843e-08 -->
      <g transform="translate(483.183254 404.638438) scale(0.1 -0.1)">
       <use xlink:href="#DejaVuSans-37"/>
       <use xlink:href="#DejaVuSans-2e" x="63.623047"/>
       <use xlink:href="#DejaVuSans-30" x="95.410156"/>
       <use xlink:href="#DejaVuSans-32" x="159.033203"/>
       <use xlink:href="#DejaVuSans-32" x="222.65625"/>
       <use xlink:href="#DejaVuSans-38" x="286.279297"/>
       <use xlink:href="#DejaVuSans-34" x="349.902344"/>
       <use xlink:href="#DejaVuSans-33" x="413.525391"/>
       <use xlink:href="#DejaVuSans-65" x="477.148438"/>
       <use xlink:href="#DejaVuSans-2d" x="538.671875"/>
       <use xlink:href="#DejaVuSans-30" x="574.755859"/>
       <use xlink:href="#DejaVuSans-38" x="638.378906"/>
      </g>
     </g>
    </g>
    <g id="xtick_7">
     <g id="line2d_13">
      <path d="M 595.269375 390.04 
L 595.269375 26.88 
" clip-path="url(#pac0edb0e0d)" style="fill: none; stroke: #b0b0b0; stroke-width: 0.8; stroke-linecap: square"/>
     </g>
     <g id="line2d_14">
      <g>
       <use xlink:href="#m3920b06016" x="595.269375" y="390.04" style="stroke: #000000; stroke-width: 0.8"/>
      </g>
     </g>
     <g id="text_7">
      <!-- 8.500000e-08 -->
      <g transform="translate(560.168594 404.638438) scale(0.1 -0.1)">
       <use xlink:href="#DejaVuSans-38"/>
       <use xlink:href="#DejaVuSans-2e" x="63.623047"/>
       <use xlink:href="#DejaVuSans-35" x="95.410156"/>
       <use xlink:href="#DejaVuSans-30" x="159.033203"/>
       <use xlink:href="#DejaVuSans-30" x="222.65625"/>
       <use xlink:href="#DejaVuSans-30" x="286.279297"/>
       <use xlink:href="#DejaVuSans-30" x="349.902344"/>
       <use xlink:href="#DejaVuSans-30" x="413.525391"/>
       <use xlink:href="#DejaVuSans-65" x="477.148438"/>
       <use xlink:href="#DejaVuSans-2d" x="538.671875"/>
       <use xlink:href="#DejaVuSans-30" x="574.755859"/>
       <use xlink:href="#DejaVuSans-38" x="638.378906"/>
      </g>
     </g>
    </g>
    <g id="xtick_8">
     <g id="line2d_15">
      <path d="M 672.254716 390.04 
L 672.254716 26.88 
" clip-path="url(#pac0edb0e0d)" style="fill: none; stroke: #b0b0b0; stroke-width: 0.8; stroke-linecap: square"/>
     </g>
     <g id="line2d_16">
      <g>
       <use xlink:href="#m3920b06016" x="672.254716" y="390.04" style="stroke: #000000; stroke-width: 0.8"/>
      </g>
     </g>
     <g id="text_8">
      <!-- 9.725660e-08 -->
      <g transform="translate(637.153934 404.638438) scale(0.1 -0.1)">
       <use xlink:href="#DejaVuSans-39"/>
       <use xlink:href="#DejaVuSans-2e" x="63.623047"/>
       <use xlink:href="#DejaVuSans-37" x="95.410156"/>
       <use xlink:href="#DejaVuSans-32" x="159.033203"/>
       <use xlink:href="#DejaVuSans-35" x="222.65625"/>
       <use xlink:href="#DejaVuSans-36" x="286.279297"/>
       <use xlink:href="#DejaVuSans-36" x="349.902344"/>
       <use xlink:href="#DejaVuSans-30" x="413.525391"/>
       <use xlink:href="#DejaVuSans-65" x="477.148438"/>
       <use xlink:href="#DejaVuSans-2d" x="538.671875"/>
       <use xlink:href="#DejaVuSans-30" x="574.755859"/>
       <use xlink:href="#DejaVuSans-38" x="638.378906"/>
      </g>
     </g>
    </g>
    <g id="text_9">
     <!-- Time (s) -->
     <g transform="translate(384.401751 418.316562) scale(0.1 -0.1)">
      <defs>
       <path id="DejaVuSans-54" d="M -19 4666 
L 3928 4666 
L 3928 4134 
L 2272 4134 
L 2272 0 
L 1638 0 
L 1638 4134 
L -19 4134 
L -19 4666 
z
" transform="scale(0.015625)"/>
       <path id="DejaVuSans-69" d="M 603 3500 
L 1178 3500 
L 1178 0 
L 603 0 
L 603 3500 
z
M 603 4863 
L 1178 4863 
L 1178 4134 
L 603 4134 
L 603 4863 
z
" transform="scale(0.015625)"/>
       <path id="DejaVuSans-6d" d="M 3328 2828 
Q 3544 3216 3844 3400 
Q 4144 3584 4550 3584 
Q 5097 3584 5394 3201 
Q 5691 2819 5691 2113 
L 5691 0 
L 5113 0 
L 5113 2094 
Q 5113 2597 4934 2840 
Q 4756 3084 4391 3084 
Q 3944 3084 3684 2787 
Q 3425 2491 3425 1978 
L 3425 0 
L 2847 0 
L 2847 2094 
Q 2847 2600 2669 2842 
Q 2491 3084 2119 3084 
Q 1678 3084 1418 2786 
Q 1159 2488 1159 1978 
L 1159 0 
L 581 0 
L 581 3500 
L 1159 3500 
L 1159 2956 
Q 1356 3278 1631 3431 
Q 1906 3584 2284 3584 
Q 2666 3584 2933 3390 
Q 3200 3197 3328 2828 
z
" transform="scale(0.015625)"/>
       <path id="DejaVuSans-20" transform="scale(0.015625)"/>
       <path id="DejaVuSans-28" d="M 1984 4856 
Q 1566 4138 1362 3434 
Q 1159 2731 1159 2009 
Q 1159 1288 1364 580 
Q 1569 -128 1984 -844 
L 1484 -844 
Q 1016 -109 783 600 
Q 550 1309 550 2009 
Q 550 2706 781 3412 
Q 1013 4119 1484 4856 
L 1984 4856 
z
" transform="scale(0.015625)"/>
       <path id="DejaVuSans-73" d="M 2834 3397 
L 2834 2853 
Q 2591 2978 2328 3040 
Q 2066 3103 1784 3103 
Q 1356 3103 1142 2972 
Q 928 2841 928 2578 
Q 928 2378 1081 2264 
Q 1234 2150 1697 2047 
L 1894 2003 
Q 2506 1872 2764 1633 
Q 3022 1394 3022 966 
Q 3022 478 2636 193 
Q 2250 -91 1575 -91 
Q 1294 -91 989 -36 
Q 684 19 347 128 
L 347 722 
Q 666 556 975 473 
Q 1284 391 1588 391 
Q 1994 391 2212 530 
Q 2431 669 2431 922 
Q 2431 1156 2273 1281 
Q 2116 1406 1581 1522 
L 1381 1569 
Q 847 1681 609 1914 
Q 372 2147 372 2553 
Q 372 3047 722 3315 
Q 1072 3584 1716 3584 
Q 2034 3584 2315 3537 
Q 2597 3491 2834 3397 
z
" transform="scale(0.015625)"/>
       <path id="DejaVuSans-29" d="M 513 4856 
L 1013 4856 
Q 1481 4119 1714 3412 
Q 1947 2706 1947 2009 
Q 1947 1309 1714 600 
Q 1481 -109 1013 -844 
L 513 -844 
Q 928 -128 1133 580 
Q 1338 1288 1338 2009 
Q 1338 2731 1133 3434 
Q 928 4138 513 4856 
z
" transform="scale(0.015625)"/>
      </defs>
      <use xlink:href="#DejaVuSans-54"/>
      <use xlink:href="#DejaVuSans-69" x="57.958984"/>
      <use xlink:href="#DejaVuSans-6d" x="85.742188"/>
      <use xlink:href="#DejaVuSans-65" x="183.154297"/>
      <use xlink:href="#DejaVuSans-20" x="244.677734"/>
      <use xlink:href="#DejaVuSans-28" x="276.464844"/>
      <use xlink:href="#DejaVuSans-73" x="315.478516"/>
      <use xlink:href="#DejaVuSans-29" x="367.578125"/>
     </g>
    </g>
   </g>
   <g id="matplotlib.axis_2">
    <g id="ytick_1">
     <g id="line2d_17">
      <path d="M 106.22 373.532727 
L 703.241315 373.532727 
" clip-path="url(#pac0edb0e0d)" style="fill: none; stroke: #b0b0b0; stroke-width: 0.8; stroke-linecap: square"/>
     </g>
     <g id="line2d_18">
      <defs>
       <path id="m4142cdd838" d="M 0 0 
L -3.5 0 
" style="stroke: #000000; stroke-width: 0.8"/>
      </defs>
      <g>
       <use xlink:href="#m4142cdd838" x="106.22" y="373.532727" style="stroke: #000000; stroke-width: 0.8"/>
      </g>
     </g>
     <g id="text_10">
      <!-- 0.000000e+00 -->
      <g transform="translate(24.246563 377.331946) scale(0.1 -0.1)">
       <use xlink:href="#DejaVuSans-30"/>
       <use xlink:href="#DejaVuSans-2e" x="63.623047"/>
       <use xlink:href="#DejaVuSans-30" x="95.410156"/>
       <use xlink:href="#DejaVuSans-30" x="159.033203"/>
       <use xlink:href="#DejaVuSans-30" x="222.65625"/>
       <use xlink:href="#DejaVuSans-30" x="286.279297"/>
       <use xlink:href="#DejaVuSans-30" x="349.902344"/>
       <use xlink:href="#DejaVuSans-30" x="413.525391"/>
       <use xlink:href="#DejaVuSans-65" x="477.148438"/>
       <use xlink:href="#DejaVuSans-2b" x="538.671875"/>
       <use xlink:href="#DejaVuSans-30" x="622.460938"/>
       <use xlink:href="#DejaVuSans-30" x="686.083984"/>
      </g>
     </g>
    </g>
    <g id="ytick_2">
     <g id="line2d_19">
      <path d="M 106.22 336.493222 
L 703.241315 336.493222 
" clip-path="url(#pac0edb0e0d)" style="fill: none; stroke: #b0b0b0; stroke-width: 0.8; stroke-linecap: square"/>
     </g>
     <g id="line2d_20">
      <g>
       <use xlink:href="#m4142cdd838" x="106.22" y="336.493222" style="stroke: #000000; stroke-width: 0.8"/>
      </g>
     </g>
     <g id="text_11">
      <!-- 1.066102e-11 -->
      <g transform="translate(29.018438 340.292441) scale(0.1 -0.1)">
       <use xlink:href="#DejaVuSans-31"/>
       <use xlink:href="#DejaVuSans-2e" x="63.623047"/>
       <use xlink:href="#DejaVuSans-30" x="95.410156"/>
       <use xlink:href="#DejaVuSans-36" x="159.033203"/>
       <use xlink:href="#DejaVuSans-36" x="222.65625"/>
       <use xlink:href="#DejaVuSans-31" x="286.279297"/>
       <use xlink:href="#DejaVuSans-30" x="349.902344"/>
       <use xlink:href="#DejaVuSans-32" x="413.525391"/>
       <use xlink:href="#DejaVuSans-65" x="477.148438"/>
       <use xlink:href="#DejaVuSans-2d" x="538.671875"/>
       <use xlink:href="#DejaVuSans-31" x="574.755859"/>
       <use xlink:href="#DejaVuSans-31" x="638.378906"/>
      </g>
     </g>
    </g>
    <g id="ytick_3">
     <g id="line2d_21">
      <path d="M 106.22 299.453717 
L 703.241315 299.453717 
" clip-path="url(#pac0edb0e0d)" style="fill: none; stroke: #b0b0b0; stroke-width: 0.8; stroke-linecap: square"/>
     </g>
     <g id="line2d_22">
      <g>
       <use xlink:href="#m4142cdd838" x="106.22" y="299.453717" style="stroke: #000000; stroke-width: 0.8"/>
      </g>
     </g>
     <g id="text_12">
      <!-- -3.45387e-03 -->
      <g transform="translate(31.773125 303.252936) scale(0.1 -0.1)">
       <use xlink:href="#DejaVuSans-2d"/>
       <use xlink:href="#DejaVuSans-33" x="36.083984"/>
       <use xlink:href="#DejaVuSans-2e" x="99.707031"/>
       <use xlink:href="#DejaVuSans-34" x="131.494141"/>
       <use xlink:href="#DejaVuSans-35" x="195.117188"/>
       <use xlink:href="#DejaVuSans-33" x="258.740234"/>
       <use xlink:href="#DejaVuSans-38" x="322.363281"/>
       <use xlink:href="#DejaVuSans-37" x="385.986328"/>
       <use xlink:href="#DejaVuSans-65" x="449.609375"/>
       <use xlink:href="#DejaVuSans-2d" x="511.132812"/>
       <use xlink:href="#DejaVuSans-30" x="547.216797"/>
       <use xlink:href="#DejaVuSans-33" x="610.839844"/>
      </g>
     </g>
    </g>
    <g id="ytick_4">
     <g id="line2d_23">
      <path d="M 106.22 262.414212 
L 703.241315 262.414212 
" clip-path="url(#pac0edb0e0d)" style="fill: none; stroke: #b0b0b0; stroke-width: 0.8; stroke-linecap: square"/>
     </g>
     <g id="line2d_24">
      <g>
       <use xlink:href="#m4142cdd838" x="106.22" y="262.414212" style="stroke: #000000; stroke-width: 0.8"/>
      </g>
     </g>
     <g id="text_13">
      <!-- 4.046503e-13 -->
      <g transform="translate(29.018438 266.213431) scale(0.1 -0.1)">
       <use xlink:href="#DejaVuSans-34"/>
       <use xlink:href="#DejaVuSans-2e" x="63.623047"/>
       <use xlink:href="#DejaVuSans-30" x="95.410156"/>
       <use xlink:href="#DejaVuSans-34" x="159.033203"/>
       <use xlink:href="#DejaVuSans-36" x="222.65625"/>
       <use xlink:href="#DejaVuSans-35" x="286.279297"/>
       <use xlink:href="#DejaVuSans-30" x="349.902344"/>
       <use xlink:href="#DejaVuSans-33" x="413.525391"/>
       <use xlink:href="#DejaVuSans-65" x="477.148438"/>
       <use xlink:href="#DejaVuSans-2d" x="538.671875"/>
       <use xlink:href="#DejaVuSans-31" x="574.755859"/>
       <use xlink:href="#DejaVuSans-33" x="638.378906"/>
      </g>
     </g>
    </g>
    <g id="ytick_5">
     <g id="line2d_25">
      <path d="M 106.22 225.374707 
L 703.241315 225.374707 
" clip-path="url(#pac0edb0e0d)" style="fill: none; stroke: #b0b0b0; stroke-width: 0.8; stroke-linecap: square"/>
     </g>
     <g id="line2d_26">
      <g>
       <use xlink:href="#m4142cdd838" x="106.22" y="225.374707" style="stroke: #000000; stroke-width: 0.8"/>
      </g>
     </g>
     <g id="text_14">
      <!-- -8.88178e-15 -->
      <g transform="translate(31.773125 229.173926) scale(0.1 -0.1)">
       <use xlink:href="#DejaVuSans-2d"/>
       <use xlink:href="#DejaVuSans-38" x="36.083984"/>
       <use xlink:href="#DejaVuSans-2e" x="99.707031"/>
       <use xlink:href="#DejaVuSans-38" x="131.494141"/>
       <use xlink:href="#DejaVuSans-38" x="195.117188"/>
       <use xlink:href="#DejaVuSans-31" x="258.740234"/>
       <use xlink:href="#DejaVuSans-37" x="322.363281"/>
       <use xlink:href="#DejaVuSans-38" x="385.986328"/>
       <use xlink:href="#DejaVuSans-65" x="449.609375"/>
       <use xlink:href="#DejaVuSans-2d" x="511.132812"/>
       <use xlink:href="#DejaVuSans-31" x="547.216797"/>
       <use xlink:href="#DejaVuSans-35" x="610.839844"/>
      </g>
     </g>
    </g>
    <g id="ytick_6">
     <g id="line2d_27">
      <path d="M 106.22 188.335202 
L 703.241315 188.335202 
" clip-path="url(#pac0edb0e0d)" style="fill: none; stroke: #b0b0b0; stroke-width: 0.8; stroke-linecap: square"/>
     </g>
     <g id="line2d_28">
      <g>
       <use xlink:href="#m4142cdd838" x="106.22" y="188.335202" style="stroke: #000000; stroke-width: 0.8"/>
      </g>
     </g>
     <g id="text_15">
      <!-- 6.179257e-09 -->
      <g transform="translate(29.018438 192.134421) scale(0.1 -0.1)">
       <use xlink:href="#DejaVuSans-36"/>
       <use xlink:href="#DejaVuSans-2e" x="63.623047"/>
       <use xlink:href="#DejaVuSans-31" x="95.410156"/>
       <use xlink:href="#DejaVuSans-37" x="159.033203"/>
       <use xlink:href="#DejaVuSans-39" x="222.65625"/>
       <use xlink:href="#DejaVuSans-32" x="286.279297"/>
       <use xlink:href="#DejaVuSans-35" x="349.902344"/>
       <use xlink:href="#DejaVuSans-37" x="413.525391"/>
       <use xlink:href="#DejaVuSans-65" x="477.148438"/>
       <use xlink:href="#DejaVuSans-2d" x="538.671875"/>
       <use xlink:href="#DejaVuSans-30" x="574.755859"/>
       <use xlink:href="#DejaVuSans-39" x="638.378906"/>
      </g>
     </g>
    </g>
    <g id="ytick_7">
     <g id="line2d_29">
      <path d="M 106.22 151.295697 
L 703.241315 151.295697 
" clip-path="url(#pac0edb0e0d)" style="fill: none; stroke: #b0b0b0; stroke-width: 0.8; stroke-linecap: square"/>
     </g>
     <g id="line2d_30">
      <g>
       <use xlink:href="#m4142cdd838" x="106.22" y="151.295697" style="stroke: #000000; stroke-width: 0.8"/>
      </g>
     </g>
     <g id="text_16">
      <!-- 3.200547e-08 -->
      <g transform="translate(29.018438 155.094916) scale(0.1 -0.1)">
       <use xlink:href="#DejaVuSans-33"/>
       <use xlink:href="#DejaVuSans-2e" x="63.623047"/>
       <use xlink:href="#DejaVuSans-32" x="95.410156"/>
       <use xlink:href="#DejaVuSans-30" x="159.033203"/>
       <use xlink:href="#DejaVuSans-30" x="222.65625"/>
       <use xlink:href="#DejaVuSans-35" x="286.279297"/>
       <use xlink:href="#DejaVuSans-34" x="349.902344"/>
       <use xlink:href="#DejaVuSans-37" x="413.525391"/>
       <use xlink:href="#DejaVuSans-65" x="477.148438"/>
       <use xlink:href="#DejaVuSans-2d" x="538.671875"/>
       <use xlink:href="#DejaVuSans-30" x="574.755859"/>
       <use xlink:href="#DejaVuSans-38" x="638.378906"/>
      </g>
     </g>
    </g>
    <g id="ytick_8">
     <g id="line2d_31">
      <path d="M 106.22 114.256192 
L 703.241315 114.256192 
" clip-path="url(#pac0edb0e0d)" style="fill: none; stroke: #b0b0b0; stroke-width: 0.8; stroke-linecap: square"/>
     </g>
     <g id="line2d_32">
      <g>
       <use xlink:href="#m4142cdd838" x="106.22" y="114.256192" style="stroke: #000000; stroke-width: 0.8"/>
      </g>
     </g>
     <g id="text_17">
      <!-- 5.700866e-08 -->
      <g transform="translate(29.018438 118.055411) scale(0.1 -0.1)">
       <use xlink:href="#DejaVuSans-35"/>
       <use xlink:href="#DejaVuSans-2e" x="63.623047"/>
       <use xlink:href="#DejaVuSans-37" x="95.410156"/>
       <use xlink:href="#DejaVuSans-30" x="159.033203"/>
       <use xlink:href="#DejaVuSans-30" x="222.65625"/>
       <use xlink:href="#DejaVuSans-38" x="286.279297"/>
       <use xlink:href="#DejaVuSans-36" x="349.902344"/>
       <use xlink:href="#DejaVuSans-36" x="413.525391"/>
       <use xlink:href="#DejaVuSans-65" x="477.148438"/>
       <use xlink:href="#DejaVuSans-2d" x="538.671875"/>
       <use xlink:href="#DejaVuSans-30" x="574.755859"/>
       <use xlink:href="#DejaVuSans-38" x="638.378906"/>
      </g>
     </g>
    </g>
    <g id="ytick_9">
     <g id="line2d_33">
      <path d="M 106.22 77.216687 
L 703.241315 77.216687 
" clip-path="url(#pac0edb0e0d)" style="fill: none; stroke: #b0b0b0; stroke-width: 0.8; stroke-linecap: square"/>
     </g>
     <g id="line2d_34">
      <g>
       <use xlink:href="#m4142cdd838" x="106.22" y="77.216687" style="stroke: #000000; stroke-width: 0.8"/>
      </g>
     </g>
     <g id="text_18">
      <!-- 8.500000e-08 -->
      <g transform="translate(29.018438 81.015906) scale(0.1 -0.1)">
       <use xlink:href="#DejaVuSans-38"/>
       <use xlink:href="#DejaVuSans-2e" x="63.623047"/>
       <use xlink:href="#DejaVuSans-35" x="95.410156"/>
       <use xlink:href="#DejaVuSans-30" x="159.033203"/>
       <use xlink:href="#DejaVuSans-30" x="222.65625"/>
       <use xlink:href="#DejaVuSans-30" x="286.279297"/>
       <use xlink:href="#DejaVuSans-30" x="349.902344"/>
       <use xlink:href="#DejaVuSans-30" x="413.525391"/>
       <use xlink:href="#DejaVuSans-65" x="477.148438"/>
       <use xlink:href="#DejaVuSans-2d" x="538.671875"/>
       <use xlink:href="#DejaVuSans-30" x="574.755859"/>
       <use xlink:href="#DejaVuSans-38" x="638.378906"/>
      </g>
     </g>
    </g>
    <g id="ytick_10">
     <g id="line2d_35">
      <path d="M 106.22 40.177182 
L 703.241315 40.177182 
" clip-path="url(#pac0edb0e0d)" style="fill: none; stroke: #b0b0b0; stroke-width: 0.8; stroke-linecap: square"/>
     </g>
     <g id="line2d_36">
      <g>
       <use xlink:href="#m4142cdd838" x="106.22" y="40.177182" style="stroke: #000000; stroke-width: 0.8"/>
      </g>
     </g>
    </g>
    <g id="text_19">
     <!-- Voltage (V) -->
     <g transform="translate(18.166875 236.127187) rotate(-90) scale(0.1 -0.1)">
      <defs>
       <path id="DejaVuSans-56" d="M 1831 0 
L 50 4666 
L 709 4666 
L 2188 738 
L 3669 4666 
L 4325 4666 
L 2547 0 
L 1831 0 
z
" transform="scale(0.015625)"/>
       <path id="DejaVuSans-6f" d="M 1959 3097 
Q 1497 3097 1228 2736 
Q 959 2375 959 1747 
Q 959 1119 1226 758 
Q 1494 397 1959 397 
Q 2419 397 2687 759 
Q 2956 1122 2956 1747 
Q 2956 2369 2687 2733 
Q 2419 3097 1959 3097 
z
M 1959 3584 
Q 2709 3584 3137 3096 
Q 3566 2609 3566 1747 
Q 3566 888 3137 398 
Q 2709 -91 1959 -91 
Q 1206 -91 779 398 
Q 353 888 353 1747 
Q 353 2609 779 3096 
Q 1206 3584 1959 3584 
z
" transform="scale(0.015625)"/>
       <path id="DejaVuSans-6c" d="M 603 4863 
L 1178 4863 
L 1178 0 
L 603 0 
L 603 4863 
z
" transform="scale(0.015625)"/>
       <path id="DejaVuSans-74" d="M 1172 4494 
L 1172 3500 
L 2356 3500 
L 2356 3053 
L 1172 3053 
L 1172 1153 
Q 1172 725 1289 603 
Q 1406 481 1766 481 
L 2356 481 
L 2356 0 
L 1766 0 
Q 1100 0 847 248 
Q 594 497 594 1153 
L 594 3053 
L 172 3053 
L 172 3500 
L 594 3500 
L 594 4494 
L 1172 4494 
z
" transform="scale(0.015625)"/>
       <path id="DejaVuSans-61" d="M 2194 1759 
Q 1497 1759 1228 1600 
Q 959 1441 959 1056 
Q 959 750 1161 570 
Q 1363 391 1709 391 
Q 2188 391 2477 730 
Q 2766 1069 2766 1631 
L 2766 1759 
L 2194 1759 
z
M 3341 1997 
L 3341 0 
L 2766 0 
L 2766 531 
Q 2569 213 2275 61 
Q 1981 -91 1556 -91 
Q 1019 -91 701 211 
Q 384 513 384 1019 
Q 384 1609 779 1909 
Q 1175 2209 1959 2209 
L 2766 2209 
L 2766 2266 
Q 2766 2663 2505 2880 
Q 2244 3097 1772 3097 
Q 1472 3097 1187 3025 
Q 903 2953 641 2809 
L 641 3341 
Q 956 3463 1253 3523 
Q 1550 3584 1831 3584 
Q 2591 3584 2966 3190 
Q 3341 2797 3341 1997 
z
" transform="scale(0.015625)"/>
       <path id="DejaVuSans-67" d="M 2906 1791 
Q 2906 2416 2648 2759 
Q 2391 3103 1925 3103 
Q 1463 3103 1205 2759 
Q 947 2416 947 1791 
Q 947 1169 1205 825 
Q 1463 481 1925 481 
Q 2391 481 2648 825 
Q 2906 1169 2906 1791 
z
M 3481 434 
Q 3481 -459 3084 -895 
Q 2688 -1331 1869 -1331 
Q 1566 -1331 1297 -1286 
Q 1028 -1241 775 -1147 
L 775 -588 
Q 1028 -725 1275 -790 
Q 1522 -856 1778 -856 
Q 2344 -856 2625 -561 
Q 2906 -266 2906 331 
L 2906 616 
Q 2728 306 2450 153 
Q 2172 0 1784 0 
Q 1141 0 747 490 
Q 353 981 353 1791 
Q 353 2603 747 3093 
Q 1141 3584 1784 3584 
Q 2172 3584 2450 3431 
Q 2728 3278 2906 2969 
L 2906 3500 
L 3481 3500 
L 3481 434 
z
" transform="scale(0.015625)"/>
      </defs>
      <use xlink:href="#DejaVuSans-56"/>
      <use xlink:href="#DejaVuSans-6f" x="60.658203"/>
      <use xlink:href="#DejaVuSans-6c" x="121.839844"/>
      <use xlink:href="#DejaVuSans-74" x="149.623047"/>
      <use xlink:href="#DejaVuSans-61" x="188.832031"/>
      <use xlink:href="#DejaVuSans-67" x="250.111328"/>
      <use xlink:href="#DejaVuSans-65" x="313.587891"/>
      <use xlink:href="#DejaVuSans-20" x="375.111328"/>
      <use xlink:href="#DejaVuSans-28" x="406.898438"/>
      <use xlink:href="#DejaVuSans-56" x="445.912109"/>
      <use xlink:href="#DejaVuSans-29" x="514.320312"/>
     </g>
    </g>
   </g>
   <g id="line2d_37">
    <path d="M 133.357333 373.532727 
L 185.322437 373.532727 
L 186.284754 373.285797 
L 187.247071 373.532727 
L 242.099126 373.532727 
L 186.284754 373.285797 
L 267.119362 373.532727 
L 297.913498 373.532727 
L 186.284754 373.285797 
L 347.953969 373.532727 
L 353.72787 373.532727 
L 186.284754 373.285797 
L 428.788577 373.532727 
L 465.356613 373.532727 
L 186.284754 373.285797 
L 590.457792 373.532727 
L 632.799729 373.532727 
L 186.284754 373.285797 
L 676.103983 373.532727 
L 186.284754 373.038867 
L 133.357333 373.532727 
L 144.905134 373.532727 
L 185.322437 373.532727 
L 186.284754 373.038867 
L 187.247071 373.532727 
L 242.099126 373.532727 
L 186.284754 373.038867 
L 254.609244 373.532727 
L 297.913498 373.532727 
L 186.284754 373.038867 
L 322.933733 373.532727 
L 353.72787 373.532727 
L 186.284754 373.038867 
L 391.258223 373.532727 
L 409.542241 373.532727 
L 186.284754 373.038867 
L 459.582713 373.532727 
L 465.356613 373.532727 
L 186.284754 373.038867 
L 527.907202 373.532727 
L 576.985357 373.532727 
L 186.284754 373.038867 
L 664.556182 373.532727 
L 676.103983 373.532727 
L 186.284754 372.791937 
L 133.357333 372.545007 
L 156.452935 372.545007 
L 185.322437 372.545007 
L 186.284754 372.791937 
L 187.247071 372.545007 
L 242.099126 372.545007 
L 186.284754 372.791937 
L 267.119362 372.545007 
L 297.913498 372.545007 
L 186.284754 372.791937 
L 347.953969 372.545007 
L 353.72787 372.545007 
L 186.284754 372.791937 
L 428.788577 372.545007 
L 465.356613 372.545007 
L 186.284754 372.791937 
L 590.457792 372.545007 
L 632.799729 372.545007 
L 186.284754 372.791937 
L 676.103983 372.545007 
L 186.284754 372.298077 
L 133.357333 373.532727 
L 137.2066 373.532727 
L 185.322437 373.532727 
L 186.284754 372.298077 
L 187.247071 373.532727 
L 242.099126 373.532727 
L 186.284754 372.298077 
L 246.91071 373.532727 
L 297.913498 373.532727 
L 186.284754 372.298077 
L 307.536665 373.532727 
L 353.72787 373.532727 
L 186.284754 372.298077 
L 368.162621 373.532727 
L 409.542241 373.532727 
L 186.284754 372.298077 
L 428.788577 373.532727 
L 465.356613 373.532727 
L 186.284754 372.298077 
L 490.376849 373.532727 
L 521.170985 373.532727 
L 186.284754 372.298077 
L 551.002805 373.532727 
L 576.985357 373.532727 
L 186.284754 372.298077 
L 611.62876 373.532727 
L 632.799729 373.532727 
L 186.284754 372.298077 
L 672.254716 373.532727 
L 676.103983 373.532727 
L 186.284754 372.051147 
L 133.357333 373.532727 
L 137.2066 373.532727 
L 185.322437 373.532727 
L 186.284754 372.051147 
L 187.247071 373.532727 
L 242.099126 373.532727 
L 186.284754 372.051147 
L 245.948393 373.532727 
L 297.913498 373.532727 
L 186.284754 372.051147 
L 305.612032 373.532727 
L 353.72787 373.532727 
L 186.284754 372.051147 
L 366.237987 373.532727 
L 409.542241 373.532727 
L 186.284754 372.051147 
L 425.901626 373.532727 
L 465.356613 373.532727 
L 186.284754 372.051147 
L 485.565265 373.532727 
L 521.170985 373.532727 
L 186.284754 372.051147 
L 546.191221 373.532727 
L 576.985357 373.532727 
L 186.284754 372.051147 
L 605.85486 373.532727 
L 632.799729 373.532727 
L 186.284754 372.051147 
L 665.518498 373.532727 
L 676.103983 373.532727 
L 186.284754 371.804217 
L 133.357333 373.532727 
L 136.244283 373.532727 
L 148.754401 373.532727 
L 149.716717 371.557287 
L 159.339885 371.557287 
L 185.322437 364.890176 
L 186.284754 371.804217 
L 187.247071 364.643246 
L 205.531089 359.951575 
L 210.342673 359.951575 
L 212.267306 359.457715 
L 213.229623 359.704645 
L 214.19194 359.457715 
L 215.154257 359.704645 
L 216.116574 359.457715 
L 217.07889 359.704645 
L 218.041207 359.457715 
L 219.003524 359.704645 
L 219.965841 359.457715 
L 220.928157 359.704645 
L 221.890474 359.457715 
L 222.852791 359.704645 
L 223.815108 359.457715 
L 224.777424 359.704645 
L 225.739741 359.457715 
L 226.702058 373.532727 
L 242.099126 373.532727 
L 186.284754 371.804217 
L 244.986076 373.532727 
L 263.270095 373.532727 
L 264.232411 371.557287 
L 272.893262 371.557287 
L 273.855579 359.210785 
L 295.026547 353.778325 
L 295.988864 353.778325 
L 297.913498 353.284465 
L 186.284754 371.804217 
L 298.875815 353.037535 
L 301.762765 352.296744 
L 302.725082 352.296744 
L 326.783 346.123494 
L 327.745317 359.951575 
L 332.556901 359.951575 
L 333.519218 373.532727 
L 353.72787 373.532727 
L 186.284754 371.804217 
L 364.313354 373.532727 
L 374.898838 373.532727 
L 375.861155 371.557287 
L 381.635056 371.557287 
L 382.597372 345.876564 
L 402.806024 340.691033 
L 403.768341 340.691033 
L 409.542241 339.209453 
L 186.284754 371.804217 
L 412.429192 338.715593 
L 431.675527 333.776992 
L 432.637844 333.776992 
L 440.336378 331.801552 
L 441.298694 359.951575 
L 446.110278 359.951575 
L 447.072595 373.532727 
L 465.356613 373.532727 
L 186.284754 371.804217 
L 482.678315 373.532727 
L 487.489899 373.532727 
L 488.452215 371.557287 
L 494.226116 371.557287 
L 495.188433 331.554622 
L 515.397085 326.369091 
L 516.359401 326.369091 
L 521.170985 325.134441 
L 186.284754 371.804217 
L 522.133302 324.887511 
L 523.095619 324.887511 
L 548.115854 318.46733 
L 549.078171 359.951575 
L 553.889755 359.951575 
L 554.852072 373.532727 
L 576.985357 373.532727 
L 186.284754 371.804217 
L 595.269375 373.532727 
L 596.231692 371.557287 
L 602.005593 371.557287 
L 602.967909 318.2204 
L 603.930226 331.307692 
L 604.892543 317.97347 
L 608.74181 316.98575 
L 609.704127 329.826111 
L 612.591077 329.085321 
L 613.553394 316.73882 
L 614.51571 328.591461 
L 615.478027 316.49189 
L 629.912778 312.787939 
L 630.875095 312.787939 
L 632.799729 312.294079 
L 186.284754 371.804217 
L 633.762046 312.047149 
L 634.724362 311.800219 
L 635.686679 316.98575 
L 636.648996 329.826111 
L 639.535946 329.085321 
L 640.498263 316.73882 
L 641.46058 328.591461 
L 642.422896 316.49189 
L 648.196797 315.010309 
L 649.159114 311.553289 
L 650.12143 319.94891 
L 653.970697 318.96119 
L 654.933014 311.306359 
L 655.895331 325.134441 
L 656.857648 359.951575 
L 661.669231 359.951575 
L 662.631548 373.532727 
L 676.103983 373.532727 
L 186.284754 311.059429 
L 133.357333 310.812499 
L 156.452935 310.812499 
L 185.322437 310.812499 
L 186.284754 311.059429 
L 187.247071 310.812499 
L 242.099126 310.812499 
L 186.284754 311.059429 
L 267.119362 310.812499 
L 297.913498 310.812499 
L 186.284754 311.059429 
L 347.953969 310.812499 
L 353.72787 310.812499 
L 186.284754 311.059429 
L 428.788577 310.812499 
L 465.356613 310.812499 
L 186.284754 311.059429 
L 590.457792 310.812499 
L 632.799729 310.812499 
L 186.284754 311.059429 
L 676.103983 310.812499 
L 186.284754 310.565569 
L 133.357333 310.318639 
L 156.452935 310.318639 
L 185.322437 310.318639 
L 186.284754 310.565569 
L 187.247071 310.318639 
L 242.099126 310.318639 
L 186.284754 310.565569 
L 267.119362 310.318639 
L 297.913498 310.318639 
L 186.284754 310.565569 
L 347.953969 310.318639 
L 353.72787 310.318639 
L 186.284754 310.565569 
L 428.788577 310.318639 
L 465.356613 310.318639 
L 186.284754 310.565569 
L 590.457792 310.318639 
L 632.799729 310.318639 
L 186.284754 310.565569 
L 676.103983 310.318639 
L 186.284754 310.071709 
L 133.357333 373.532727 
L 185.322437 373.532727 
L 186.284754 310.071709 
L 187.247071 373.532727 
L 196.870238 373.532727 
L 197.832555 309.824779 
L 204.568772 308.096268 
L 242.099126 308.096268 
L 186.284754 310.071709 
L 244.986076 308.096268 
L 272.893262 308.096268 
L 277.704846 306.861618 
L 278.667163 373.532727 
L 297.913498 373.532727 
L 186.284754 310.071709 
L 298.875815 373.532727 
L 320.046783 373.532727 
L 321.0091 306.614688 
L 325.820684 305.380038 
L 326.783 308.096268 
L 353.72787 308.096268 
L 186.284754 310.071709 
L 362.38872 308.096268 
L 381.635056 308.096268 
L 382.597372 305.133108 
L 385.484323 304.392318 
L 386.446639 373.532727 
L 409.542241 373.532727 
L 186.284754 310.071709 
L 410.504558 373.532727 
L 430.71321 373.532727 
L 431.675527 304.145388 
L 439.374061 302.169948 
L 440.336378 308.096268 
L 465.356613 308.096268 
L 186.284754 310.071709 
L 480.753681 308.096268 
L 494.226116 308.096268 
L 495.188433 301.923018 
L 499.0377 300.935297 
L 500.000016 373.532727 
L 521.170985 373.532727 
L 186.284754 310.071709 
L 522.133302 373.532727 
L 541.379637 373.532727 
L 542.341954 300.688367 
L 547.153537 299.453717 
L 548.115854 308.096268 
L 576.985357 308.096268 
L 186.284754 310.071709 
L 598.156326 308.096268 
L 602.005593 308.096268 
L 602.967909 301.923018 
L 606.817176 300.935297 
L 607.779493 373.532727 
L 632.799729 373.532727 
L 186.284754 310.071709 
L 633.762046 373.532727 
L 648.196797 373.532727 
L 649.159114 299.206787 
L 650.12143 300.688367 
L 654.933014 299.453717 
L 655.895331 308.096268 
L 676.103983 308.096268 
L 676.103983 308.096268 
" clip-path="url(#pac0edb0e0d)" style="fill: none; stroke: #1f77b4; stroke-width: 1.5; stroke-linecap: square"/>
   </g>
   <g id="line2d_38">
    <path d="M 133.357333 373.532727 
L 148.754401 373.532727 
L 149.716717 298.959857 
L 158.377568 296.737487 
L 159.339885 310.812499 
L 185.322437 310.812499 
L 186.284754 296.490557 
L 187.247071 310.812499 
L 204.568772 310.812499 
L 205.531089 296.243627 
L 210.342673 295.008977 
L 211.30499 373.532727 
L 242.099126 373.532727 
L 186.284754 296.490557 
L 243.061443 373.532727 
L 263.270095 373.532727 
L 264.232411 294.762047 
L 271.930945 292.786606 
L 272.893262 310.812499 
L 297.913498 310.812499 
L 186.284754 296.490557 
L 298.875815 310.812499 
L 326.783 310.812499 
L 327.745317 292.539676 
L 331.594584 291.551956 
L 332.556901 373.532727 
L 353.72787 373.532727 
L 186.284754 296.490557 
L 354.690186 373.532727 
L 374.898838 373.532727 
L 375.861155 291.305026 
L 380.672739 290.070376 
L 381.635056 310.812499 
L 409.542241 310.812499 
L 186.284754 296.490557 
L 410.504558 310.812499 
L 440.336378 310.812499 
L 441.298694 289.823446 
L 445.147961 288.835726 
L 446.110278 373.532727 
L 465.356613 373.532727 
L 186.284754 296.490557 
L 466.31893 373.532727 
L 487.489899 373.532727 
L 488.452215 288.588796 
L 493.263799 287.354146 
L 494.226116 310.812499 
L 521.170985 310.812499 
L 186.284754 296.490557 
L 523.095619 310.812499 
L 548.115854 310.812499 
L 549.078171 289.823446 
L 552.927438 288.835726 
L 553.889755 373.532727 
L 576.985357 373.532727 
L 186.284754 296.490557 
L 577.947674 373.532727 
L 595.269375 373.532727 
L 596.231692 288.588796 
L 601.043276 287.354146 
L 602.005593 310.812499 
L 632.799729 310.812499 
L 186.284754 296.490557 
L 635.686679 310.812499 
L 655.895331 310.812499 
L 656.857648 289.823446 
L 660.706915 288.835726 
L 661.669231 373.532727 
L 676.103983 373.532727 
L 186.284754 287.107216 
L 133.357333 373.532727 
L 185.322437 373.532727 
L 186.284754 287.107216 
L 187.247071 373.532727 
L 242.099126 373.532727 
L 186.284754 287.107216 
L 243.061443 373.532727 
L 297.913498 373.532727 
L 186.284754 287.107216 
L 298.875815 373.532727 
L 353.72787 373.532727 
L 186.284754 287.107216 
L 354.690186 373.532727 
L 409.542241 373.532727 
L 186.284754 287.107216 
L 410.504558 373.532727 
L 465.356613 373.532727 
L 186.284754 287.107216 
L 466.31893 373.532727 
L 521.170985 373.532727 
L 186.284754 287.107216 
L 522.133302 373.532727 
L 576.985357 373.532727 
L 186.284754 287.107216 
L 577.947674 373.532727 
L 632.799729 373.532727 
L 186.284754 287.107216 
L 633.762046 373.532727 
L 676.103983 373.532727 
L 186.284754 286.860286 
L 133.357333 373.532727 
L 148.754401 373.532727 
L 149.716717 298.959857 
L 158.377568 296.737487 
L 159.339885 310.812499 
L 185.322437 310.812499 
L 186.284754 286.860286 
L 187.247071 310.812499 
L 204.568772 310.812499 
L 205.531089 296.243627 
L 210.342673 295.008977 
L 211.30499 373.532727 
L 242.099126 373.532727 
L 186.284754 286.860286 
L 243.061443 373.532727 
L 263.270095 373.532727 
L 264.232411 294.762047 
L 271.930945 292.786606 
L 272.893262 310.812499 
L 297.913498 310.812499 
L 186.284754 286.860286 
L 298.875815 310.812499 
L 326.783 310.812499 
L 327.745317 292.539676 
L 331.594584 291.551956 
L 332.556901 373.532727 
L 353.72787 373.532727 
L 186.284754 286.860286 
L 354.690186 373.532727 
L 374.898838 373.532727 
L 375.861155 291.305026 
L 380.672739 290.070376 
L 381.635056 310.812499 
L 409.542241 310.812499 
L 186.284754 286.860286 
L 410.504558 310.812499 
L 440.336378 310.812499 
L 441.298694 289.823446 
L 445.147961 288.835726 
L 446.110278 373.532727 
L 465.356613 373.532727 
L 186.284754 286.860286 
L 466.31893 373.532727 
L 487.489899 373.532727 
L 488.452215 288.588796 
L 493.263799 287.354146 
L 494.226116 310.812499 
L 521.170985 310.812499 
L 186.284754 286.860286 
L 522.133302 310.812499 
L 548.115854 310.812499 
L 549.078171 289.823446 
L 552.927438 288.835726 
L 553.889755 373.532727 
L 576.985357 373.532727 
L 186.284754 286.860286 
L 577.947674 373.532727 
L 595.269375 373.532727 
L 596.231692 288.588796 
L 601.043276 287.354146 
L 602.005593 310.812499 
L 632.799729 310.812499 
L 186.284754 286.860286 
L 634.724362 310.812499 
L 655.895331 310.812499 
L 656.857648 289.823446 
L 660.706915 288.835726 
L 661.669231 373.532727 
L 676.103983 373.532727 
L 186.284754 286.613356 
L 133.357333 373.532727 
L 134.319649 286.366426 
L 140.09355 284.884845 
L 141.055867 310.812499 
L 175.69927 310.812499 
L 176.661587 284.637915 
L 179.548537 283.897125 
L 180.510854 373.532727 
L 185.322437 373.532727 
L 186.284754 286.613356 
L 187.247071 373.532727 
L 225.739741 373.532727 
L 226.702058 283.650195 
L 235.362909 281.427825 
L 236.325225 310.812499 
L 242.099126 310.812499 
L 186.284754 286.613356 
L 243.061443 310.812499 
L 297.913498 310.812499 
L 186.284754 286.613356 
L 298.875815 310.812499 
L 300.800448 310.812499 
L 301.762765 281.180895 
L 304.649715 280.440105 
L 305.612032 373.532727 
L 347.953969 373.532727 
L 348.916286 280.193175 
L 353.72787 278.958525 
L 186.284754 286.613356 
L 354.690186 310.812499 
L 409.542241 310.812499 
L 186.284754 286.613356 
L 410.504558 278.711594 
L 413.391508 277.970804 
L 414.353825 373.532727 
L 460.545029 373.532727 
L 461.507346 288.588796 
L 465.356613 287.601076 
L 186.284754 286.613356 
L 466.31893 287.354146 
L 467.281247 310.812499 
L 521.170985 310.812499 
L 186.284754 286.613356 
L 522.133302 289.823446 
L 525.982569 288.835726 
L 526.944886 373.532727 
L 568.324506 373.532727 
L 569.286823 288.588796 
L 574.098407 287.354146 
L 575.060723 310.812499 
L 576.985357 310.812499 
L 186.284754 286.613356 
L 577.947674 310.812499 
L 628.950462 310.812499 
L 629.912778 289.823446 
L 632.799729 289.082656 
L 186.284754 286.613356 
L 633.762046 288.835726 
L 634.724362 373.532727 
L 676.103983 373.532727 
L 186.284754 277.723874 
L 133.357333 373.532727 
L 185.322437 373.532727 
L 186.284754 277.723874 
L 187.247071 373.532727 
L 242.099126 373.532727 
L 186.284754 277.723874 
L 243.061443 373.532727 
L 297.913498 373.532727 
L 186.284754 277.723874 
L 298.875815 373.532727 
L 353.72787 373.532727 
L 186.284754 277.723874 
L 354.690186 373.532727 
L 409.542241 373.532727 
L 186.284754 277.723874 
L 410.504558 373.532727 
L 465.356613 373.532727 
L 186.284754 277.723874 
L 466.31893 373.532727 
L 521.170985 373.532727 
L 186.284754 277.723874 
L 522.133302 373.532727 
L 576.985357 373.532727 
L 186.284754 277.723874 
L 577.947674 373.532727 
L 632.799729 373.532727 
L 186.284754 277.723874 
L 633.762046 373.532727 
L 676.103983 373.532727 
L 186.284754 277.476944 
L 133.357333 373.532727 
L 185.322437 373.532727 
L 186.284754 277.476944 
L 187.247071 373.532727 
L 196.870238 373.532727 
L 197.832555 371.557287 
L 204.568772 371.557287 
L 205.531089 277.230014 
L 242.099126 267.846673 
L 186.284754 277.476944 
L 243.061443 267.599743 
L 261.345461 262.908072 
L 262.307778 315.010309 
L 263.270095 262.661142 
L 264.232411 262.414212 
L 265.194728 262.414212 
L 272.893262 260.438772 
L 273.855579 359.951575 
L 278.667163 359.951575 
L 279.629479 373.532727 
L 297.913498 373.532727 
L 186.284754 277.476944 
L 298.875815 373.532727 
L 320.046783 373.532727 
L 321.0091 371.557287 
L 326.783 371.557287 
L 327.745317 260.191842 
L 328.707634 260.191842 
L 353.72787 253.771661 
L 186.284754 277.476944 
L 354.690186 253.524731 
L 355.652503 253.277801 
L 356.61482 253.277801 
L 375.861155 248.3392 
L 376.823472 248.3392 
L 381.635056 247.10455 
L 382.597372 359.951575 
L 386.446639 359.951575 
L 387.408956 373.532727 
L 409.542241 373.532727 
L 186.284754 277.476944 
L 410.504558 373.532727 
L 430.71321 373.532727 
L 431.675527 371.557287 
L 440.336378 371.557287 
L 441.298694 246.85762 
L 465.356613 240.684369 
L 186.284754 277.476944 
L 466.31893 240.437439 
L 487.489899 235.004979 
L 488.452215 319.94891 
L 493.263799 318.71426 
L 494.226116 234.758049 
L 495.188433 359.951575 
L 500.000016 359.951575 
L 500.962333 373.532727 
L 521.170985 373.532727 
L 186.284754 277.476944 
L 522.133302 373.532727 
L 541.379637 373.532727 
L 542.341954 371.557287 
L 548.115854 371.557287 
L 549.078171 234.511119 
L 553.889755 233.276468 
L 554.852072 238.461999 
L 555.814388 233.029538 
L 569.286823 229.572518 
L 570.24914 229.572518 
L 574.098407 228.584798 
L 575.060723 325.134441 
L 576.02304 239.943579 
L 576.985357 239.696649 
L 186.284754 277.476944 
L 577.947674 239.449719 
L 579.872307 238.955859 
L 580.834624 228.337868 
L 581.796941 238.461999 
L 582.759257 233.029538 
L 594.307059 230.066378 
L 595.269375 228.090938 
L 596.231692 326.369091 
L 597.194009 326.369091 
L 598.156326 326.122161 
L 599.118642 227.844008 
L 600.080959 325.628301 
L 601.043276 325.381371 
L 602.005593 227.597078 
L 602.967909 359.951575 
L 607.779493 359.951575 
L 608.74181 373.532727 
L 632.799729 373.532727 
L 186.284754 277.476944 
L 633.762046 373.532727 
L 648.196797 373.532727 
L 649.159114 227.350148 
L 650.12143 371.557287 
L 655.895331 371.557287 
L 656.857648 318.2204 
L 657.819964 331.307692 
L 658.782281 317.97347 
L 662.631548 316.98575 
L 663.593865 329.826111 
L 666.480815 329.085321 
L 667.443132 316.73882 
L 668.405449 328.591461 
L 669.367765 316.49189 
L 675.141666 315.010309 
L 676.103983 227.103218 
L 186.284754 226.856287 
L 133.357333 310.812499 
L 185.322437 310.812499 
L 186.284754 226.856287 
L 187.247071 310.812499 
L 242.099126 310.812499 
L 186.284754 226.856287 
L 243.061443 310.812499 
L 297.913498 310.812499 
L 186.284754 226.856287 
L 298.875815 310.812499 
L 353.72787 310.812499 
L 186.284754 226.856287 
L 354.690186 310.812499 
L 409.542241 310.812499 
L 186.284754 226.856287 
L 410.504558 310.812499 
L 465.356613 310.812499 
L 186.284754 226.856287 
L 466.31893 310.812499 
L 521.170985 310.812499 
L 186.284754 226.856287 
L 522.133302 310.812499 
L 576.985357 310.812499 
L 186.284754 226.856287 
L 577.947674 310.812499 
L 632.799729 310.812499 
L 186.284754 226.856287 
L 633.762046 310.812499 
L 676.103983 310.812499 
L 186.284754 226.609357 
L 133.357333 373.532727 
L 185.322437 373.532727 
L 186.284754 226.609357 
L 187.247071 373.532727 
L 242.099126 373.532727 
L 186.284754 226.609357 
L 243.061443 373.532727 
L 297.913498 373.532727 
L 186.284754 226.609357 
L 298.875815 373.532727 
L 353.72787 373.532727 
L 186.284754 226.609357 
L 354.690186 373.532727 
L 409.542241 373.532727 
L 186.284754 226.609357 
L 410.504558 373.532727 
L 465.356613 373.532727 
L 186.284754 226.609357 
L 466.31893 373.532727 
L 521.170985 373.532727 
L 186.284754 226.609357 
L 522.133302 373.532727 
L 576.985357 373.532727 
L 186.284754 226.609357 
L 577.947674 373.532727 
L 632.799729 373.532727 
L 186.284754 226.609357 
L 633.762046 373.532727 
L 676.103983 373.532727 
L 186.284754 226.362427 
L 133.357333 373.532727 
L 134.319649 371.557287 
L 141.055867 371.557287 
L 142.018183 226.115497 
L 142.9805 226.115497 
L 146.829767 225.127777 
L 147.792084 225.374707 
L 148.754401 224.880847 
L 167.038419 220.189177 
L 168.000736 369.334917 
L 175.69927 367.359476 
L 176.661587 359.951575 
L 180.510854 359.951575 
L 181.47317 373.532727 
L 185.322437 373.532727 
L 186.284754 226.362427 
L 187.247071 373.532727 
L 225.739741 373.532727 
L 226.702058 371.557287 
L 236.325225 371.557287 
L 237.287542 219.942247 
L 242.099126 218.707596 
L 186.284754 226.362427 
L 243.061443 218.460666 
L 247.873026 217.226016 
L 248.835343 266.118163 
L 261.345461 262.908072 
L 262.307778 315.010309 
L 263.270095 262.661142 
L 264.232411 262.414212 
L 265.194728 262.414212 
L 272.893262 260.438772 
L 273.855579 216.979086 
L 278.667163 215.744436 
L 279.629479 357.729205 
L 295.026547 353.778325 
L 295.988864 353.778325 
L 297.913498 353.284465 
L 186.284754 226.362427 
L 298.875815 353.037535 
L 300.800448 352.543674 
L 301.762765 359.951575 
L 305.612032 359.951575 
L 306.574349 373.532727 
L 347.953969 373.532727 
L 348.916286 371.557287 
L 353.72787 371.557287 
L 186.284754 226.362427 
L 354.690186 371.557287 
L 355.652503 253.277801 
L 356.61482 253.277801 
L 375.861155 248.3392 
L 376.823472 248.3392 
L 381.635056 247.10455 
L 382.597372 345.876564 
L 402.806024 340.691033 
L 403.768341 340.691033 
L 409.542241 339.209453 
L 186.284754 226.362427 
L 410.504558 359.951575 
L 414.353825 359.951575 
L 415.316142 373.532727 
L 460.545029 373.532727 
L 461.507346 371.557287 
L 465.356613 371.557287 
L 186.284754 226.362427 
L 466.31893 371.557287 
L 467.281247 371.557287 
L 468.243564 234.511119 
L 472.092831 233.523398 
L 473.055147 215.497506 
L 474.017464 238.461999 
L 487.489899 235.004979 
L 488.452215 319.94891 
L 493.263799 318.71426 
L 494.226116 215.250576 
L 495.188433 215.003646 
L 496.150749 312.787939 
L 497.113066 214.756716 
L 500.000016 214.015926 
L 500.962333 330.073041 
L 515.397085 326.369091 
L 516.359401 326.369091 
L 521.170985 325.134441 
L 186.284754 226.362427 
L 522.133302 359.951575 
L 526.944886 359.951575 
L 527.907202 373.532727 
L 568.324506 373.532727 
L 569.286823 371.557287 
L 575.060723 371.557287 
L 576.02304 234.511119 
L 576.985357 234.264188 
L 186.284754 226.362427 
L 577.947674 234.017258 
L 580.834624 233.276468 
L 581.796941 238.461999 
L 582.759257 233.029538 
L 594.307059 230.066378 
L 595.269375 228.090938 
L 596.231692 326.369091 
L 597.194009 326.369091 
L 598.156326 326.122161 
L 599.118642 227.844008 
L 600.080959 325.628301 
L 601.043276 325.381371 
L 602.005593 227.597078 
L 602.967909 312.787939 
L 603.930226 312.787939 
L 607.779493 311.800219 
L 608.74181 316.98575 
L 609.704127 329.826111 
L 612.591077 329.085321 
L 613.553394 316.73882 
L 614.51571 328.591461 
L 615.478027 316.49189 
L 628.950462 313.034869 
L 629.912778 359.951575 
L 632.799729 359.951575 
L 186.284754 226.362427 
L 633.762046 359.951575 
L 634.724362 359.951575 
L 635.686679 373.532727 
L 676.103983 373.532727 
L 676.103983 373.532727 
" clip-path="url(#pac0edb0e0d)" style="fill: none; stroke: #ff7f0e; stroke-width: 1.5; stroke-linecap: square"/>
   </g>
   <g id="line2d_39">
    <path d="M 133.357333 373.532727 
L 185.322437 373.532727 
L 186.284754 213.768996 
L 187.247071 373.532727 
L 196.870238 373.532727 
L 197.832555 213.522066 
L 203.606456 212.040485 
L 204.568772 310.812499 
L 242.099126 310.812499 
L 186.284754 213.768996 
L 243.061443 310.812499 
L 272.893262 310.812499 
L 273.855579 211.793555 
L 277.704846 210.805835 
L 278.667163 373.532727 
L 297.913498 373.532727 
L 186.284754 213.768996 
L 298.875815 373.532727 
L 320.046783 373.532727 
L 321.0091 210.558905 
L 325.820684 209.324255 
L 326.783 310.812499 
L 353.72787 310.812499 
L 186.284754 213.768996 
L 354.690186 310.812499 
L 381.635056 310.812499 
L 382.597372 209.077325 
L 385.484323 208.336535 
L 386.446639 373.532727 
L 409.542241 373.532727 
L 186.284754 213.768996 
L 410.504558 373.532727 
L 430.71321 373.532727 
L 431.675527 208.089605 
L 439.374061 206.114165 
L 440.336378 310.812499 
L 465.356613 310.812499 
L 186.284754 213.768996 
L 466.31893 310.812499 
L 494.226116 310.812499 
L 495.188433 289.823446 
L 499.0377 288.835726 
L 500.000016 373.532727 
L 521.170985 373.532727 
L 186.284754 213.768996 
L 522.133302 373.532727 
L 541.379637 373.532727 
L 542.341954 288.588796 
L 547.153537 287.354146 
L 548.115854 310.812499 
L 576.985357 310.812499 
L 186.284754 213.768996 
L 577.947674 310.812499 
L 602.005593 310.812499 
L 602.967909 289.823446 
L 606.817176 288.835726 
L 607.779493 373.532727 
L 632.799729 373.532727 
L 186.284754 213.768996 
L 633.762046 373.532727 
L 648.196797 373.532727 
L 649.159114 205.867235 
L 650.12143 288.588796 
L 654.933014 287.354146 
L 655.895331 310.812499 
L 676.103983 310.812499 
L 186.284754 205.620305 
L 133.357333 205.373375 
L 156.452935 205.373375 
L 185.322437 205.373375 
L 186.284754 205.620305 
L 187.247071 205.373375 
L 242.099126 205.373375 
L 186.284754 205.620305 
L 267.119362 205.373375 
L 297.913498 205.373375 
L 186.284754 205.620305 
L 347.953969 205.373375 
L 353.72787 205.373375 
L 186.284754 205.620305 
L 428.788577 205.373375 
L 465.356613 205.373375 
L 186.284754 205.620305 
L 590.457792 205.373375 
L 632.799729 205.373375 
L 186.284754 205.620305 
L 676.103983 205.373375 
L 186.284754 205.126445 
L 133.357333 373.532727 
L 185.322437 373.532727 
L 186.284754 205.126445 
L 187.247071 373.532727 
L 196.870238 373.532727 
L 197.832555 213.522066 
L 203.606456 212.040485 
L 204.568772 310.812499 
L 242.099126 310.812499 
L 186.284754 205.126445 
L 243.061443 310.812499 
L 272.893262 310.812499 
L 273.855579 211.793555 
L 277.704846 210.805835 
L 278.667163 373.532727 
L 297.913498 373.532727 
L 186.284754 205.126445 
L 298.875815 373.532727 
L 320.046783 373.532727 
L 321.0091 210.558905 
L 325.820684 209.324255 
L 326.783 310.812499 
L 353.72787 310.812499 
L 186.284754 205.126445 
L 354.690186 310.812499 
L 381.635056 310.812499 
L 382.597372 209.077325 
L 385.484323 208.336535 
L 386.446639 373.532727 
L 409.542241 373.532727 
L 186.284754 205.126445 
L 410.504558 373.532727 
L 430.71321 373.532727 
L 431.675527 208.089605 
L 439.374061 206.114165 
L 440.336378 310.812499 
L 465.356613 310.812499 
L 186.284754 205.126445 
L 466.31893 310.812499 
L 494.226116 310.812499 
L 495.188433 289.823446 
L 499.0377 288.835726 
L 500.000016 373.532727 
L 521.170985 373.532727 
L 186.284754 205.126445 
L 522.133302 373.532727 
L 541.379637 373.532727 
L 542.341954 288.588796 
L 547.153537 287.354146 
L 548.115854 310.812499 
L 576.985357 310.812499 
L 186.284754 205.126445 
L 577.947674 310.812499 
L 602.005593 310.812499 
L 602.967909 289.823446 
L 606.817176 288.835726 
L 607.779493 373.532727 
L 632.799729 373.532727 
L 186.284754 205.126445 
L 633.762046 373.532727 
L 648.196797 373.532727 
L 649.159114 205.867235 
L 650.12143 288.588796 
L 654.933014 287.354146 
L 655.895331 310.812499 
L 676.103983 310.812499 
L 186.284754 204.879515 
L 133.357333 373.532727 
L 167.038419 373.532727 
L 168.000736 204.632584 
L 174.736953 202.904074 
L 175.69927 310.812499 
L 185.322437 310.812499 
L 186.284754 204.879515 
L 187.247071 310.812499 
L 236.325225 310.812499 
L 237.287542 202.657144 
L 242.099126 201.422494 
L 186.284754 204.879515 
L 243.061443 201.175564 
L 246.91071 200.187844 
L 247.873026 373.532727 
L 293.101914 373.532727 
L 294.064231 199.940914 
L 297.913498 198.953194 
L 186.284754 204.879515 
L 298.875815 198.706264 
L 299.838131 198.459334 
L 300.800448 310.812499 
L 353.72787 310.812499 
L 186.284754 204.879515 
L 354.690186 310.812499 
L 355.652503 198.212404 
L 358.539453 197.471614 
L 359.50177 373.532727 
L 401.843707 373.532727 
L 402.806024 197.224683 
L 408.579925 195.743103 
L 409.542241 310.812499 
L 186.284754 204.879515 
L 410.504558 310.812499 
L 465.356613 310.812499 
L 186.284754 204.879515 
L 466.31893 310.812499 
L 467.281247 310.812499 
L 468.243564 289.823446 
L 472.092831 288.835726 
L 473.055147 373.532727 
L 514.434768 373.532727 
L 515.397085 288.588796 
L 520.208668 287.354146 
L 521.170985 310.812499 
L 186.284754 204.879515 
L 522.133302 310.812499 
L 575.060723 310.812499 
L 576.02304 289.823446 
L 576.985357 289.576516 
L 186.284754 204.879515 
L 577.947674 289.329586 
L 579.872307 288.835726 
L 580.834624 373.532727 
L 621.251928 373.532727 
L 622.214244 205.867235 
L 623.176561 288.588796 
L 627.988145 287.354146 
L 628.950462 310.812499 
L 632.799729 310.812499 
L 186.284754 204.879515 
L 633.762046 310.812499 
L 676.103983 310.812499 
L 186.284754 195.496173 
L 133.357333 373.532727 
L 134.319649 195.249243 
L 185.322437 182.161951 
L 186.284754 195.496173 
L 187.247071 181.915021 
L 242.099126 167.84001 
L 186.284754 195.496173 
L 243.061443 167.593079 
L 297.913498 153.518068 
L 186.284754 195.496173 
L 298.875815 153.271138 
L 353.72787 139.196126 
L 186.284754 195.496173 
L 354.690186 138.949196 
L 409.542241 124.874184 
L 186.284754 195.496173 
L 411.466875 124.380324 
L 465.356613 110.552242 
L 186.284754 195.496173 
L 467.281247 110.058382 
L 521.170985 96.2303 
L 186.284754 195.496173 
L 524.057935 95.48951 
L 576.985357 81.908358 
L 186.284754 195.496173 
L 579.872307 81.167568 
L 632.799729 67.586416 
L 186.284754 195.496173 
L 636.648996 66.598696 
L 676.103983 56.474564 
L 186.284754 56.227634 
L 133.357333 55.980704 
L 156.452935 55.980704 
L 185.322437 55.980704 
L 186.284754 56.227634 
L 187.247071 55.980704 
L 212.267306 55.980704 
L 213.229623 55.733774 
L 214.19194 55.733774 
L 215.154257 55.980704 
L 242.099126 55.980704 
L 186.284754 56.227634 
L 267.119362 55.980704 
L 279.629479 55.980704 
L 280.591796 55.486844 
L 281.554113 55.980704 
L 297.913498 55.980704 
L 186.284754 56.227634 
L 333.519218 55.980704 
L 334.481534 55.486844 
L 335.443851 55.980704 
L 353.72787 55.980704 
L 186.284754 56.227634 
L 387.408956 55.980704 
L 388.371273 55.486844 
L 389.33359 55.980704 
L 409.542241 55.980704 
L 186.284754 56.227634 
L 415.316142 55.980704 
L 416.278459 55.486844 
L 417.240775 55.486844 
L 418.203092 55.980704 
L 465.356613 55.980704 
L 186.284754 56.227634 
L 590.457792 55.980704 
L 608.74181 55.980704 
L 609.704127 55.733774 
L 610.666443 55.733774 
L 611.62876 55.980704 
L 632.799729 55.980704 
L 186.284754 56.227634 
L 635.686679 55.980704 
L 636.648996 55.733774 
L 637.611313 55.733774 
L 638.573629 55.980704 
L 662.631548 55.980704 
L 663.593865 55.733774 
L 664.556182 55.733774 
L 665.518498 55.980704 
L 676.103983 55.980704 
L 186.284754 55.239914 
L 133.357333 54.992984 
L 156.452935 54.992984 
L 185.322437 54.992984 
L 186.284754 55.239914 
L 187.247071 54.992984 
L 242.099126 54.992984 
L 186.284754 55.239914 
L 267.119362 54.992984 
L 297.913498 54.992984 
L 186.284754 55.239914 
L 347.953969 54.992984 
L 353.72787 54.992984 
L 186.284754 55.239914 
L 428.788577 54.992984 
L 465.356613 54.992984 
L 186.284754 55.239914 
L 590.457792 54.992984 
L 632.799729 54.992984 
L 186.284754 55.239914 
L 676.103983 54.992984 
L 186.284754 54.746054 
L 133.357333 373.532727 
L 148.754401 373.532727 
L 149.716717 371.557287 
L 155.490618 371.557287 
L 156.452935 54.499124 
L 157.415251 54.499124 
L 159.339885 54.005264 
L 160.302202 308.096268 
L 185.322437 308.096268 
L 186.284754 54.746054 
L 187.247071 308.096268 
L 204.568772 308.096268 
L 205.531089 53.758334 
L 209.380356 52.770614 
L 210.342673 359.951575 
L 212.267306 359.457715 
L 213.229623 359.704645 
L 214.19194 359.457715 
L 215.154257 359.704645 
L 216.116574 359.457715 
L 217.07889 359.704645 
L 218.041207 359.457715 
L 219.003524 359.704645 
L 219.965841 359.457715 
L 220.928157 359.704645 
L 221.890474 359.457715 
L 222.852791 359.704645 
L 223.815108 359.457715 
L 224.777424 359.704645 
L 225.739741 359.457715 
L 226.702058 373.532727 
L 242.099126 373.532727 
L 186.284754 54.746054 
L 243.061443 373.532727 
L 263.270095 373.532727 
L 264.232411 371.557287 
L 269.043995 371.557287 
L 270.006312 54.499124 
L 270.968629 54.252194 
L 271.930945 52.523684 
L 272.893262 54.005264 
L 273.855579 308.096268 
L 297.913498 308.096268 
L 186.284754 54.746054 
L 298.875815 308.096268 
L 326.783 308.096268 
L 327.745317 53.758334 
L 328.707634 52.276754 
L 331.594584 51.535964 
L 332.556901 359.951575 
L 333.519218 373.532727 
L 353.72787 373.532727 
L 186.284754 54.746054 
L 354.690186 373.532727 
L 374.898838 373.532727 
L 375.861155 371.557287 
L 378.748105 371.557287 
L 379.710422 54.499124 
L 381.635056 54.005264 
L 382.597372 308.096268 
L 409.542241 308.096268 
L 186.284754 54.746054 
L 410.504558 308.096268 
L 440.336378 308.096268 
L 441.298694 53.758334 
L 442.261011 53.511404 
L 443.223328 51.289034 
L 445.147961 50.795174 
L 446.110278 359.951575 
L 447.072595 373.532727 
L 465.356613 373.532727 
L 186.284754 54.746054 
L 466.31893 373.532727 
L 487.489899 373.532727 
L 488.452215 371.557287 
L 490.376849 371.557287 
L 491.339166 54.499124 
L 492.301482 54.252194 
L 493.263799 52.523684 
L 494.226116 54.005264 
L 495.188433 308.096268 
L 521.170985 308.096268 
L 186.284754 54.746054 
L 522.133302 308.096268 
L 548.115854 308.096268 
L 549.078171 53.758334 
L 550.040488 53.511404 
L 551.002805 51.289034 
L 552.927438 50.795174 
L 553.889755 359.951575 
L 554.852072 373.532727 
L 576.985357 373.532727 
L 186.284754 54.746054 
L 577.947674 373.532727 
L 595.269375 373.532727 
L 596.231692 371.557287 
L 598.156326 371.557287 
L 599.118642 54.499124 
L 600.080959 54.252194 
L 601.043276 52.523684 
L 602.005593 54.005264 
L 602.967909 308.096268 
L 632.799729 308.096268 
L 186.284754 54.746054 
L 633.762046 308.096268 
L 655.895331 308.096268 
L 656.857648 53.758334 
L 657.819964 53.511404 
L 658.782281 51.289034 
L 660.706915 50.795174 
L 661.669231 359.951575 
L 662.631548 373.532727 
L 676.103983 373.532727 
L 186.284754 50.548244 
L 133.357333 373.532727 
L 167.038419 373.532727 
L 168.000736 371.557287 
L 175.69927 371.557287 
L 176.661587 367.112546 
L 185.322437 364.890176 
L 186.284754 50.548244 
L 187.247071 364.643246 
L 204.568772 360.198505 
L 205.531089 50.301314 
L 206.493406 50.301314 
L 210.342673 49.313594 
L 211.30499 275.748434 
L 236.325225 269.328253 
L 237.287542 359.951575 
L 242.099126 359.951575 
L 186.284754 50.548244 
L 243.061443 359.951575 
L 247.873026 359.951575 
L 248.835343 373.532727 
L 293.101914 373.532727 
L 294.064231 49.066663 
L 295.026547 371.557287 
L 297.913498 371.557287 
L 186.284754 50.548244 
L 298.875815 371.557287 
L 300.800448 371.557287 
L 301.762765 48.819733 
L 305.612032 47.832013 
L 306.574349 351.309024 
L 325.820684 346.370424 
L 326.783 47.585083 
L 327.745317 260.191842 
L 328.707634 260.191842 
L 353.72787 253.771661 
L 186.284754 50.548244 
L 354.690186 253.524731 
L 355.652503 359.951575 
L 359.50177 359.951575 
L 360.464087 373.532727 
L 401.843707 373.532727 
L 402.806024 371.557287 
L 409.542241 371.557287 
L 186.284754 50.548244 
L 410.504558 47.338153 
L 414.353825 46.350433 
L 415.316142 337.974802 
L 431.675527 333.776992 
L 432.637844 333.776992 
L 440.336378 331.801552 
L 441.298694 46.103503 
L 442.261011 46.103503 
L 446.110278 45.115783 
L 447.072595 245.37604 
L 465.356613 240.684369 
L 186.284754 50.548244 
L 466.31893 240.437439 
L 467.281247 44.868853 
L 468.243564 359.951575 
L 473.055147 359.951575 
L 474.017464 373.532727 
L 514.434768 373.532727 
L 515.397085 371.557287 
L 521.170985 371.557287 
L 186.284754 50.548244 
L 522.133302 44.621923 
L 526.944886 43.387273 
L 527.907202 323.652861 
L 548.115854 318.46733 
L 549.078171 239.943579 
L 552.927438 238.955859 
L 553.889755 228.337868 
L 554.852072 238.461999 
L 555.814388 233.029538 
L 569.286823 229.572518 
L 570.24914 229.572518 
L 574.098407 228.584798 
L 575.060723 325.134441 
L 576.02304 359.951575 
L 576.985357 359.951575 
L 186.284754 50.548244 
L 577.947674 359.951575 
L 580.834624 359.951575 
L 581.796941 373.532727 
L 621.251928 373.532727 
L 622.214244 227.350148 
L 623.176561 371.557287 
L 628.950462 371.557287 
L 629.912778 318.2204 
L 630.875095 331.307692 
L 631.837412 317.97347 
L 632.799729 317.72654 
L 186.284754 50.548244 
L 633.762046 317.47961 
L 635.686679 316.98575 
L 636.648996 329.826111 
L 639.535946 329.085321 
L 640.498263 316.73882 
L 641.46058 328.591461 
L 642.422896 316.49189 
L 648.196797 315.010309 
L 649.159114 311.553289 
L 650.12143 319.94891 
L 653.970697 318.96119 
L 654.933014 311.306359 
L 655.895331 325.134441 
L 656.857648 312.787939 
L 657.819964 312.787939 
L 661.669231 311.800219 
L 662.631548 316.98575 
L 663.593865 329.826111 
L 666.480815 329.085321 
L 667.443132 316.73882 
L 668.405449 328.591461 
L 669.367765 316.49189 
L 675.141666 315.010309 
L 676.103983 227.103218 
L 676.103983 227.103218 
" clip-path="url(#pac0edb0e0d)" style="fill: none; stroke: #2ca02c; stroke-width: 1.5; stroke-linecap: square"/>
   </g>
   <g id="patch_3">
    <path d="M 106.22 390.04 
L 106.22 26.88 
" style="fill: none; stroke: #000000; stroke-width: 0.8; stroke-linejoin: miter; stroke-linecap: square"/>
   </g>
   <g id="patch_4">
    <path d="M 703.241315 390.04 
L 703.241315 26.88 
" style="fill: none; stroke: #000000; stroke-width: 0.8; stroke-linejoin: miter; stroke-linecap: square"/>
   </g>
   <g id="patch_5">
    <path d="M 106.22 390.04 
L 703.241315 390.04 
" style="fill: none; stroke: #000000; stroke-width: 0.8; stroke-linejoin: miter; stroke-linecap: square"/>
   </g>
   <g id="patch_6">
    <path d="M 106.22 26.88 
L 703.241315 26.88 
" style="fill: none; stroke: #000000; stroke-width: 0.8; stroke-linejoin: miter; stroke-linecap: square"/>
   </g>
   <g id="text_20">
    <!-- Transient Analysis of NeurX Hybrid System v0.11 -->
    <g transform="translate(257.761595 20.88) scale(0.12 -0.12)">
     <defs>
      <path id="DejaVuSans-72" d="M 2631 2963 
Q 2534 3019 2420 3045 
Q 2306 3072 2169 3072 
Q 1681 3072 1420 2755 
Q 1159 2438 1159 1844 
L 1159 0 
L 581 0 
L 581 3500 
L 1159 3500 
L 1159 2956 
Q 1341 3275 1631 3429 
Q 1922 3584 2338 3584 
Q 2397 3584 2469 3576 
Q 2541 3569 2628 3553 
L 2631 2963 
z
" transform="scale(0.015625)"/>
      <path id="DejaVuSans-6e" d="M 3513 2113 
L 3513 0 
L 2938 0 
L 2938 2094 
Q 2938 2591 2744 2837 
Q 2550 3084 2163 3084 
Q 1697 3084 1428 2787 
Q 1159 2491 1159 1978 
L 1159 0 
L 581 0 
L 581 3500 
L 1159 3500 
L 1159 2956 
Q 1366 3272 1645 3428 
Q 1925 3584 2291 3584 
Q 2894 3584 3203 3211 
Q 3513 2838 3513 2113 
z
" transform="scale(0.015625)"/>
      <path id="DejaVuSans-41" d="M 2188 4044 
L 1331 1722 
L 3047 1722 
L 2188 4044 
z
M 1831 4666 
L 2547 4666 
L 4325 0 
L 3669 0 
L 3244 1197 
L 1141 1197 
L 716 0 
L 50 0 
L 1831 4666 
z
" transform="scale(0.015625)"/>
      <path id="DejaVuSans-79" d="M 2059 -325 
Q 1816 -950 1584 -1140 
Q 1353 -1331 966 -1331 
L 506 -1331 
L 506 -850 
L 844 -850 
Q 1081 -850 1212 -737 
Q 1344 -625 1503 -206 
L 1606 56 
L 191 3500 
L 800 3500 
L 1894 763 
L 2988 3500 
L 3597 3500 
L 2059 -325 
z
" transform="scale(0.015625)"/>
      <path id="DejaVuSans-66" d="M 2375 4863 
L 2375 4384 
L 1825 4384 
Q 1516 4384 1395 4259 
Q 1275 4134 1275 3809 
L 1275 3500 
L 2222 3500 
L 2222 3053 
L 1275 3053 
L 1275 0 
L 697 0 
L 697 3053 
L 147 3053 
L 147 3500 
L 697 3500 
L 697 3744 
Q 697 4328 969 4595 
Q 1241 4863 1831 4863 
L 2375 4863 
z
" transform="scale(0.015625)"/>
      <path id="DejaVuSans-4e" d="M 628 4666 
L 1478 4666 
L 3547 763 
L 3547 4666 
L 4159 4666 
L 4159 0 
L 3309 0 
L 1241 3903 
L 1241 0 
L 628 0 
L 628 4666 
z
" transform="scale(0.015625)"/>
      <path id="DejaVuSans-75" d="M 544 1381 
L 544 3500 
L 1119 3500 
L 1119 1403 
Q 1119 906 1312 657 
Q 1506 409 1894 409 
Q 2359 409 2629 706 
Q 2900 1003 2900 1516 
L 2900 3500 
L 3475 3500 
L 3475 0 
L 2900 0 
L 2900 538 
Q 2691 219 2414 64 
Q 2138 -91 1772 -91 
Q 1169 -91 856 284 
Q 544 659 544 1381 
z
M 1991 3584 
L 1991 3584 
z
" transform="scale(0.015625)"/>
      <path id="DejaVuSans-58" d="M 403 4666 
L 1081 4666 
L 2241 2931 
L 3406 4666 
L 4084 4666 
L 2584 2425 
L 4184 0 
L 3506 0 
L 2194 1984 
L 872 0 
L 191 0 
L 1856 2491 
L 403 4666 
z
" transform="scale(0.015625)"/>
      <path id="DejaVuSans-48" d="M 628 4666 
L 1259 4666 
L 1259 2753 
L 3553 2753 
L 3553 4666 
L 4184 4666 
L 4184 0 
L 3553 0 
L 3553 2222 
L 1259 2222 
L 1259 0 
L 628 0 
L 628 4666 
z
" transform="scale(0.015625)"/>
      <path id="DejaVuSans-62" d="M 3116 1747 
Q 3116 2381 2855 2742 
Q 2594 3103 2138 3103 
Q 1681 3103 1420 2742 
Q 1159 2381 1159 1747 
Q 1159 1113 1420 752 
Q 1681 391 2138 391 
Q 2594 391 2855 752 
Q 3116 1113 3116 1747 
z
M 1159 2969 
Q 1341 3281 1617 3432 
Q 1894 3584 2278 3584 
Q 2916 3584 3314 3078 
Q 3713 2572 3713 1747 
Q 3713 922 3314 415 
Q 2916 -91 2278 -91 
Q 1894 -91 1617 61 
Q 1341 213 1159 525 
L 1159 0 
L 581 0 
L 581 4863 
L 1159 4863 
L 1159 2969 
z
" transform="scale(0.015625)"/>
      <path id="DejaVuSans-64" d="M 2906 2969 
L 2906 4863 
L 3481 4863 
L 3481 0 
L 2906 0 
L 2906 525 
Q 2725 213 2448 61 
Q 2172 -91 1784 -91 
Q 1150 -91 751 415 
Q 353 922 353 1747 
Q 353 2572 751 3078 
Q 1150 3584 1784 3584 
Q 2172 3584 2448 3432 
Q 2725 3281 2906 2969 
z
M 947 1747 
Q 947 1113 1208 752 
Q 1469 391 1925 391 
Q 2381 391 2643 752 
Q 2906 1113 2906 1747 
Q 2906 2381 2643 2742 
Q 2381 3103 1925 3103 
Q 1469 3103 1208 2742 
Q 947 2381 947 1747 
z
" transform="scale(0.015625)"/>
      <path id="DejaVuSans-53" d="M 3425 4513 
L 3425 3897 
Q 3066 4069 2747 4153 
Q 2428 4238 2131 4238 
Q 1616 4238 1336 4038 
Q 1056 3838 1056 3469 
Q 1056 3159 1242 3001 
Q 1428 2844 1947 2747 
L 2328 2669 
Q 3034 2534 3370 2195 
Q 3706 1856 3706 1288 
Q 3706 609 3251 259 
Q 2797 -91 1919 -91 
Q 1588 -91 1214 -16 
Q 841 59 441 206 
L 441 856 
Q 825 641 1194 531 
Q 1563 422 1919 422 
Q 2459 422 2753 634 
Q 3047 847 3047 1241 
Q 3047 1584 2836 1778 
Q 2625 1972 2144 2069 
L 1759 2144 
Q 1053 2284 737 2584 
Q 422 2884 422 3419 
Q 422 4038 858 4394 
Q 1294 4750 2059 4750 
Q 2388 4750 2728 4690 
Q 3069 4631 3425 4513 
z
" transform="scale(0.015625)"/>
      <path id="DejaVuSans-76" d="M 191 3500 
L 800 3500 
L 1894 563 
L 2988 3500 
L 3597 3500 
L 2284 0 
L 1503 0 
L 191 3500 
z
" transform="scale(0.015625)"/>
     </defs>
     <use xlink:href="#DejaVuSans-54"/>
     <use xlink:href="#DejaVuSans-72" x="46.333984"/>
     <use xlink:href="#DejaVuSans-61" x="87.447266"/>
     <use xlink:href="#DejaVuSans-6e" x="148.726562"/>
     <use xlink:href="#DejaVuSans-73" x="212.105469"/>
     <use xlink:href="#DejaVuSans-69" x="264.205078"/>
     <use xlink:href="#DejaVuSans-65" x="291.988281"/>
     <use xlink:href="#DejaVuSans-6e" x="353.511719"/>
     <use xlink:href="#DejaVuSans-74" x="416.890625"/>
     <use xlink:href="#DejaVuSans-20" x="456.099609"/>
     <use xlink:href="#DejaVuSans-41" x="487.886719"/>
     <use xlink:href="#DejaVuSans-6e" x="556.294922"/>
     <use xlink:href="#DejaVuSans-61" x="619.673828"/>
     <use xlink:href="#DejaVuSans-6c" x="680.953125"/>
     <use xlink:href="#DejaVuSans-79" x="708.736328"/>
     <use xlink:href="#DejaVuSans-73" x="767.916016"/>
     <use xlink:href="#DejaVuSans-69" x="820.015625"/>
     <use xlink:href="#DejaVuSans-73" x="847.798828"/>
     <use xlink:href="#DejaVuSans-20" x="899.898438"/>
     <use xlink:href="#DejaVuSans-6f" x="931.685547"/>
     <use xlink:href="#DejaVuSans-66" x="992.867188"/>
     <use xlink:href="#DejaVuSans-20" x="1028.072266"/>
     <use xlink:href="#DejaVuSans-4e" x="1059.859375"/>
     <use xlink:href="#DejaVuSans-65" x="1134.664062"/>
     <use xlink:href="#DejaVuSans-75" x="1196.1875"/>
     <use xlink:href="#DejaVuSans-72" x="1259.566406"/>
     <use xlink:href="#DejaVuSans-58" x="1300.679688"/>
     <use xlink:href="#DejaVuSans-20" x="1369.185547"/>
     <use xlink:href="#DejaVuSans-48" x="1400.972656"/>
     <use xlink:href="#DejaVuSans-79" x="1476.167969"/>
     <use xlink:href="#DejaVuSans-62" x="1535.347656"/>
     <use xlink:href="#DejaVuSans-72" x="1598.824219"/>
     <use xlink:href="#DejaVuSans-69" x="1639.9375"/>
     <use xlink:href="#DejaVuSans-64" x="1667.720703"/>
     <use xlink:href="#DejaVuSans-20" x="1731.197266"/>
     <use xlink:href="#DejaVuSans-53" x="1762.984375"/>
     <use xlink:href="#DejaVuSans-79" x="1826.460938"/>
     <use xlink:href="#DejaVuSans-73" x="1885.640625"/>
     <use xlink:href="#DejaVuSans-74" x="1937.740234"/>
     <use xlink:href="#DejaVuSans-65" x="1976.949219"/>
     <use xlink:href="#DejaVuSans-6d" x="2038.472656"/>
     <use xlink:href="#DejaVuSans-20" x="2135.884766"/>
     <use xlink:href="#DejaVuSans-76" x="2167.671875"/>
     <use xlink:href="#DejaVuSans-30" x="2226.851562"/>
     <use xlink:href="#DejaVuSans-2e" x="2290.474609"/>
     <use xlink:href="#DejaVuSans-31" x="2322.261719"/>
     <use xlink:href="#DejaVuSans-31" x="2385.884766"/>
    </g>
   </g>
   <g id="legend_1">
    <g id="patch_7">
     <path d="M 646.03194 231.977188 
L 696.241315 231.977188 
Q 698.241315 231.977188 698.241315 229.977188 
L 698.241315 186.942813 
Q 698.241315 184.942813 696.241315 184.942813 
L 646.03194 184.942813 
Q 644.03194 184.942813 644.03194 186.942813 
L 644.03194 229.977188 
Q 644.03194 231.977188 646.03194 231.977188 
z
" style="fill: #ffffff; opacity: 0.8; stroke: #cccccc; stroke-linejoin: miter"/>
    </g>
    <g id="line2d_40">
     <path d="M 648.03194 193.04125 
L 658.03194 193.04125 
L 668.03194 193.04125 
" style="fill: none; stroke: #1f77b4; stroke-width: 1.5; stroke-linecap: square"/>
    </g>
    <g id="text_21">
     <!-- c1 -->
     <g transform="translate(676.03194 196.54125) scale(0.1 -0.1)">
      <defs>
       <path id="DejaVuSans-63" d="M 3122 3366 
L 3122 2828 
Q 2878 2963 2633 3030 
Q 2388 3097 2138 3097 
Q 1578 3097 1268 2742 
Q 959 2388 959 1747 
Q 959 1106 1268 751 
Q 1578 397 2138 397 
Q 2388 397 2633 464 
Q 2878 531 3122 666 
L 3122 134 
Q 2881 22 2623 -34 
Q 2366 -91 2075 -91 
Q 1284 -91 818 406 
Q 353 903 353 1747 
Q 353 2603 823 3093 
Q 1294 3584 2113 3584 
Q 2378 3584 2631 3529 
Q 2884 3475 3122 3366 
z
" transform="scale(0.015625)"/>
      </defs>
      <use xlink:href="#DejaVuSans-63"/>
      <use xlink:href="#DejaVuSans-31" x="54.980469"/>
     </g>
    </g>
    <g id="line2d_41">
     <path d="M 648.03194 207.719375 
L 658.03194 207.719375 
L 668.03194 207.719375 
" style="fill: none; stroke: #ff7f0e; stroke-width: 1.5; stroke-linecap: square"/>
    </g>
    <g id="text_22">
     <!-- c1a -->
     <g transform="translate(676.03194 211.219375) scale(0.1 -0.1)">
      <use xlink:href="#DejaVuSans-63"/>
      <use xlink:href="#DejaVuSans-31" x="54.980469"/>
      <use xlink:href="#DejaVuSans-61" x="118.603516"/>
     </g>
    </g>
    <g id="line2d_42">
     <path d="M 648.03194 222.3975 
L 658.03194 222.3975 
L 668.03194 222.3975 
" style="fill: none; stroke: #2ca02c; stroke-width: 1.5; stroke-linecap: square"/>
    </g>
    <g id="text_23">
     <!-- c1b -->
     <g transform="translate(676.03194 225.8975) scale(0.1 -0.1)">
      <use xlink:href="#DejaVuSans-63"/>
      <use xlink:href="#DejaVuSans-31" x="54.980469"/>
      <use xlink:href="#DejaVuSans-62" x="118.603516"/>
     </g>
    </g>
   </g>
  </g>
 </g>
 <defs>
  <clipPath id="pac0edb0e0d">
   <rect x="106.22" y="26.88" width="597.021315" height="363.16"/>
  </clipPath>
 </defs>
</svg>
