<?xml version="1.0" encoding="utf-8" standalone="no"?>
<!DOCTYPE svg PUBLIC "-//W3C//DTD SVG 1.1//EN"
  "http://www.w3.org/Graphics/SVG/1.1/DTD/svg11.dtd">
<svg xmlns:xlink="http://www.w3.org/1999/xlink" width="720pt" height="432pt" viewBox="0 0 720 432" xmlns="http://www.w3.org/2000/svg" version="1.1">
 <metadata>
  <rdf:RDF xmlns:dc="http://purl.org/dc/elements/1.1/" xmlns:cc="http://creativecommons.org/ns#" xmlns:rdf="http://www.w3.org/1999/02/22-rdf-syntax-ns#">
   <cc:Work>
    <dc:type rdf:resource="http://purl.org/dc/dcmitype/StillImage"/>
    <dc:date>2024-07-02T12:24:17.001951</dc:date>
    <dc:format>image/svg+xml</dc:format>
    <dc:creator>
     <cc:Agent>
      <dc:title>Matplotlib v3.9.0, https://matplotlib.org/</dc:title>
     </cc:Agent>
    </dc:creator>
   </cc:Work>
  </rdf:RDF>
 </metadata>
 <defs>
  <style type="text/css">*{stroke-linejoin: round; stroke-linecap: butt}</style>
 </defs>
 <g id="figure_1">
  <g id="patch_1">
   <path d="M 0 432 
L 720 432 
L 720 0 
L 0 0 
z
" style="fill: #ffffff"/>
  </g>
  <g id="axes_1">
   <g id="patch_2">
    <path d="M 106.22 390.04 
L 709.2 390.04 
L 709.2 26.88 
L 106.22 26.88 
z
" style="fill: #ffffff"/>
   </g>
   <g id="matplotlib.axis_1">
    <g id="xtick_1">
     <g id="line2d_1">
      <path d="M 133.628182 390.04 
L 133.628182 26.88 
" clip-path="url(#p967ad2a325)" style="fill: none; stroke: #b0b0b0; stroke-width: 0.8; stroke-linecap: square"/>
     </g>
     <g id="line2d_2">
      <defs>
       <path id="mdd48897a21" d="M 0 0 
L 0 3.5 
" style="stroke: #000000; stroke-width: 0.8"/>
      </defs>
      <g>
       <use xlink:href="#mdd48897a21" x="133.628182" y="390.04" style="stroke: #000000; stroke-width: 0.8"/>
      </g>
     </g>
     <g id="text_1">
      <!-- 0.000000e+00 -->
      <g transform="translate(96.141463 404.638438) scale(0.1 -0.1)">
       <defs>
        <path id="DejaVuSans-30" d="M 2034 4250 
Q 1547 4250 1301 3770 
Q 1056 3291 1056 2328 
Q 1056 1369 1301 889 
Q 1547 409 2034 409 
Q 2525 409 2770 889 
Q 3016 1369 3016 2328 
Q 3016 3291 2770 3770 
Q 2525 4250 2034 4250 
z
M 2034 4750 
Q 2819 4750 3233 4129 
Q 3647 3509 3647 2328 
Q 3647 1150 3233 529 
Q 2819 -91 2034 -91 
Q 1250 -91 836 529 
Q 422 1150 422 2328 
Q 422 3509 836 4129 
Q 1250 4750 2034 4750 
z
" transform="scale(0.015625)"/>
        <path id="DejaVuSans-2e" d="M 684 794 
L 1344 794 
L 1344 0 
L 684 0 
L 684 794 
z
" transform="scale(0.015625)"/>
        <path id="DejaVuSans-65" d="M 3597 1894 
L 3597 1613 
L 953 1613 
Q 991 1019 1311 708 
Q 1631 397 2203 397 
Q 2534 397 2845 478 
Q 3156 559 3463 722 
L 3463 178 
Q 3153 47 2828 -22 
Q 2503 -91 2169 -91 
Q 1331 -91 842 396 
Q 353 884 353 1716 
Q 353 2575 817 3079 
Q 1281 3584 2069 3584 
Q 2775 3584 3186 3129 
Q 3597 2675 3597 1894 
z
M 3022 2063 
Q 3016 2534 2758 2815 
Q 2500 3097 2075 3097 
Q 1594 3097 1305 2825 
Q 1016 2553 972 2059 
L 3022 2063 
z
" transform="scale(0.015625)"/>
        <path id="DejaVuSans-2b" d="M 2944 4013 
L 2944 2272 
L 4684 2272 
L 4684 1741 
L 2944 1741 
L 2944 0 
L 2419 0 
L 2419 1741 
L 678 1741 
L 678 2272 
L 2419 2272 
L 2419 4013 
L 2944 4013 
z
" transform="scale(0.015625)"/>
       </defs>
       <use xlink:href="#DejaVuSans-30"/>
       <use xlink:href="#DejaVuSans-2e" x="63.623047"/>
       <use xlink:href="#DejaVuSans-30" x="95.410156"/>
       <use xlink:href="#DejaVuSans-30" x="159.033203"/>
       <use xlink:href="#DejaVuSans-30" x="222.65625"/>
       <use xlink:href="#DejaVuSans-30" x="286.279297"/>
       <use xlink:href="#DejaVuSans-30" x="349.902344"/>
       <use xlink:href="#DejaVuSans-30" x="413.525391"/>
       <use xlink:href="#DejaVuSans-65" x="477.148438"/>
       <use xlink:href="#DejaVuSans-2b" x="538.671875"/>
       <use xlink:href="#DejaVuSans-30" x="622.460938"/>
       <use xlink:href="#DejaVuSans-30" x="686.083984"/>
      </g>
     </g>
    </g>
    <g id="xtick_2">
     <g id="line2d_3">
      <path d="M 200.206761 390.04 
L 200.206761 26.88 
" clip-path="url(#p967ad2a325)" style="fill: none; stroke: #b0b0b0; stroke-width: 0.8; stroke-linecap: square"/>
     </g>
     <g id="line2d_4">
      <g>
       <use xlink:href="#mdd48897a21" x="200.206761" y="390.04" style="stroke: #000000; stroke-width: 0.8"/>
      </g>
     </g>
     <g id="text_2">
      <!-- 1.209464e-08 -->
      <g transform="translate(165.10598 404.638438) scale(0.1 -0.1)">
       <defs>
        <path id="DejaVuSans-31" d="M 794 531 
L 1825 531 
L 1825 4091 
L 703 3866 
L 703 4441 
L 1819 4666 
L 2450 4666 
L 2450 531 
L 3481 531 
L 3481 0 
L 794 0 
L 794 531 
z
" transform="scale(0.015625)"/>
        <path id="DejaVuSans-32" d="M 1228 531 
L 3431 531 
L 3431 0 
L 469 0 
L 469 531 
Q 828 903 1448 1529 
Q 2069 2156 2228 2338 
Q 2531 2678 2651 2914 
Q 2772 3150 2772 3378 
Q 2772 3750 2511 3984 
Q 2250 4219 1831 4219 
Q 1534 4219 1204 4116 
Q 875 4013 500 3803 
L 500 4441 
Q 881 4594 1212 4672 
Q 1544 4750 1819 4750 
Q 2544 4750 2975 4387 
Q 3406 4025 3406 3419 
Q 3406 3131 3298 2873 
Q 3191 2616 2906 2266 
Q 2828 2175 2409 1742 
Q 1991 1309 1228 531 
z
" transform="scale(0.015625)"/>
        <path id="DejaVuSans-39" d="M 703 97 
L 703 672 
Q 941 559 1184 500 
Q 1428 441 1663 441 
Q 2288 441 2617 861 
Q 2947 1281 2994 2138 
Q 2813 1869 2534 1725 
Q 2256 1581 1919 1581 
Q 1219 1581 811 2004 
Q 403 2428 403 3163 
Q 403 3881 828 4315 
Q 1253 4750 1959 4750 
Q 2769 4750 3195 4129 
Q 3622 3509 3622 2328 
Q 3622 1225 3098 567 
Q 2575 -91 1691 -91 
Q 1453 -91 1209 -44 
Q 966 3 703 97 
z
M 1959 2075 
Q 2384 2075 2632 2365 
Q 2881 2656 2881 3163 
Q 2881 3666 2632 3958 
Q 2384 4250 1959 4250 
Q 1534 4250 1286 3958 
Q 1038 3666 1038 3163 
Q 1038 2656 1286 2365 
Q 1534 2075 1959 2075 
z
" transform="scale(0.015625)"/>
        <path id="DejaVuSans-34" d="M 2419 4116 
L 825 1625 
L 2419 1625 
L 2419 4116 
z
M 2253 4666 
L 3047 4666 
L 3047 1625 
L 3713 1625 
L 3713 1100 
L 3047 1100 
L 3047 0 
L 2419 0 
L 2419 1100 
L 313 1100 
L 313 1709 
L 2253 4666 
z
" transform="scale(0.015625)"/>
        <path id="DejaVuSans-36" d="M 2113 2584 
Q 1688 2584 1439 2293 
Q 1191 2003 1191 1497 
Q 1191 994 1439 701 
Q 1688 409 2113 409 
Q 2538 409 2786 701 
Q 3034 994 3034 1497 
Q 3034 2003 2786 2293 
Q 2538 2584 2113 2584 
z
M 3366 4563 
L 3366 3988 
Q 3128 4100 2886 4159 
Q 2644 4219 2406 4219 
Q 1781 4219 1451 3797 
Q 1122 3375 1075 2522 
Q 1259 2794 1537 2939 
Q 1816 3084 2150 3084 
Q 2853 3084 3261 2657 
Q 3669 2231 3669 1497 
Q 3669 778 3244 343 
Q 2819 -91 2113 -91 
Q 1303 -91 875 529 
Q 447 1150 447 2328 
Q 447 3434 972 4092 
Q 1497 4750 2381 4750 
Q 2619 4750 2861 4703 
Q 3103 4656 3366 4563 
z
" transform="scale(0.015625)"/>
        <path id="DejaVuSans-2d" d="M 313 2009 
L 1997 2009 
L 1997 1497 
L 313 1497 
L 313 2009 
z
" transform="scale(0.015625)"/>
        <path id="DejaVuSans-38" d="M 2034 2216 
Q 1584 2216 1326 1975 
Q 1069 1734 1069 1313 
Q 1069 891 1326 650 
Q 1584 409 2034 409 
Q 2484 409 2743 651 
Q 3003 894 3003 1313 
Q 3003 1734 2745 1975 
Q 2488 2216 2034 2216 
z
M 1403 2484 
Q 997 2584 770 2862 
Q 544 3141 544 3541 
Q 544 4100 942 4425 
Q 1341 4750 2034 4750 
Q 2731 4750 3128 4425 
Q 3525 4100 3525 3541 
Q 3525 3141 3298 2862 
Q 3072 2584 2669 2484 
Q 3125 2378 3379 2068 
Q 3634 1759 3634 1313 
Q 3634 634 3220 271 
Q 2806 -91 2034 -91 
Q 1263 -91 848 271 
Q 434 634 434 1313 
Q 434 1759 690 2068 
Q 947 2378 1403 2484 
z
M 1172 3481 
Q 1172 3119 1398 2916 
Q 1625 2713 2034 2713 
Q 2441 2713 2670 2916 
Q 2900 3119 2900 3481 
Q 2900 3844 2670 4047 
Q 2441 4250 2034 4250 
Q 1625 4250 1398 4047 
Q 1172 3844 1172 3481 
z
" transform="scale(0.015625)"/>
       </defs>
       <use xlink:href="#DejaVuSans-31"/>
       <use xlink:href="#DejaVuSans-2e" x="63.623047"/>
       <use xlink:href="#DejaVuSans-32" x="95.410156"/>
       <use xlink:href="#DejaVuSans-30" x="159.033203"/>
       <use xlink:href="#DejaVuSans-39" x="222.65625"/>
       <use xlink:href="#DejaVuSans-34" x="286.279297"/>
       <use xlink:href="#DejaVuSans-36" x="349.902344"/>
       <use xlink:href="#DejaVuSans-34" x="413.525391"/>
       <use xlink:href="#DejaVuSans-65" x="477.148438"/>
       <use xlink:href="#DejaVuSans-2d" x="538.671875"/>
       <use xlink:href="#DejaVuSans-30" x="574.755859"/>
       <use xlink:href="#DejaVuSans-38" x="638.378906"/>
      </g>
     </g>
    </g>
    <g id="xtick_3">
     <g id="line2d_5">
      <path d="M 266.78534 390.04 
L 266.78534 26.88 
" clip-path="url(#p967ad2a325)" style="fill: none; stroke: #b0b0b0; stroke-width: 0.8; stroke-linecap: square"/>
     </g>
     <g id="line2d_6">
      <g>
       <use xlink:href="#mdd48897a21" x="266.78534" y="390.04" style="stroke: #000000; stroke-width: 0.8"/>
      </g>
     </g>
     <g id="text_3">
      <!-- 2.500000e-08 -->
      <g transform="translate(231.684559 404.638438) scale(0.1 -0.1)">
       <defs>
        <path id="DejaVuSans-35" d="M 691 4666 
L 3169 4666 
L 3169 4134 
L 1269 4134 
L 1269 2991 
Q 1406 3038 1543 3061 
Q 1681 3084 1819 3084 
Q 2600 3084 3056 2656 
Q 3513 2228 3513 1497 
Q 3513 744 3044 326 
Q 2575 -91 1722 -91 
Q 1428 -91 1123 -41 
Q 819 9 494 109 
L 494 744 
Q 775 591 1075 516 
Q 1375 441 1709 441 
Q 2250 441 2565 725 
Q 2881 1009 2881 1497 
Q 2881 1984 2565 2268 
Q 2250 2553 1709 2553 
Q 1456 2553 1204 2497 
Q 953 2441 691 2322 
L 691 4666 
z
" transform="scale(0.015625)"/>
       </defs>
       <use xlink:href="#DejaVuSans-32"/>
       <use xlink:href="#DejaVuSans-2e" x="63.623047"/>
       <use xlink:href="#DejaVuSans-35" x="95.410156"/>
       <use xlink:href="#DejaVuSans-30" x="159.033203"/>
       <use xlink:href="#DejaVuSans-30" x="222.65625"/>
       <use xlink:href="#DejaVuSans-30" x="286.279297"/>
       <use xlink:href="#DejaVuSans-30" x="349.902344"/>
       <use xlink:href="#DejaVuSans-30" x="413.525391"/>
       <use xlink:href="#DejaVuSans-65" x="477.148438"/>
       <use xlink:href="#DejaVuSans-2d" x="538.671875"/>
       <use xlink:href="#DejaVuSans-30" x="574.755859"/>
       <use xlink:href="#DejaVuSans-38" x="638.378906"/>
      </g>
     </g>
    </g>
    <g id="xtick_4">
     <g id="line2d_7">
      <path d="M 333.36392 390.04 
L 333.36392 26.88 
" clip-path="url(#p967ad2a325)" style="fill: none; stroke: #b0b0b0; stroke-width: 0.8; stroke-linecap: square"/>
     </g>
     <g id="line2d_8">
      <g>
       <use xlink:href="#mdd48897a21" x="333.36392" y="390.04" style="stroke: #000000; stroke-width: 0.8"/>
      </g>
     </g>
     <g id="text_4">
      <!-- 3.700033e-08 -->
      <g transform="translate(298.263139 404.638438) scale(0.1 -0.1)">
       <defs>
        <path id="DejaVuSans-33" d="M 2597 2516 
Q 3050 2419 3304 2112 
Q 3559 1806 3559 1356 
Q 3559 666 3084 287 
Q 2609 -91 1734 -91 
Q 1441 -91 1130 -33 
Q 819 25 488 141 
L 488 750 
Q 750 597 1062 519 
Q 1375 441 1716 441 
Q 2309 441 2620 675 
Q 2931 909 2931 1356 
Q 2931 1769 2642 2001 
Q 2353 2234 1838 2234 
L 1294 2234 
L 1294 2753 
L 1863 2753 
Q 2328 2753 2575 2939 
Q 2822 3125 2822 3475 
Q 2822 3834 2567 4026 
Q 2313 4219 1838 4219 
Q 1578 4219 1281 4162 
Q 984 4106 628 3988 
L 628 4550 
Q 988 4650 1302 4700 
Q 1616 4750 1894 4750 
Q 2613 4750 3031 4423 
Q 3450 4097 3450 3541 
Q 3450 3153 3228 2886 
Q 3006 2619 2597 2516 
z
" transform="scale(0.015625)"/>
        <path id="DejaVuSans-37" d="M 525 4666 
L 3525 4666 
L 3525 4397 
L 1831 0 
L 1172 0 
L 2766 4134 
L 525 4134 
L 525 4666 
z
" transform="scale(0.015625)"/>
       </defs>
       <use xlink:href="#DejaVuSans-33"/>
       <use xlink:href="#DejaVuSans-2e" x="63.623047"/>
       <use xlink:href="#DejaVuSans-37" x="95.410156"/>
       <use xlink:href="#DejaVuSans-30" x="159.033203"/>
       <use xlink:href="#DejaVuSans-30" x="222.65625"/>
       <use xlink:href="#DejaVuSans-30" x="286.279297"/>
       <use xlink:href="#DejaVuSans-33" x="349.902344"/>
       <use xlink:href="#DejaVuSans-33" x="413.525391"/>
       <use xlink:href="#DejaVuSans-65" x="477.148438"/>
       <use xlink:href="#DejaVuSans-2d" x="538.671875"/>
       <use xlink:href="#DejaVuSans-30" x="574.755859"/>
       <use xlink:href="#DejaVuSans-38" x="638.378906"/>
      </g>
     </g>
    </g>
    <g id="xtick_5">
     <g id="line2d_9">
      <path d="M 399.942499 390.04 
L 399.942499 26.88 
" clip-path="url(#p967ad2a325)" style="fill: none; stroke: #b0b0b0; stroke-width: 0.8; stroke-linecap: square"/>
     </g>
     <g id="line2d_10">
      <g>
       <use xlink:href="#mdd48897a21" x="399.942499" y="390.04" style="stroke: #000000; stroke-width: 0.8"/>
      </g>
     </g>
     <g id="text_5">
      <!-- 5.003826e-08 -->
      <g transform="translate(364.841718 404.638438) scale(0.1 -0.1)">
       <use xlink:href="#DejaVuSans-35"/>
       <use xlink:href="#DejaVuSans-2e" x="63.623047"/>
       <use xlink:href="#DejaVuSans-30" x="95.410156"/>
       <use xlink:href="#DejaVuSans-30" x="159.033203"/>
       <use xlink:href="#DejaVuSans-33" x="222.65625"/>
       <use xlink:href="#DejaVuSans-38" x="286.279297"/>
       <use xlink:href="#DejaVuSans-32" x="349.902344"/>
       <use xlink:href="#DejaVuSans-36" x="413.525391"/>
       <use xlink:href="#DejaVuSans-65" x="477.148438"/>
       <use xlink:href="#DejaVuSans-2d" x="538.671875"/>
       <use xlink:href="#DejaVuSans-30" x="574.755859"/>
       <use xlink:href="#DejaVuSans-38" x="638.378906"/>
      </g>
     </g>
    </g>
    <g id="xtick_6">
     <g id="line2d_11">
      <path d="M 466.521078 390.04 
L 466.521078 26.88 
" clip-path="url(#p967ad2a325)" style="fill: none; stroke: #b0b0b0; stroke-width: 0.8; stroke-linecap: square"/>
     </g>
     <g id="line2d_12">
      <g>
       <use xlink:href="#mdd48897a21" x="466.521078" y="390.04" style="stroke: #000000; stroke-width: 0.8"/>
      </g>
     </g>
     <g id="text_6">
      <!-- 6.066598e-08 -->
      <g transform="translate(431.420297 404.638438) scale(0.1 -0.1)">
       <use xlink:href="#DejaVuSans-36"/>
       <use xlink:href="#DejaVuSans-2e" x="63.623047"/>
       <use xlink:href="#DejaVuSans-30" x="95.410156"/>
       <use xlink:href="#DejaVuSans-36" x="159.033203"/>
       <use xlink:href="#DejaVuSans-36" x="222.65625"/>
       <use xlink:href="#DejaVuSans-35" x="286.279297"/>
       <use xlink:href="#DejaVuSans-39" x="349.902344"/>
       <use xlink:href="#DejaVuSans-38" x="413.525391"/>
       <use xlink:href="#DejaVuSans-65" x="477.148438"/>
       <use xlink:href="#DejaVuSans-2d" x="538.671875"/>
       <use xlink:href="#DejaVuSans-30" x="574.755859"/>
       <use xlink:href="#DejaVuSans-38" x="638.378906"/>
      </g>
     </g>
    </g>
    <g id="xtick_7">
     <g id="line2d_13">
      <path d="M 533.099658 390.04 
L 533.099658 26.88 
" clip-path="url(#p967ad2a325)" style="fill: none; stroke: #b0b0b0; stroke-width: 0.8; stroke-linecap: square"/>
     </g>
     <g id="line2d_14">
      <g>
       <use xlink:href="#mdd48897a21" x="533.099658" y="390.04" style="stroke: #000000; stroke-width: 0.8"/>
      </g>
     </g>
     <g id="text_7">
      <!-- 7.211743e-08 -->
      <g transform="translate(497.998876 404.638438) scale(0.1 -0.1)">
       <use xlink:href="#DejaVuSans-37"/>
       <use xlink:href="#DejaVuSans-2e" x="63.623047"/>
       <use xlink:href="#DejaVuSans-32" x="95.410156"/>
       <use xlink:href="#DejaVuSans-31" x="159.033203"/>
       <use xlink:href="#DejaVuSans-31" x="222.65625"/>
       <use xlink:href="#DejaVuSans-37" x="286.279297"/>
       <use xlink:href="#DejaVuSans-34" x="349.902344"/>
       <use xlink:href="#DejaVuSans-33" x="413.525391"/>
       <use xlink:href="#DejaVuSans-65" x="477.148438"/>
       <use xlink:href="#DejaVuSans-2d" x="538.671875"/>
       <use xlink:href="#DejaVuSans-30" x="574.755859"/>
       <use xlink:href="#DejaVuSans-38" x="638.378906"/>
      </g>
     </g>
    </g>
    <g id="xtick_8">
     <g id="line2d_15">
      <path d="M 599.678237 390.04 
L 599.678237 26.88 
" clip-path="url(#p967ad2a325)" style="fill: none; stroke: #b0b0b0; stroke-width: 0.8; stroke-linecap: square"/>
     </g>
     <g id="line2d_16">
      <g>
       <use xlink:href="#mdd48897a21" x="599.678237" y="390.04" style="stroke: #000000; stroke-width: 0.8"/>
      </g>
     </g>
     <g id="text_8">
      <!-- 8.500000e-08 -->
      <g transform="translate(564.577456 404.638438) scale(0.1 -0.1)">
       <use xlink:href="#DejaVuSans-38"/>
       <use xlink:href="#DejaVuSans-2e" x="63.623047"/>
       <use xlink:href="#DejaVuSans-35" x="95.410156"/>
       <use xlink:href="#DejaVuSans-30" x="159.033203"/>
       <use xlink:href="#DejaVuSans-30" x="222.65625"/>
       <use xlink:href="#DejaVuSans-30" x="286.279297"/>
       <use xlink:href="#DejaVuSans-30" x="349.902344"/>
       <use xlink:href="#DejaVuSans-30" x="413.525391"/>
       <use xlink:href="#DejaVuSans-65" x="477.148438"/>
       <use xlink:href="#DejaVuSans-2d" x="538.671875"/>
       <use xlink:href="#DejaVuSans-30" x="574.755859"/>
       <use xlink:href="#DejaVuSans-38" x="638.378906"/>
      </g>
     </g>
    </g>
    <g id="xtick_9">
     <g id="line2d_17">
      <path d="M 666.256816 390.04 
L 666.256816 26.88 
" clip-path="url(#p967ad2a325)" style="fill: none; stroke: #b0b0b0; stroke-width: 0.8; stroke-linecap: square"/>
     </g>
     <g id="line2d_18">
      <g>
       <use xlink:href="#mdd48897a21" x="666.256816" y="390.04" style="stroke: #000000; stroke-width: 0.8"/>
      </g>
     </g>
     <g id="text_9">
      <!-- 9.700033e-08 -->
      <g transform="translate(631.156035 404.638438) scale(0.1 -0.1)">
       <use xlink:href="#DejaVuSans-39"/>
       <use xlink:href="#DejaVuSans-2e" x="63.623047"/>
       <use xlink:href="#DejaVuSans-37" x="95.410156"/>
       <use xlink:href="#DejaVuSans-30" x="159.033203"/>
       <use xlink:href="#DejaVuSans-30" x="222.65625"/>
       <use xlink:href="#DejaVuSans-30" x="286.279297"/>
       <use xlink:href="#DejaVuSans-33" x="349.902344"/>
       <use xlink:href="#DejaVuSans-33" x="413.525391"/>
       <use xlink:href="#DejaVuSans-65" x="477.148438"/>
       <use xlink:href="#DejaVuSans-2d" x="538.671875"/>
       <use xlink:href="#DejaVuSans-30" x="574.755859"/>
       <use xlink:href="#DejaVuSans-38" x="638.378906"/>
      </g>
     </g>
    </g>
    <g id="text_10">
     <!-- Time (s) -->
     <g transform="translate(387.381094 418.316562) scale(0.1 -0.1)">
      <defs>
       <path id="DejaVuSans-54" d="M -19 4666 
L 3928 4666 
L 3928 4134 
L 2272 4134 
L 2272 0 
L 1638 0 
L 1638 4134 
L -19 4134 
L -19 4666 
z
" transform="scale(0.015625)"/>
       <path id="DejaVuSans-69" d="M 603 3500 
L 1178 3500 
L 1178 0 
L 603 0 
L 603 3500 
z
M 603 4863 
L 1178 4863 
L 1178 4134 
L 603 4134 
L 603 4863 
z
" transform="scale(0.015625)"/>
       <path id="DejaVuSans-6d" d="M 3328 2828 
Q 3544 3216 3844 3400 
Q 4144 3584 4550 3584 
Q 5097 3584 5394 3201 
Q 5691 2819 5691 2113 
L 5691 0 
L 5113 0 
L 5113 2094 
Q 5113 2597 4934 2840 
Q 4756 3084 4391 3084 
Q 3944 3084 3684 2787 
Q 3425 2491 3425 1978 
L 3425 0 
L 2847 0 
L 2847 2094 
Q 2847 2600 2669 2842 
Q 2491 3084 2119 3084 
Q 1678 3084 1418 2786 
Q 1159 2488 1159 1978 
L 1159 0 
L 581 0 
L 581 3500 
L 1159 3500 
L 1159 2956 
Q 1356 3278 1631 3431 
Q 1906 3584 2284 3584 
Q 2666 3584 2933 3390 
Q 3200 3197 3328 2828 
z
" transform="scale(0.015625)"/>
       <path id="DejaVuSans-20" transform="scale(0.015625)"/>
       <path id="DejaVuSans-28" d="M 1984 4856 
Q 1566 4138 1362 3434 
Q 1159 2731 1159 2009 
Q 1159 1288 1364 580 
Q 1569 -128 1984 -844 
L 1484 -844 
Q 1016 -109 783 600 
Q 550 1309 550 2009 
Q 550 2706 781 3412 
Q 1013 4119 1484 4856 
L 1984 4856 
z
" transform="scale(0.015625)"/>
       <path id="DejaVuSans-73" d="M 2834 3397 
L 2834 2853 
Q 2591 2978 2328 3040 
Q 2066 3103 1784 3103 
Q 1356 3103 1142 2972 
Q 928 2841 928 2578 
Q 928 2378 1081 2264 
Q 1234 2150 1697 2047 
L 1894 2003 
Q 2506 1872 2764 1633 
Q 3022 1394 3022 966 
Q 3022 478 2636 193 
Q 2250 -91 1575 -91 
Q 1294 -91 989 -36 
Q 684 19 347 128 
L 347 722 
Q 666 556 975 473 
Q 1284 391 1588 391 
Q 1994 391 2212 530 
Q 2431 669 2431 922 
Q 2431 1156 2273 1281 
Q 2116 1406 1581 1522 
L 1381 1569 
Q 847 1681 609 1914 
Q 372 2147 372 2553 
Q 372 3047 722 3315 
Q 1072 3584 1716 3584 
Q 2034 3584 2315 3537 
Q 2597 3491 2834 3397 
z
" transform="scale(0.015625)"/>
       <path id="DejaVuSans-29" d="M 513 4856 
L 1013 4856 
Q 1481 4119 1714 3412 
Q 1947 2706 1947 2009 
Q 1947 1309 1714 600 
Q 1481 -109 1013 -844 
L 513 -844 
Q 928 -128 1133 580 
Q 1338 1288 1338 2009 
Q 1338 2731 1133 3434 
Q 928 4138 513 4856 
z
" transform="scale(0.015625)"/>
      </defs>
      <use xlink:href="#DejaVuSans-54"/>
      <use xlink:href="#DejaVuSans-69" x="57.958984"/>
      <use xlink:href="#DejaVuSans-6d" x="85.742188"/>
      <use xlink:href="#DejaVuSans-65" x="183.154297"/>
      <use xlink:href="#DejaVuSans-20" x="244.677734"/>
      <use xlink:href="#DejaVuSans-28" x="276.464844"/>
      <use xlink:href="#DejaVuSans-73" x="315.478516"/>
      <use xlink:href="#DejaVuSans-29" x="367.578125"/>
     </g>
    </g>
   </g>
   <g id="matplotlib.axis_2">
    <g id="ytick_1">
     <g id="line2d_19">
      <path d="M 106.22 373.532727 
L 709.2 373.532727 
" clip-path="url(#p967ad2a325)" style="fill: none; stroke: #b0b0b0; stroke-width: 0.8; stroke-linecap: square"/>
     </g>
     <g id="line2d_20">
      <defs>
       <path id="m7f646d65b5" d="M 0 0 
L -3.5 0 
" style="stroke: #000000; stroke-width: 0.8"/>
      </defs>
      <g>
       <use xlink:href="#m7f646d65b5" x="106.22" y="373.532727" style="stroke: #000000; stroke-width: 0.8"/>
      </g>
     </g>
     <g id="text_11">
      <!-- 0.000000e+00 -->
      <g transform="translate(24.246563 377.331946) scale(0.1 -0.1)">
       <use xlink:href="#DejaVuSans-30"/>
       <use xlink:href="#DejaVuSans-2e" x="63.623047"/>
       <use xlink:href="#DejaVuSans-30" x="95.410156"/>
       <use xlink:href="#DejaVuSans-30" x="159.033203"/>
       <use xlink:href="#DejaVuSans-30" x="222.65625"/>
       <use xlink:href="#DejaVuSans-30" x="286.279297"/>
       <use xlink:href="#DejaVuSans-30" x="349.902344"/>
       <use xlink:href="#DejaVuSans-30" x="413.525391"/>
       <use xlink:href="#DejaVuSans-65" x="477.148438"/>
       <use xlink:href="#DejaVuSans-2b" x="538.671875"/>
       <use xlink:href="#DejaVuSans-30" x="622.460938"/>
       <use xlink:href="#DejaVuSans-30" x="686.083984"/>
      </g>
     </g>
    </g>
    <g id="ytick_2">
     <g id="line2d_21">
      <path d="M 106.22 334.229697 
L 709.2 334.229697 
" clip-path="url(#p967ad2a325)" style="fill: none; stroke: #b0b0b0; stroke-width: 0.8; stroke-linecap: square"/>
     </g>
     <g id="line2d_22">
      <g>
       <use xlink:href="#m7f646d65b5" x="106.22" y="334.229697" style="stroke: #000000; stroke-width: 0.8"/>
      </g>
     </g>
     <g id="text_12">
      <!-- 1.038755e-02 -->
      <g transform="translate(29.018438 338.028916) scale(0.1 -0.1)">
       <use xlink:href="#DejaVuSans-31"/>
       <use xlink:href="#DejaVuSans-2e" x="63.623047"/>
       <use xlink:href="#DejaVuSans-30" x="95.410156"/>
       <use xlink:href="#DejaVuSans-33" x="159.033203"/>
       <use xlink:href="#DejaVuSans-38" x="222.65625"/>
       <use xlink:href="#DejaVuSans-37" x="286.279297"/>
       <use xlink:href="#DejaVuSans-35" x="349.902344"/>
       <use xlink:href="#DejaVuSans-35" x="413.525391"/>
       <use xlink:href="#DejaVuSans-65" x="477.148438"/>
       <use xlink:href="#DejaVuSans-2d" x="538.671875"/>
       <use xlink:href="#DejaVuSans-30" x="574.755859"/>
       <use xlink:href="#DejaVuSans-32" x="638.378906"/>
      </g>
     </g>
    </g>
    <g id="ytick_3">
     <g id="line2d_23">
      <path d="M 106.22 294.926667 
L 709.2 294.926667 
" clip-path="url(#p967ad2a325)" style="fill: none; stroke: #b0b0b0; stroke-width: 0.8; stroke-linecap: square"/>
     </g>
     <g id="line2d_24">
      <g>
       <use xlink:href="#m7f646d65b5" x="106.22" y="294.926667" style="stroke: #000000; stroke-width: 0.8"/>
      </g>
     </g>
     <g id="text_13">
      <!-- 1.000000e-08 -->
      <g transform="translate(29.018438 298.725885) scale(0.1 -0.1)">
       <use xlink:href="#DejaVuSans-31"/>
       <use xlink:href="#DejaVuSans-2e" x="63.623047"/>
       <use xlink:href="#DejaVuSans-30" x="95.410156"/>
       <use xlink:href="#DejaVuSans-30" x="159.033203"/>
       <use xlink:href="#DejaVuSans-30" x="222.65625"/>
       <use xlink:href="#DejaVuSans-30" x="286.279297"/>
       <use xlink:href="#DejaVuSans-30" x="349.902344"/>
       <use xlink:href="#DejaVuSans-30" x="413.525391"/>
       <use xlink:href="#DejaVuSans-65" x="477.148438"/>
       <use xlink:href="#DejaVuSans-2d" x="538.671875"/>
       <use xlink:href="#DejaVuSans-30" x="574.755859"/>
       <use xlink:href="#DejaVuSans-38" x="638.378906"/>
      </g>
     </g>
    </g>
    <g id="ytick_4">
     <g id="line2d_25">
      <path d="M 106.22 255.623636 
L 709.2 255.623636 
" clip-path="url(#p967ad2a325)" style="fill: none; stroke: #b0b0b0; stroke-width: 0.8; stroke-linecap: square"/>
     </g>
     <g id="line2d_26">
      <g>
       <use xlink:href="#m7f646d65b5" x="106.22" y="255.623636" style="stroke: #000000; stroke-width: 0.8"/>
      </g>
     </g>
     <g id="text_14">
      <!-- 2.230555e-08 -->
      <g transform="translate(29.018438 259.422855) scale(0.1 -0.1)">
       <use xlink:href="#DejaVuSans-32"/>
       <use xlink:href="#DejaVuSans-2e" x="63.623047"/>
       <use xlink:href="#DejaVuSans-32" x="95.410156"/>
       <use xlink:href="#DejaVuSans-33" x="159.033203"/>
       <use xlink:href="#DejaVuSans-30" x="222.65625"/>
       <use xlink:href="#DejaVuSans-35" x="286.279297"/>
       <use xlink:href="#DejaVuSans-35" x="349.902344"/>
       <use xlink:href="#DejaVuSans-35" x="413.525391"/>
       <use xlink:href="#DejaVuSans-65" x="477.148438"/>
       <use xlink:href="#DejaVuSans-2d" x="538.671875"/>
       <use xlink:href="#DejaVuSans-30" x="574.755859"/>
       <use xlink:href="#DejaVuSans-38" x="638.378906"/>
      </g>
     </g>
    </g>
    <g id="ytick_5">
     <g id="line2d_27">
      <path d="M 106.22 216.320606 
L 709.2 216.320606 
" clip-path="url(#p967ad2a325)" style="fill: none; stroke: #b0b0b0; stroke-width: 0.8; stroke-linecap: square"/>
     </g>
     <g id="line2d_28">
      <g>
       <use xlink:href="#m7f646d65b5" x="106.22" y="216.320606" style="stroke: #000000; stroke-width: 0.8"/>
      </g>
     </g>
     <g id="text_15">
      <!-- 4.003171e-08 -->
      <g transform="translate(29.018438 220.119825) scale(0.1 -0.1)">
       <use xlink:href="#DejaVuSans-34"/>
       <use xlink:href="#DejaVuSans-2e" x="63.623047"/>
       <use xlink:href="#DejaVuSans-30" x="95.410156"/>
       <use xlink:href="#DejaVuSans-30" x="159.033203"/>
       <use xlink:href="#DejaVuSans-33" x="222.65625"/>
       <use xlink:href="#DejaVuSans-31" x="286.279297"/>
       <use xlink:href="#DejaVuSans-37" x="349.902344"/>
       <use xlink:href="#DejaVuSans-31" x="413.525391"/>
       <use xlink:href="#DejaVuSans-65" x="477.148438"/>
       <use xlink:href="#DejaVuSans-2d" x="538.671875"/>
       <use xlink:href="#DejaVuSans-30" x="574.755859"/>
       <use xlink:href="#DejaVuSans-38" x="638.378906"/>
      </g>
     </g>
    </g>
    <g id="ytick_6">
     <g id="line2d_29">
      <path d="M 106.22 177.017576 
L 709.2 177.017576 
" clip-path="url(#p967ad2a325)" style="fill: none; stroke: #b0b0b0; stroke-width: 0.8; stroke-linecap: square"/>
     </g>
     <g id="line2d_30">
      <g>
       <use xlink:href="#m7f646d65b5" x="106.22" y="177.017576" style="stroke: #000000; stroke-width: 0.8"/>
      </g>
     </g>
     <g id="text_16">
      <!-- 5.700004e-08 -->
      <g transform="translate(29.018438 180.816795) scale(0.1 -0.1)">
       <use xlink:href="#DejaVuSans-35"/>
       <use xlink:href="#DejaVuSans-2e" x="63.623047"/>
       <use xlink:href="#DejaVuSans-37" x="95.410156"/>
       <use xlink:href="#DejaVuSans-30" x="159.033203"/>
       <use xlink:href="#DejaVuSans-30" x="222.65625"/>
       <use xlink:href="#DejaVuSans-30" x="286.279297"/>
       <use xlink:href="#DejaVuSans-30" x="349.902344"/>
       <use xlink:href="#DejaVuSans-34" x="413.525391"/>
       <use xlink:href="#DejaVuSans-65" x="477.148438"/>
       <use xlink:href="#DejaVuSans-2d" x="538.671875"/>
       <use xlink:href="#DejaVuSans-30" x="574.755859"/>
       <use xlink:href="#DejaVuSans-38" x="638.378906"/>
      </g>
     </g>
    </g>
    <g id="ytick_7">
     <g id="line2d_31">
      <path d="M 106.22 137.714545 
L 709.2 137.714545 
" clip-path="url(#p967ad2a325)" style="fill: none; stroke: #b0b0b0; stroke-width: 0.8; stroke-linecap: square"/>
     </g>
     <g id="line2d_32">
      <g>
       <use xlink:href="#m7f646d65b5" x="106.22" y="137.714545" style="stroke: #000000; stroke-width: 0.8"/>
      </g>
     </g>
     <g id="text_17">
      <!-- 7.201093e-08 -->
      <g transform="translate(29.018438 141.513764) scale(0.1 -0.1)">
       <use xlink:href="#DejaVuSans-37"/>
       <use xlink:href="#DejaVuSans-2e" x="63.623047"/>
       <use xlink:href="#DejaVuSans-32" x="95.410156"/>
       <use xlink:href="#DejaVuSans-30" x="159.033203"/>
       <use xlink:href="#DejaVuSans-31" x="222.65625"/>
       <use xlink:href="#DejaVuSans-30" x="286.279297"/>
       <use xlink:href="#DejaVuSans-39" x="349.902344"/>
       <use xlink:href="#DejaVuSans-33" x="413.525391"/>
       <use xlink:href="#DejaVuSans-65" x="477.148438"/>
       <use xlink:href="#DejaVuSans-2d" x="538.671875"/>
       <use xlink:href="#DejaVuSans-30" x="574.755859"/>
       <use xlink:href="#DejaVuSans-38" x="638.378906"/>
      </g>
     </g>
    </g>
    <g id="ytick_8">
     <g id="line2d_33">
      <path d="M 106.22 98.411515 
L 709.2 98.411515 
" clip-path="url(#p967ad2a325)" style="fill: none; stroke: #b0b0b0; stroke-width: 0.8; stroke-linecap: square"/>
     </g>
     <g id="line2d_34">
      <g>
       <use xlink:href="#m7f646d65b5" x="106.22" y="98.411515" style="stroke: #000000; stroke-width: 0.8"/>
      </g>
     </g>
     <g id="text_18">
      <!-- 8.818908e-08 -->
      <g transform="translate(29.018438 102.210734) scale(0.1 -0.1)">
       <use xlink:href="#DejaVuSans-38"/>
       <use xlink:href="#DejaVuSans-2e" x="63.623047"/>
       <use xlink:href="#DejaVuSans-38" x="95.410156"/>
       <use xlink:href="#DejaVuSans-31" x="159.033203"/>
       <use xlink:href="#DejaVuSans-38" x="222.65625"/>
       <use xlink:href="#DejaVuSans-39" x="286.279297"/>
       <use xlink:href="#DejaVuSans-30" x="349.902344"/>
       <use xlink:href="#DejaVuSans-38" x="413.525391"/>
       <use xlink:href="#DejaVuSans-65" x="477.148438"/>
       <use xlink:href="#DejaVuSans-2d" x="538.671875"/>
       <use xlink:href="#DejaVuSans-30" x="574.755859"/>
       <use xlink:href="#DejaVuSans-38" x="638.378906"/>
      </g>
     </g>
    </g>
    <g id="ytick_9">
     <g id="line2d_35">
      <path d="M 106.22 59.108485 
L 709.2 59.108485 
" clip-path="url(#p967ad2a325)" style="fill: none; stroke: #b0b0b0; stroke-width: 0.8; stroke-linecap: square"/>
     </g>
     <g id="line2d_36">
      <g>
       <use xlink:href="#m7f646d65b5" x="106.22" y="59.108485" style="stroke: #000000; stroke-width: 0.8"/>
      </g>
     </g>
     <g id="text_19">
      <!-- 5.367217e-01 -->
      <g transform="translate(29.018438 62.907704) scale(0.1 -0.1)">
       <use xlink:href="#DejaVuSans-35"/>
       <use xlink:href="#DejaVuSans-2e" x="63.623047"/>
       <use xlink:href="#DejaVuSans-33" x="95.410156"/>
       <use xlink:href="#DejaVuSans-36" x="159.033203"/>
       <use xlink:href="#DejaVuSans-37" x="222.65625"/>
       <use xlink:href="#DejaVuSans-32" x="286.279297"/>
       <use xlink:href="#DejaVuSans-31" x="349.902344"/>
       <use xlink:href="#DejaVuSans-37" x="413.525391"/>
       <use xlink:href="#DejaVuSans-65" x="477.148438"/>
       <use xlink:href="#DejaVuSans-2d" x="538.671875"/>
       <use xlink:href="#DejaVuSans-30" x="574.755859"/>
       <use xlink:href="#DejaVuSans-31" x="638.378906"/>
      </g>
     </g>
    </g>
    <g id="text_20">
     <!-- Voltage (V) -->
     <g transform="translate(18.166875 236.127187) rotate(-90) scale(0.1 -0.1)">
      <defs>
       <path id="DejaVuSans-56" d="M 1831 0 
L 50 4666 
L 709 4666 
L 2188 738 
L 3669 4666 
L 4325 4666 
L 2547 0 
L 1831 0 
z
" transform="scale(0.015625)"/>
       <path id="DejaVuSans-6f" d="M 1959 3097 
Q 1497 3097 1228 2736 
Q 959 2375 959 1747 
Q 959 1119 1226 758 
Q 1494 397 1959 397 
Q 2419 397 2687 759 
Q 2956 1122 2956 1747 
Q 2956 2369 2687 2733 
Q 2419 3097 1959 3097 
z
M 1959 3584 
Q 2709 3584 3137 3096 
Q 3566 2609 3566 1747 
Q 3566 888 3137 398 
Q 2709 -91 1959 -91 
Q 1206 -91 779 398 
Q 353 888 353 1747 
Q 353 2609 779 3096 
Q 1206 3584 1959 3584 
z
" transform="scale(0.015625)"/>
       <path id="DejaVuSans-6c" d="M 603 4863 
L 1178 4863 
L 1178 0 
L 603 0 
L 603 4863 
z
" transform="scale(0.015625)"/>
       <path id="DejaVuSans-74" d="M 1172 4494 
L 1172 3500 
L 2356 3500 
L 2356 3053 
L 1172 3053 
L 1172 1153 
Q 1172 725 1289 603 
Q 1406 481 1766 481 
L 2356 481 
L 2356 0 
L 1766 0 
Q 1100 0 847 248 
Q 594 497 594 1153 
L 594 3053 
L 172 3053 
L 172 3500 
L 594 3500 
L 594 4494 
L 1172 4494 
z
" transform="scale(0.015625)"/>
       <path id="DejaVuSans-61" d="M 2194 1759 
Q 1497 1759 1228 1600 
Q 959 1441 959 1056 
Q 959 750 1161 570 
Q 1363 391 1709 391 
Q 2188 391 2477 730 
Q 2766 1069 2766 1631 
L 2766 1759 
L 2194 1759 
z
M 3341 1997 
L 3341 0 
L 2766 0 
L 2766 531 
Q 2569 213 2275 61 
Q 1981 -91 1556 -91 
Q 1019 -91 701 211 
Q 384 513 384 1019 
Q 384 1609 779 1909 
Q 1175 2209 1959 2209 
L 2766 2209 
L 2766 2266 
Q 2766 2663 2505 2880 
Q 2244 3097 1772 3097 
Q 1472 3097 1187 3025 
Q 903 2953 641 2809 
L 641 3341 
Q 956 3463 1253 3523 
Q 1550 3584 1831 3584 
Q 2591 3584 2966 3190 
Q 3341 2797 3341 1997 
z
" transform="scale(0.015625)"/>
       <path id="DejaVuSans-67" d="M 2906 1791 
Q 2906 2416 2648 2759 
Q 2391 3103 1925 3103 
Q 1463 3103 1205 2759 
Q 947 2416 947 1791 
Q 947 1169 1205 825 
Q 1463 481 1925 481 
Q 2391 481 2648 825 
Q 2906 1169 2906 1791 
z
M 3481 434 
Q 3481 -459 3084 -895 
Q 2688 -1331 1869 -1331 
Q 1566 -1331 1297 -1286 
Q 1028 -1241 775 -1147 
L 775 -588 
Q 1028 -725 1275 -790 
Q 1522 -856 1778 -856 
Q 2344 -856 2625 -561 
Q 2906 -266 2906 331 
L 2906 616 
Q 2728 306 2450 153 
Q 2172 0 1784 0 
Q 1141 0 747 490 
Q 353 981 353 1791 
Q 353 2603 747 3093 
Q 1141 3584 1784 3584 
Q 2172 3584 2450 3431 
Q 2728 3278 2906 2969 
L 2906 3500 
L 3481 3500 
L 3481 434 
z
" transform="scale(0.015625)"/>
      </defs>
      <use xlink:href="#DejaVuSans-56"/>
      <use xlink:href="#DejaVuSans-6f" x="60.658203"/>
      <use xlink:href="#DejaVuSans-6c" x="121.839844"/>
      <use xlink:href="#DejaVuSans-74" x="149.623047"/>
      <use xlink:href="#DejaVuSans-61" x="188.832031"/>
      <use xlink:href="#DejaVuSans-67" x="250.111328"/>
      <use xlink:href="#DejaVuSans-65" x="313.587891"/>
      <use xlink:href="#DejaVuSans-20" x="375.111328"/>
      <use xlink:href="#DejaVuSans-28" x="406.898438"/>
      <use xlink:href="#DejaVuSans-56" x="445.912109"/>
      <use xlink:href="#DejaVuSans-29" x="514.320312"/>
     </g>
    </g>
   </g>
   <g id="line2d_37">
    <path d="M 133.628182 373.532727 
L 172.465686 373.532727 
L 182.452473 369.111136 
L 193.548903 369.111136 
L 194.658546 368.619848 
L 195.768189 369.111136 
L 245.702124 369.111136 
L 246.811767 368.128561 
L 249.031053 367.145985 
L 250.140696 373.532727 
L 259.01784 373.532727 
L 194.658546 368.619848 
L 260.127483 373.532727 
L 285.649271 373.532727 
L 286.758914 366.654697 
L 293.416772 363.70697 
L 294.526415 369.111136 
L 323.377133 369.111136 
L 194.658546 368.619848 
L 352.227851 369.111136 
L 356.666423 369.111136 
L 357.776066 368.128561 
L 359.995351 367.145985 
L 361.104994 363.215682 
L 362.214637 373.532727 
L 387.736426 373.532727 
L 194.658546 368.619848 
L 391.065355 373.532727 
L 397.723213 373.532727 
L 398.832856 366.163409 
L 404.381071 363.70697 
L 405.490714 369.111136 
L 452.09572 369.111136 
L 194.658546 368.619848 
L 467.630721 369.111136 
L 468.740364 368.128561 
L 470.95965 367.145985 
L 472.069293 373.532727 
L 508.687512 373.532727 
L 509.797155 366.163409 
L 515.34537 363.70697 
L 516.455013 369.111136 
L 194.658546 368.619848 
L 578.59502 369.111136 
L 579.704663 368.128561 
L 580.814306 367.637273 
L 194.658546 368.619848 
L 581.923949 367.145985 
L 583.033592 373.532727 
L 618.542168 373.532727 
L 619.651811 362.724394 
L 620.761454 366.163409 
L 626.309669 363.70697 
L 627.419312 369.111136 
L 645.1736 369.111136 
L 194.658546 368.619848 
L 681.791818 369.111136 
L 194.658546 362.233106 
L 133.628182 361.741818 
L 146.943898 361.741818 
L 193.548903 361.741818 
L 194.658546 362.233106 
L 195.768189 361.741818 
L 259.01784 361.741818 
L 194.658546 362.233106 
L 273.443198 361.741818 
L 323.377133 361.741818 
L 194.658546 362.233106 
L 352.227851 361.741818 
L 387.736426 361.741818 
L 194.658546 362.233106 
L 431.012503 361.741818 
L 452.09572 361.741818 
L 194.658546 362.233106 
L 509.797155 361.741818 
L 516.455013 361.741818 
L 194.658546 362.233106 
L 588.581807 361.741818 
L 645.1736 361.741818 
L 194.658546 362.233106 
L 681.791818 361.741818 
L 194.658546 361.25053 
L 133.628182 373.532727 
L 193.548903 373.532727 
L 194.658546 361.25053 
L 195.768189 373.532727 
L 206.864619 373.532727 
L 207.974262 360.759242 
L 210.193548 359.776667 
L 211.303191 369.111136 
L 259.01784 369.111136 
L 194.658546 361.25053 
L 260.127483 369.111136 
L 274.552841 369.111136 
L 275.662484 359.285379 
L 278.991413 357.811515 
L 280.101056 373.532727 
L 317.828918 373.532727 
L 318.938561 360.759242 
L 321.157847 359.776667 
L 322.26749 369.111136 
L 323.377133 369.111136 
L 194.658546 361.25053 
L 324.486776 369.111136 
L 385.51714 369.111136 
L 386.626783 359.285379 
L 387.736426 358.794091 
L 194.658546 361.25053 
L 388.846069 358.302803 
L 389.955712 357.811515 
L 391.065355 373.532727 
L 428.793217 373.532727 
L 429.90286 360.759242 
L 432.122146 359.776667 
L 433.231789 369.111136 
L 452.09572 369.111136 
L 194.658546 361.25053 
L 455.424649 369.111136 
L 496.481439 369.111136 
L 497.591082 359.285379 
L 500.920011 357.811515 
L 502.029654 373.532727 
L 516.455013 373.532727 
L 194.658546 361.25053 
L 518.674299 373.532727 
L 539.757516 373.532727 
L 540.867159 360.759242 
L 543.086445 359.776667 
L 544.196088 369.111136 
L 580.814306 369.111136 
L 194.658546 361.25053 
L 585.252878 369.111136 
L 607.445738 369.111136 
L 608.555381 359.285379 
L 611.88431 357.811515 
L 612.993953 373.532727 
L 645.1736 373.532727 
L 194.658546 361.25053 
L 648.502529 373.532727 
L 649.612172 373.532727 
L 650.721815 362.724394 
L 651.831457 360.759242 
L 654.050743 359.776667 
L 655.160386 369.111136 
L 681.791818 369.111136 
L 194.658546 357.320227 
L 133.628182 373.532727 
L 134.737825 356.828939 
L 142.505326 353.389924 
L 182.452473 353.389924 
L 186.891045 351.424773 
L 188.000688 373.532727 
L 193.548903 373.532727 
L 194.658546 357.320227 
L 195.768189 373.532727 
L 237.934623 373.532727 
L 239.044266 350.933485 
L 244.592481 348.477045 
L 245.702124 353.389924 
L 259.01784 353.389924 
L 194.658546 357.320227 
L 260.127483 353.389924 
L 294.526415 353.389924 
L 295.636058 347.985758 
L 298.964987 346.511894 
L 300.07463 373.532727 
L 323.377133 373.532727 
L 194.658546 357.320227 
L 324.486776 373.532727 
L 348.898922 373.532727 
L 350.008565 350.933485 
L 355.55678 348.477045 
L 356.666423 353.389924 
L 387.736426 353.389924 
L 194.658546 357.320227 
L 392.174998 353.389924 
L 405.490714 353.389924 
L 406.600357 347.985758 
L 409.929286 346.511894 
L 411.038929 373.532727 
L 452.09572 373.532727 
L 194.658546 357.320227 
L 453.205363 373.532727 
L 459.86322 373.532727 
L 460.972863 350.933485 
L 466.521078 348.477045 
L 467.630721 353.389924 
L 516.455013 353.389924 
L 194.658546 357.320227 
L 517.564656 347.985758 
L 520.893585 346.511894 
L 522.003228 373.532727 
L 570.827519 373.532727 
L 571.937162 350.933485 
L 577.485377 348.477045 
L 578.59502 353.389924 
L 580.814306 353.389924 
L 194.658546 357.320227 
L 590.801093 353.389924 
L 627.419312 353.389924 
L 628.528955 347.985758 
L 631.857884 346.511894 
L 632.967527 373.532727 
L 645.1736 373.532727 
L 194.658546 357.320227 
L 647.392886 373.532727 
L 681.791818 373.532727 
L 194.658546 346.020606 
L 133.628182 345.529318 
L 146.943898 345.529318 
L 193.548903 345.529318 
L 194.658546 346.020606 
L 195.768189 345.529318 
L 217.961049 345.529318 
L 220.180335 344.546742 
L 222.399621 345.529318 
L 223.509264 345.03803 
L 224.618907 344.055455 
L 225.72855 345.529318 
L 226.838193 344.055455 
L 227.947836 345.529318 
L 229.057479 344.055455 
L 230.167122 345.529318 
L 231.276765 344.055455 
L 232.386408 345.529318 
L 233.496051 344.055455 
L 234.605694 345.529318 
L 235.715337 344.055455 
L 236.82498 345.529318 
L 237.934623 344.055455 
L 239.044266 345.529318 
L 259.01784 345.529318 
L 194.658546 346.020606 
L 273.443198 345.529318 
L 323.377133 345.529318 
L 194.658546 346.020606 
L 328.925348 345.529318 
L 330.034991 344.055455 
L 332.254277 343.072879 
L 333.36392 345.529318 
L 334.473563 345.529318 
L 335.583206 344.055455 
L 336.692849 345.529318 
L 337.802492 344.055455 
L 338.912135 345.529318 
L 340.021778 344.055455 
L 341.131421 345.529318 
L 342.241064 344.055455 
L 343.350707 345.529318 
L 344.46035 344.055455 
L 345.569993 345.529318 
L 346.679636 344.055455 
L 347.789279 345.529318 
L 348.898922 344.055455 
L 350.008565 345.529318 
L 387.736426 345.529318 
L 194.658546 346.020606 
L 431.012503 345.529318 
L 439.889647 345.529318 
L 440.99929 345.03803 
L 442.108933 343.564167 
L 443.218576 345.529318 
L 444.328219 344.055455 
L 445.437862 345.529318 
L 446.547505 344.055455 
L 447.657148 345.529318 
L 448.766791 344.055455 
L 449.876434 345.529318 
L 450.986077 344.055455 
L 452.09572 345.529318 
L 194.658546 346.020606 
L 453.205363 344.055455 
L 454.315006 345.529318 
L 455.424649 344.055455 
L 456.534291 345.529318 
L 457.643934 344.055455 
L 458.753577 345.529318 
L 459.86322 344.055455 
L 460.972863 345.529318 
L 516.455013 345.529318 
L 194.658546 346.020606 
L 524.222514 345.529318 
L 525.332157 344.055455 
L 526.4418 344.055455 
L 527.551443 345.529318 
L 550.853946 345.529318 
L 551.963589 342.581591 
L 553.073232 344.055455 
L 554.182874 345.03803 
L 555.292517 345.529318 
L 556.40216 345.529318 
L 557.511803 344.055455 
L 558.621446 345.529318 
L 560.840732 345.529318 
L 561.950375 344.055455 
L 563.060018 345.529318 
L 565.279304 345.529318 
L 566.388947 344.055455 
L 567.49859 345.529318 
L 568.608233 344.055455 
L 569.717876 345.529318 
L 570.827519 344.055455 
L 571.937162 345.529318 
L 580.814306 345.529318 
L 194.658546 346.020606 
L 584.143235 345.529318 
L 585.252878 344.055455 
L 586.362521 344.055455 
L 587.472164 345.529318 
L 645.1736 345.529318 
L 194.658546 346.020606 
L 661.818244 345.529318 
L 664.03753 343.564167 
L 665.147173 344.055455 
L 666.256816 345.529318 
L 667.366459 344.055455 
L 668.476102 345.529318 
L 670.695388 345.529318 
L 671.805031 344.055455 
L 672.914674 345.529318 
L 674.024317 344.055455 
L 675.13396 345.529318 
L 676.243603 344.055455 
L 677.353246 345.529318 
L 678.462889 344.055455 
L 679.572532 345.529318 
L 680.682175 344.055455 
L 681.791818 345.529318 
L 133.628182 341.599015 
L 140.28604 341.599015 
L 193.548903 341.599015 
L 194.658546 342.090303 
L 195.768189 341.599015 
L 259.01784 341.599015 
L 194.658546 342.090303 
L 273.443198 341.599015 
L 323.377133 341.599015 
L 194.658546 342.090303 
L 352.227851 341.599015 
L 387.736426 341.599015 
L 194.658546 342.090303 
L 431.012503 341.599015 
L 452.09572 341.599015 
L 194.658546 342.090303 
L 509.797155 341.599015 
L 516.455013 341.599015 
L 194.658546 342.090303 
L 588.581807 341.599015 
L 645.1736 341.599015 
L 194.658546 342.090303 
L 681.791818 341.599015 
L 194.658546 341.107727 
L 133.628182 373.532727 
L 151.38247 373.532727 
L 152.492113 340.616439 
L 159.149971 340.616439 
L 160.259614 340.125152 
L 161.369257 340.125152 
L 164.698185 338.651288 
L 193.548903 338.651288 
L 194.658546 341.107727 
L 195.768189 338.651288 
L 211.303191 338.651288 
L 215.741763 336.686136 
L 216.851406 336.686136 
L 219.070692 335.703561 
L 220.180335 336.194848 
L 221.289978 335.703561 
L 222.399621 336.194848 
L 223.509264 335.703561 
L 224.618907 336.194848 
L 225.72855 335.703561 
L 226.838193 336.194848 
L 227.947836 335.703561 
L 229.057479 336.194848 
L 230.167122 335.703561 
L 231.276765 336.194848 
L 232.386408 335.703561 
L 233.496051 336.194848 
L 234.605694 335.703561 
L 235.715337 336.194848 
L 236.82498 335.703561 
L 237.934623 336.194848 
L 239.044266 373.532727 
L 259.01784 373.532727 
L 194.658546 341.107727 
L 260.127483 373.532727 
L 266.78534 373.532727 
L 267.894983 340.616439 
L 270.114269 340.616439 
L 271.223912 340.125152 
L 272.333555 340.125152 
L 273.443198 335.212273 
L 274.552841 339.142576 
L 275.662484 338.651288 
L 322.26749 338.651288 
L 323.377133 338.16 
L 194.658546 341.107727 
L 324.486776 337.668712 
L 326.706062 336.686136 
L 327.815705 336.686136 
L 328.925348 373.532727 
L 377.749639 373.532727 
L 378.859282 340.616439 
L 381.078568 340.616439 
L 382.188211 340.125152 
L 383.297854 340.125152 
L 384.407497 335.212273 
L 385.51714 339.142576 
L 386.626783 338.651288 
L 387.736426 338.651288 
L 194.658546 341.107727 
L 395.503927 338.651288 
L 433.231789 338.651288 
L 437.670361 336.686136 
L 438.780004 336.686136 
L 439.889647 373.532727 
L 452.09572 373.532727 
L 194.658546 341.107727 
L 453.205363 373.532727 
L 488.713938 373.532727 
L 489.823581 340.616439 
L 492.042867 340.616439 
L 493.15251 340.125152 
L 494.262153 340.125152 
L 495.371796 335.212273 
L 496.481439 339.142576 
L 497.591082 338.651288 
L 516.455013 338.651288 
L 194.658546 341.107727 
L 530.880372 338.651288 
L 544.196088 338.651288 
L 548.63466 336.686136 
L 549.744303 336.686136 
L 550.853946 373.532727 
L 580.814306 373.532727 
L 194.658546 341.107727 
L 581.923949 373.532727 
L 599.678237 373.532727 
L 600.78788 340.616439 
L 603.007166 340.616439 
L 604.116809 340.125152 
L 605.226452 340.125152 
L 606.336095 335.212273 
L 607.445738 339.142576 
L 608.555381 338.651288 
L 645.1736 338.651288 
L 194.658546 341.107727 
L 655.160386 338.651288 
L 659.598958 336.686136 
L 660.708601 336.686136 
L 661.818244 373.532727 
L 681.791818 373.532727 
L 681.791818 373.532727 
" clip-path="url(#p967ad2a325)" style="fill: none; stroke: #1f77b4; stroke-width: 1.5; stroke-linecap: square"/>
   </g>
   <g id="line2d_38">
    <path d="M 133.628182 373.532727 
L 172.465686 373.532727 
L 173.575329 334.720985 
L 181.34283 331.28197 
L 182.452473 353.389924 
L 193.548903 353.389924 
L 194.658546 330.790682 
L 195.768189 353.389924 
L 245.702124 353.389924 
L 246.811767 330.299394 
L 249.031053 329.316818 
L 250.140696 373.532727 
L 259.01784 373.532727 
L 194.658546 330.790682 
L 260.127483 373.532727 
L 285.649271 373.532727 
L 286.758914 328.82553 
L 293.416772 325.877803 
L 294.526415 353.389924 
L 323.377133 353.389924 
L 194.658546 330.790682 
L 324.486776 353.389924 
L 356.666423 353.389924 
L 357.776066 330.299394 
L 359.995351 329.316818 
L 361.104994 325.386515 
L 362.214637 373.532727 
L 387.736426 373.532727 
L 194.658546 330.790682 
L 388.846069 373.532727 
L 397.723213 373.532727 
L 398.832856 328.334242 
L 399.942499 324.895227 
L 401.052142 327.351667 
L 404.381071 325.877803 
L 405.490714 353.389924 
L 452.09572 353.389924 
L 194.658546 330.790682 
L 453.205363 353.389924 
L 467.630721 353.389924 
L 468.740364 330.299394 
L 470.95965 329.316818 
L 472.069293 373.532727 
L 508.687512 373.532727 
L 509.797155 328.334242 
L 510.906798 324.895227 
L 512.016441 327.351667 
L 515.34537 325.877803 
L 516.455013 353.389924 
L 194.658546 330.790682 
L 517.564656 353.389924 
L 578.59502 353.389924 
L 579.704663 330.299394 
L 580.814306 329.808106 
L 194.658546 330.790682 
L 581.923949 329.316818 
L 583.033592 373.532727 
L 618.542168 373.532727 
L 619.651811 324.403939 
L 620.761454 328.334242 
L 621.871097 324.895227 
L 622.98074 327.351667 
L 626.309669 325.877803 
L 627.419312 353.389924 
L 645.1736 353.389924 
L 194.658546 330.790682 
L 646.283243 353.389924 
L 681.791818 353.389924 
L 194.658546 323.912652 
L 133.628182 323.421364 
L 146.943898 323.421364 
L 193.548903 323.421364 
L 194.658546 323.912652 
L 195.768189 323.421364 
L 259.01784 323.421364 
L 194.658546 323.912652 
L 273.443198 323.421364 
L 323.377133 323.421364 
L 194.658546 323.912652 
L 352.227851 323.421364 
L 387.736426 323.421364 
L 194.658546 323.912652 
L 431.012503 323.421364 
L 452.09572 323.421364 
L 194.658546 323.912652 
L 509.797155 323.421364 
L 516.455013 323.421364 
L 194.658546 323.912652 
L 588.581807 323.421364 
L 645.1736 323.421364 
L 194.658546 323.912652 
L 681.791818 323.421364 
L 194.658546 322.930076 
L 133.628182 373.532727 
L 134.737825 322.438788 
L 141.395683 319.491061 
L 142.505326 369.111136 
L 182.452473 369.111136 
L 183.562116 318.999773 
L 186.891045 317.525909 
L 188.000688 373.532727 
L 193.548903 373.532727 
L 194.658546 322.930076 
L 195.768189 373.532727 
L 237.934623 373.532727 
L 239.044266 317.034621 
L 244.592481 314.578182 
L 245.702124 369.111136 
L 259.01784 369.111136 
L 194.658546 322.930076 
L 260.127483 369.111136 
L 294.526415 369.111136 
L 295.636058 314.086894 
L 298.964987 312.61303 
L 300.07463 373.532727 
L 323.377133 373.532727 
L 194.658546 322.930076 
L 324.486776 373.532727 
L 348.898922 373.532727 
L 350.008565 317.034621 
L 355.55678 314.578182 
L 356.666423 369.111136 
L 387.736426 369.111136 
L 194.658546 322.930076 
L 388.846069 369.111136 
L 405.490714 369.111136 
L 406.600357 314.086894 
L 409.929286 312.61303 
L 411.038929 373.532727 
L 452.09572 373.532727 
L 194.658546 322.930076 
L 453.205363 373.532727 
L 459.86322 373.532727 
L 460.972863 317.034621 
L 466.521078 314.578182 
L 467.630721 369.111136 
L 516.455013 369.111136 
L 194.658546 322.930076 
L 517.564656 314.086894 
L 520.893585 312.61303 
L 522.003228 373.532727 
L 570.827519 373.532727 
L 571.937162 317.034621 
L 577.485377 314.578182 
L 578.59502 369.111136 
L 580.814306 369.111136 
L 194.658546 322.930076 
L 581.923949 369.111136 
L 627.419312 369.111136 
L 628.528955 314.086894 
L 631.857884 312.61303 
L 632.967527 373.532727 
L 645.1736 373.532727 
L 194.658546 322.930076 
L 646.283243 373.532727 
L 681.791818 373.532727 
L 194.658546 312.121742 
L 133.628182 373.532727 
L 134.737825 311.630455 
L 193.548903 285.592197 
L 194.658546 312.121742 
L 195.768189 285.100909 
L 259.01784 257.0975 
L 194.658546 312.121742 
L 260.127483 256.606212 
L 323.377133 228.602803 
L 194.658546 312.121742 
L 324.486776 228.111515 
L 387.736426 200.108106 
L 194.658546 312.121742 
L 388.846069 199.616818 
L 452.09572 171.613409 
L 194.658546 312.121742 
L 453.205363 171.122121 
L 516.455013 143.118712 
L 194.658546 312.121742 
L 517.564656 142.627424 
L 580.814306 114.624015 
L 194.658546 312.121742 
L 581.923949 114.132727 
L 645.1736 86.129318 
L 194.658546 312.121742 
L 646.283243 85.63803 
L 681.791818 69.916818 
L 194.658546 69.42553 
L 133.628182 369.111136 
L 193.548903 369.111136 
L 194.658546 69.42553 
L 195.768189 369.111136 
L 259.01784 369.111136 
L 194.658546 69.42553 
L 260.127483 369.111136 
L 323.377133 369.111136 
L 194.658546 69.42553 
L 324.486776 369.111136 
L 387.736426 369.111136 
L 194.658546 69.42553 
L 388.846069 369.111136 
L 452.09572 369.111136 
L 194.658546 69.42553 
L 453.205363 369.111136 
L 516.455013 369.111136 
L 194.658546 69.42553 
L 517.564656 369.111136 
L 580.814306 369.111136 
L 194.658546 69.42553 
L 581.923949 369.111136 
L 645.1736 369.111136 
L 194.658546 69.42553 
L 646.283243 369.111136 
L 681.791818 369.111136 
L 194.658546 68.934242 
L 133.628182 369.111136 
L 193.548903 369.111136 
L 194.658546 68.934242 
L 195.768189 369.111136 
L 259.01784 369.111136 
L 194.658546 68.934242 
L 260.127483 369.111136 
L 323.377133 369.111136 
L 194.658546 68.934242 
L 324.486776 369.111136 
L 387.736426 369.111136 
L 194.658546 68.934242 
L 388.846069 369.111136 
L 452.09572 369.111136 
L 194.658546 68.934242 
L 453.205363 369.111136 
L 516.455013 369.111136 
L 194.658546 68.934242 
L 517.564656 369.111136 
L 580.814306 369.111136 
L 194.658546 68.934242 
L 581.923949 369.111136 
L 645.1736 369.111136 
L 194.658546 68.934242 
L 646.283243 369.111136 
L 681.791818 369.111136 
L 194.658546 68.442955 
L 133.628182 373.532727 
L 193.548903 373.532727 
L 194.658546 68.442955 
L 195.768189 373.532727 
L 206.864619 373.532727 
L 207.974262 67.951667 
L 210.193548 66.969091 
L 211.303191 338.651288 
L 259.01784 338.651288 
L 194.658546 68.442955 
L 260.127483 338.651288 
L 274.552841 338.651288 
L 275.662484 66.477803 
L 278.991413 65.003939 
L 280.101056 373.532727 
L 317.828918 373.532727 
L 318.938561 67.951667 
L 321.157847 66.969091 
L 322.26749 338.651288 
L 323.377133 338.651288 
L 194.658546 68.442955 
L 324.486776 338.651288 
L 385.51714 338.651288 
L 386.626783 66.477803 
L 387.736426 65.986515 
L 194.658546 68.442955 
L 388.846069 65.495227 
L 389.955712 65.003939 
L 391.065355 373.532727 
L 428.793217 373.532727 
L 429.90286 67.951667 
L 432.122146 66.969091 
L 433.231789 338.651288 
L 452.09572 338.651288 
L 194.658546 68.442955 
L 453.205363 338.651288 
L 496.481439 338.651288 
L 497.591082 66.477803 
L 500.920011 65.003939 
L 502.029654 373.532727 
L 516.455013 373.532727 
L 194.658546 68.442955 
L 517.564656 373.532727 
L 539.757516 373.532727 
L 540.867159 67.951667 
L 543.086445 66.969091 
L 544.196088 338.651288 
L 580.814306 338.651288 
L 194.658546 68.442955 
L 581.923949 338.651288 
L 607.445738 338.651288 
L 608.555381 66.477803 
L 611.88431 65.003939 
L 612.993953 373.532727 
L 645.1736 373.532727 
L 194.658546 68.442955 
L 646.283243 373.532727 
L 649.612172 373.532727 
L 650.721815 64.512652 
L 651.831457 67.951667 
L 654.050743 66.969091 
L 655.160386 338.651288 
L 681.791818 338.651288 
L 681.791818 338.651288 
" clip-path="url(#p967ad2a325)" style="fill: none; stroke: #ff7f0e; stroke-width: 1.5; stroke-linecap: square"/>
   </g>
   <g id="line2d_39">
    <path d="M 133.628182 373.532727 
L 172.465686 373.532727 
L 173.575329 334.720985 
L 181.34283 331.28197 
L 182.452473 353.389924 
L 193.548903 353.389924 
L 194.658546 64.021364 
L 195.768189 353.389924 
L 245.702124 353.389924 
L 246.811767 330.299394 
L 249.031053 329.316818 
L 250.140696 373.532727 
L 259.01784 373.532727 
L 194.658546 64.021364 
L 260.127483 373.532727 
L 285.649271 373.532727 
L 286.758914 328.82553 
L 293.416772 325.877803 
L 294.526415 353.389924 
L 323.377133 353.389924 
L 194.658546 64.021364 
L 324.486776 353.389924 
L 356.666423 353.389924 
L 357.776066 330.299394 
L 359.995351 329.316818 
L 361.104994 325.386515 
L 362.214637 373.532727 
L 387.736426 373.532727 
L 194.658546 64.021364 
L 388.846069 373.532727 
L 397.723213 373.532727 
L 398.832856 328.334242 
L 399.942499 324.895227 
L 401.052142 327.351667 
L 404.381071 325.877803 
L 405.490714 353.389924 
L 452.09572 353.389924 
L 194.658546 64.021364 
L 453.205363 353.389924 
L 467.630721 353.389924 
L 468.740364 330.299394 
L 470.95965 329.316818 
L 472.069293 373.532727 
L 508.687512 373.532727 
L 509.797155 328.334242 
L 510.906798 324.895227 
L 512.016441 327.351667 
L 515.34537 325.877803 
L 516.455013 353.389924 
L 194.658546 64.021364 
L 517.564656 353.389924 
L 578.59502 353.389924 
L 579.704663 330.299394 
L 580.814306 329.808106 
L 194.658546 64.021364 
L 581.923949 329.316818 
L 583.033592 373.532727 
L 618.542168 373.532727 
L 619.651811 324.403939 
L 620.761454 328.334242 
L 621.871097 324.895227 
L 622.98074 327.351667 
L 626.309669 325.877803 
L 627.419312 353.389924 
L 645.1736 353.389924 
L 194.658546 64.021364 
L 646.283243 353.389924 
L 681.791818 353.389924 
L 194.658546 63.530076 
L 133.628182 373.532727 
L 151.38247 373.532727 
L 152.492113 63.038788 
L 162.4789 58.617197 
L 163.588543 369.111136 
L 193.548903 369.111136 
L 194.658546 63.530076 
L 195.768189 369.111136 
L 211.303191 369.111136 
L 212.412834 58.125909 
L 216.851406 56.160758 
L 217.961049 373.532727 
L 259.01784 373.532727 
L 194.658546 63.530076 
L 260.127483 373.532727 
L 266.78534 373.532727 
L 267.894983 55.66947 
L 273.443198 53.21303 
L 274.552841 369.111136 
L 322.26749 369.111136 
L 323.377133 58.125909 
L 194.658546 63.530076 
L 324.486776 57.634621 
L 326.706062 56.652045 
L 327.815705 373.532727 
L 377.749639 373.532727 
L 378.859282 55.66947 
L 384.407497 53.21303 
L 385.51714 369.111136 
L 387.736426 369.111136 
L 194.658546 63.530076 
L 388.846069 369.111136 
L 433.231789 369.111136 
L 434.341432 58.125909 
L 437.670361 56.652045 
L 438.780004 373.532727 
L 452.09572 373.532727 
L 194.658546 63.530076 
L 453.205363 373.532727 
L 488.713938 373.532727 
L 489.823581 55.66947 
L 495.371796 53.21303 
L 496.481439 369.111136 
L 516.455013 369.111136 
L 194.658546 63.530076 
L 517.564656 369.111136 
L 544.196088 369.111136 
L 545.305731 58.125909 
L 548.63466 56.652045 
L 549.744303 373.532727 
L 580.814306 373.532727 
L 194.658546 63.530076 
L 581.923949 373.532727 
L 599.678237 373.532727 
L 600.78788 55.66947 
L 606.336095 53.21303 
L 607.445738 369.111136 
L 645.1736 369.111136 
L 194.658546 63.530076 
L 646.283243 369.111136 
L 655.160386 369.111136 
L 656.270029 58.125909 
L 659.598958 56.652045 
L 660.708601 373.532727 
L 681.791818 373.532727 
L 194.658546 52.721742 
L 133.628182 373.532727 
L 134.737825 356.828939 
L 142.505326 353.389924 
L 182.452473 353.389924 
L 186.891045 351.424773 
L 188.000688 373.532727 
L 193.548903 373.532727 
L 194.658546 52.721742 
L 195.768189 373.532727 
L 237.934623 373.532727 
L 239.044266 350.933485 
L 244.592481 348.477045 
L 245.702124 353.389924 
L 259.01784 353.389924 
L 194.658546 52.721742 
L 260.127483 353.389924 
L 294.526415 353.389924 
L 295.636058 347.985758 
L 298.964987 346.511894 
L 300.07463 373.532727 
L 323.377133 373.532727 
L 194.658546 52.721742 
L 324.486776 373.532727 
L 348.898922 373.532727 
L 350.008565 350.933485 
L 355.55678 348.477045 
L 356.666423 353.389924 
L 387.736426 353.389924 
L 194.658546 52.721742 
L 388.846069 353.389924 
L 405.490714 353.389924 
L 406.600357 347.985758 
L 409.929286 346.511894 
L 411.038929 373.532727 
L 452.09572 373.532727 
L 194.658546 52.721742 
L 453.205363 373.532727 
L 459.86322 373.532727 
L 460.972863 350.933485 
L 466.521078 348.477045 
L 467.630721 353.389924 
L 516.455013 353.389924 
L 194.658546 52.721742 
L 517.564656 347.985758 
L 520.893585 346.511894 
L 522.003228 373.532727 
L 570.827519 373.532727 
L 571.937162 350.933485 
L 577.485377 348.477045 
L 578.59502 353.389924 
L 580.814306 353.389924 
L 194.658546 52.721742 
L 581.923949 353.389924 
L 627.419312 353.389924 
L 628.528955 347.985758 
L 631.857884 346.511894 
L 632.967527 373.532727 
L 645.1736 373.532727 
L 194.658546 52.721742 
L 646.283243 373.532727 
L 681.791818 373.532727 
L 194.658546 52.230455 
L 133.628182 373.532727 
L 172.465686 373.532727 
L 173.575329 340.616439 
L 179.123544 340.616439 
L 181.34283 339.633864 
L 182.452473 335.212273 
L 183.562116 51.739167 
L 193.548903 51.739167 
L 194.658546 52.230455 
L 195.768189 51.739167 
L 245.702124 51.739167 
L 249.031053 50.265303 
L 250.140696 336.686136 
L 251.250339 373.532727 
L 259.01784 373.532727 
L 194.658546 52.230455 
L 260.127483 373.532727 
L 285.649271 373.532727 
L 286.758914 49.774015 
L 287.868557 340.616439 
L 290.087843 340.616439 
L 291.197486 340.125152 
L 292.307129 340.125152 
L 293.416772 335.212273 
L 294.526415 335.212273 
L 295.636058 51.739167 
L 323.377133 51.739167 
L 194.658546 52.230455 
L 352.227851 51.739167 
L 356.666423 51.739167 
L 359.995351 50.265303 
L 361.104994 336.686136 
L 362.214637 49.282727 
L 363.32428 48.791439 
L 364.433923 49.282727 
L 365.543566 48.791439 
L 366.653209 49.282727 
L 367.762852 48.791439 
L 368.872495 49.282727 
L 369.982138 48.791439 
L 371.091781 49.282727 
L 372.201424 48.791439 
L 373.311067 49.282727 
L 374.42071 48.791439 
L 375.530353 49.282727 
L 376.639996 48.791439 
L 377.749639 49.282727 
L 378.859282 373.532727 
L 387.736426 373.532727 
L 194.658546 52.230455 
L 388.846069 373.532727 
L 397.723213 373.532727 
L 398.832856 340.616439 
L 401.052142 340.616439 
L 402.161785 340.125152 
L 403.271428 340.125152 
L 404.381071 335.212273 
L 405.490714 335.212273 
L 406.600357 51.739167 
L 452.09572 51.739167 
L 194.658546 52.230455 
L 467.630721 51.739167 
L 470.95965 50.265303 
L 472.069293 336.686136 
L 473.178936 373.532727 
L 508.687512 373.532727 
L 509.797155 340.616439 
L 512.016441 340.616439 
L 513.126084 340.125152 
L 514.235727 340.125152 
L 515.34537 335.212273 
L 516.455013 335.212273 
L 194.658546 52.230455 
L 578.59502 51.739167 
L 580.814306 50.756591 
L 194.658546 52.230455 
L 581.923949 50.265303 
L 583.033592 336.686136 
L 584.143235 373.532727 
L 618.542168 373.532727 
L 619.651811 48.300152 
L 620.761454 340.616439 
L 622.98074 340.616439 
L 624.090383 340.125152 
L 625.200026 340.125152 
L 626.309669 335.212273 
L 627.419312 335.212273 
L 628.528955 51.739167 
L 645.1736 51.739167 
L 194.658546 52.230455 
L 681.791818 51.739167 
L 133.628182 47.317576 
L 146.943898 47.317576 
L 193.548903 47.317576 
L 194.658546 47.808864 
L 195.768189 47.317576 
L 259.01784 47.317576 
L 194.658546 47.808864 
L 273.443198 47.317576 
L 323.377133 47.317576 
L 194.658546 47.808864 
L 352.227851 47.317576 
L 387.736426 47.317576 
L 194.658546 47.808864 
L 431.012503 47.317576 
L 452.09572 47.317576 
L 194.658546 47.808864 
L 509.797155 47.317576 
L 516.455013 47.317576 
L 194.658546 47.808864 
L 588.581807 47.317576 
L 645.1736 47.317576 
L 194.658546 47.808864 
L 681.791818 47.317576 
L 194.658546 46.826288 
L 133.628182 373.532727 
L 193.548903 373.532727 
L 194.658546 46.826288 
L 195.768189 373.532727 
L 259.01784 373.532727 
L 194.658546 46.826288 
L 260.127483 373.532727 
L 323.377133 373.532727 
L 194.658546 46.826288 
L 324.486776 373.532727 
L 387.736426 373.532727 
L 194.658546 46.826288 
L 388.846069 373.532727 
L 452.09572 373.532727 
L 194.658546 46.826288 
L 453.205363 373.532727 
L 516.455013 373.532727 
L 194.658546 46.826288 
L 517.564656 373.532727 
L 580.814306 373.532727 
L 194.658546 46.826288 
L 581.923949 373.532727 
L 645.1736 373.532727 
L 194.658546 46.826288 
L 646.283243 373.532727 
L 681.791818 373.532727 
L 194.658546 46.335 
L 133.628182 373.532727 
L 134.737825 340.616439 
L 138.066754 340.616439 
L 139.176397 340.125152 
L 140.28604 340.125152 
L 141.395683 339.633864 
L 142.505326 335.212273 
L 143.614969 51.739167 
L 182.452473 51.739167 
L 183.562116 51.247879 
L 184.671759 45.843712 
L 186.891045 44.861136 
L 188.000688 336.686136 
L 189.110331 373.532727 
L 193.548903 373.532727 
L 194.658546 46.335 
L 195.768189 373.532727 
L 237.934623 373.532727 
L 239.044266 340.616439 
L 241.263552 340.616439 
L 242.373195 340.125152 
L 243.482838 340.125152 
L 244.592481 339.633864 
L 245.702124 335.212273 
L 246.811767 51.739167 
L 259.01784 51.739167 
L 194.658546 46.335 
L 260.127483 51.739167 
L 294.526415 51.739167 
L 295.636058 51.247879 
L 296.745701 44.369848 
L 298.964987 43.387273 
L 300.07463 336.686136 
L 301.184273 373.532727 
L 323.377133 373.532727 
L 194.658546 46.335 
L 324.486776 373.532727 
L 348.898922 373.532727 
L 350.008565 340.616439 
L 352.227851 340.616439 
L 353.337494 340.125152 
L 354.447137 340.125152 
L 355.55678 339.633864 
L 356.666423 335.212273 
L 357.776066 51.739167 
L 387.736426 51.739167 
L 194.658546 46.335 
L 391.065355 51.739167 
L 405.490714 51.739167 
L 406.600357 51.247879 
L 407.71 44.369848 
L 409.929286 43.387273 
L 411.038929 336.686136 
L 412.148572 373.532727 
L 452.09572 373.532727 
L 194.658546 46.335 
L 453.205363 373.532727 
L 459.86322 373.532727 
L 460.972863 340.616439 
L 463.192149 340.616439 
L 464.301792 340.125152 
L 465.411435 340.125152 
L 466.521078 339.633864 
L 467.630721 335.212273 
L 468.740364 51.739167 
L 516.455013 51.739167 
L 194.658546 46.335 
L 517.564656 51.247879 
L 518.674299 44.369848 
L 520.893585 43.387273 
L 522.003228 336.686136 
L 523.112871 373.532727 
L 570.827519 373.532727 
L 571.937162 340.616439 
L 574.156448 340.616439 
L 575.266091 340.125152 
L 576.375734 340.125152 
L 577.485377 339.633864 
L 578.59502 335.212273 
L 579.704663 51.739167 
L 580.814306 51.739167 
L 194.658546 46.335 
L 588.581807 51.739167 
L 627.419312 51.739167 
L 628.528955 51.247879 
L 629.638598 44.369848 
L 631.857884 43.387273 
L 632.967527 336.686136 
L 634.07717 373.532727 
L 645.1736 373.532727 
L 194.658546 46.335 
L 646.283243 373.532727 
L 681.791818 373.532727 
L 681.791818 373.532727 
" clip-path="url(#p967ad2a325)" style="fill: none; stroke: #2ca02c; stroke-width: 1.5; stroke-linecap: square"/>
   </g>
   <g id="patch_3">
    <path d="M 106.22 390.04 
L 106.22 26.88 
" style="fill: none; stroke: #000000; stroke-width: 0.8; stroke-linejoin: miter; stroke-linecap: square"/>
   </g>
   <g id="patch_4">
    <path d="M 709.2 390.04 
L 709.2 26.88 
" style="fill: none; stroke: #000000; stroke-width: 0.8; stroke-linejoin: miter; stroke-linecap: square"/>
   </g>
   <g id="patch_5">
    <path d="M 106.22 390.04 
L 709.2 390.04 
" style="fill: none; stroke: #000000; stroke-width: 0.8; stroke-linejoin: miter; stroke-linecap: square"/>
   </g>
   <g id="patch_6">
    <path d="M 106.22 26.88 
L 709.2 26.88 
" style="fill: none; stroke: #000000; stroke-width: 0.8; stroke-linejoin: miter; stroke-linecap: square"/>
   </g>
   <g id="text_21">
    <!-- Transient Analysis of NeurX Hybrid System v0.10 -->
    <g transform="translate(260.740938 20.88) scale(0.12 -0.12)">
     <defs>
      <path id="DejaVuSans-72" d="M 2631 2963 
Q 2534 3019 2420 3045 
Q 2306 3072 2169 3072 
Q 1681 3072 1420 2755 
Q 1159 2438 1159 1844 
L 1159 0 
L 581 0 
L 581 3500 
L 1159 3500 
L 1159 2956 
Q 1341 3275 1631 3429 
Q 1922 3584 2338 3584 
Q 2397 3584 2469 3576 
Q 2541 3569 2628 3553 
L 2631 2963 
z
" transform="scale(0.015625)"/>
      <path id="DejaVuSans-6e" d="M 3513 2113 
L 3513 0 
L 2938 0 
L 2938 2094 
Q 2938 2591 2744 2837 
Q 2550 3084 2163 3084 
Q 1697 3084 1428 2787 
Q 1159 2491 1159 1978 
L 1159 0 
L 581 0 
L 581 3500 
L 1159 3500 
L 1159 2956 
Q 1366 3272 1645 3428 
Q 1925 3584 2291 3584 
Q 2894 3584 3203 3211 
Q 3513 2838 3513 2113 
z
" transform="scale(0.015625)"/>
      <path id="DejaVuSans-41" d="M 2188 4044 
L 1331 1722 
L 3047 1722 
L 2188 4044 
z
M 1831 4666 
L 2547 4666 
L 4325 0 
L 3669 0 
L 3244 1197 
L 1141 1197 
L 716 0 
L 50 0 
L 1831 4666 
z
" transform="scale(0.015625)"/>
      <path id="DejaVuSans-79" d="M 2059 -325 
Q 1816 -950 1584 -1140 
Q 1353 -1331 966 -1331 
L 506 -1331 
L 506 -850 
L 844 -850 
Q 1081 -850 1212 -737 
Q 1344 -625 1503 -206 
L 1606 56 
L 191 3500 
L 800 3500 
L 1894 763 
L 2988 3500 
L 3597 3500 
L 2059 -325 
z
" transform="scale(0.015625)"/>
      <path id="DejaVuSans-66" d="M 2375 4863 
L 2375 4384 
L 1825 4384 
Q 1516 4384 1395 4259 
Q 1275 4134 1275 3809 
L 1275 3500 
L 2222 3500 
L 2222 3053 
L 1275 3053 
L 1275 0 
L 697 0 
L 697 3053 
L 147 3053 
L 147 3500 
L 697 3500 
L 697 3744 
Q 697 4328 969 4595 
Q 1241 4863 1831 4863 
L 2375 4863 
z
" transform="scale(0.015625)"/>
      <path id="DejaVuSans-4e" d="M 628 4666 
L 1478 4666 
L 3547 763 
L 3547 4666 
L 4159 4666 
L 4159 0 
L 3309 0 
L 1241 3903 
L 1241 0 
L 628 0 
L 628 4666 
z
" transform="scale(0.015625)"/>
      <path id="DejaVuSans-75" d="M 544 1381 
L 544 3500 
L 1119 3500 
L 1119 1403 
Q 1119 906 1312 657 
Q 1506 409 1894 409 
Q 2359 409 2629 706 
Q 2900 1003 2900 1516 
L 2900 3500 
L 3475 3500 
L 3475 0 
L 2900 0 
L 2900 538 
Q 2691 219 2414 64 
Q 2138 -91 1772 -91 
Q 1169 -91 856 284 
Q 544 659 544 1381 
z
M 1991 3584 
L 1991 3584 
z
" transform="scale(0.015625)"/>
      <path id="DejaVuSans-58" d="M 403 4666 
L 1081 4666 
L 2241 2931 
L 3406 4666 
L 4084 4666 
L 2584 2425 
L 4184 0 
L 3506 0 
L 2194 1984 
L 872 0 
L 191 0 
L 1856 2491 
L 403 4666 
z
" transform="scale(0.015625)"/>
      <path id="DejaVuSans-48" d="M 628 4666 
L 1259 4666 
L 1259 2753 
L 3553 2753 
L 3553 4666 
L 4184 4666 
L 4184 0 
L 3553 0 
L 3553 2222 
L 1259 2222 
L 1259 0 
L 628 0 
L 628 4666 
z
" transform="scale(0.015625)"/>
      <path id="DejaVuSans-62" d="M 3116 1747 
Q 3116 2381 2855 2742 
Q 2594 3103 2138 3103 
Q 1681 3103 1420 2742 
Q 1159 2381 1159 1747 
Q 1159 1113 1420 752 
Q 1681 391 2138 391 
Q 2594 391 2855 752 
Q 3116 1113 3116 1747 
z
M 1159 2969 
Q 1341 3281 1617 3432 
Q 1894 3584 2278 3584 
Q 2916 3584 3314 3078 
Q 3713 2572 3713 1747 
Q 3713 922 3314 415 
Q 2916 -91 2278 -91 
Q 1894 -91 1617 61 
Q 1341 213 1159 525 
L 1159 0 
L 581 0 
L 581 4863 
L 1159 4863 
L 1159 2969 
z
" transform="scale(0.015625)"/>
      <path id="DejaVuSans-64" d="M 2906 2969 
L 2906 4863 
L 3481 4863 
L 3481 0 
L 2906 0 
L 2906 525 
Q 2725 213 2448 61 
Q 2172 -91 1784 -91 
Q 1150 -91 751 415 
Q 353 922 353 1747 
Q 353 2572 751 3078 
Q 1150 3584 1784 3584 
Q 2172 3584 2448 3432 
Q 2725 3281 2906 2969 
z
M 947 1747 
Q 947 1113 1208 752 
Q 1469 391 1925 391 
Q 2381 391 2643 752 
Q 2906 1113 2906 1747 
Q 2906 2381 2643 2742 
Q 2381 3103 1925 3103 
Q 1469 3103 1208 2742 
Q 947 2381 947 1747 
z
" transform="scale(0.015625)"/>
      <path id="DejaVuSans-53" d="M 3425 4513 
L 3425 3897 
Q 3066 4069 2747 4153 
Q 2428 4238 2131 4238 
Q 1616 4238 1336 4038 
Q 1056 3838 1056 3469 
Q 1056 3159 1242 3001 
Q 1428 2844 1947 2747 
L 2328 2669 
Q 3034 2534 3370 2195 
Q 3706 1856 3706 1288 
Q 3706 609 3251 259 
Q 2797 -91 1919 -91 
Q 1588 -91 1214 -16 
Q 841 59 441 206 
L 441 856 
Q 825 641 1194 531 
Q 1563 422 1919 422 
Q 2459 422 2753 634 
Q 3047 847 3047 1241 
Q 3047 1584 2836 1778 
Q 2625 1972 2144 2069 
L 1759 2144 
Q 1053 2284 737 2584 
Q 422 2884 422 3419 
Q 422 4038 858 4394 
Q 1294 4750 2059 4750 
Q 2388 4750 2728 4690 
Q 3069 4631 3425 4513 
z
" transform="scale(0.015625)"/>
      <path id="DejaVuSans-76" d="M 191 3500 
L 800 3500 
L 1894 563 
L 2988 3500 
L 3597 3500 
L 2284 0 
L 1503 0 
L 191 3500 
z
" transform="scale(0.015625)"/>
     </defs>
     <use xlink:href="#DejaVuSans-54"/>
     <use xlink:href="#DejaVuSans-72" x="46.333984"/>
     <use xlink:href="#DejaVuSans-61" x="87.447266"/>
     <use xlink:href="#DejaVuSans-6e" x="148.726562"/>
     <use xlink:href="#DejaVuSans-73" x="212.105469"/>
     <use xlink:href="#DejaVuSans-69" x="264.205078"/>
     <use xlink:href="#DejaVuSans-65" x="291.988281"/>
     <use xlink:href="#DejaVuSans-6e" x="353.511719"/>
     <use xlink:href="#DejaVuSans-74" x="416.890625"/>
     <use xlink:href="#DejaVuSans-20" x="456.099609"/>
     <use xlink:href="#DejaVuSans-41" x="487.886719"/>
     <use xlink:href="#DejaVuSans-6e" x="556.294922"/>
     <use xlink:href="#DejaVuSans-61" x="619.673828"/>
     <use xlink:href="#DejaVuSans-6c" x="680.953125"/>
     <use xlink:href="#DejaVuSans-79" x="708.736328"/>
     <use xlink:href="#DejaVuSans-73" x="767.916016"/>
     <use xlink:href="#DejaVuSans-69" x="820.015625"/>
     <use xlink:href="#DejaVuSans-73" x="847.798828"/>
     <use xlink:href="#DejaVuSans-20" x="899.898438"/>
     <use xlink:href="#DejaVuSans-6f" x="931.685547"/>
     <use xlink:href="#DejaVuSans-66" x="992.867188"/>
     <use xlink:href="#DejaVuSans-20" x="1028.072266"/>
     <use xlink:href="#DejaVuSans-4e" x="1059.859375"/>
     <use xlink:href="#DejaVuSans-65" x="1134.664062"/>
     <use xlink:href="#DejaVuSans-75" x="1196.1875"/>
     <use xlink:href="#DejaVuSans-72" x="1259.566406"/>
     <use xlink:href="#DejaVuSans-58" x="1300.679688"/>
     <use xlink:href="#DejaVuSans-20" x="1369.185547"/>
     <use xlink:href="#DejaVuSans-48" x="1400.972656"/>
     <use xlink:href="#DejaVuSans-79" x="1476.167969"/>
     <use xlink:href="#DejaVuSans-62" x="1535.347656"/>
     <use xlink:href="#DejaVuSans-72" x="1598.824219"/>
     <use xlink:href="#DejaVuSans-69" x="1639.9375"/>
     <use xlink:href="#DejaVuSans-64" x="1667.720703"/>
     <use xlink:href="#DejaVuSans-20" x="1731.197266"/>
     <use xlink:href="#DejaVuSans-53" x="1762.984375"/>
     <use xlink:href="#DejaVuSans-79" x="1826.460938"/>
     <use xlink:href="#DejaVuSans-73" x="1885.640625"/>
     <use xlink:href="#DejaVuSans-74" x="1937.740234"/>
     <use xlink:href="#DejaVuSans-65" x="1976.949219"/>
     <use xlink:href="#DejaVuSans-6d" x="2038.472656"/>
     <use xlink:href="#DejaVuSans-20" x="2135.884766"/>
     <use xlink:href="#DejaVuSans-76" x="2167.671875"/>
     <use xlink:href="#DejaVuSans-30" x="2226.851562"/>
     <use xlink:href="#DejaVuSans-2e" x="2290.474609"/>
     <use xlink:href="#DejaVuSans-31" x="2322.261719"/>
     <use xlink:href="#DejaVuSans-30" x="2385.884766"/>
    </g>
   </g>
   <g id="legend_1">
    <g id="patch_7">
     <path d="M 658.339063 231.977188 
L 702.2 231.977188 
Q 704.2 231.977188 704.2 229.977188 
L 704.2 186.942813 
Q 704.2 184.942813 702.2 184.942813 
L 658.339063 184.942813 
Q 656.339063 184.942813 656.339063 186.942813 
L 656.339063 229.977188 
Q 656.339063 231.977188 658.339063 231.977188 
z
" style="fill: #ffffff; opacity: 0.8; stroke: #cccccc; stroke-linejoin: miter"/>
    </g>
    <g id="line2d_40">
     <path d="M 660.339063 193.04125 
L 670.339063 193.04125 
L 680.339063 193.04125 
" style="fill: none; stroke: #1f77b4; stroke-width: 1.5; stroke-linecap: square"/>
    </g>
    <g id="text_22">
     <!-- c1 -->
     <g transform="translate(688.339063 196.54125) scale(0.1 -0.1)">
      <defs>
       <path id="DejaVuSans-63" d="M 3122 3366 
L 3122 2828 
Q 2878 2963 2633 3030 
Q 2388 3097 2138 3097 
Q 1578 3097 1268 2742 
Q 959 2388 959 1747 
Q 959 1106 1268 751 
Q 1578 397 2138 397 
Q 2388 397 2633 464 
Q 2878 531 3122 666 
L 3122 134 
Q 2881 22 2623 -34 
Q 2366 -91 2075 -91 
Q 1284 -91 818 406 
Q 353 903 353 1747 
Q 353 2603 823 3093 
Q 1294 3584 2113 3584 
Q 2378 3584 2631 3529 
Q 2884 3475 3122 3366 
z
" transform="scale(0.015625)"/>
      </defs>
      <use xlink:href="#DejaVuSans-63"/>
      <use xlink:href="#DejaVuSans-31" x="54.980469"/>
     </g>
    </g>
    <g id="line2d_41">
     <path d="M 660.339063 207.719375 
L 670.339063 207.719375 
L 680.339063 207.719375 
" style="fill: none; stroke: #ff7f0e; stroke-width: 1.5; stroke-linecap: square"/>
    </g>
    <g id="text_23">
     <!-- c3 -->
     <g transform="translate(688.339063 211.219375) scale(0.1 -0.1)">
      <use xlink:href="#DejaVuSans-63"/>
      <use xlink:href="#DejaVuSans-33" x="54.980469"/>
     </g>
    </g>
    <g id="line2d_42">
     <path d="M 660.339063 222.3975 
L 670.339063 222.3975 
L 680.339063 222.3975 
" style="fill: none; stroke: #2ca02c; stroke-width: 1.5; stroke-linecap: square"/>
    </g>
    <g id="text_24">
     <!-- c4 -->
     <g transform="translate(688.339063 225.8975) scale(0.1 -0.1)">
      <use xlink:href="#DejaVuSans-63"/>
      <use xlink:href="#DejaVuSans-34" x="54.980469"/>
     </g>
    </g>
   </g>
  </g>
 </g>
 <defs>
  <clipPath id="p967ad2a325">
   <rect x="106.22" y="26.88" width="602.98" height="363.16"/>
  </clipPath>
 </defs>
</svg>
