<?xml version="1.0" encoding="utf-8" standalone="no"?>
<!DOCTYPE svg PUBLIC "-//W3C//DTD SVG 1.1//EN"
  "http://www.w3.org/Graphics/SVG/1.1/DTD/svg11.dtd">
<svg xmlns:xlink="http://www.w3.org/1999/xlink" width="720pt" height="432pt" viewBox="0 0 720 432" xmlns="http://www.w3.org/2000/svg" version="1.1">
 <metadata>
  <rdf:RDF xmlns:dc="http://purl.org/dc/elements/1.1/" xmlns:cc="http://creativecommons.org/ns#" xmlns:rdf="http://www.w3.org/1999/02/22-rdf-syntax-ns#">
   <cc:Work>
    <dc:type rdf:resource="http://purl.org/dc/dcmitype/StillImage"/>
    <dc:date>2024-06-28T13:36:42.034468</dc:date>
    <dc:format>image/svg+xml</dc:format>
    <dc:creator>
     <cc:Agent>
      <dc:title>Matplotlib v3.9.0, https://matplotlib.org/</dc:title>
     </cc:Agent>
    </dc:creator>
   </cc:Work>
  </rdf:RDF>
 </metadata>
 <defs>
  <style type="text/css">*{stroke-linejoin: round; stroke-linecap: butt}</style>
 </defs>
 <g id="figure_1">
  <g id="patch_1">
   <path d="M 0 432 
L 720 432 
L 720 0 
L 0 0 
z
" style="fill: #ffffff"/>
  </g>
  <g id="axes_1">
   <g id="patch_2">
    <path d="M 106.22 390.04 
L 709.2 390.04 
L 709.2 26.88 
L 106.22 26.88 
z
" style="fill: #ffffff"/>
   </g>
   <g id="matplotlib.axis_1">
    <g id="xtick_1">
     <g id="line2d_1">
      <path d="M 133.628182 390.04 
L 133.628182 26.88 
" clip-path="url(#pc827afa4bd)" style="fill: none; stroke: #b0b0b0; stroke-width: 0.8; stroke-linecap: square"/>
     </g>
     <g id="line2d_2">
      <defs>
       <path id="ma8cde475be" d="M 0 0 
L 0 3.5 
" style="stroke: #000000; stroke-width: 0.8"/>
      </defs>
      <g>
       <use xlink:href="#ma8cde475be" x="133.628182" y="390.04" style="stroke: #000000; stroke-width: 0.8"/>
      </g>
     </g>
     <g id="text_1">
      <!-- 0.000000e+00 -->
      <g transform="translate(96.141463 404.638438) scale(0.1 -0.1)">
       <defs>
        <path id="DejaVuSans-30" d="M 2034 4250 
Q 1547 4250 1301 3770 
Q 1056 3291 1056 2328 
Q 1056 1369 1301 889 
Q 1547 409 2034 409 
Q 2525 409 2770 889 
Q 3016 1369 3016 2328 
Q 3016 3291 2770 3770 
Q 2525 4250 2034 4250 
z
M 2034 4750 
Q 2819 4750 3233 4129 
Q 3647 3509 3647 2328 
Q 3647 1150 3233 529 
Q 2819 -91 2034 -91 
Q 1250 -91 836 529 
Q 422 1150 422 2328 
Q 422 3509 836 4129 
Q 1250 4750 2034 4750 
z
" transform="scale(0.015625)"/>
        <path id="DejaVuSans-2e" d="M 684 794 
L 1344 794 
L 1344 0 
L 684 0 
L 684 794 
z
" transform="scale(0.015625)"/>
        <path id="DejaVuSans-65" d="M 3597 1894 
L 3597 1613 
L 953 1613 
Q 991 1019 1311 708 
Q 1631 397 2203 397 
Q 2534 397 2845 478 
Q 3156 559 3463 722 
L 3463 178 
Q 3153 47 2828 -22 
Q 2503 -91 2169 -91 
Q 1331 -91 842 396 
Q 353 884 353 1716 
Q 353 2575 817 3079 
Q 1281 3584 2069 3584 
Q 2775 3584 3186 3129 
Q 3597 2675 3597 1894 
z
M 3022 2063 
Q 3016 2534 2758 2815 
Q 2500 3097 2075 3097 
Q 1594 3097 1305 2825 
Q 1016 2553 972 2059 
L 3022 2063 
z
" transform="scale(0.015625)"/>
        <path id="DejaVuSans-2b" d="M 2944 4013 
L 2944 2272 
L 4684 2272 
L 4684 1741 
L 2944 1741 
L 2944 0 
L 2419 0 
L 2419 1741 
L 678 1741 
L 678 2272 
L 2419 2272 
L 2419 4013 
L 2944 4013 
z
" transform="scale(0.015625)"/>
       </defs>
       <use xlink:href="#DejaVuSans-30"/>
       <use xlink:href="#DejaVuSans-2e" x="63.623047"/>
       <use xlink:href="#DejaVuSans-30" x="95.410156"/>
       <use xlink:href="#DejaVuSans-30" x="159.033203"/>
       <use xlink:href="#DejaVuSans-30" x="222.65625"/>
       <use xlink:href="#DejaVuSans-30" x="286.279297"/>
       <use xlink:href="#DejaVuSans-30" x="349.902344"/>
       <use xlink:href="#DejaVuSans-30" x="413.525391"/>
       <use xlink:href="#DejaVuSans-65" x="477.148438"/>
       <use xlink:href="#DejaVuSans-2b" x="538.671875"/>
       <use xlink:href="#DejaVuSans-30" x="622.460938"/>
       <use xlink:href="#DejaVuSans-30" x="686.083984"/>
      </g>
     </g>
    </g>
    <g id="xtick_2">
     <g id="line2d_3">
      <path d="M 206.96111 390.04 
L 206.96111 26.88 
" clip-path="url(#pc827afa4bd)" style="fill: none; stroke: #b0b0b0; stroke-width: 0.8; stroke-linecap: square"/>
     </g>
     <g id="line2d_4">
      <g>
       <use xlink:href="#ma8cde475be" x="206.96111" y="390.04" style="stroke: #000000; stroke-width: 0.8"/>
      </g>
     </g>
     <g id="text_2">
      <!-- 1.256000e-08 -->
      <g transform="translate(171.860329 404.638438) scale(0.1 -0.1)">
       <defs>
        <path id="DejaVuSans-31" d="M 794 531 
L 1825 531 
L 1825 4091 
L 703 3866 
L 703 4441 
L 1819 4666 
L 2450 4666 
L 2450 531 
L 3481 531 
L 3481 0 
L 794 0 
L 794 531 
z
" transform="scale(0.015625)"/>
        <path id="DejaVuSans-32" d="M 1228 531 
L 3431 531 
L 3431 0 
L 469 0 
L 469 531 
Q 828 903 1448 1529 
Q 2069 2156 2228 2338 
Q 2531 2678 2651 2914 
Q 2772 3150 2772 3378 
Q 2772 3750 2511 3984 
Q 2250 4219 1831 4219 
Q 1534 4219 1204 4116 
Q 875 4013 500 3803 
L 500 4441 
Q 881 4594 1212 4672 
Q 1544 4750 1819 4750 
Q 2544 4750 2975 4387 
Q 3406 4025 3406 3419 
Q 3406 3131 3298 2873 
Q 3191 2616 2906 2266 
Q 2828 2175 2409 1742 
Q 1991 1309 1228 531 
z
" transform="scale(0.015625)"/>
        <path id="DejaVuSans-35" d="M 691 4666 
L 3169 4666 
L 3169 4134 
L 1269 4134 
L 1269 2991 
Q 1406 3038 1543 3061 
Q 1681 3084 1819 3084 
Q 2600 3084 3056 2656 
Q 3513 2228 3513 1497 
Q 3513 744 3044 326 
Q 2575 -91 1722 -91 
Q 1428 -91 1123 -41 
Q 819 9 494 109 
L 494 744 
Q 775 591 1075 516 
Q 1375 441 1709 441 
Q 2250 441 2565 725 
Q 2881 1009 2881 1497 
Q 2881 1984 2565 2268 
Q 2250 2553 1709 2553 
Q 1456 2553 1204 2497 
Q 953 2441 691 2322 
L 691 4666 
z
" transform="scale(0.015625)"/>
        <path id="DejaVuSans-36" d="M 2113 2584 
Q 1688 2584 1439 2293 
Q 1191 2003 1191 1497 
Q 1191 994 1439 701 
Q 1688 409 2113 409 
Q 2538 409 2786 701 
Q 3034 994 3034 1497 
Q 3034 2003 2786 2293 
Q 2538 2584 2113 2584 
z
M 3366 4563 
L 3366 3988 
Q 3128 4100 2886 4159 
Q 2644 4219 2406 4219 
Q 1781 4219 1451 3797 
Q 1122 3375 1075 2522 
Q 1259 2794 1537 2939 
Q 1816 3084 2150 3084 
Q 2853 3084 3261 2657 
Q 3669 2231 3669 1497 
Q 3669 778 3244 343 
Q 2819 -91 2113 -91 
Q 1303 -91 875 529 
Q 447 1150 447 2328 
Q 447 3434 972 4092 
Q 1497 4750 2381 4750 
Q 2619 4750 2861 4703 
Q 3103 4656 3366 4563 
z
" transform="scale(0.015625)"/>
        <path id="DejaVuSans-2d" d="M 313 2009 
L 1997 2009 
L 1997 1497 
L 313 1497 
L 313 2009 
z
" transform="scale(0.015625)"/>
        <path id="DejaVuSans-38" d="M 2034 2216 
Q 1584 2216 1326 1975 
Q 1069 1734 1069 1313 
Q 1069 891 1326 650 
Q 1584 409 2034 409 
Q 2484 409 2743 651 
Q 3003 894 3003 1313 
Q 3003 1734 2745 1975 
Q 2488 2216 2034 2216 
z
M 1403 2484 
Q 997 2584 770 2862 
Q 544 3141 544 3541 
Q 544 4100 942 4425 
Q 1341 4750 2034 4750 
Q 2731 4750 3128 4425 
Q 3525 4100 3525 3541 
Q 3525 3141 3298 2862 
Q 3072 2584 2669 2484 
Q 3125 2378 3379 2068 
Q 3634 1759 3634 1313 
Q 3634 634 3220 271 
Q 2806 -91 2034 -91 
Q 1263 -91 848 271 
Q 434 634 434 1313 
Q 434 1759 690 2068 
Q 947 2378 1403 2484 
z
M 1172 3481 
Q 1172 3119 1398 2916 
Q 1625 2713 2034 2713 
Q 2441 2713 2670 2916 
Q 2900 3119 2900 3481 
Q 2900 3844 2670 4047 
Q 2441 4250 2034 4250 
Q 1625 4250 1398 4047 
Q 1172 3844 1172 3481 
z
" transform="scale(0.015625)"/>
       </defs>
       <use xlink:href="#DejaVuSans-31"/>
       <use xlink:href="#DejaVuSans-2e" x="63.623047"/>
       <use xlink:href="#DejaVuSans-32" x="95.410156"/>
       <use xlink:href="#DejaVuSans-35" x="159.033203"/>
       <use xlink:href="#DejaVuSans-36" x="222.65625"/>
       <use xlink:href="#DejaVuSans-30" x="286.279297"/>
       <use xlink:href="#DejaVuSans-30" x="349.902344"/>
       <use xlink:href="#DejaVuSans-30" x="413.525391"/>
       <use xlink:href="#DejaVuSans-65" x="477.148438"/>
       <use xlink:href="#DejaVuSans-2d" x="538.671875"/>
       <use xlink:href="#DejaVuSans-30" x="574.755859"/>
       <use xlink:href="#DejaVuSans-38" x="638.378906"/>
      </g>
     </g>
    </g>
    <g id="xtick_3">
     <g id="line2d_5">
      <path d="M 280.294038 390.04 
L 280.294038 26.88 
" clip-path="url(#pc827afa4bd)" style="fill: none; stroke: #b0b0b0; stroke-width: 0.8; stroke-linecap: square"/>
     </g>
     <g id="line2d_6">
      <g>
       <use xlink:href="#ma8cde475be" x="280.294038" y="390.04" style="stroke: #000000; stroke-width: 0.8"/>
      </g>
     </g>
     <g id="text_3">
      <!-- 2.624000e-08 -->
      <g transform="translate(245.193256 404.638438) scale(0.1 -0.1)">
       <defs>
        <path id="DejaVuSans-34" d="M 2419 4116 
L 825 1625 
L 2419 1625 
L 2419 4116 
z
M 2253 4666 
L 3047 4666 
L 3047 1625 
L 3713 1625 
L 3713 1100 
L 3047 1100 
L 3047 0 
L 2419 0 
L 2419 1100 
L 313 1100 
L 313 1709 
L 2253 4666 
z
" transform="scale(0.015625)"/>
       </defs>
       <use xlink:href="#DejaVuSans-32"/>
       <use xlink:href="#DejaVuSans-2e" x="63.623047"/>
       <use xlink:href="#DejaVuSans-36" x="95.410156"/>
       <use xlink:href="#DejaVuSans-32" x="159.033203"/>
       <use xlink:href="#DejaVuSans-34" x="222.65625"/>
       <use xlink:href="#DejaVuSans-30" x="286.279297"/>
       <use xlink:href="#DejaVuSans-30" x="349.902344"/>
       <use xlink:href="#DejaVuSans-30" x="413.525391"/>
       <use xlink:href="#DejaVuSans-65" x="477.148438"/>
       <use xlink:href="#DejaVuSans-2d" x="538.671875"/>
       <use xlink:href="#DejaVuSans-30" x="574.755859"/>
       <use xlink:href="#DejaVuSans-38" x="638.378906"/>
      </g>
     </g>
    </g>
    <g id="xtick_4">
     <g id="line2d_7">
      <path d="M 353.626966 390.04 
L 353.626966 26.88 
" clip-path="url(#pc827afa4bd)" style="fill: none; stroke: #b0b0b0; stroke-width: 0.8; stroke-linecap: square"/>
     </g>
     <g id="line2d_8">
      <g>
       <use xlink:href="#ma8cde475be" x="353.626966" y="390.04" style="stroke: #000000; stroke-width: 0.8"/>
      </g>
     </g>
     <g id="text_4">
      <!-- 4.008000e-08 -->
      <g transform="translate(318.526184 404.638438) scale(0.1 -0.1)">
       <use xlink:href="#DejaVuSans-34"/>
       <use xlink:href="#DejaVuSans-2e" x="63.623047"/>
       <use xlink:href="#DejaVuSans-30" x="95.410156"/>
       <use xlink:href="#DejaVuSans-30" x="159.033203"/>
       <use xlink:href="#DejaVuSans-38" x="222.65625"/>
       <use xlink:href="#DejaVuSans-30" x="286.279297"/>
       <use xlink:href="#DejaVuSans-30" x="349.902344"/>
       <use xlink:href="#DejaVuSans-30" x="413.525391"/>
       <use xlink:href="#DejaVuSans-65" x="477.148438"/>
       <use xlink:href="#DejaVuSans-2d" x="538.671875"/>
       <use xlink:href="#DejaVuSans-30" x="574.755859"/>
       <use xlink:href="#DejaVuSans-38" x="638.378906"/>
      </g>
     </g>
    </g>
    <g id="xtick_5">
     <g id="line2d_9">
      <path d="M 426.959894 390.04 
L 426.959894 26.88 
" clip-path="url(#pc827afa4bd)" style="fill: none; stroke: #b0b0b0; stroke-width: 0.8; stroke-linecap: square"/>
     </g>
     <g id="line2d_10">
      <g>
       <use xlink:href="#ma8cde475be" x="426.959894" y="390.04" style="stroke: #000000; stroke-width: 0.8"/>
      </g>
     </g>
     <g id="text_5">
      <!-- 5.224000e-08 -->
      <g transform="translate(391.859112 404.638438) scale(0.1 -0.1)">
       <use xlink:href="#DejaVuSans-35"/>
       <use xlink:href="#DejaVuSans-2e" x="63.623047"/>
       <use xlink:href="#DejaVuSans-32" x="95.410156"/>
       <use xlink:href="#DejaVuSans-32" x="159.033203"/>
       <use xlink:href="#DejaVuSans-34" x="222.65625"/>
       <use xlink:href="#DejaVuSans-30" x="286.279297"/>
       <use xlink:href="#DejaVuSans-30" x="349.902344"/>
       <use xlink:href="#DejaVuSans-30" x="413.525391"/>
       <use xlink:href="#DejaVuSans-65" x="477.148438"/>
       <use xlink:href="#DejaVuSans-2d" x="538.671875"/>
       <use xlink:href="#DejaVuSans-30" x="574.755859"/>
       <use xlink:href="#DejaVuSans-38" x="638.378906"/>
      </g>
     </g>
    </g>
    <g id="xtick_6">
     <g id="line2d_11">
      <path d="M 500.292822 390.04 
L 500.292822 26.88 
" clip-path="url(#pc827afa4bd)" style="fill: none; stroke: #b0b0b0; stroke-width: 0.8; stroke-linecap: square"/>
     </g>
     <g id="line2d_12">
      <g>
       <use xlink:href="#ma8cde475be" x="500.292822" y="390.04" style="stroke: #000000; stroke-width: 0.8"/>
      </g>
     </g>
     <g id="text_6">
      <!-- 6.624000e-08 -->
      <g transform="translate(465.19204 404.638438) scale(0.1 -0.1)">
       <use xlink:href="#DejaVuSans-36"/>
       <use xlink:href="#DejaVuSans-2e" x="63.623047"/>
       <use xlink:href="#DejaVuSans-36" x="95.410156"/>
       <use xlink:href="#DejaVuSans-32" x="159.033203"/>
       <use xlink:href="#DejaVuSans-34" x="222.65625"/>
       <use xlink:href="#DejaVuSans-30" x="286.279297"/>
       <use xlink:href="#DejaVuSans-30" x="349.902344"/>
       <use xlink:href="#DejaVuSans-30" x="413.525391"/>
       <use xlink:href="#DejaVuSans-65" x="477.148438"/>
       <use xlink:href="#DejaVuSans-2d" x="538.671875"/>
       <use xlink:href="#DejaVuSans-30" x="574.755859"/>
       <use xlink:href="#DejaVuSans-38" x="638.378906"/>
      </g>
     </g>
    </g>
    <g id="xtick_7">
     <g id="line2d_13">
      <path d="M 573.625749 390.04 
L 573.625749 26.88 
" clip-path="url(#pc827afa4bd)" style="fill: none; stroke: #b0b0b0; stroke-width: 0.8; stroke-linecap: square"/>
     </g>
     <g id="line2d_14">
      <g>
       <use xlink:href="#ma8cde475be" x="573.625749" y="390.04" style="stroke: #000000; stroke-width: 0.8"/>
      </g>
     </g>
     <g id="text_7">
      <!-- 8.008000e-08 -->
      <g transform="translate(538.524968 404.638438) scale(0.1 -0.1)">
       <use xlink:href="#DejaVuSans-38"/>
       <use xlink:href="#DejaVuSans-2e" x="63.623047"/>
       <use xlink:href="#DejaVuSans-30" x="95.410156"/>
       <use xlink:href="#DejaVuSans-30" x="159.033203"/>
       <use xlink:href="#DejaVuSans-38" x="222.65625"/>
       <use xlink:href="#DejaVuSans-30" x="286.279297"/>
       <use xlink:href="#DejaVuSans-30" x="349.902344"/>
       <use xlink:href="#DejaVuSans-30" x="413.525391"/>
       <use xlink:href="#DejaVuSans-65" x="477.148438"/>
       <use xlink:href="#DejaVuSans-2d" x="538.671875"/>
       <use xlink:href="#DejaVuSans-30" x="574.755859"/>
       <use xlink:href="#DejaVuSans-38" x="638.378906"/>
      </g>
     </g>
    </g>
    <g id="xtick_8">
     <g id="line2d_15">
      <path d="M 646.958677 390.04 
L 646.958677 26.88 
" clip-path="url(#pc827afa4bd)" style="fill: none; stroke: #b0b0b0; stroke-width: 0.8; stroke-linecap: square"/>
     </g>
     <g id="line2d_16">
      <g>
       <use xlink:href="#ma8cde475be" x="646.958677" y="390.04" style="stroke: #000000; stroke-width: 0.8"/>
      </g>
     </g>
     <g id="text_8">
      <!-- 9.224000e-08 -->
      <g transform="translate(611.857896 404.638438) scale(0.1 -0.1)">
       <defs>
        <path id="DejaVuSans-39" d="M 703 97 
L 703 672 
Q 941 559 1184 500 
Q 1428 441 1663 441 
Q 2288 441 2617 861 
Q 2947 1281 2994 2138 
Q 2813 1869 2534 1725 
Q 2256 1581 1919 1581 
Q 1219 1581 811 2004 
Q 403 2428 403 3163 
Q 403 3881 828 4315 
Q 1253 4750 1959 4750 
Q 2769 4750 3195 4129 
Q 3622 3509 3622 2328 
Q 3622 1225 3098 567 
Q 2575 -91 1691 -91 
Q 1453 -91 1209 -44 
Q 966 3 703 97 
z
M 1959 2075 
Q 2384 2075 2632 2365 
Q 2881 2656 2881 3163 
Q 2881 3666 2632 3958 
Q 2384 4250 1959 4250 
Q 1534 4250 1286 3958 
Q 1038 3666 1038 3163 
Q 1038 2656 1286 2365 
Q 1534 2075 1959 2075 
z
" transform="scale(0.015625)"/>
       </defs>
       <use xlink:href="#DejaVuSans-39"/>
       <use xlink:href="#DejaVuSans-2e" x="63.623047"/>
       <use xlink:href="#DejaVuSans-32" x="95.410156"/>
       <use xlink:href="#DejaVuSans-32" x="159.033203"/>
       <use xlink:href="#DejaVuSans-34" x="222.65625"/>
       <use xlink:href="#DejaVuSans-30" x="286.279297"/>
       <use xlink:href="#DejaVuSans-30" x="349.902344"/>
       <use xlink:href="#DejaVuSans-30" x="413.525391"/>
       <use xlink:href="#DejaVuSans-65" x="477.148438"/>
       <use xlink:href="#DejaVuSans-2d" x="538.671875"/>
       <use xlink:href="#DejaVuSans-30" x="574.755859"/>
       <use xlink:href="#DejaVuSans-38" x="638.378906"/>
      </g>
     </g>
    </g>
    <g id="text_9">
     <!-- Time (s) -->
     <g transform="translate(387.381094 418.316562) scale(0.1 -0.1)">
      <defs>
       <path id="DejaVuSans-54" d="M -19 4666 
L 3928 4666 
L 3928 4134 
L 2272 4134 
L 2272 0 
L 1638 0 
L 1638 4134 
L -19 4134 
L -19 4666 
z
" transform="scale(0.015625)"/>
       <path id="DejaVuSans-69" d="M 603 3500 
L 1178 3500 
L 1178 0 
L 603 0 
L 603 3500 
z
M 603 4863 
L 1178 4863 
L 1178 4134 
L 603 4134 
L 603 4863 
z
" transform="scale(0.015625)"/>
       <path id="DejaVuSans-6d" d="M 3328 2828 
Q 3544 3216 3844 3400 
Q 4144 3584 4550 3584 
Q 5097 3584 5394 3201 
Q 5691 2819 5691 2113 
L 5691 0 
L 5113 0 
L 5113 2094 
Q 5113 2597 4934 2840 
Q 4756 3084 4391 3084 
Q 3944 3084 3684 2787 
Q 3425 2491 3425 1978 
L 3425 0 
L 2847 0 
L 2847 2094 
Q 2847 2600 2669 2842 
Q 2491 3084 2119 3084 
Q 1678 3084 1418 2786 
Q 1159 2488 1159 1978 
L 1159 0 
L 581 0 
L 581 3500 
L 1159 3500 
L 1159 2956 
Q 1356 3278 1631 3431 
Q 1906 3584 2284 3584 
Q 2666 3584 2933 3390 
Q 3200 3197 3328 2828 
z
" transform="scale(0.015625)"/>
       <path id="DejaVuSans-20" transform="scale(0.015625)"/>
       <path id="DejaVuSans-28" d="M 1984 4856 
Q 1566 4138 1362 3434 
Q 1159 2731 1159 2009 
Q 1159 1288 1364 580 
Q 1569 -128 1984 -844 
L 1484 -844 
Q 1016 -109 783 600 
Q 550 1309 550 2009 
Q 550 2706 781 3412 
Q 1013 4119 1484 4856 
L 1984 4856 
z
" transform="scale(0.015625)"/>
       <path id="DejaVuSans-73" d="M 2834 3397 
L 2834 2853 
Q 2591 2978 2328 3040 
Q 2066 3103 1784 3103 
Q 1356 3103 1142 2972 
Q 928 2841 928 2578 
Q 928 2378 1081 2264 
Q 1234 2150 1697 2047 
L 1894 2003 
Q 2506 1872 2764 1633 
Q 3022 1394 3022 966 
Q 3022 478 2636 193 
Q 2250 -91 1575 -91 
Q 1294 -91 989 -36 
Q 684 19 347 128 
L 347 722 
Q 666 556 975 473 
Q 1284 391 1588 391 
Q 1994 391 2212 530 
Q 2431 669 2431 922 
Q 2431 1156 2273 1281 
Q 2116 1406 1581 1522 
L 1381 1569 
Q 847 1681 609 1914 
Q 372 2147 372 2553 
Q 372 3047 722 3315 
Q 1072 3584 1716 3584 
Q 2034 3584 2315 3537 
Q 2597 3491 2834 3397 
z
" transform="scale(0.015625)"/>
       <path id="DejaVuSans-29" d="M 513 4856 
L 1013 4856 
Q 1481 4119 1714 3412 
Q 1947 2706 1947 2009 
Q 1947 1309 1714 600 
Q 1481 -109 1013 -844 
L 513 -844 
Q 928 -128 1133 580 
Q 1338 1288 1338 2009 
Q 1338 2731 1133 3434 
Q 928 4138 513 4856 
z
" transform="scale(0.015625)"/>
      </defs>
      <use xlink:href="#DejaVuSans-54"/>
      <use xlink:href="#DejaVuSans-69" x="57.958984"/>
      <use xlink:href="#DejaVuSans-6d" x="85.742188"/>
      <use xlink:href="#DejaVuSans-65" x="183.154297"/>
      <use xlink:href="#DejaVuSans-20" x="244.677734"/>
      <use xlink:href="#DejaVuSans-28" x="276.464844"/>
      <use xlink:href="#DejaVuSans-73" x="315.478516"/>
      <use xlink:href="#DejaVuSans-29" x="367.578125"/>
     </g>
    </g>
   </g>
   <g id="matplotlib.axis_2">
    <g id="ytick_1">
     <g id="line2d_17">
      <path d="M 106.22 373.532727 
L 709.2 373.532727 
" clip-path="url(#pc827afa4bd)" style="fill: none; stroke: #b0b0b0; stroke-width: 0.8; stroke-linecap: square"/>
     </g>
     <g id="line2d_18">
      <defs>
       <path id="m4fc0b402be" d="M 0 0 
L -3.5 0 
" style="stroke: #000000; stroke-width: 0.8"/>
      </defs>
      <g>
       <use xlink:href="#m4fc0b402be" x="106.22" y="373.532727" style="stroke: #000000; stroke-width: 0.8"/>
      </g>
     </g>
     <g id="text_10">
      <!-- 0.000000e+00 -->
      <g transform="translate(24.246563 377.331946) scale(0.1 -0.1)">
       <use xlink:href="#DejaVuSans-30"/>
       <use xlink:href="#DejaVuSans-2e" x="63.623047"/>
       <use xlink:href="#DejaVuSans-30" x="95.410156"/>
       <use xlink:href="#DejaVuSans-30" x="159.033203"/>
       <use xlink:href="#DejaVuSans-30" x="222.65625"/>
       <use xlink:href="#DejaVuSans-30" x="286.279297"/>
       <use xlink:href="#DejaVuSans-30" x="349.902344"/>
       <use xlink:href="#DejaVuSans-30" x="413.525391"/>
       <use xlink:href="#DejaVuSans-65" x="477.148438"/>
       <use xlink:href="#DejaVuSans-2b" x="538.671875"/>
       <use xlink:href="#DejaVuSans-30" x="622.460938"/>
       <use xlink:href="#DejaVuSans-30" x="686.083984"/>
      </g>
     </g>
    </g>
    <g id="ytick_2">
     <g id="line2d_19">
      <path d="M 106.22 330.092536 
L 709.2 330.092536 
" clip-path="url(#pc827afa4bd)" style="fill: none; stroke: #b0b0b0; stroke-width: 0.8; stroke-linecap: square"/>
     </g>
     <g id="line2d_20">
      <g>
       <use xlink:href="#m4fc0b402be" x="106.22" y="330.092536" style="stroke: #000000; stroke-width: 0.8"/>
      </g>
     </g>
     <g id="text_11">
      <!-- -2.01600e-03 -->
      <g transform="translate(31.773125 333.891755) scale(0.1 -0.1)">
       <defs>
        <path id="DejaVuSans-33" d="M 2597 2516 
Q 3050 2419 3304 2112 
Q 3559 1806 3559 1356 
Q 3559 666 3084 287 
Q 2609 -91 1734 -91 
Q 1441 -91 1130 -33 
Q 819 25 488 141 
L 488 750 
Q 750 597 1062 519 
Q 1375 441 1716 441 
Q 2309 441 2620 675 
Q 2931 909 2931 1356 
Q 2931 1769 2642 2001 
Q 2353 2234 1838 2234 
L 1294 2234 
L 1294 2753 
L 1863 2753 
Q 2328 2753 2575 2939 
Q 2822 3125 2822 3475 
Q 2822 3834 2567 4026 
Q 2313 4219 1838 4219 
Q 1578 4219 1281 4162 
Q 984 4106 628 3988 
L 628 4550 
Q 988 4650 1302 4700 
Q 1616 4750 1894 4750 
Q 2613 4750 3031 4423 
Q 3450 4097 3450 3541 
Q 3450 3153 3228 2886 
Q 3006 2619 2597 2516 
z
" transform="scale(0.015625)"/>
       </defs>
       <use xlink:href="#DejaVuSans-2d"/>
       <use xlink:href="#DejaVuSans-32" x="36.083984"/>
       <use xlink:href="#DejaVuSans-2e" x="99.707031"/>
       <use xlink:href="#DejaVuSans-30" x="131.494141"/>
       <use xlink:href="#DejaVuSans-31" x="195.117188"/>
       <use xlink:href="#DejaVuSans-36" x="258.740234"/>
       <use xlink:href="#DejaVuSans-30" x="322.363281"/>
       <use xlink:href="#DejaVuSans-30" x="385.986328"/>
       <use xlink:href="#DejaVuSans-65" x="449.609375"/>
       <use xlink:href="#DejaVuSans-2d" x="511.132812"/>
       <use xlink:href="#DejaVuSans-30" x="547.216797"/>
       <use xlink:href="#DejaVuSans-33" x="610.839844"/>
      </g>
     </g>
    </g>
    <g id="ytick_3">
     <g id="line2d_21">
      <path d="M 106.22 286.652344 
L 709.2 286.652344 
" clip-path="url(#pc827afa4bd)" style="fill: none; stroke: #b0b0b0; stroke-width: 0.8; stroke-linecap: square"/>
     </g>
     <g id="line2d_22">
      <g>
       <use xlink:href="#m4fc0b402be" x="106.22" y="286.652344" style="stroke: #000000; stroke-width: 0.8"/>
      </g>
     </g>
     <g id="text_12">
      <!-- 7.960000e-09 -->
      <g transform="translate(29.018438 290.451563) scale(0.1 -0.1)">
       <defs>
        <path id="DejaVuSans-37" d="M 525 4666 
L 3525 4666 
L 3525 4397 
L 1831 0 
L 1172 0 
L 2766 4134 
L 525 4134 
L 525 4666 
z
" transform="scale(0.015625)"/>
       </defs>
       <use xlink:href="#DejaVuSans-37"/>
       <use xlink:href="#DejaVuSans-2e" x="63.623047"/>
       <use xlink:href="#DejaVuSans-39" x="95.410156"/>
       <use xlink:href="#DejaVuSans-36" x="159.033203"/>
       <use xlink:href="#DejaVuSans-30" x="222.65625"/>
       <use xlink:href="#DejaVuSans-30" x="286.279297"/>
       <use xlink:href="#DejaVuSans-30" x="349.902344"/>
       <use xlink:href="#DejaVuSans-30" x="413.525391"/>
       <use xlink:href="#DejaVuSans-65" x="477.148438"/>
       <use xlink:href="#DejaVuSans-2d" x="538.671875"/>
       <use xlink:href="#DejaVuSans-30" x="574.755859"/>
       <use xlink:href="#DejaVuSans-39" x="638.378906"/>
      </g>
     </g>
    </g>
    <g id="ytick_4">
     <g id="line2d_23">
      <path d="M 106.22 243.212153 
L 709.2 243.212153 
" clip-path="url(#pc827afa4bd)" style="fill: none; stroke: #b0b0b0; stroke-width: 0.8; stroke-linecap: square"/>
     </g>
     <g id="line2d_24">
      <g>
       <use xlink:href="#m4fc0b402be" x="106.22" y="243.212153" style="stroke: #000000; stroke-width: 0.8"/>
      </g>
     </g>
     <g id="text_13">
      <!-- 2.530000e-08 -->
      <g transform="translate(29.018438 247.011372) scale(0.1 -0.1)">
       <use xlink:href="#DejaVuSans-32"/>
       <use xlink:href="#DejaVuSans-2e" x="63.623047"/>
       <use xlink:href="#DejaVuSans-35" x="95.410156"/>
       <use xlink:href="#DejaVuSans-33" x="159.033203"/>
       <use xlink:href="#DejaVuSans-30" x="222.65625"/>
       <use xlink:href="#DejaVuSans-30" x="286.279297"/>
       <use xlink:href="#DejaVuSans-30" x="349.902344"/>
       <use xlink:href="#DejaVuSans-30" x="413.525391"/>
       <use xlink:href="#DejaVuSans-65" x="477.148438"/>
       <use xlink:href="#DejaVuSans-2d" x="538.671875"/>
       <use xlink:href="#DejaVuSans-30" x="574.755859"/>
       <use xlink:href="#DejaVuSans-38" x="638.378906"/>
      </g>
     </g>
    </g>
    <g id="ytick_5">
     <g id="line2d_25">
      <path d="M 106.22 199.771962 
L 709.2 199.771962 
" clip-path="url(#pc827afa4bd)" style="fill: none; stroke: #b0b0b0; stroke-width: 0.8; stroke-linecap: square"/>
     </g>
     <g id="line2d_26">
      <g>
       <use xlink:href="#m4fc0b402be" x="106.22" y="199.771962" style="stroke: #000000; stroke-width: 0.8"/>
      </g>
     </g>
     <g id="text_14">
      <!-- 4.144800e-08 -->
      <g transform="translate(29.018438 203.57118) scale(0.1 -0.1)">
       <use xlink:href="#DejaVuSans-34"/>
       <use xlink:href="#DejaVuSans-2e" x="63.623047"/>
       <use xlink:href="#DejaVuSans-31" x="95.410156"/>
       <use xlink:href="#DejaVuSans-34" x="159.033203"/>
       <use xlink:href="#DejaVuSans-34" x="222.65625"/>
       <use xlink:href="#DejaVuSans-38" x="286.279297"/>
       <use xlink:href="#DejaVuSans-30" x="349.902344"/>
       <use xlink:href="#DejaVuSans-30" x="413.525391"/>
       <use xlink:href="#DejaVuSans-65" x="477.148438"/>
       <use xlink:href="#DejaVuSans-2d" x="538.671875"/>
       <use xlink:href="#DejaVuSans-30" x="574.755859"/>
       <use xlink:href="#DejaVuSans-38" x="638.378906"/>
      </g>
     </g>
    </g>
    <g id="ytick_6">
     <g id="line2d_27">
      <path d="M 106.22 156.33177 
L 709.2 156.33177 
" clip-path="url(#pc827afa4bd)" style="fill: none; stroke: #b0b0b0; stroke-width: 0.8; stroke-linecap: square"/>
     </g>
     <g id="line2d_28">
      <g>
       <use xlink:href="#m4fc0b402be" x="106.22" y="156.33177" style="stroke: #000000; stroke-width: 0.8"/>
      </g>
     </g>
     <g id="text_15">
      <!-- 5.796000e-08 -->
      <g transform="translate(29.018438 160.130989) scale(0.1 -0.1)">
       <use xlink:href="#DejaVuSans-35"/>
       <use xlink:href="#DejaVuSans-2e" x="63.623047"/>
       <use xlink:href="#DejaVuSans-37" x="95.410156"/>
       <use xlink:href="#DejaVuSans-39" x="159.033203"/>
       <use xlink:href="#DejaVuSans-36" x="222.65625"/>
       <use xlink:href="#DejaVuSans-30" x="286.279297"/>
       <use xlink:href="#DejaVuSans-30" x="349.902344"/>
       <use xlink:href="#DejaVuSans-30" x="413.525391"/>
       <use xlink:href="#DejaVuSans-65" x="477.148438"/>
       <use xlink:href="#DejaVuSans-2d" x="538.671875"/>
       <use xlink:href="#DejaVuSans-30" x="574.755859"/>
       <use xlink:href="#DejaVuSans-38" x="638.378906"/>
      </g>
     </g>
    </g>
    <g id="ytick_7">
     <g id="line2d_29">
      <path d="M 106.22 112.891579 
L 709.2 112.891579 
" clip-path="url(#pc827afa4bd)" style="fill: none; stroke: #b0b0b0; stroke-width: 0.8; stroke-linecap: square"/>
     </g>
     <g id="line2d_30">
      <g>
       <use xlink:href="#m4fc0b402be" x="106.22" y="112.891579" style="stroke: #000000; stroke-width: 0.8"/>
      </g>
     </g>
     <g id="text_16">
      <!-- 7.530000e-08 -->
      <g transform="translate(29.018438 116.690798) scale(0.1 -0.1)">
       <use xlink:href="#DejaVuSans-37"/>
       <use xlink:href="#DejaVuSans-2e" x="63.623047"/>
       <use xlink:href="#DejaVuSans-35" x="95.410156"/>
       <use xlink:href="#DejaVuSans-33" x="159.033203"/>
       <use xlink:href="#DejaVuSans-30" x="222.65625"/>
       <use xlink:href="#DejaVuSans-30" x="286.279297"/>
       <use xlink:href="#DejaVuSans-30" x="349.902344"/>
       <use xlink:href="#DejaVuSans-30" x="413.525391"/>
       <use xlink:href="#DejaVuSans-65" x="477.148438"/>
       <use xlink:href="#DejaVuSans-2d" x="538.671875"/>
       <use xlink:href="#DejaVuSans-30" x="574.755859"/>
       <use xlink:href="#DejaVuSans-38" x="638.378906"/>
      </g>
     </g>
    </g>
    <g id="ytick_8">
     <g id="line2d_31">
      <path d="M 106.22 69.451388 
L 709.2 69.451388 
" clip-path="url(#pc827afa4bd)" style="fill: none; stroke: #b0b0b0; stroke-width: 0.8; stroke-linecap: square"/>
     </g>
     <g id="line2d_32">
      <g>
       <use xlink:href="#m4fc0b402be" x="106.22" y="69.451388" style="stroke: #000000; stroke-width: 0.8"/>
      </g>
     </g>
     <g id="text_17">
      <!-- 9.144800e-08 -->
      <g transform="translate(29.018438 73.250606) scale(0.1 -0.1)">
       <use xlink:href="#DejaVuSans-39"/>
       <use xlink:href="#DejaVuSans-2e" x="63.623047"/>
       <use xlink:href="#DejaVuSans-31" x="95.410156"/>
       <use xlink:href="#DejaVuSans-34" x="159.033203"/>
       <use xlink:href="#DejaVuSans-34" x="222.65625"/>
       <use xlink:href="#DejaVuSans-38" x="286.279297"/>
       <use xlink:href="#DejaVuSans-30" x="349.902344"/>
       <use xlink:href="#DejaVuSans-30" x="413.525391"/>
       <use xlink:href="#DejaVuSans-65" x="477.148438"/>
       <use xlink:href="#DejaVuSans-2d" x="538.671875"/>
       <use xlink:href="#DejaVuSans-30" x="574.755859"/>
       <use xlink:href="#DejaVuSans-38" x="638.378906"/>
      </g>
     </g>
    </g>
    <g id="text_18">
     <!-- Voltage (V) -->
     <g transform="translate(18.166875 236.127187) rotate(-90) scale(0.1 -0.1)">
      <defs>
       <path id="DejaVuSans-56" d="M 1831 0 
L 50 4666 
L 709 4666 
L 2188 738 
L 3669 4666 
L 4325 4666 
L 2547 0 
L 1831 0 
z
" transform="scale(0.015625)"/>
       <path id="DejaVuSans-6f" d="M 1959 3097 
Q 1497 3097 1228 2736 
Q 959 2375 959 1747 
Q 959 1119 1226 758 
Q 1494 397 1959 397 
Q 2419 397 2687 759 
Q 2956 1122 2956 1747 
Q 2956 2369 2687 2733 
Q 2419 3097 1959 3097 
z
M 1959 3584 
Q 2709 3584 3137 3096 
Q 3566 2609 3566 1747 
Q 3566 888 3137 398 
Q 2709 -91 1959 -91 
Q 1206 -91 779 398 
Q 353 888 353 1747 
Q 353 2609 779 3096 
Q 1206 3584 1959 3584 
z
" transform="scale(0.015625)"/>
       <path id="DejaVuSans-6c" d="M 603 4863 
L 1178 4863 
L 1178 0 
L 603 0 
L 603 4863 
z
" transform="scale(0.015625)"/>
       <path id="DejaVuSans-74" d="M 1172 4494 
L 1172 3500 
L 2356 3500 
L 2356 3053 
L 1172 3053 
L 1172 1153 
Q 1172 725 1289 603 
Q 1406 481 1766 481 
L 2356 481 
L 2356 0 
L 1766 0 
Q 1100 0 847 248 
Q 594 497 594 1153 
L 594 3053 
L 172 3053 
L 172 3500 
L 594 3500 
L 594 4494 
L 1172 4494 
z
" transform="scale(0.015625)"/>
       <path id="DejaVuSans-61" d="M 2194 1759 
Q 1497 1759 1228 1600 
Q 959 1441 959 1056 
Q 959 750 1161 570 
Q 1363 391 1709 391 
Q 2188 391 2477 730 
Q 2766 1069 2766 1631 
L 2766 1759 
L 2194 1759 
z
M 3341 1997 
L 3341 0 
L 2766 0 
L 2766 531 
Q 2569 213 2275 61 
Q 1981 -91 1556 -91 
Q 1019 -91 701 211 
Q 384 513 384 1019 
Q 384 1609 779 1909 
Q 1175 2209 1959 2209 
L 2766 2209 
L 2766 2266 
Q 2766 2663 2505 2880 
Q 2244 3097 1772 3097 
Q 1472 3097 1187 3025 
Q 903 2953 641 2809 
L 641 3341 
Q 956 3463 1253 3523 
Q 1550 3584 1831 3584 
Q 2591 3584 2966 3190 
Q 3341 2797 3341 1997 
z
" transform="scale(0.015625)"/>
       <path id="DejaVuSans-67" d="M 2906 1791 
Q 2906 2416 2648 2759 
Q 2391 3103 1925 3103 
Q 1463 3103 1205 2759 
Q 947 2416 947 1791 
Q 947 1169 1205 825 
Q 1463 481 1925 481 
Q 2391 481 2648 825 
Q 2906 1169 2906 1791 
z
M 3481 434 
Q 3481 -459 3084 -895 
Q 2688 -1331 1869 -1331 
Q 1566 -1331 1297 -1286 
Q 1028 -1241 775 -1147 
L 775 -588 
Q 1028 -725 1275 -790 
Q 1522 -856 1778 -856 
Q 2344 -856 2625 -561 
Q 2906 -266 2906 331 
L 2906 616 
Q 2728 306 2450 153 
Q 2172 0 1784 0 
Q 1141 0 747 490 
Q 353 981 353 1791 
Q 353 2603 747 3093 
Q 1141 3584 1784 3584 
Q 2172 3584 2450 3431 
Q 2728 3278 2906 2969 
L 2906 3500 
L 3481 3500 
L 3481 434 
z
" transform="scale(0.015625)"/>
      </defs>
      <use xlink:href="#DejaVuSans-56"/>
      <use xlink:href="#DejaVuSans-6f" x="60.658203"/>
      <use xlink:href="#DejaVuSans-6c" x="121.839844"/>
      <use xlink:href="#DejaVuSans-74" x="149.623047"/>
      <use xlink:href="#DejaVuSans-61" x="188.832031"/>
      <use xlink:href="#DejaVuSans-67" x="250.111328"/>
      <use xlink:href="#DejaVuSans-65" x="313.587891"/>
      <use xlink:href="#DejaVuSans-20" x="375.111328"/>
      <use xlink:href="#DejaVuSans-28" x="406.898438"/>
      <use xlink:href="#DejaVuSans-56" x="445.912109"/>
      <use xlink:href="#DejaVuSans-29" x="514.320312"/>
     </g>
    </g>
   </g>
   <g id="line2d_33">
    <path d="M 133.628182 373.532727 
L 184.961231 373.532727 
L 192.294524 370.057512 
L 232.627635 370.057512 
L 234.460958 369.188708 
L 236.294281 370.057512 
L 249.127543 370.057512 
L 250.960867 368.319904 
L 256.460836 365.713493 
L 258.294159 373.532727 
L 294.960623 373.532727 
L 296.793946 364.844689 
L 298.62727 372.663923 
L 304.127239 370.057512 
L 340.793703 370.057512 
L 234.460958 369.188708 
L 353.626966 370.057512 
L 359.126935 370.057512 
L 360.960258 368.319904 
L 366.460228 365.713493 
L 368.293551 363.975885 
L 370.126874 373.532727 
L 406.793338 373.532727 
L 414.126631 370.057512 
L 447.126449 370.057512 
L 234.460958 369.188708 
L 469.126327 370.057512 
L 470.95965 368.319904 
L 476.45962 365.713493 
L 478.292943 373.532727 
L 516.79273 373.532727 
L 524.126023 370.057512 
L 553.459194 370.057512 
L 234.460958 369.188708 
L 579.125719 370.057512 
L 580.959042 368.319904 
L 586.459012 365.713493 
L 588.292335 373.532727 
L 624.958799 373.532727 
L 626.792122 363.107081 
L 628.625445 372.663923 
L 634.125415 370.057512 
L 659.79194 370.057512 
L 234.460958 369.188708 
L 681.791818 370.057512 
L 234.460958 362.238278 
L 133.628182 373.532727 
L 162.961353 373.532727 
L 170.294646 370.057512 
L 219.794372 370.057512 
L 221.627695 361.369474 
L 227.127665 358.763062 
L 228.960988 373.532727 
L 232.627635 373.532727 
L 234.460958 362.238278 
L 236.294281 373.532727 
L 269.294099 373.532727 
L 271.127422 357.894258 
L 274.794068 356.156651 
L 276.627391 370.057512 
L 331.627087 370.057512 
L 333.46041 361.369474 
L 337.127057 359.631866 
L 338.96038 373.532727 
L 340.793703 373.532727 
L 234.460958 362.238278 
L 342.627026 373.532727 
L 379.29349 373.532727 
L 381.126814 357.894258 
L 384.79346 356.156651 
L 386.626783 370.057512 
L 441.626479 370.057512 
L 443.459802 361.369474 
L 447.126449 359.631866 
L 234.460958 362.238278 
L 450.793095 373.532727 
L 489.292882 373.532727 
L 491.126206 357.894258 
L 494.792852 356.156651 
L 496.626175 370.057512 
L 551.625871 370.057512 
L 553.459194 361.369474 
L 234.460958 362.238278 
L 555.292517 360.50067 
L 557.125841 359.631866 
L 558.959164 373.532727 
L 599.292274 373.532727 
L 601.125597 357.894258 
L 604.792244 356.156651 
L 606.625567 370.057512 
L 659.79194 370.057512 
L 234.460958 362.238278 
L 661.625263 370.057512 
L 663.458586 361.369474 
L 667.125233 359.631866 
L 668.958556 373.532727 
L 681.791818 373.532727 
L 234.460958 355.287847 
L 133.628182 373.532727 
L 135.461505 354.419043 
L 148.294767 348.337416 
L 192.294524 348.337416 
L 197.794494 345.731005 
L 199.627817 352.681435 
L 201.46114 373.532727 
L 232.627635 373.532727 
L 234.460958 355.287847 
L 236.294281 373.532727 
L 241.794251 373.532727 
L 243.627574 351.812632 
L 245.460897 344.862201 
L 247.29422 343.993397 
L 249.127543 348.337416 
L 304.127239 348.337416 
L 309.627209 345.731005 
L 311.460532 352.681435 
L 313.293855 373.532727 
L 340.793703 373.532727 
L 234.460958 355.287847 
L 342.627026 373.532727 
L 351.793642 373.532727 
L 353.626966 351.812632 
L 355.460289 344.862201 
L 357.293612 343.993397 
L 359.126935 348.337416 
L 414.126631 348.337416 
L 419.626601 345.731005 
L 421.459924 352.681435 
L 423.293247 373.532727 
L 447.126449 373.532727 
L 234.460958 355.287847 
L 448.959772 373.532727 
L 461.793034 373.532727 
L 463.626358 351.812632 
L 465.459681 344.862201 
L 467.293004 343.993397 
L 469.126327 348.337416 
L 524.126023 348.337416 
L 529.625993 345.731005 
L 531.459316 352.681435 
L 533.292639 373.532727 
L 553.459194 373.532727 
L 234.460958 355.287847 
L 555.292517 373.532727 
L 571.792426 373.532727 
L 573.625749 351.812632 
L 575.459073 344.862201 
L 577.292396 343.993397 
L 579.125719 348.337416 
L 634.125415 348.337416 
L 639.625385 345.731005 
L 641.458708 352.681435 
L 643.292031 373.532727 
L 659.79194 373.532727 
L 234.460958 355.287847 
L 661.625263 373.532727 
L 681.791818 373.532727 
L 234.460958 343.124593 
L 133.628182 373.532727 
L 184.961231 373.532727 
L 186.794555 342.255789 
L 192.294524 339.649378 
L 232.627635 339.649378 
L 234.460958 343.124593 
L 236.294281 339.649378 
L 249.127543 339.649378 
L 256.460836 336.174163 
L 258.294159 373.532727 
L 294.960623 373.532727 
L 296.793946 335.305359 
L 298.62727 342.255789 
L 304.127239 339.649378 
L 340.793703 339.649378 
L 234.460958 343.124593 
L 342.627026 339.649378 
L 359.126935 339.649378 
L 366.460228 336.174163 
L 368.293551 334.436555 
L 370.126874 373.532727 
L 406.793338 373.532727 
L 408.626662 342.255789 
L 414.126631 339.649378 
L 447.126449 339.649378 
L 234.460958 343.124593 
L 452.626418 339.649378 
L 469.126327 339.649378 
L 476.45962 336.174163 
L 478.292943 373.532727 
L 516.79273 373.532727 
L 518.626054 342.255789 
L 524.126023 339.649378 
L 553.459194 339.649378 
L 234.460958 343.124593 
L 562.62581 339.649378 
L 579.125719 339.649378 
L 586.459012 336.174163 
L 588.292335 373.532727 
L 624.958799 373.532727 
L 626.792122 333.567751 
L 628.625445 342.255789 
L 634.125415 339.649378 
L 659.79194 339.649378 
L 234.460958 343.124593 
L 672.625202 339.649378 
L 681.791818 339.649378 
L 234.460958 332.698947 
L 133.628182 373.532727 
L 162.961353 373.532727 
L 164.794676 331.830144 
L 170.294646 329.223732 
L 219.794372 329.223732 
L 227.127665 325.748517 
L 228.960988 373.532727 
L 232.627635 373.532727 
L 234.460958 332.698947 
L 236.294281 373.532727 
L 269.294099 373.532727 
L 271.127422 324.879713 
L 274.794068 323.142105 
L 276.627391 329.223732 
L 331.627087 329.223732 
L 337.127057 326.617321 
L 338.96038 373.532727 
L 340.793703 373.532727 
L 234.460958 332.698947 
L 342.627026 373.532727 
L 379.29349 373.532727 
L 381.126814 324.879713 
L 384.79346 323.142105 
L 386.626783 329.223732 
L 441.626479 329.223732 
L 447.126449 326.617321 
L 234.460958 332.698947 
L 448.959772 373.532727 
L 489.292882 373.532727 
L 491.126206 324.879713 
L 494.792852 323.142105 
L 496.626175 329.223732 
L 551.625871 329.223732 
L 553.459194 328.354928 
L 234.460958 332.698947 
L 555.292517 327.486124 
L 557.125841 326.617321 
L 558.959164 373.532727 
L 599.292274 373.532727 
L 601.125597 324.879713 
L 604.792244 323.142105 
L 606.625567 329.223732 
L 659.79194 329.223732 
L 234.460958 332.698947 
L 661.625263 329.223732 
L 667.125233 326.617321 
L 668.958556 373.532727 
L 681.791818 373.532727 
L 681.791818 373.532727 
" clip-path="url(#pc827afa4bd)" style="fill: none; stroke: #1f77b4; stroke-width: 1.5; stroke-linecap: square"/>
   </g>
   <g id="line2d_34">
    <path d="M 133.628182 373.532727 
L 184.961231 373.532727 
L 186.794555 351.812632 
L 188.627878 344.862201 
L 190.461201 343.993397 
L 192.294524 348.337416 
L 232.627635 348.337416 
L 234.460958 322.273301 
L 236.294281 348.337416 
L 249.127543 348.337416 
L 254.627513 345.731005 
L 256.460836 352.681435 
L 258.294159 373.532727 
L 294.960623 373.532727 
L 296.793946 321.404498 
L 298.62727 351.812632 
L 300.460593 344.862201 
L 302.293916 343.993397 
L 304.127239 348.337416 
L 340.793703 348.337416 
L 234.460958 322.273301 
L 342.627026 348.337416 
L 359.126935 348.337416 
L 364.626905 345.731005 
L 366.460228 352.681435 
L 368.293551 320.535694 
L 370.126874 373.532727 
L 406.793338 373.532727 
L 408.626662 351.812632 
L 410.459985 344.862201 
L 412.293308 343.993397 
L 414.126631 348.337416 
L 447.126449 348.337416 
L 234.460958 322.273301 
L 448.959772 348.337416 
L 469.126327 348.337416 
L 474.626297 345.731005 
L 476.45962 352.681435 
L 478.292943 373.532727 
L 516.79273 373.532727 
L 518.626054 351.812632 
L 520.459377 344.862201 
L 522.2927 343.993397 
L 524.126023 348.337416 
L 553.459194 348.337416 
L 234.460958 322.273301 
L 555.292517 348.337416 
L 579.125719 348.337416 
L 584.625689 345.731005 
L 586.459012 352.681435 
L 588.292335 373.532727 
L 624.958799 373.532727 
L 626.792122 319.66689 
L 628.625445 351.812632 
L 630.458769 344.862201 
L 632.292092 343.993397 
L 634.125415 348.337416 
L 659.79194 348.337416 
L 234.460958 322.273301 
L 661.625263 348.337416 
L 681.791818 348.337416 
L 234.460958 318.798086 
L 133.628182 373.532727 
L 212.461079 373.532727 
L 214.294403 357.894258 
L 217.961049 356.156651 
L 219.794372 370.057512 
L 232.627635 370.057512 
L 234.460958 318.798086 
L 236.294281 370.057512 
L 276.627391 370.057512 
L 278.460715 361.369474 
L 282.127361 359.631866 
L 283.960684 373.532727 
L 324.293794 373.532727 
L 326.127118 357.894258 
L 329.793764 356.156651 
L 331.627087 370.057512 
L 340.793703 370.057512 
L 234.460958 318.798086 
L 342.627026 370.057512 
L 386.626783 370.057512 
L 388.460106 361.369474 
L 392.126753 359.631866 
L 393.960076 373.532727 
L 434.293186 373.532727 
L 436.12651 357.894258 
L 439.793156 356.156651 
L 441.626479 370.057512 
L 447.126449 370.057512 
L 234.460958 318.798086 
L 448.959772 370.057512 
L 496.626175 370.057512 
L 498.459498 361.369474 
L 502.126145 359.631866 
L 503.959468 373.532727 
L 544.292578 373.532727 
L 546.125901 357.894258 
L 549.792548 356.156651 
L 551.625871 370.057512 
L 553.459194 370.057512 
L 234.460958 318.798086 
L 555.292517 370.057512 
L 606.625567 370.057512 
L 608.45889 361.369474 
L 612.125537 359.631866 
L 613.95886 373.532727 
L 652.458647 373.532727 
L 654.29197 363.107081 
L 656.125293 357.894258 
L 659.79194 356.156651 
L 234.460958 318.798086 
L 661.625263 370.057512 
L 681.791818 370.057512 
L 234.460958 317.929282 
L 133.628182 373.532727 
L 135.461505 354.419043 
L 148.294767 348.337416 
L 192.294524 348.337416 
L 197.794494 345.731005 
L 199.627817 352.681435 
L 201.46114 373.532727 
L 232.627635 373.532727 
L 234.460958 317.929282 
L 236.294281 373.532727 
L 241.794251 373.532727 
L 243.627574 351.812632 
L 245.460897 344.862201 
L 247.29422 343.993397 
L 249.127543 348.337416 
L 304.127239 348.337416 
L 309.627209 345.731005 
L 311.460532 352.681435 
L 313.293855 373.532727 
L 340.793703 373.532727 
L 234.460958 317.929282 
L 342.627026 373.532727 
L 351.793642 373.532727 
L 353.626966 351.812632 
L 355.460289 344.862201 
L 357.293612 343.993397 
L 359.126935 348.337416 
L 414.126631 348.337416 
L 419.626601 345.731005 
L 421.459924 352.681435 
L 423.293247 373.532727 
L 447.126449 373.532727 
L 234.460958 317.929282 
L 448.959772 373.532727 
L 461.793034 373.532727 
L 463.626358 351.812632 
L 465.459681 344.862201 
L 467.293004 343.993397 
L 469.126327 348.337416 
L 524.126023 348.337416 
L 529.625993 345.731005 
L 531.459316 352.681435 
L 533.292639 373.532727 
L 553.459194 373.532727 
L 234.460958 317.929282 
L 555.292517 373.532727 
L 571.792426 373.532727 
L 573.625749 351.812632 
L 575.459073 344.862201 
L 577.292396 343.993397 
L 579.125719 348.337416 
L 634.125415 348.337416 
L 639.625385 345.731005 
L 641.458708 352.681435 
L 643.292031 373.532727 
L 659.79194 373.532727 
L 234.460958 317.929282 
L 661.625263 373.532727 
L 681.791818 373.532727 
L 234.460958 317.060478 
L 133.628182 370.057512 
L 232.627635 370.057512 
L 234.460958 317.060478 
L 236.294281 370.057512 
L 340.793703 370.057512 
L 234.460958 317.060478 
L 342.627026 370.057512 
L 447.126449 370.057512 
L 234.460958 317.060478 
L 448.959772 370.057512 
L 553.459194 370.057512 
L 234.460958 317.060478 
L 555.292517 370.057512 
L 659.79194 370.057512 
L 234.460958 317.060478 
L 661.625263 370.057512 
L 681.791818 370.057512 
L 234.460958 316.191675 
L 133.628182 373.532727 
L 212.461079 373.532727 
L 214.294403 324.879713 
L 217.961049 323.142105 
L 219.794372 329.223732 
L 232.627635 329.223732 
L 234.460958 316.191675 
L 236.294281 329.223732 
L 276.627391 329.223732 
L 282.127361 326.617321 
L 283.960684 373.532727 
L 324.293794 373.532727 
L 326.127118 324.879713 
L 329.793764 323.142105 
L 331.627087 329.223732 
L 340.793703 329.223732 
L 234.460958 316.191675 
L 342.627026 329.223732 
L 386.626783 329.223732 
L 392.126753 326.617321 
L 393.960076 373.532727 
L 434.293186 373.532727 
L 436.12651 324.879713 
L 439.793156 323.142105 
L 441.626479 329.223732 
L 447.126449 329.223732 
L 234.460958 316.191675 
L 448.959772 329.223732 
L 496.626175 329.223732 
L 502.126145 326.617321 
L 503.959468 373.532727 
L 544.292578 373.532727 
L 546.125901 324.879713 
L 549.792548 323.142105 
L 551.625871 329.223732 
L 553.459194 329.223732 
L 234.460958 316.191675 
L 555.292517 329.223732 
L 606.625567 329.223732 
L 612.125537 326.617321 
L 613.95886 373.532727 
L 652.458647 373.532727 
L 654.29197 315.322871 
L 656.125293 324.879713 
L 659.79194 323.142105 
L 234.460958 316.191675 
L 663.458586 329.223732 
L 681.791818 329.223732 
L 681.791818 329.223732 
" clip-path="url(#pc827afa4bd)" style="fill: none; stroke: #ff7f0e; stroke-width: 1.5; stroke-linecap: square"/>
   </g>
   <g id="line2d_35">
    <path d="M 133.628182 373.532727 
L 184.961231 373.532727 
L 186.794555 351.812632 
L 188.627878 344.862201 
L 190.461201 343.993397 
L 192.294524 348.337416 
L 232.627635 348.337416 
L 234.460958 314.454067 
L 236.294281 348.337416 
L 249.127543 348.337416 
L 254.627513 345.731005 
L 256.460836 352.681435 
L 258.294159 373.532727 
L 294.960623 373.532727 
L 296.793946 321.404498 
L 298.62727 351.812632 
L 300.460593 344.862201 
L 302.293916 343.993397 
L 304.127239 348.337416 
L 340.793703 348.337416 
L 234.460958 314.454067 
L 342.627026 348.337416 
L 359.126935 348.337416 
L 364.626905 345.731005 
L 366.460228 352.681435 
L 368.293551 320.535694 
L 370.126874 373.532727 
L 406.793338 373.532727 
L 408.626662 351.812632 
L 410.459985 344.862201 
L 412.293308 343.993397 
L 414.126631 348.337416 
L 447.126449 348.337416 
L 234.460958 314.454067 
L 448.959772 348.337416 
L 469.126327 348.337416 
L 474.626297 345.731005 
L 476.45962 352.681435 
L 478.292943 373.532727 
L 516.79273 373.532727 
L 518.626054 351.812632 
L 520.459377 344.862201 
L 522.2927 343.993397 
L 524.126023 348.337416 
L 553.459194 348.337416 
L 234.460958 314.454067 
L 555.292517 348.337416 
L 579.125719 348.337416 
L 584.625689 345.731005 
L 586.459012 352.681435 
L 588.292335 373.532727 
L 624.958799 373.532727 
L 626.792122 319.66689 
L 628.625445 351.812632 
L 630.458769 344.862201 
L 632.292092 343.993397 
L 634.125415 348.337416 
L 659.79194 348.337416 
L 234.460958 314.454067 
L 661.625263 348.337416 
L 681.791818 348.337416 
L 234.460958 313.585263 
L 133.628182 373.532727 
L 135.461505 312.716459 
L 137.294828 311.847656 
L 139.128151 365.713493 
L 140.961475 372.663923 
L 142.794798 310.978852 
L 146.461444 309.241244 
L 148.294767 370.057512 
L 192.294524 370.057512 
L 194.127847 368.319904 
L 199.627817 365.713493 
L 201.46114 373.532727 
L 232.627635 373.532727 
L 234.460958 313.585263 
L 236.294281 373.532727 
L 241.794251 373.532727 
L 249.127543 370.057512 
L 304.127239 370.057512 
L 305.960562 368.319904 
L 311.460532 365.713493 
L 313.293855 373.532727 
L 340.793703 373.532727 
L 234.460958 313.585263 
L 342.627026 373.532727 
L 351.793642 373.532727 
L 359.126935 370.057512 
L 414.126631 370.057512 
L 415.959954 368.319904 
L 421.459924 365.713493 
L 423.293247 373.532727 
L 447.126449 373.532727 
L 234.460958 313.585263 
L 448.959772 373.532727 
L 461.793034 373.532727 
L 469.126327 370.057512 
L 524.126023 370.057512 
L 525.959346 368.319904 
L 531.459316 365.713493 
L 533.292639 373.532727 
L 553.459194 373.532727 
L 234.460958 313.585263 
L 555.292517 373.532727 
L 571.792426 373.532727 
L 579.125719 370.057512 
L 634.125415 370.057512 
L 635.958738 368.319904 
L 641.458708 365.713493 
L 643.292031 373.532727 
L 659.79194 373.532727 
L 234.460958 313.585263 
L 661.625263 373.532727 
L 681.791818 373.532727 
L 234.460958 308.37244 
L 133.628182 373.532727 
L 135.461505 307.503636 
L 232.627635 261.457033 
L 234.460958 308.37244 
L 236.294281 260.58823 
L 340.793703 211.066411 
L 234.460958 308.37244 
L 342.627026 210.197608 
L 447.126449 160.675789 
L 234.460958 308.37244 
L 448.959772 159.806986 
L 553.459194 110.285167 
L 234.460958 308.37244 
L 555.292517 109.416364 
L 659.79194 59.894545 
L 234.460958 308.37244 
L 661.625263 59.025742 
L 681.791818 49.4689 
L 234.460958 48.600096 
L 133.628182 373.532727 
L 232.627635 373.532727 
L 234.460958 48.600096 
L 236.294281 373.532727 
L 340.793703 373.532727 
L 234.460958 48.600096 
L 342.627026 373.532727 
L 447.126449 373.532727 
L 234.460958 48.600096 
L 448.959772 373.532727 
L 553.459194 373.532727 
L 234.460958 48.600096 
L 555.292517 373.532727 
L 659.79194 373.532727 
L 234.460958 48.600096 
L 661.625263 373.532727 
L 681.791818 373.532727 
L 234.460958 47.731292 
L 133.628182 373.532727 
L 135.461505 46.862488 
L 137.294828 45.993684 
L 139.128151 336.174163 
L 140.961475 342.255789 
L 142.794798 45.12488 
L 146.461444 43.387273 
L 148.294767 339.649378 
L 192.294524 339.649378 
L 199.627817 336.174163 
L 201.46114 373.532727 
L 232.627635 373.532727 
L 234.460958 47.731292 
L 236.294281 373.532727 
L 241.794251 373.532727 
L 243.627574 342.255789 
L 249.127543 339.649378 
L 304.127239 339.649378 
L 311.460532 336.174163 
L 313.293855 373.532727 
L 340.793703 373.532727 
L 234.460958 47.731292 
L 342.627026 373.532727 
L 351.793642 373.532727 
L 353.626966 342.255789 
L 359.126935 339.649378 
L 414.126631 339.649378 
L 421.459924 336.174163 
L 423.293247 373.532727 
L 447.126449 373.532727 
L 234.460958 47.731292 
L 448.959772 373.532727 
L 461.793034 373.532727 
L 463.626358 342.255789 
L 469.126327 339.649378 
L 524.126023 339.649378 
L 531.459316 336.174163 
L 533.292639 373.532727 
L 553.459194 373.532727 
L 234.460958 47.731292 
L 555.292517 373.532727 
L 571.792426 373.532727 
L 573.625749 342.255789 
L 579.125719 339.649378 
L 634.125415 339.649378 
L 641.458708 336.174163 
L 643.292031 373.532727 
L 659.79194 373.532727 
L 234.460958 47.731292 
L 661.625263 373.532727 
L 681.791818 373.532727 
L 681.791818 373.532727 
" clip-path="url(#pc827afa4bd)" style="fill: none; stroke: #2ca02c; stroke-width: 1.5; stroke-linecap: square"/>
   </g>
   <g id="patch_3">
    <path d="M 106.22 390.04 
L 106.22 26.88 
" style="fill: none; stroke: #000000; stroke-width: 0.8; stroke-linejoin: miter; stroke-linecap: square"/>
   </g>
   <g id="patch_4">
    <path d="M 709.2 390.04 
L 709.2 26.88 
" style="fill: none; stroke: #000000; stroke-width: 0.8; stroke-linejoin: miter; stroke-linecap: square"/>
   </g>
   <g id="patch_5">
    <path d="M 106.22 390.04 
L 709.2 390.04 
" style="fill: none; stroke: #000000; stroke-width: 0.8; stroke-linejoin: miter; stroke-linecap: square"/>
   </g>
   <g id="patch_6">
    <path d="M 106.22 26.88 
L 709.2 26.88 
" style="fill: none; stroke: #000000; stroke-width: 0.8; stroke-linejoin: miter; stroke-linecap: square"/>
   </g>
   <g id="text_19">
    <!-- Transient Analysis of NeurX Hybrid System -->
    <g transform="translate(279.558437 20.88) scale(0.12 -0.12)">
     <defs>
      <path id="DejaVuSans-72" d="M 2631 2963 
Q 2534 3019 2420 3045 
Q 2306 3072 2169 3072 
Q 1681 3072 1420 2755 
Q 1159 2438 1159 1844 
L 1159 0 
L 581 0 
L 581 3500 
L 1159 3500 
L 1159 2956 
Q 1341 3275 1631 3429 
Q 1922 3584 2338 3584 
Q 2397 3584 2469 3576 
Q 2541 3569 2628 3553 
L 2631 2963 
z
" transform="scale(0.015625)"/>
      <path id="DejaVuSans-6e" d="M 3513 2113 
L 3513 0 
L 2938 0 
L 2938 2094 
Q 2938 2591 2744 2837 
Q 2550 3084 2163 3084 
Q 1697 3084 1428 2787 
Q 1159 2491 1159 1978 
L 1159 0 
L 581 0 
L 581 3500 
L 1159 3500 
L 1159 2956 
Q 1366 3272 1645 3428 
Q 1925 3584 2291 3584 
Q 2894 3584 3203 3211 
Q 3513 2838 3513 2113 
z
" transform="scale(0.015625)"/>
      <path id="DejaVuSans-41" d="M 2188 4044 
L 1331 1722 
L 3047 1722 
L 2188 4044 
z
M 1831 4666 
L 2547 4666 
L 4325 0 
L 3669 0 
L 3244 1197 
L 1141 1197 
L 716 0 
L 50 0 
L 1831 4666 
z
" transform="scale(0.015625)"/>
      <path id="DejaVuSans-79" d="M 2059 -325 
Q 1816 -950 1584 -1140 
Q 1353 -1331 966 -1331 
L 506 -1331 
L 506 -850 
L 844 -850 
Q 1081 -850 1212 -737 
Q 1344 -625 1503 -206 
L 1606 56 
L 191 3500 
L 800 3500 
L 1894 763 
L 2988 3500 
L 3597 3500 
L 2059 -325 
z
" transform="scale(0.015625)"/>
      <path id="DejaVuSans-66" d="M 2375 4863 
L 2375 4384 
L 1825 4384 
Q 1516 4384 1395 4259 
Q 1275 4134 1275 3809 
L 1275 3500 
L 2222 3500 
L 2222 3053 
L 1275 3053 
L 1275 0 
L 697 0 
L 697 3053 
L 147 3053 
L 147 3500 
L 697 3500 
L 697 3744 
Q 697 4328 969 4595 
Q 1241 4863 1831 4863 
L 2375 4863 
z
" transform="scale(0.015625)"/>
      <path id="DejaVuSans-4e" d="M 628 4666 
L 1478 4666 
L 3547 763 
L 3547 4666 
L 4159 4666 
L 4159 0 
L 3309 0 
L 1241 3903 
L 1241 0 
L 628 0 
L 628 4666 
z
" transform="scale(0.015625)"/>
      <path id="DejaVuSans-75" d="M 544 1381 
L 544 3500 
L 1119 3500 
L 1119 1403 
Q 1119 906 1312 657 
Q 1506 409 1894 409 
Q 2359 409 2629 706 
Q 2900 1003 2900 1516 
L 2900 3500 
L 3475 3500 
L 3475 0 
L 2900 0 
L 2900 538 
Q 2691 219 2414 64 
Q 2138 -91 1772 -91 
Q 1169 -91 856 284 
Q 544 659 544 1381 
z
M 1991 3584 
L 1991 3584 
z
" transform="scale(0.015625)"/>
      <path id="DejaVuSans-58" d="M 403 4666 
L 1081 4666 
L 2241 2931 
L 3406 4666 
L 4084 4666 
L 2584 2425 
L 4184 0 
L 3506 0 
L 2194 1984 
L 872 0 
L 191 0 
L 1856 2491 
L 403 4666 
z
" transform="scale(0.015625)"/>
      <path id="DejaVuSans-48" d="M 628 4666 
L 1259 4666 
L 1259 2753 
L 3553 2753 
L 3553 4666 
L 4184 4666 
L 4184 0 
L 3553 0 
L 3553 2222 
L 1259 2222 
L 1259 0 
L 628 0 
L 628 4666 
z
" transform="scale(0.015625)"/>
      <path id="DejaVuSans-62" d="M 3116 1747 
Q 3116 2381 2855 2742 
Q 2594 3103 2138 3103 
Q 1681 3103 1420 2742 
Q 1159 2381 1159 1747 
Q 1159 1113 1420 752 
Q 1681 391 2138 391 
Q 2594 391 2855 752 
Q 3116 1113 3116 1747 
z
M 1159 2969 
Q 1341 3281 1617 3432 
Q 1894 3584 2278 3584 
Q 2916 3584 3314 3078 
Q 3713 2572 3713 1747 
Q 3713 922 3314 415 
Q 2916 -91 2278 -91 
Q 1894 -91 1617 61 
Q 1341 213 1159 525 
L 1159 0 
L 581 0 
L 581 4863 
L 1159 4863 
L 1159 2969 
z
" transform="scale(0.015625)"/>
      <path id="DejaVuSans-64" d="M 2906 2969 
L 2906 4863 
L 3481 4863 
L 3481 0 
L 2906 0 
L 2906 525 
Q 2725 213 2448 61 
Q 2172 -91 1784 -91 
Q 1150 -91 751 415 
Q 353 922 353 1747 
Q 353 2572 751 3078 
Q 1150 3584 1784 3584 
Q 2172 3584 2448 3432 
Q 2725 3281 2906 2969 
z
M 947 1747 
Q 947 1113 1208 752 
Q 1469 391 1925 391 
Q 2381 391 2643 752 
Q 2906 1113 2906 1747 
Q 2906 2381 2643 2742 
Q 2381 3103 1925 3103 
Q 1469 3103 1208 2742 
Q 947 2381 947 1747 
z
" transform="scale(0.015625)"/>
      <path id="DejaVuSans-53" d="M 3425 4513 
L 3425 3897 
Q 3066 4069 2747 4153 
Q 2428 4238 2131 4238 
Q 1616 4238 1336 4038 
Q 1056 3838 1056 3469 
Q 1056 3159 1242 3001 
Q 1428 2844 1947 2747 
L 2328 2669 
Q 3034 2534 3370 2195 
Q 3706 1856 3706 1288 
Q 3706 609 3251 259 
Q 2797 -91 1919 -91 
Q 1588 -91 1214 -16 
Q 841 59 441 206 
L 441 856 
Q 825 641 1194 531 
Q 1563 422 1919 422 
Q 2459 422 2753 634 
Q 3047 847 3047 1241 
Q 3047 1584 2836 1778 
Q 2625 1972 2144 2069 
L 1759 2144 
Q 1053 2284 737 2584 
Q 422 2884 422 3419 
Q 422 4038 858 4394 
Q 1294 4750 2059 4750 
Q 2388 4750 2728 4690 
Q 3069 4631 3425 4513 
z
" transform="scale(0.015625)"/>
     </defs>
     <use xlink:href="#DejaVuSans-54"/>
     <use xlink:href="#DejaVuSans-72" x="46.333984"/>
     <use xlink:href="#DejaVuSans-61" x="87.447266"/>
     <use xlink:href="#DejaVuSans-6e" x="148.726562"/>
     <use xlink:href="#DejaVuSans-73" x="212.105469"/>
     <use xlink:href="#DejaVuSans-69" x="264.205078"/>
     <use xlink:href="#DejaVuSans-65" x="291.988281"/>
     <use xlink:href="#DejaVuSans-6e" x="353.511719"/>
     <use xlink:href="#DejaVuSans-74" x="416.890625"/>
     <use xlink:href="#DejaVuSans-20" x="456.099609"/>
     <use xlink:href="#DejaVuSans-41" x="487.886719"/>
     <use xlink:href="#DejaVuSans-6e" x="556.294922"/>
     <use xlink:href="#DejaVuSans-61" x="619.673828"/>
     <use xlink:href="#DejaVuSans-6c" x="680.953125"/>
     <use xlink:href="#DejaVuSans-79" x="708.736328"/>
     <use xlink:href="#DejaVuSans-73" x="767.916016"/>
     <use xlink:href="#DejaVuSans-69" x="820.015625"/>
     <use xlink:href="#DejaVuSans-73" x="847.798828"/>
     <use xlink:href="#DejaVuSans-20" x="899.898438"/>
     <use xlink:href="#DejaVuSans-6f" x="931.685547"/>
     <use xlink:href="#DejaVuSans-66" x="992.867188"/>
     <use xlink:href="#DejaVuSans-20" x="1028.072266"/>
     <use xlink:href="#DejaVuSans-4e" x="1059.859375"/>
     <use xlink:href="#DejaVuSans-65" x="1134.664062"/>
     <use xlink:href="#DejaVuSans-75" x="1196.1875"/>
     <use xlink:href="#DejaVuSans-72" x="1259.566406"/>
     <use xlink:href="#DejaVuSans-58" x="1300.679688"/>
     <use xlink:href="#DejaVuSans-20" x="1369.185547"/>
     <use xlink:href="#DejaVuSans-48" x="1400.972656"/>
     <use xlink:href="#DejaVuSans-79" x="1476.167969"/>
     <use xlink:href="#DejaVuSans-62" x="1535.347656"/>
     <use xlink:href="#DejaVuSans-72" x="1598.824219"/>
     <use xlink:href="#DejaVuSans-69" x="1639.9375"/>
     <use xlink:href="#DejaVuSans-64" x="1667.720703"/>
     <use xlink:href="#DejaVuSans-20" x="1731.197266"/>
     <use xlink:href="#DejaVuSans-53" x="1762.984375"/>
     <use xlink:href="#DejaVuSans-79" x="1826.460938"/>
     <use xlink:href="#DejaVuSans-73" x="1885.640625"/>
     <use xlink:href="#DejaVuSans-74" x="1937.740234"/>
     <use xlink:href="#DejaVuSans-65" x="1976.949219"/>
     <use xlink:href="#DejaVuSans-6d" x="2038.472656"/>
    </g>
   </g>
   <g id="legend_1">
    <g id="patch_7">
     <path d="M 658.339062 231.977188 
L 702.2 231.977188 
Q 704.2 231.977188 704.2 229.977188 
L 704.2 186.942813 
Q 704.2 184.942813 702.2 184.942813 
L 658.339062 184.942813 
Q 656.339062 184.942813 656.339062 186.942813 
L 656.339062 229.977188 
Q 656.339062 231.977188 658.339062 231.977188 
z
" style="fill: #ffffff; opacity: 0.8; stroke: #cccccc; stroke-linejoin: miter"/>
    </g>
    <g id="line2d_36">
     <path d="M 660.339062 193.04125 
L 670.339062 193.04125 
L 680.339062 193.04125 
" style="fill: none; stroke: #1f77b4; stroke-width: 1.5; stroke-linecap: square"/>
    </g>
    <g id="text_20">
     <!-- c1 -->
     <g transform="translate(688.339062 196.54125) scale(0.1 -0.1)">
      <defs>
       <path id="DejaVuSans-63" d="M 3122 3366 
L 3122 2828 
Q 2878 2963 2633 3030 
Q 2388 3097 2138 3097 
Q 1578 3097 1268 2742 
Q 959 2388 959 1747 
Q 959 1106 1268 751 
Q 1578 397 2138 397 
Q 2388 397 2633 464 
Q 2878 531 3122 666 
L 3122 134 
Q 2881 22 2623 -34 
Q 2366 -91 2075 -91 
Q 1284 -91 818 406 
Q 353 903 353 1747 
Q 353 2603 823 3093 
Q 1294 3584 2113 3584 
Q 2378 3584 2631 3529 
Q 2884 3475 3122 3366 
z
" transform="scale(0.015625)"/>
      </defs>
      <use xlink:href="#DejaVuSans-63"/>
      <use xlink:href="#DejaVuSans-31" x="54.980469"/>
     </g>
    </g>
    <g id="line2d_37">
     <path d="M 660.339062 207.719375 
L 670.339062 207.719375 
L 680.339062 207.719375 
" style="fill: none; stroke: #ff7f0e; stroke-width: 1.5; stroke-linecap: square"/>
    </g>
    <g id="text_21">
     <!-- c3 -->
     <g transform="translate(688.339062 211.219375) scale(0.1 -0.1)">
      <use xlink:href="#DejaVuSans-63"/>
      <use xlink:href="#DejaVuSans-33" x="54.980469"/>
     </g>
    </g>
    <g id="line2d_38">
     <path d="M 660.339062 222.3975 
L 670.339062 222.3975 
L 680.339062 222.3975 
" style="fill: none; stroke: #2ca02c; stroke-width: 1.5; stroke-linecap: square"/>
    </g>
    <g id="text_22">
     <!-- c4 -->
     <g transform="translate(688.339062 225.8975) scale(0.1 -0.1)">
      <use xlink:href="#DejaVuSans-63"/>
      <use xlink:href="#DejaVuSans-34" x="54.980469"/>
     </g>
    </g>
   </g>
  </g>
 </g>
 <defs>
  <clipPath id="pc827afa4bd">
   <rect x="106.22" y="26.88" width="602.98" height="363.16"/>
  </clipPath>
 </defs>
</svg>
